<?xml version="1.0" encoding="UTF-8" ?>
<!DOCTYPE svg PUBLIC "-//W3C//DTD SVG 1.1//EN" "http://www.w3.org/Graphics/SVG/1.1/DTD/svg11.dtd">
<svg width="120pt" height="120pt" viewBox="0 0 512 512" version="1.1" xmlns="http://www.w3.org/2000/svg">
<g id="#2a2a2afe">
<path fill="#2a2a2a" opacity="1.00" d=" M 131.39 21.61 C 213.26 20.95 295.18 21.52 377.07 21.33 C 385.71 20.75 393.81 28.21 393.61 36.93 C 393.69 182.64 393.62 328.36 393.65 474.07 C 394.25 482.71 386.78 490.81 378.07 490.63 C 297.03 490.72 215.98 490.64 134.93 490.67 C 126.30 491.24 118.18 483.79 118.39 475.07 C 118.30 329.36 118.38 183.64 118.35 37.93 C 117.86 30.22 123.70 22.71 131.39 21.61 M 131.45 25.75 C 125.91 26.84 122.07 32.41 122.41 37.94 C 122.42 183.31 122.42 328.68 122.41 474.05 C 121.86 480.93 128.02 487.16 134.92 486.59 C 215.64 486.59 296.36 486.59 377.08 486.59 C 383.98 487.15 390.13 480.94 389.59 474.05 C 389.58 328.69 389.58 183.31 389.59 37.94 C 390.20 30.58 383.25 24.43 376.04 25.38 C 294.52 25.67 212.94 24.93 131.45 25.75 Z" />
<path fill="#2a2a2a" opacity="1.00" d=" M 132.41 32.57 C 136.55 31.81 140.80 32.30 145.00 32.20 C 222.36 32.23 299.73 32.16 377.09 32.23 C 380.39 31.81 383.17 34.61 382.76 37.91 C 382.82 170.96 382.76 304.02 382.80 437.07 C 383.36 440.05 381.19 442.79 378.04 442.28 C 297.02 442.35 215.99 442.26 134.97 442.32 C 132.20 442.67 128.68 441.47 129.24 438.05 C 129.15 305.01 129.26 171.97 129.19 38.92 C 129.10 36.49 129.61 33.26 132.41 32.57 M 133.31 36.29 C 133.21 170.26 133.31 304.24 133.27 438.22 C 215.09 438.23 296.92 438.23 378.74 438.22 C 378.68 304.24 378.78 170.26 378.68 36.29 C 296.89 36.22 215.10 36.22 133.31 36.29 Z" />
<path fill="#2a2a2a" opacity="1.00" d=" M 238.91 49.88 C 239.92 48.97 240.93 48.07 241.96 47.17 C 244.29 49.63 246.48 52.21 248.66 54.79 C 251.26 52.34 252.99 47.83 257.00 47.66 C 259.46 51.91 253.58 55.04 251.62 58.33 C 253.70 61.63 261.01 66.33 255.44 69.69 C 253.10 67.20 250.90 64.58 248.75 61.92 C 245.99 64.27 242.68 72.15 239.13 67.12 C 240.80 63.82 243.45 61.17 245.74 58.30 C 243.39 55.56 241.09 52.77 238.91 49.88 Z" />
<path fill="#2a2a2a" opacity="1.00" d=" M 264.96 47.74 C 266.58 47.40 268.77 48.18 268.50 50.18 C 268.65 56.23 268.97 62.35 268.24 68.37 C 266.58 69.16 264.31 69.38 264.32 66.93 C 264.23 60.57 263.35 53.95 264.96 47.74 Z" />
<path fill="#2a2a2a" opacity="1.00" d=" M 181.12 60.18 C 181.52 60.36 182.33 60.71 182.74 60.89 C 183.64 64.41 186.28 66.67 189.67 67.70 C 189.67 68.11 189.68 68.92 189.68 69.32 C 186.31 70.38 183.65 72.61 182.76 76.13 C 182.35 76.32 181.53 76.69 181.11 76.87 C 179.94 72.98 176.91 70.54 173.39 68.82 C 176.26 66.18 180.10 64.42 181.12 60.18 Z" />
<path fill="#2a2a2a" opacity="1.00" d=" M 326.96 65.92 C 328.11 63.99 329.30 62.08 330.71 60.33 C 331.88 64.51 334.88 67.40 338.97 68.74 C 335.25 71.02 332.19 74.06 329.90 77.77 C 328.61 73.66 325.75 70.66 321.51 69.59 C 323.16 68.14 325.05 67.00 326.96 65.92 Z" />
<path fill="#2a2a2a" opacity="1.00" d=" M 233.06 103.90 C 238.83 84.03 272.67 83.85 279.43 103.12 C 277.00 106.87 272.61 108.63 269.72 111.95 C 269.30 129.65 269.66 147.38 269.57 165.09 C 282.36 166.24 295.39 168.86 306.57 175.45 C 312.67 179.18 319.39 182.63 326.79 181.86 C 325.87 177.06 326.74 170.83 332.15 169.20 C 337.95 166.83 344.71 172.46 343.53 178.58 C 342.23 186.67 334.51 191.52 327.23 193.67 C 337.47 219.53 347.41 245.52 357.65 271.39 C 358.31 273.20 359.10 275.21 358.29 277.12 C 354.45 289.11 343.11 297.72 330.87 299.68 C 316.00 302.44 299.31 295.52 292.10 281.94 C 290.52 278.71 288.40 274.90 290.20 271.32 C 300.58 245.59 310.91 219.83 321.24 194.07 C 310.53 192.38 300.99 186.77 290.41 184.58 C 283.59 182.97 276.53 183.02 269.56 183.04 C 269.48 252.69 269.67 322.34 269.47 391.99 C 267.01 401.33 261.70 409.73 258.15 418.72 C 256.79 418.68 255.44 418.66 254.09 418.66 C 250.50 409.74 245.32 401.35 242.83 392.06 C 242.57 322.40 242.80 252.72 242.72 183.05 C 235.40 183.00 227.98 182.97 220.84 184.83 C 210.64 187.13 201.37 192.46 190.99 194.04 C 200.74 218.31 210.42 242.61 220.26 266.84 C 221.45 270.10 223.73 273.59 222.20 277.14 C 217.13 292.72 199.81 301.97 183.95 300.03 C 170.73 298.80 157.98 289.96 153.92 277.04 C 153.17 275.22 153.88 273.32 154.52 271.60 C 164.75 245.64 174.80 219.62 184.98 193.64 C 177.51 191.51 169.62 186.35 168.64 178.00 C 167.77 171.20 176.38 166.04 181.93 170.12 C 186.10 172.53 185.97 177.70 185.36 181.86 C 192.75 182.64 199.46 179.25 205.56 175.52 C 216.79 168.88 229.88 166.32 242.72 165.14 C 242.71 147.36 242.74 129.59 242.71 111.82 C 239.31 109.43 235.66 107.19 233.06 103.90 M 246.77 183.06 C 246.75 251.71 246.79 320.37 246.75 389.03 C 247.00 395.99 251.28 401.93 254.03 408.11 C 254.31 333.11 254.09 258.10 254.14 183.09 C 251.68 183.07 249.23 183.06 246.77 183.06 M 258.18 183.08 C 258.23 258.22 258.10 333.36 258.25 408.50 C 260.65 402.36 264.80 396.69 265.47 390.03 C 265.47 321.04 265.49 252.04 265.46 183.05 C 263.03 183.06 260.60 183.07 258.18 183.08 M 326.47 202.77 C 326.31 226.02 326.43 249.28 326.41 272.53 C 335.54 272.63 344.68 272.71 353.81 272.87 C 344.70 249.50 335.58 226.14 326.47 202.77 M 158.48 272.86 C 167.58 272.71 176.69 272.63 185.80 272.53 C 185.76 249.41 185.90 226.30 185.73 203.19 C 176.46 226.34 167.52 249.62 158.48 272.86 M 190.00 203.04 C 189.72 226.17 189.93 249.30 189.89 272.44 C 199.24 272.34 208.59 272.19 217.93 272.12 C 208.61 249.10 199.64 225.92 190.00 203.04 M 294.34 272.09 C 303.67 272.22 313.01 272.33 322.35 272.44 C 322.22 249.40 322.59 226.36 322.16 203.33 C 312.48 226.08 303.62 249.17 294.34 272.09 Z" />
<path fill="#2a2a2a" opacity="1.00" d=" M 149.42 103.74 C 153.56 102.70 155.70 99.15 157.59 95.67 C 159.03 99.85 162.30 102.53 165.99 104.68 C 162.10 106.49 159.02 109.29 157.62 113.45 C 155.71 109.95 153.51 106.46 149.42 105.31 C 149.42 104.92 149.42 104.13 149.42 103.74 Z" />
<path fill="#2a2a2a" opacity="1.00" d=" M 354.38 95.66 C 356.28 99.16 358.44 102.70 362.59 103.74 C 362.59 104.14 362.58 104.94 362.58 105.34 C 358.98 106.41 356.42 108.99 355.35 112.58 C 354.95 112.57 354.15 112.57 353.75 112.56 C 352.77 108.55 349.40 106.48 346.01 104.69 C 349.69 102.54 352.97 99.86 354.38 95.66 Z" />
<path fill="#2a2a2a" opacity="1.00" d=" M 191.42 135.97 C 195.46 135.04 197.39 131.48 199.55 128.35 C 201.41 132.19 204.40 135.10 208.07 137.23 C 204.40 138.53 201.24 140.84 200.25 144.79 C 199.77 144.81 198.79 144.84 198.30 144.86 C 197.64 143.14 196.99 141.42 196.33 139.71 C 194.72 139.18 193.11 138.66 191.50 138.14 C 191.47 137.41 191.45 136.69 191.42 135.97 Z" />
<path fill="#2a2a2a" opacity="1.00" d=" M 303.92 137.23 C 307.59 135.10 310.59 132.19 312.46 128.34 C 314.59 131.49 316.54 135.03 320.58 135.97 C 320.55 136.69 320.52 137.42 320.50 138.14 C 318.88 138.66 317.28 139.18 315.67 139.71 C 315.01 141.42 314.35 143.14 313.69 144.85 C 313.21 144.84 312.23 144.81 311.75 144.80 C 310.76 140.84 307.60 138.52 303.92 137.23 Z" />
<path fill="#2a2a2a" opacity="1.00" d=" M 352.00 321.54 C 352.63 321.54 353.26 321.55 353.89 321.55 C 354.72 325.20 357.33 327.62 360.87 328.63 C 360.87 329.07 360.86 329.95 360.86 330.39 C 357.30 331.37 354.72 333.81 353.89 337.44 C 353.26 337.44 352.63 337.45 352.01 337.45 C 351.13 333.89 348.64 331.38 345.10 330.44 C 345.09 329.98 345.09 329.05 345.08 328.58 C 348.62 327.62 351.14 325.12 352.00 321.54 Z" />
<path fill="#2a2a2a" opacity="1.00" d=" M 148.72 330.11 C 152.49 328.03 155.28 324.98 157.66 321.46 C 159.40 325.28 162.37 328.01 166.02 329.99 C 162.64 331.79 159.24 333.83 158.28 337.84 C 157.80 337.85 156.84 337.86 156.35 337.87 C 155.69 336.26 155.03 334.65 154.36 333.04 C 152.45 332.12 150.51 331.25 148.72 330.11 Z" />
<path fill="#2a2a2a" opacity="1.00" d=" M 195.90 356.22 C 198.19 359.91 201.23 362.96 204.94 365.22 C 200.65 366.58 198.07 370.08 195.86 373.74 C 194.95 371.86 194.09 369.97 193.22 368.08 C 191.18 367.07 189.19 365.94 187.50 364.39 C 191.73 363.32 194.60 360.33 195.90 356.22 Z" />
<path fill="#2a2a2a" opacity="1.00" d=" M 308.23 363.84 C 312.26 362.90 314.19 359.32 316.21 356.12 C 317.63 360.36 320.94 363.09 324.72 365.17 C 320.51 366.48 317.58 369.52 316.21 373.68 C 314.21 370.25 312.02 366.74 307.88 365.71 C 307.97 365.24 308.14 364.31 308.23 363.84 Z" />
<path fill="#2a2a2a" opacity="1.00" d=" M 155.95 405.27 C 156.87 403.29 157.77 401.29 159.00 399.49 C 160.33 401.25 161.24 403.26 162.16 405.26 C 163.75 405.93 165.36 406.58 166.97 407.25 C 166.95 407.75 166.89 408.76 166.87 409.27 C 162.85 410.21 160.95 413.72 159.02 416.97 C 157.15 413.66 155.23 410.16 151.20 409.24 C 151.16 408.76 151.08 407.80 151.04 407.32 C 152.68 406.63 154.31 405.96 155.95 405.27 Z" />
<path fill="#2a2a2a" opacity="1.00" d=" M 349.89 405.25 C 351.03 403.63 351.03 399.90 353.61 400.22 C 354.60 401.80 355.25 403.56 356.00 405.27 C 357.65 405.96 359.30 406.63 360.95 407.32 C 360.92 407.80 360.84 408.76 360.80 409.24 C 356.77 410.16 354.85 413.65 352.98 416.96 C 351.04 413.72 349.14 410.21 345.14 409.27 C 345.11 408.77 345.04 407.76 345.01 407.26 C 346.63 406.59 348.26 405.93 349.89 405.25 Z" />
<path fill="#2a2a2a" opacity="1.00" d=" M 211.06 411.98 C 212.00 410.15 212.91 408.29 214.05 406.57 C 216.17 410.18 218.59 413.67 222.88 414.87 C 219.17 417.16 216.12 420.22 213.83 423.93 C 212.55 419.79 209.61 416.82 205.41 415.66 C 207.17 414.26 209.10 413.09 211.06 411.98 Z" />
<path fill="#2a2a2a" opacity="1.00" d=" M 296.74 407.27 C 297.14 407.27 297.95 407.29 298.35 407.29 C 299.40 410.68 301.64 413.33 305.18 414.21 C 305.34 414.63 305.67 415.47 305.83 415.89 C 301.77 417.08 299.18 420.22 297.76 424.09 C 295.81 420.47 293.32 417.13 289.22 415.87 C 289.38 415.46 289.69 414.64 289.85 414.22 C 293.39 413.33 295.67 410.67 296.74 407.27 Z" />
<path fill="#2a2a2a" opacity="1.00" d=" M 186.88 458.28 C 186.74 452.40 194.49 453.77 197.95 454.99 C 199.34 461.92 200.23 473.50 191.04 475.35 C 184.68 477.81 175.36 466.86 183.18 463.48 C 184.15 465.60 184.81 467.92 186.21 469.84 C 188.47 472.06 192.95 470.93 193.71 467.80 C 194.31 464.84 194.10 461.79 194.17 458.80 C 191.73 458.67 189.30 458.52 186.88 458.28 Z" />
<path fill="#2a2a2a" opacity="1.00" d=" M 205.96 456.96 C 205.52 454.30 208.47 454.44 210.23 454.21 C 210.57 458.82 209.86 463.54 210.82 468.10 C 212.03 472.11 218.66 471.81 219.55 467.76 C 220.11 463.14 219.69 458.44 220.61 453.86 C 221.83 454.19 223.06 454.53 224.29 454.88 C 224.32 459.55 224.85 464.29 223.97 468.90 C 222.44 474.94 214.17 477.66 209.43 473.52 C 204.46 469.60 205.88 462.48 205.96 456.96 Z" />
<path fill="#2a2a2a" opacity="1.00" d=" M 234.62 454.69 C 238.89 453.85 243.37 453.98 247.68 454.50 C 249.69 454.83 249.49 458.16 247.57 458.41 C 243.44 458.99 239.25 458.58 235.10 458.77 C 234.63 465.87 244.25 460.15 247.37 464.63 C 251.38 468.67 247.76 476.23 242.03 475.49 C 238.28 475.04 231.94 477.36 230.33 472.89 C 233.57 467.89 244.16 474.90 244.77 467.43 C 241.13 466.97 237.22 467.62 233.77 466.18 C 229.19 463.82 229.80 456.37 234.62 454.69 Z" />
<path fill="#2a2a2a" opacity="1.00" d=" M 253.88 455.14 C 258.51 453.22 264.06 454.49 269.05 454.27 C 271.36 453.75 273.33 456.58 271.25 458.19 C 269.25 458.74 267.16 458.71 265.11 458.90 C 264.99 464.16 265.70 469.53 264.61 474.72 C 263.52 475.77 262.36 475.81 261.14 474.83 C 260.04 469.63 260.79 464.25 260.66 458.98 C 257.98 458.35 252.18 459.57 253.88 455.14 Z" />
<path fill="#2a2a2a" opacity="1.00" d=" M 277.88 454.56 C 279.30 454.54 280.71 454.54 282.13 454.56 C 281.53 461.90 284.38 470.29 279.99 476.78 C 275.68 470.26 278.50 461.90 277.88 454.56 Z" />
<path fill="#2a2a2a" opacity="1.00" d=" M 292.46 456.52 C 297.31 452.33 304.93 454.14 308.33 459.30 C 304.37 463.23 299.82 456.36 295.69 459.70 C 291.73 462.09 292.29 468.69 296.57 470.45 C 299.69 472.02 302.77 469.64 305.47 468.32 C 306.29 469.27 307.11 470.24 307.93 471.21 C 304.44 475.03 298.61 477.02 293.90 474.16 C 287.42 470.85 286.57 460.83 292.46 456.52 Z" />
<path fill="#2a2a2a" opacity="1.00" d=" M 313.68 454.68 C 319.30 453.83 325.10 453.96 330.75 454.53 C 331.91 455.71 332.12 457.47 330.52 458.38 C 326.29 459.03 321.99 458.59 317.73 458.66 C 317.69 459.62 317.60 461.56 317.56 462.53 C 321.09 462.57 324.61 462.59 328.14 462.69 C 328.49 463.92 328.85 465.16 329.21 466.40 C 325.40 467.08 321.51 467.21 317.65 467.19 C 317.65 468.47 317.66 469.75 317.67 471.04 C 322.31 471.98 331.82 467.96 331.80 475.25 C 325.72 475.65 319.61 475.57 313.52 475.35 C 313.20 468.48 312.64 461.50 313.68 454.68 Z" />
</g>
</svg>
