<?xml version="1.0" encoding="UTF-8" ?>
<!DOCTYPE svg PUBLIC "-//W3C//DTD SVG 1.1//EN" "http://www.w3.org/Graphics/SVG/1.1/DTD/svg11.dtd">
<svg width="120pt" height="120pt" viewBox="0 0 512 512" version="1.1" xmlns="http://www.w3.org/2000/svg">
<g id="#2a2a2afd">
<path fill="#2a2a2a" opacity="1.00" d=" M 132.34 21.49 C 213.56 21.09 294.82 21.47 376.05 21.30 C 381.73 20.98 387.65 23.28 390.86 28.13 C 394.43 33.00 393.59 39.33 393.67 45.00 C 393.60 188.32 393.70 331.64 393.62 474.95 C 393.83 483.35 386.35 490.83 377.95 490.64 C 296.96 490.72 215.96 490.65 134.97 490.68 C 127.77 491.04 120.62 486.11 118.92 479.02 C 117.87 474.09 118.47 469.00 118.35 464.00 C 118.35 321.99 118.36 179.99 118.34 37.98 C 117.82 29.92 124.20 22.11 132.34 21.49 M 131.45 25.77 C 125.88 26.83 122.09 32.44 122.41 37.97 C 122.42 183.32 122.42 328.68 122.41 474.03 C 121.86 480.93 128.00 487.14 134.92 486.59 C 215.64 486.59 296.36 486.59 377.08 486.58 C 384.00 487.14 390.13 480.92 389.59 474.02 C 389.58 328.68 389.58 183.32 389.59 37.97 C 390.13 31.08 384.00 24.85 377.08 25.41 C 299.72 25.40 222.36 25.42 145.00 25.41 C 140.49 25.48 135.93 25.05 131.45 25.77 Z" />
<path fill="#2a2a2a" opacity="1.00" d=" M 132.42 32.58 C 136.89 31.76 141.48 32.31 146.00 32.19 C 222.70 32.20 299.40 32.22 376.09 32.18 C 379.64 31.63 383.27 34.06 382.75 37.93 C 382.84 170.64 382.72 303.36 382.83 436.08 C 383.33 439.19 381.83 442.88 378.08 442.27 C 297.38 442.38 216.66 442.22 135.96 442.35 C 133.02 442.60 128.64 442.02 129.24 438.03 C 129.14 304.99 129.25 171.95 129.19 38.91 C 129.15 36.49 129.60 33.23 132.42 32.58 M 133.31 36.29 C 133.20 111.65 133.30 187.00 133.26 262.36 C 141.31 262.38 149.37 262.37 157.42 262.37 C 157.45 239.66 157.48 216.94 157.40 194.23 C 154.26 192.75 151.14 191.25 148.08 189.64 C 151.44 173.97 156.25 158.62 159.43 142.92 C 159.88 121.49 159.34 100.04 159.69 78.60 C 224.01 76.58 288.42 76.89 352.73 78.49 C 354.91 78.68 354.40 81.39 354.57 82.91 C 354.51 98.27 354.54 113.64 354.53 129.00 C 353.07 149.91 362.48 169.37 366.03 189.65 C 362.97 191.26 359.85 192.76 356.73 194.23 C 356.68 216.94 356.71 239.64 356.71 262.35 C 364.05 262.39 371.39 262.37 378.72 262.36 C 378.69 187.00 378.78 111.65 378.68 36.29 C 296.89 36.22 215.10 36.22 133.31 36.29 M 163.67 82.35 C 163.49 102.82 163.94 123.31 163.46 143.77 C 160.40 158.48 156.03 172.90 152.71 187.56 C 154.24 188.26 155.76 188.96 157.29 189.67 C 157.41 187.64 157.53 185.61 157.67 183.58 C 158.84 183.50 160.01 183.42 161.19 183.34 C 161.56 188.20 161.53 193.08 161.50 197.95 C 165.08 197.94 168.66 197.93 172.23 197.92 C 168.65 186.11 166.42 173.95 163.74 161.91 C 164.90 161.49 166.06 161.06 167.22 160.64 C 169.92 169.88 171.56 179.38 173.86 188.71 C 176.70 187.12 179.53 185.52 182.37 183.92 C 177.64 170.20 171.58 156.89 167.61 142.94 C 175.52 141.35 183.78 141.94 191.55 139.48 C 220.73 132.13 242.94 108.13 254.72 81.25 C 224.36 81.20 194.02 82.01 163.67 82.35 M 261.21 81.37 C 271.99 107.92 293.30 131.75 321.71 139.26 C 329.84 141.69 338.36 141.80 346.73 142.69 C 342.39 156.65 336.63 170.13 331.76 183.91 C 334.59 185.51 337.43 187.11 340.27 188.72 C 342.47 179.47 344.22 170.12 346.76 160.95 C 347.61 161.10 349.31 161.39 350.16 161.54 C 348.07 173.78 345.34 185.96 341.91 197.91 C 345.48 197.93 349.05 197.94 352.62 197.95 C 352.65 191.33 352.45 184.71 352.87 178.11 C 358.89 178.59 356.11 185.65 356.74 189.67 C 358.30 188.98 359.87 188.29 361.44 187.61 C 358.09 172.93 353.73 158.48 350.65 143.75 C 350.16 123.29 350.65 102.80 350.43 82.33 C 320.69 82.11 290.95 81.57 261.21 81.37 M 245.75 105.42 C 232.96 123.63 214.22 137.82 192.57 143.59 C 192.66 183.18 192.58 222.78 192.62 262.37 C 194.57 262.37 196.53 262.36 198.49 262.36 C 199.62 250.63 200.95 238.92 202.56 227.25 C 200.75 226.93 198.94 226.60 197.14 226.26 C 198.34 222.95 199.73 219.60 199.41 215.99 C 198.79 204.18 208.94 192.38 221.03 192.50 C 225.07 192.59 229.12 192.76 233.13 192.10 C 233.73 193.30 234.33 194.49 234.93 195.69 C 239.67 193.24 242.70 188.66 242.51 183.24 C 235.84 182.50 228.04 183.15 222.72 178.30 C 218.78 174.18 221.12 168.14 222.49 163.42 C 225.34 155.60 224.13 146.97 227.11 139.19 C 229.53 132.17 234.67 125.50 242.07 123.41 C 244.41 124.26 245.31 126.53 242.44 127.33 C 232.20 131.92 228.88 143.78 228.57 154.09 C 228.61 161.17 223.75 167.72 225.07 174.73 C 229.41 179.43 236.72 178.44 242.53 178.98 C 234.90 169.55 235.35 157.19 235.28 145.76 C 242.95 143.38 250.32 139.87 256.25 134.34 C 262.02 139.81 269.13 143.48 276.71 145.76 C 276.94 157.19 276.37 168.80 270.45 178.90 C 276.18 178.65 282.70 179.22 287.56 175.62 C 290.10 172.58 287.85 168.34 287.11 164.99 C 283.63 155.74 285.64 145.16 280.54 136.41 C 278.10 131.40 273.20 128.46 268.45 125.97 C 269.30 125.11 270.11 124.21 271.06 123.46 C 278.72 125.31 283.93 132.34 286.35 139.47 C 289.19 147.17 288.08 155.64 290.85 163.35 C 292.24 168.14 294.61 174.36 290.50 178.47 C 285.06 183.13 277.33 182.53 270.65 183.24 C 270.49 188.03 272.84 192.21 276.62 195.03 C 277.36 194.06 278.11 193.08 278.86 192.11 C 285.51 193.37 292.63 191.09 298.93 194.20 C 307.03 198.15 312.84 206.93 312.65 216.04 C 312.59 219.59 313.58 223.00 314.47 226.41 C 312.86 226.69 311.26 226.97 309.65 227.26 C 311.27 238.93 312.57 250.65 313.74 262.38 C 316.10 262.37 318.46 262.37 320.82 262.36 C 320.82 222.68 320.82 183.00 320.81 143.32 C 299.72 137.60 281.79 123.28 269.57 105.40 C 261.63 105.38 253.69 105.36 245.75 105.42 M 239.02 148.86 C 239.47 150.75 239.92 152.66 240.45 154.54 C 242.24 147.83 255.33 148.61 253.99 155.57 C 249.14 156.04 244.17 156.00 239.40 154.88 C 239.60 162.51 240.51 171.04 246.50 176.50 C 252.28 182.23 262.81 181.09 267.39 174.41 C 273.24 167.15 272.17 157.38 272.61 148.68 C 266.70 146.65 261.12 143.74 256.22 139.84 C 251.05 143.82 245.15 146.67 239.02 148.86 M 172.71 146.32 C 177.07 157.85 181.20 169.47 185.72 180.93 C 185.90 168.96 185.76 156.98 185.80 145.00 C 181.44 145.53 177.08 145.96 172.71 146.32 M 327.63 144.93 C 327.69 157.42 327.41 169.92 327.79 182.41 C 332.58 170.47 336.86 158.33 341.41 146.30 C 336.80 145.94 332.21 145.49 327.63 144.93 M 246.39 181.85 C 246.37 186.13 245.62 190.36 243.92 194.30 C 251.59 198.13 261.32 198.43 268.88 194.17 C 267.38 189.96 266.69 185.52 266.74 181.06 C 260.57 184.90 252.84 185.19 246.39 181.85 M 175.05 192.76 C 175.90 195.71 176.68 198.67 177.30 201.68 C 172.96 202.03 168.60 202.09 164.24 202.09 C 164.24 222.18 164.24 242.27 164.24 262.36 C 171.43 262.37 178.61 262.38 185.80 262.36 C 185.78 237.13 185.83 211.90 185.77 186.66 C 182.18 188.67 178.61 190.70 175.05 192.76 M 327.64 186.24 C 327.59 211.61 327.61 236.99 327.63 262.36 C 335.05 262.38 342.48 262.37 349.91 262.36 C 349.94 242.28 349.94 222.20 349.91 202.12 C 345.46 202.12 341.00 202.06 336.59 201.46 C 337.37 198.55 338.23 195.66 339.12 192.78 C 335.30 190.59 331.47 188.42 327.64 186.24 M 210.52 200.52 C 203.73 205.82 202.60 214.82 203.77 222.82 C 216.82 220.51 226.20 209.42 229.83 197.18 C 223.31 196.21 215.74 195.70 210.52 200.52 M 238.19 198.79 C 245.81 204.80 256.27 205.34 265.38 203.16 C 268.87 202.11 273.08 200.63 274.15 196.70 C 263.76 201.70 250.48 203.86 240.46 196.71 C 239.70 197.40 238.94 198.09 238.19 198.79 M 281.91 196.93 C 285.43 209.46 295.16 220.67 308.44 222.93 C 309.34 215.12 308.22 206.48 301.90 201.09 C 296.70 195.65 288.73 196.27 281.91 196.93 M 231.02 226.35 C 229.82 232.08 225.07 236.85 225.96 243.00 C 226.63 250.36 227.89 257.65 228.81 264.99 C 237.06 262.07 245.60 260.02 254.32 259.18 C 254.28 242.27 254.33 225.37 254.29 208.46 C 246.18 208.22 238.47 205.04 232.88 199.10 C 232.09 208.17 233.79 217.48 231.02 226.35 M 258.37 208.46 C 258.41 225.40 258.37 242.34 258.40 259.28 C 266.96 260.04 275.32 262.18 283.44 264.96 C 284.31 257.29 285.80 249.68 286.31 241.97 C 286.80 237.20 283.29 233.51 281.79 229.28 C 277.91 219.73 278.69 209.27 279.16 199.22 C 273.75 205.01 266.21 208.00 258.37 208.46 M 219.60 230.68 C 215.61 233.85 210.30 234.35 205.52 235.55 C 205.31 237.58 205.10 239.62 204.90 241.65 C 211.01 240.05 218.01 239.33 222.78 234.81 C 227.93 227.41 228.83 217.95 228.69 209.18 C 223.20 215.26 225.24 224.71 219.60 230.68 M 282.81 209.01 C 282.82 217.85 283.83 227.43 289.33 234.70 C 294.13 239.32 301.21 240.01 307.37 241.68 C 307.13 239.62 306.89 237.57 306.65 235.52 C 301.80 234.35 296.44 233.78 292.43 230.55 C 286.73 224.53 288.97 214.82 282.81 209.01 M 206.72 226.38 C 206.55 228.02 206.38 229.66 206.22 231.31 C 213.19 230.71 219.59 227.12 220.53 219.62 C 216.20 222.40 211.62 224.78 206.72 226.38 M 291.62 219.93 C 292.60 227.34 299.21 230.59 305.95 231.28 C 305.80 229.67 305.66 228.08 305.52 226.48 C 300.59 224.96 295.99 222.64 291.62 219.93 M 204.40 245.87 C 204.13 247.89 203.86 249.91 203.60 251.93 C 209.69 250.98 215.71 249.61 221.62 247.87 C 221.71 245.50 221.79 243.12 221.87 240.75 C 216.27 243.14 210.38 244.75 204.40 245.87 M 290.37 240.75 C 290.45 243.14 290.54 245.52 290.63 247.91 C 296.53 249.61 302.52 250.94 308.58 251.94 C 308.35 249.92 308.12 247.90 307.88 245.89 C 301.89 244.77 295.99 243.14 290.37 240.75 M 290.80 252.23 C 290.94 254.03 291.09 255.84 291.24 257.65 C 297.14 259.74 303.29 261.03 309.50 261.80 C 309.35 259.90 309.21 258.01 309.06 256.12 C 302.91 255.15 296.81 253.88 290.80 252.23 M 203.18 256.11 C 203.00 258.00 202.82 259.90 202.66 261.80 C 209.19 259.79 221.77 261.87 221.75 252.26 C 215.60 253.76 209.43 255.18 203.18 256.11 M 202.30 265.82 C 202.21 267.74 202.12 269.66 202.03 271.58 C 208.24 271.02 214.35 269.71 220.26 267.74 C 220.42 265.86 220.57 263.98 220.73 262.10 C 214.73 263.96 208.57 265.30 202.30 265.82 M 291.48 262.11 C 291.66 263.99 291.85 265.89 292.05 267.78 C 297.96 269.71 304.07 271.00 310.26 271.60 C 310.15 269.67 310.04 267.75 309.93 265.83 C 303.66 265.30 297.49 263.95 291.48 262.11 M 229.13 269.18 C 228.89 270.03 228.41 271.73 228.17 272.58 C 245.74 264.46 266.31 264.66 284.14 271.88 C 283.74 270.97 283.35 270.05 282.97 269.14 C 273.94 266.15 264.64 263.22 255.02 263.42 C 246.12 263.71 237.51 266.36 229.13 269.18 M 133.27 266.44 C 133.27 268.92 133.26 271.41 133.26 273.89 C 137.68 274.71 145.95 271.27 146.70 277.64 C 142.23 277.96 137.76 277.93 133.29 277.94 C 133.27 280.43 133.27 282.93 133.26 285.43 C 137.59 285.41 141.92 285.42 146.25 285.62 C 146.25 286.55 146.23 288.41 146.22 289.34 C 141.91 289.52 137.59 289.53 133.27 289.52 C 133.27 291.99 133.26 294.45 133.26 296.92 C 137.57 296.93 141.87 296.97 146.17 297.19 C 146.18 298.39 146.18 299.59 146.18 300.79 C 141.88 301.02 137.57 301.08 133.26 301.09 C 133.27 303.56 133.27 306.03 133.27 308.49 C 137.59 308.48 141.91 308.49 146.23 308.66 C 146.24 309.59 146.24 311.45 146.24 312.38 C 141.92 312.59 137.59 312.60 133.26 312.59 C 133.27 315.05 133.27 317.51 133.27 319.97 C 137.48 320.68 143.95 318.14 146.55 321.99 C 144.18 326.08 137.46 323.45 133.26 324.12 C 133.27 326.58 133.27 329.05 133.27 331.52 C 137.10 331.53 140.94 331.55 144.78 331.71 C 144.80 332.64 144.83 334.49 144.85 335.41 C 140.99 335.60 137.14 335.63 133.28 335.64 C 133.27 338.01 133.25 340.37 133.23 342.74 C 135.75 343.33 139.34 342.33 140.84 344.99 C 139.66 347.99 135.76 346.86 133.22 347.49 C 133.24 349.79 133.26 352.10 133.26 354.41 C 134.84 354.60 136.42 354.80 138.01 355.01 C 138.09 355.80 138.25 357.36 138.33 358.14 C 136.64 358.45 134.95 358.74 133.26 359.04 C 133.25 371.38 133.31 383.73 133.21 396.08 C 134.58 387.85 139.30 380.86 141.91 373.10 C 144.93 357.20 144.45 338.47 157.37 326.66 C 157.53 306.60 157.39 286.53 157.45 266.47 C 149.39 266.42 141.33 266.45 133.27 266.44 M 164.25 266.43 C 164.24 271.21 164.24 275.98 164.24 280.76 C 166.76 280.77 169.28 280.78 171.80 280.79 C 174.72 275.66 179.94 272.62 185.82 272.36 C 185.80 270.39 185.80 268.41 185.79 266.44 C 178.61 266.45 171.43 266.45 164.25 266.43 M 192.60 266.53 C 192.59 268.81 192.59 271.10 192.58 273.39 C 194.27 273.97 195.97 274.54 197.67 275.12 C 197.79 272.21 197.90 269.30 198.00 266.38 C 196.20 266.43 194.40 266.48 192.60 266.53 M 314.09 266.43 C 314.25 269.31 314.40 272.18 314.55 275.06 C 316.64 274.44 318.73 273.82 320.83 273.22 C 320.82 270.95 320.81 268.69 320.81 266.44 C 318.56 266.44 316.32 266.43 314.09 266.43 M 327.68 266.41 C 327.66 268.40 327.66 270.39 327.67 272.39 C 333.08 272.96 337.61 276.11 340.33 280.75 C 343.52 280.76 346.71 280.77 349.90 280.78 C 349.93 276.00 349.93 271.22 349.91 266.44 C 342.50 266.45 335.09 266.47 327.68 266.41 M 356.73 266.44 C 356.69 285.99 356.71 305.55 356.70 325.10 C 356.50 329.72 360.71 332.66 362.44 336.60 C 368.05 348.17 368.04 361.37 370.60 373.75 C 373.04 380.66 377.13 386.93 378.77 394.17 C 378.70 382.38 378.74 370.59 378.73 358.81 C 376.66 358.69 374.59 358.57 372.53 358.42 C 372.46 357.30 372.39 356.17 372.33 355.05 C 374.46 354.81 376.59 354.61 378.73 354.43 C 378.73 352.04 378.74 349.65 378.75 347.26 C 376.18 347.21 373.62 347.16 371.06 347.08 C 370.80 346.54 370.29 345.46 370.03 344.92 C 370.34 344.49 370.98 343.64 371.29 343.21 C 373.76 343.15 376.24 343.10 378.72 343.05 C 378.72 340.58 378.72 338.12 378.73 335.66 C 374.95 335.64 371.17 335.59 367.41 335.37 C 367.41 334.47 367.43 332.67 367.44 331.77 C 371.19 331.57 374.96 331.52 378.72 331.50 C 378.72 329.05 378.72 326.59 378.73 324.14 C 374.62 324.17 370.52 324.15 366.42 323.95 C 366.25 323.08 365.89 321.33 365.72 320.45 C 370.04 320.00 374.39 319.95 378.73 319.93 C 378.72 317.47 378.72 315.02 378.72 312.57 C 374.53 312.57 370.35 312.56 366.17 312.34 C 366.17 311.42 366.18 309.59 366.19 308.68 C 370.36 308.47 374.54 308.45 378.72 308.46 C 378.72 306.00 378.72 303.55 378.73 301.10 C 374.55 301.08 370.37 301.01 366.19 300.80 C 366.19 299.59 366.19 298.39 366.20 297.19 C 370.37 296.98 374.55 296.93 378.73 296.92 C 378.72 294.45 378.72 291.99 378.72 289.53 C 374.54 289.53 370.37 289.52 366.20 289.32 C 366.19 288.40 366.17 286.57 366.16 285.65 C 370.34 285.42 374.54 285.41 378.73 285.42 C 378.72 282.93 378.71 280.43 378.70 277.95 C 374.54 277.92 370.38 277.92 366.22 277.76 C 366.20 276.55 366.18 275.35 366.17 274.15 C 370.35 273.89 374.54 273.85 378.73 273.87 C 378.72 271.39 378.72 268.91 378.72 266.44 C 371.38 266.45 364.05 266.45 356.73 266.44 M 227.52 277.55 C 227.28 278.61 227.04 279.66 226.81 280.73 C 246.52 280.70 266.24 280.96 285.95 280.59 C 284.97 278.85 284.42 276.52 282.30 275.81 C 264.97 268.18 244.35 268.82 227.52 277.55 M 201.16 275.78 C 202.91 277.43 204.65 279.08 206.37 280.77 C 210.28 280.76 214.18 280.76 218.09 280.75 C 218.71 277.93 219.27 275.09 219.81 272.26 C 213.72 274.02 207.48 275.20 201.16 275.78 M 292.43 272.26 C 292.95 275.08 293.49 277.91 294.06 280.72 C 297.98 280.76 301.91 280.77 305.84 280.80 C 307.59 279.10 309.37 277.44 311.16 275.80 C 304.81 275.23 298.55 274.01 292.43 272.26 M 178.40 278.43 C 173.37 281.78 174.03 288.49 174.76 293.68 C 175.56 292.00 176.30 290.30 177.05 288.60 C 177.56 288.53 178.59 288.41 179.10 288.34 C 179.41 291.20 179.71 294.07 180.22 296.91 C 180.98 294.43 181.55 291.91 182.08 289.37 C 182.71 289.40 183.96 289.44 184.59 289.46 C 184.73 291.93 184.84 294.39 184.96 296.86 C 185.38 296.86 186.23 296.85 186.65 296.84 C 186.82 294.29 187.00 291.73 187.23 289.19 C 187.87 289.22 189.16 289.28 189.81 289.31 C 190.18 292.25 190.51 295.23 191.71 297.97 C 192.66 293.27 191.92 288.41 192.86 283.73 C 193.78 280.59 197.74 281.01 200.25 280.18 C 193.33 278.08 185.25 274.07 178.40 278.43 M 311.89 280.21 C 314.39 281.03 318.28 280.57 319.31 283.61 C 320.26 287.94 319.69 292.42 319.86 296.82 C 320.30 296.84 321.18 296.87 321.62 296.88 C 321.79 294.33 321.97 291.78 322.19 289.23 C 322.80 289.24 324.03 289.24 324.64 289.24 C 325.06 292.12 325.48 295.00 326.28 297.80 C 327.31 294.70 326.37 290.19 330.00 288.63 C 330.50 291.29 330.94 293.97 331.48 296.63 C 332.42 293.54 333.16 290.40 334.16 287.33 C 335.18 289.21 336.11 291.15 337.05 293.09 C 337.03 288.00 337.69 281.44 332.69 278.31 C 326.12 274.16 318.49 278.30 311.89 280.21 M 164.28 284.79 C 164.25 285.97 164.22 287.15 164.19 288.33 C 166.48 288.33 168.76 288.33 171.06 288.32 C 171.01 287.14 170.96 285.97 170.91 284.81 C 168.70 284.80 166.49 284.80 164.28 284.79 M 196.55 284.83 C 196.53 285.71 196.48 287.47 196.46 288.34 C 236.23 288.35 276.00 288.36 315.78 288.34 C 315.75 287.47 315.69 285.73 315.66 284.86 C 275.96 284.77 236.26 284.82 196.55 284.83 M 341.21 284.81 C 341.22 285.69 341.25 287.46 341.26 288.34 C 344.15 288.34 347.04 288.34 349.94 288.34 C 349.93 287.46 349.92 285.70 349.91 284.82 C 347.01 284.81 344.11 284.81 341.21 284.81 M 164.25 292.38 C 164.23 302.26 164.24 312.14 164.24 322.03 C 171.68 318.67 179.82 316.99 187.98 317.34 C 199.85 317.69 212.40 317.37 223.30 322.81 C 230.93 326.59 235.04 334.63 237.40 342.44 C 242.46 358.97 245.82 376.50 243.34 393.79 C 242.89 396.47 243.62 399.11 244.54 401.61 C 248.80 413.30 250.38 425.80 250.67 438.19 C 254.29 438.21 257.91 438.21 261.54 438.22 C 261.89 426.04 263.33 413.75 267.48 402.23 C 268.55 399.31 269.56 396.24 268.93 393.10 C 266.68 376.37 269.83 359.45 274.63 343.44 C 276.88 336.05 280.22 328.29 287.02 324.00 C 297.74 317.44 310.88 317.78 323.01 317.36 C 332.31 316.85 341.67 318.70 349.94 323.01 C 349.90 312.80 349.96 302.60 349.90 292.39 C 347.16 292.41 344.42 292.42 341.68 292.45 C 335.71 298.61 326.77 302.04 318.27 299.84 C 315.53 298.56 316.12 294.85 315.40 292.38 C 275.85 292.44 236.31 292.42 196.76 292.39 C 196.14 294.75 196.57 297.88 194.50 299.55 C 185.91 302.35 176.60 298.66 170.47 292.44 C 168.39 292.42 166.32 292.40 164.25 292.38 M 184.62 321.35 C 183.48 328.88 183.37 336.51 183.40 344.11 C 184.86 344.13 186.32 344.15 187.78 344.17 C 189.06 336.44 191.15 328.87 193.87 321.53 C 190.79 321.48 187.70 321.41 184.62 321.35 M 318.29 321.53 C 321.04 328.84 323.28 336.36 324.58 344.07 C 326.06 344.11 327.54 344.15 329.03 344.20 C 329.40 336.57 329.27 328.90 328.06 321.35 C 324.80 321.41 321.54 321.48 318.29 321.53 M 170.97 323.47 C 173.01 330.36 174.02 337.49 174.17 344.67 C 175.87 344.53 177.57 344.40 179.28 344.27 C 179.31 336.64 179.42 328.98 180.43 321.40 C 177.27 322.03 174.11 322.71 170.97 323.47 M 198.19 321.65 C 195.43 329.03 193.11 336.61 191.94 344.42 C 193.68 344.60 195.42 344.78 197.17 344.97 C 199.73 336.95 203.41 329.30 208.39 322.50 C 204.99 322.19 201.59 321.89 198.19 321.65 M 303.91 322.50 C 308.99 329.30 312.59 337.05 315.28 345.07 C 317.03 344.82 318.79 344.58 320.55 344.34 C 319.12 336.57 316.83 329.00 313.96 321.65 C 310.61 321.90 307.26 322.19 303.91 322.50 M 332.27 321.45 C 333.29 329.02 333.40 336.67 333.17 344.30 C 334.84 344.42 336.50 344.55 338.17 344.69 C 338.35 337.54 339.74 330.47 342.37 323.82 C 339.03 322.92 335.66 322.13 332.27 321.45 M 201.11 345.90 C 203.45 346.68 205.79 347.46 208.13 348.26 C 211.34 339.80 217.75 332.60 226.59 329.92 C 222.61 326.81 218.01 324.64 213.15 323.30 C 207.59 329.90 203.81 337.75 201.11 345.90 M 285.74 329.91 C 294.56 332.61 301.01 339.79 304.19 348.26 C 306.54 347.46 308.89 346.67 311.24 345.89 C 308.48 337.75 304.76 329.83 299.13 323.27 C 294.31 324.68 289.73 326.84 285.74 329.91 M 160.35 329.36 C 163.75 334.29 165.43 340.07 166.45 345.91 C 167.35 345.71 169.14 345.31 170.04 345.11 C 169.99 338.32 169.12 331.55 167.12 325.04 C 164.84 326.45 162.59 327.89 160.35 329.36 M 346.10 325.53 C 343.61 331.78 342.40 338.44 342.28 345.16 C 343.49 345.37 344.71 345.59 345.93 345.81 C 346.92 340.02 348.60 334.29 352.00 329.43 C 350.05 328.11 348.08 326.80 346.10 325.53 M 157.46 332.34 C 155.68 334.86 154.03 337.47 152.44 340.13 C 155.85 343.19 159.18 346.34 162.54 349.45 C 162.04 343.47 160.75 337.44 157.46 332.34 M 349.83 349.36 C 353.21 346.33 356.53 343.22 359.90 340.18 C 358.31 337.49 356.66 334.84 354.88 332.28 C 351.63 337.40 350.32 343.39 349.83 349.36 M 211.19 352.78 C 217.92 347.97 225.00 343.69 232.57 340.33 C 231.51 338.11 230.44 335.90 229.37 333.70 C 219.81 335.32 213.17 343.66 211.19 352.78 M 283.02 333.65 C 281.94 335.88 280.87 338.12 279.83 340.38 C 287.42 343.73 294.56 348.00 301.24 352.92 C 299.17 343.77 292.65 335.36 283.02 333.65 M 151.11 344.48 C 150.38 347.52 149.69 350.57 149.02 353.63 C 153.17 355.47 157.24 357.49 161.28 359.56 C 162.16 352.49 155.47 348.72 151.11 344.48 M 212.01 358.07 C 212.07 359.69 212.13 361.32 212.19 362.95 C 219.82 358.87 228.16 356.45 236.62 354.81 C 235.71 351.30 234.77 347.79 233.79 344.29 C 225.93 347.83 218.29 352.08 212.01 358.07 M 275.72 354.77 C 284.19 356.47 292.57 358.85 300.20 362.99 C 300.24 361.33 300.28 359.68 300.32 358.04 C 294.05 352.06 286.41 347.87 278.60 344.28 C 277.59 347.77 276.64 351.26 275.72 354.77 M 351.19 359.50 C 355.16 357.42 359.19 355.45 363.32 353.70 C 362.66 350.63 361.97 347.57 361.26 344.51 C 356.89 348.65 350.10 352.48 351.19 359.50 M 166.18 349.97 C 165.83 351.91 165.49 353.85 165.15 355.80 C 170.26 355.03 176.74 354.76 179.64 359.99 C 176.74 360.82 173.90 361.84 171.27 363.32 C 170.55 361.94 169.86 360.55 169.17 359.17 C 167.69 359.80 166.22 360.45 164.75 361.09 C 164.50 367.62 163.28 374.42 165.29 380.78 C 167.75 387.51 175.47 389.81 181.97 390.19 C 189.95 390.83 199.49 389.53 204.36 382.37 C 210.27 373.48 207.89 362.34 207.58 352.35 C 194.46 347.00 179.88 347.50 166.18 349.97 M 304.73 352.41 C 304.46 363.25 301.64 376.28 310.10 384.90 C 318.57 392.03 331.65 391.68 341.32 387.32 C 350.66 382.12 347.94 369.97 347.63 361.19 C 346.18 360.53 344.74 359.88 343.30 359.23 C 342.30 365.49 335.69 361.49 332.72 359.06 C 336.41 354.98 342.16 355.01 347.18 355.78 C 346.84 353.82 346.51 351.87 346.18 349.92 C 332.44 347.57 317.84 346.92 304.73 352.41 M 148.31 357.82 C 147.93 360.24 147.58 362.67 147.25 365.10 C 151.75 366.58 156.16 368.32 160.50 370.23 C 162.17 362.46 153.74 360.32 148.31 357.82 M 352.11 364.16 C 352.10 366.16 352.09 368.16 352.10 370.17 C 356.30 368.24 360.62 366.56 365.02 365.13 C 364.73 362.69 364.42 360.24 364.11 357.80 C 359.91 359.51 355.85 361.58 352.11 364.16 M 214.50 366.52 C 211.98 367.73 212.36 370.89 211.70 373.18 C 220.57 370.26 229.67 368.15 238.89 366.71 C 238.44 364.08 237.97 361.45 237.49 358.83 C 229.56 360.39 221.48 362.28 214.50 366.52 M 274.83 358.83 C 274.37 361.47 273.92 364.11 273.48 366.75 C 282.70 368.13 291.80 370.27 300.66 373.22 C 299.99 371.07 300.42 368.10 298.20 366.80 C 291.17 362.33 282.90 360.44 274.83 358.83 M 145.55 375.82 C 150.75 377.45 155.90 379.27 160.94 381.37 C 160.64 379.24 160.34 377.11 160.07 374.98 C 155.91 372.54 151.42 370.73 146.85 369.21 C 146.41 371.41 145.98 373.61 145.55 375.82 M 352.33 374.99 C 352.01 377.11 351.68 379.24 351.35 381.37 C 356.42 379.29 361.58 377.46 366.80 375.79 C 366.35 373.60 365.92 371.40 365.48 369.22 C 360.93 370.72 356.47 372.53 352.33 374.99 M 213.21 377.23 C 210.19 378.23 209.61 381.72 208.29 384.19 C 218.74 381.92 229.27 379.74 239.99 379.27 C 239.82 376.45 239.65 373.63 239.46 370.82 C 230.58 372.28 221.59 373.85 213.21 377.23 M 272.88 370.79 C 272.68 373.61 272.49 376.43 272.32 379.26 C 283.05 379.78 293.61 381.85 304.06 384.25 C 302.74 381.66 302.10 378.07 298.92 377.13 C 290.58 373.85 281.69 372.25 272.88 370.79 M 140.56 386.17 C 147.89 387.56 155.03 389.82 162.01 392.44 C 162.45 390.64 162.89 388.84 163.33 387.04 C 157.11 383.94 150.56 381.61 143.93 379.59 C 142.79 381.78 141.67 383.97 140.56 386.17 M 349.10 386.97 C 349.47 388.79 349.85 390.61 350.23 392.44 C 357.30 389.89 364.46 387.55 371.86 386.14 C 370.69 383.94 369.52 381.75 368.33 379.57 C 361.79 381.67 355.27 383.92 349.10 386.97 M 206.85 388.89 C 206.23 390.86 205.61 392.84 205.00 394.82 C 216.45 393.10 228.00 392.01 239.58 391.78 C 239.74 388.97 239.88 386.16 240.01 383.35 C 228.79 383.94 217.72 386.13 206.85 388.89 M 272.30 383.31 C 272.43 386.13 272.59 388.95 272.77 391.77 C 284.34 392.08 295.90 393.03 307.33 394.87 C 306.74 392.90 306.15 390.94 305.57 388.97 C 294.69 386.05 283.55 383.99 272.30 383.31 M 138.86 390.15 C 138.25 392.75 137.66 395.37 137.10 397.99 C 144.94 398.70 152.58 400.63 160.14 402.72 C 160.45 400.63 160.76 398.54 161.06 396.46 C 153.86 393.73 146.51 391.28 138.86 390.15 M 166.80 389.85 C 164.68 398.79 163.20 407.90 162.78 417.09 C 162.32 422.81 162.22 429.49 157.65 433.65 C 154.02 437.09 148.64 435.90 144.13 436.24 C 151.16 440.41 160.00 437.25 167.78 438.21 C 166.92 433.74 166.05 429.23 166.32 424.66 C 167.15 424.88 168.81 425.30 169.64 425.52 C 170.43 429.74 171.20 433.97 171.95 438.21 C 178.13 438.22 184.31 438.23 190.49 438.19 C 190.93 435.99 191.40 433.79 191.90 431.61 C 195.33 432.25 195.35 435.34 195.30 438.23 C 203.03 438.23 210.76 438.28 218.49 438.20 C 219.05 436.42 219.61 434.64 220.17 432.87 C 215.49 435.95 209.89 439.14 204.10 437.33 C 198.17 435.50 196.16 428.65 196.15 423.08 C 196.14 411.99 198.86 401.09 202.05 390.53 C 191.09 395.98 177.55 395.65 166.80 389.85 M 310.23 390.43 C 313.78 403.58 318.83 417.94 314.46 431.44 C 311.07 440.11 299.89 438.59 293.67 434.03 C 294.10 435.42 294.53 436.81 294.97 438.20 C 302.85 438.30 310.73 438.20 318.61 438.24 C 318.48 436.39 318.36 434.54 318.26 432.70 C 319.02 432.47 320.55 432.00 321.31 431.77 C 321.97 433.90 322.59 436.06 323.20 438.22 C 329.32 438.22 335.44 438.25 341.56 438.17 C 343.21 434.18 341.13 424.93 347.01 425.16 C 347.99 429.51 346.25 433.89 345.68 438.19 C 353.06 438.24 360.45 438.22 367.84 438.20 C 368.04 437.45 368.45 435.95 368.65 435.20 C 364.37 436.05 359.43 437.19 355.60 434.40 C 350.43 430.68 350.04 423.71 349.62 417.91 C 349.21 408.42 347.72 399.02 345.56 389.78 C 334.84 395.70 321.15 396.02 310.23 390.43 M 351.18 396.51 C 351.53 398.58 351.89 400.65 352.26 402.73 C 359.80 400.58 367.46 398.73 375.29 397.97 C 374.69 395.33 374.05 392.70 373.39 390.09 C 365.76 391.34 358.39 393.74 351.18 396.51 M 203.82 399.15 C 203.27 401.38 202.72 403.62 202.19 405.87 C 213.51 405.31 224.83 404.58 236.17 404.77 C 237.12 401.87 238.02 398.95 238.87 396.02 C 227.12 396.02 215.42 397.35 203.82 399.15 M 273.49 396.00 C 274.32 398.92 275.21 401.84 276.14 404.73 C 287.47 404.62 298.79 405.31 310.11 405.85 C 309.62 403.64 309.12 401.44 308.63 399.24 C 297.02 397.26 285.27 396.07 273.49 396.00 M 352.94 406.81 C 353.11 409.17 353.28 411.55 353.45 413.92 C 360.73 412.86 368.03 411.94 375.38 411.44 C 375.52 408.32 375.63 405.19 375.69 402.07 C 367.94 402.73 360.39 404.64 352.94 406.81 M 136.61 402.06 C 136.69 405.18 136.81 408.31 136.98 411.43 C 144.30 411.97 151.59 412.85 158.86 413.88 C 159.08 411.52 159.30 409.17 159.51 406.83 C 152.01 404.67 144.41 402.73 136.61 402.06 M 265.64 438.21 C 273.99 438.23 282.34 438.23 290.69 438.20 C 289.02 424.17 275.99 416.19 271.14 403.62 C 267.63 414.81 265.79 426.48 265.64 438.21 M 230.64 419.61 C 225.95 424.75 224.61 431.70 222.85 438.19 C 230.77 438.24 238.69 438.23 246.60 438.20 C 246.41 426.52 244.66 414.88 241.13 403.74 C 238.65 409.65 234.98 414.92 230.64 419.61 M 201.44 410.06 C 201.13 412.17 200.83 414.27 200.52 416.39 C 209.72 416.29 218.91 416.09 228.10 416.26 C 230.19 413.87 232.20 411.39 234.10 408.84 C 223.20 408.71 212.31 409.41 201.44 410.06 M 278.24 408.85 C 280.13 411.36 282.10 413.82 284.13 416.23 C 293.36 416.13 302.59 416.26 311.83 416.40 C 311.52 414.29 311.22 412.18 310.92 410.07 C 300.04 409.40 289.14 408.72 278.24 408.85 M 133.27 438.23 C 136.07 438.22 138.86 438.20 141.66 438.16 C 139.79 429.67 133.41 422.84 133.35 413.79 C 133.14 421.93 133.30 430.08 133.27 438.23 M 137.69 415.59 C 138.61 420.76 140.00 426.32 144.15 429.89 C 147.28 432.77 152.93 433.24 155.79 429.76 C 158.33 426.42 158.19 421.97 158.71 417.99 C 151.73 417.00 144.73 416.06 137.69 415.59 M 353.62 417.99 C 354.13 421.91 354.05 426.23 356.43 429.59 C 359.18 433.12 364.85 432.88 368.03 430.06 C 372.36 426.53 373.69 420.80 374.69 415.58 C 367.63 416.08 360.62 416.98 353.62 417.99 M 378.81 415.83 C 377.86 423.72 372.77 430.28 371.97 438.21 C 374.22 438.21 376.47 438.21 378.73 438.22 C 378.76 430.75 378.67 423.29 378.81 415.83 M 199.95 420.52 C 200.39 425.25 200.35 432.47 206.23 433.68 C 214.91 434.44 220.69 426.47 225.33 420.31 C 216.87 420.16 208.41 420.30 199.95 420.52 M 286.96 420.30 C 291.57 426.41 297.23 434.20 305.79 433.73 C 311.85 432.72 311.95 425.31 312.38 420.51 C 303.91 420.32 295.43 420.16 286.96 420.30 Z" />
<path fill="#2a2a2a" opacity="1.00" d=" M 142.09 55.63 C 145.95 53.60 148.93 50.50 150.90 46.62 C 152.46 50.25 154.81 53.47 158.73 54.72 C 158.73 55.07 158.72 55.77 158.71 56.12 C 154.87 57.40 152.80 60.78 150.50 63.81 C 148.74 60.09 145.97 57.14 142.09 55.63 Z" />
<path fill="#2a2a2a" opacity="1.00" d=" M 236.69 55.31 C 235.66 52.87 232.94 49.51 235.99 47.43 C 241.31 49.92 241.20 57.23 245.26 61.08 C 247.76 56.80 249.71 52.22 252.05 47.84 C 252.77 47.86 254.19 47.88 254.91 47.89 C 255.14 48.43 255.61 49.51 255.85 50.05 C 252.49 56.68 249.54 63.54 245.56 69.84 C 241.12 66.03 239.47 60.24 236.69 55.31 Z" />
<path fill="#2a2a2a" opacity="1.00" d=" M 261.68 47.69 C 263.00 47.90 264.33 48.11 265.66 48.33 C 265.60 55.36 266.69 62.59 264.77 69.47 C 263.94 69.17 262.28 68.57 261.45 68.27 C 261.30 61.41 261.10 54.53 261.68 47.69 Z" />
<path fill="#2a2a2a" opacity="1.00" d=" M 273.47 47.56 C 274.75 47.89 276.04 48.18 277.27 48.67 C 278.09 55.44 277.64 62.33 277.33 69.13 C 276.10 68.86 274.85 68.64 273.65 68.26 C 272.59 61.44 273.23 54.44 273.47 47.56 Z" />
<path fill="#2a2a2a" opacity="1.00" d=" M 352.89 55.71 C 356.70 53.63 359.77 50.63 361.76 46.75 C 363.30 50.73 366.24 53.71 370.23 55.24 C 366.37 57.25 363.37 60.31 361.32 64.13 C 359.88 60.10 356.93 57.14 352.89 55.71 Z" />
<path fill="#2a2a2a" opacity="1.00" d=" M 187.77 57.05 C 191.74 55.27 194.75 52.23 196.71 48.37 C 198.29 52.43 201.43 55.31 205.37 57.03 C 201.90 58.77 198.55 60.98 197.33 64.91 C 196.94 64.92 196.16 64.94 195.77 64.94 C 194.55 61.03 191.26 58.77 187.77 57.05 Z" />
<path fill="#2a2a2a" opacity="1.00" d=" M 315.75 48.25 C 316.92 50.17 318.01 52.14 319.09 54.11 C 320.71 54.77 322.34 55.41 323.97 56.06 C 323.87 56.63 323.69 57.78 323.60 58.35 C 322.02 58.87 320.45 59.39 318.88 59.92 C 318.18 61.69 317.49 63.47 316.79 65.24 C 316.31 65.12 315.35 64.88 314.87 64.76 C 313.84 60.89 310.60 58.78 307.11 57.35 C 310.89 55.23 314.03 52.30 315.75 48.25 Z" />
<path fill="#2a2a2a" opacity="1.00" d=" M 357.15 101.28 C 361.27 99.76 363.83 96.37 366.08 92.80 C 367.21 94.57 368.09 96.47 369.01 98.36 C 370.62 99.07 372.24 99.78 373.87 100.49 C 373.84 100.91 373.78 101.75 373.75 102.18 C 369.93 103.52 367.57 106.72 365.65 110.09 C 364.02 106.10 360.91 103.24 357.15 101.28 Z" />
<path fill="#2a2a2a" opacity="1.00" d=" M 137.81 101.72 C 141.64 99.66 144.71 96.65 146.73 92.78 C 148.21 96.79 151.14 99.77 155.17 101.23 C 151.31 103.27 148.32 106.35 146.27 110.19 C 144.84 106.13 141.88 103.15 137.81 101.72 Z" />
<path fill="#2a2a2a" opacity="1.00" d=" M 175.08 132.58 C 198.67 131.86 220.97 118.26 232.86 97.95 C 233.60 98.46 235.08 99.50 235.82 100.01 C 223.00 123.96 195.13 138.32 168.28 136.53 C 165.89 132.10 172.46 132.88 175.08 132.58 Z" />
<path fill="#2a2a2a" opacity="1.00" d=" M 278.71 98.91 C 281.62 96.99 282.87 100.84 284.40 102.62 C 297.03 122.04 320.20 132.78 343.04 132.89 C 346.35 131.64 347.53 137.25 343.97 136.76 C 321.14 137.37 298.05 127.13 283.95 109.02 C 281.75 105.97 278.67 102.92 278.71 98.91 Z" />
<path fill="#2a2a2a" opacity="1.00" d=" M 176.00 124.36 C 191.51 123.29 206.58 115.84 216.15 103.47 C 216.92 103.80 218.47 104.47 219.25 104.81 C 208.62 122.38 185.91 130.23 166.15 128.17 C 167.62 123.81 172.39 124.78 176.00 124.36 Z" />
<path fill="#2a2a2a" opacity="1.00" d=" M 296.65 108.31 C 294.84 106.70 295.66 104.56 296.56 102.71 C 307.56 115.75 323.69 124.38 340.95 124.56 C 343.49 124.23 349.49 125.48 345.73 128.60 C 327.59 129.43 308.32 122.65 296.65 108.31 Z" />
<path fill="#2a2a2a" opacity="1.00" d=" M 252.51 112.70 C 253.78 113.81 255.03 114.94 256.28 116.07 C 257.59 114.95 258.91 113.83 260.24 112.73 C 260.57 114.48 260.88 116.24 261.19 117.99 C 262.82 118.24 264.44 118.50 266.07 118.78 C 265.04 120.19 264.00 121.59 262.96 122.99 C 264.00 124.38 265.02 125.77 266.04 127.18 C 264.43 127.42 262.82 127.65 261.21 127.88 C 260.89 129.65 260.57 131.42 260.24 133.19 C 258.90 132.09 257.58 130.98 256.27 129.86 C 255.05 130.98 253.83 132.10 252.61 133.21 C 252.20 131.43 251.83 129.64 251.47 127.84 C 249.81 127.65 248.16 127.45 246.52 127.24 C 247.57 125.80 248.65 124.39 249.75 122.98 C 248.66 121.57 247.58 120.15 246.52 118.71 C 248.18 118.48 249.84 118.28 251.50 118.08 C 251.82 116.28 252.16 114.49 252.51 112.70 Z" />
<path fill="#2a2a2a" opacity="1.00" d=" M 257.04 155.74 C 258.23 148.00 270.38 147.99 271.77 155.60 C 266.86 155.77 261.95 155.80 257.04 155.74 Z" />
<path fill="#2a2a2a" opacity="1.00" d=" M 251.35 162.78 C 254.55 162.69 257.75 162.64 260.95 162.55 C 262.52 168.98 254.62 166.74 250.75 166.42 C 250.90 165.51 251.20 163.69 251.35 162.78 Z" />
<path fill="#2a2a2a" opacity="1.00" d=" M 250.32 170.06 C 254.26 170.30 258.22 170.28 262.16 169.89 C 262.36 171.00 262.57 172.11 262.78 173.22 C 258.57 174.76 254.05 174.72 249.81 173.31 C 249.93 172.50 250.19 170.88 250.32 170.06 Z" />
<path fill="#2a2a2a" opacity="1.00" d=" M 233.98 298.98 C 238.87 297.47 244.15 294.51 249.29 296.71 C 252.52 298.05 256.00 298.51 259.47 298.76 C 262.70 296.34 266.80 294.90 270.76 296.44 C 281.56 299.89 292.27 303.73 302.69 308.21 C 301.24 310.48 299.76 313.06 297.08 314.04 C 292.64 315.93 287.70 313.26 283.27 315.20 C 280.42 316.25 277.39 316.45 274.38 316.44 C 274.85 323.14 275.46 330.64 271.37 336.43 C 267.35 341.41 260.95 343.35 255.92 347.05 C 251.10 343.50 245.16 341.42 241.12 336.87 C 236.69 331.12 237.27 323.38 237.74 316.56 C 231.95 316.79 226.66 313.34 220.83 314.72 C 216.08 315.61 212.24 312.28 209.61 308.75 C 217.24 304.37 225.85 302.18 233.98 298.98 M 238.76 301.58 C 231.20 304.48 223.31 306.67 216.09 310.40 C 224.08 312.25 230.72 306.51 238.22 305.07 C 238.39 306.18 238.56 307.30 238.74 308.42 C 236.16 309.66 233.57 310.89 231.07 312.28 C 236.52 312.97 241.27 310.05 246.06 307.99 C 246.14 309.81 246.16 311.63 246.11 313.45 C 248.44 313.00 250.77 312.54 253.09 312.05 C 249.66 309.12 248.60 304.84 249.36 300.50 C 245.79 299.87 242.13 300.20 238.76 301.58 M 263.30 301.40 C 262.51 305.22 261.74 309.16 258.88 312.06 C 261.44 312.56 264.01 313.02 266.58 313.45 C 266.39 311.71 266.22 309.97 266.07 308.24 C 271.16 309.87 276.00 312.86 281.56 312.35 C 278.92 310.33 273.75 310.04 273.66 305.92 C 281.59 304.75 288.33 313.22 296.69 310.29 C 288.67 306.68 280.29 303.97 272.01 301.02 C 269.27 300.31 265.45 298.71 263.30 301.40 M 254.48 302.52 C 251.38 304.31 254.31 309.39 257.30 307.34 C 260.38 305.62 257.51 300.82 254.48 302.52 M 241.67 317.15 C 241.54 322.56 240.80 328.46 243.63 333.36 C 246.60 337.55 251.65 339.41 255.94 341.93 C 260.29 339.44 265.38 337.64 268.44 333.46 C 271.38 328.56 270.56 322.59 270.48 317.15 C 265.57 317.42 260.62 316.99 256.01 315.17 C 251.45 316.98 246.54 317.42 241.67 317.15 Z" />
<path fill="#2a2a2a" opacity="1.00" d=" M 247.98 325.01 C 250.06 322.37 253.25 321.03 255.94 319.14 C 258.61 321.05 261.74 322.43 263.88 324.99 C 262.69 326.70 260.79 327.63 259.07 328.69 C 258.64 331.35 258.00 335.73 254.18 334.29 C 253.45 332.46 253.09 330.51 252.65 328.61 C 250.96 327.60 249.12 326.68 247.98 325.01 Z" />
<path fill="#2a2a2a" opacity="1.00" d=" M 187.76 359.56 C 192.34 353.30 202.34 353.49 206.57 360.00 C 205.40 363.96 201.70 360.81 199.57 359.63 C 198.70 360.84 197.83 362.05 196.95 363.25 C 195.95 362.14 194.96 361.03 193.98 359.91 C 192.45 360.77 190.91 361.63 189.36 362.46 C 188.96 361.73 188.16 360.28 187.76 359.56 Z" />
<path fill="#2a2a2a" opacity="1.00" d=" M 305.30 359.60 C 308.84 356.86 313.12 353.90 317.86 355.10 C 320.90 355.80 324.83 358.14 323.86 361.82 C 321.88 362.03 320.14 360.97 318.41 360.21 C 317.33 361.18 316.24 362.14 315.16 363.11 C 314.40 361.91 313.65 360.72 312.91 359.53 C 310.26 361.32 307.17 363.47 305.30 359.60 Z" />
<path fill="#2a2a2a" opacity="1.00" d=" M 181.00 360.81 C 181.82 360.96 183.46 361.27 184.29 361.42 C 184.54 366.13 182.18 370.12 179.59 373.83 C 182.01 373.71 184.42 373.52 186.84 373.35 C 187.90 380.29 175.61 379.44 176.03 372.95 C 176.99 368.68 180.14 365.18 181.00 360.81 Z" />
<path fill="#2a2a2a" opacity="1.00" d=" M 328.43 360.75 C 329.18 360.86 330.68 361.08 331.44 361.19 C 332.37 365.43 335.34 368.85 336.39 373.01 C 336.49 379.46 324.70 380.25 325.40 373.36 C 327.81 373.52 330.22 373.72 332.64 373.87 C 330.06 369.92 327.47 365.70 328.43 360.75 Z" />
<path fill="#2a2a2a" opacity="1.00" d=" M 177.20 380.43 C 182.09 380.29 187.01 380.71 191.88 379.90 C 192.20 380.61 192.84 382.03 193.16 382.74 C 188.45 384.80 182.94 385.59 178.03 383.81 C 176.57 383.31 176.19 381.55 177.20 380.43 Z" />
<path fill="#2a2a2a" opacity="1.00" d=" M 321.78 379.78 C 326.75 380.67 331.82 380.68 336.82 380.06 C 336.85 387.68 325.72 384.30 320.89 383.26 C 321.18 382.09 321.48 380.94 321.78 379.78 Z" />
<path fill="#2a2a2a" opacity="1.00" d=" M 133.54 455.22 C 139.66 453.54 146.08 454.23 152.32 454.58 C 152.32 455.52 152.30 457.39 152.29 458.32 C 150.01 458.53 147.73 458.69 145.45 458.87 C 145.23 464.28 146.14 469.85 144.81 475.16 C 143.62 475.69 142.49 475.59 141.43 474.86 C 140.47 469.56 141.05 464.14 140.94 458.79 C 138.86 458.70 136.78 458.62 134.70 458.53 C 134.41 457.70 133.83 456.05 133.54 455.22 Z" />
<path fill="#2a2a2a" opacity="1.00" d=" M 156.63 454.51 C 161.68 452.74 160.12 459.56 160.63 462.62 C 163.68 462.61 166.72 462.61 169.76 462.64 C 169.97 459.65 170.22 456.68 170.65 453.72 C 171.82 454.19 173.02 454.63 174.07 455.34 C 175.04 461.93 174.37 468.67 174.28 475.32 C 172.94 475.28 171.61 475.23 170.29 475.18 C 170.11 472.50 169.97 469.82 169.84 467.13 C 166.74 467.15 163.64 467.14 160.54 467.11 C 160.46 469.85 160.37 472.59 160.23 475.33 C 158.89 475.27 157.55 475.22 156.22 475.17 C 156.09 468.30 155.21 461.28 156.63 454.51 Z" />
<path fill="#2a2a2a" opacity="1.00" d=" M 179.78 454.58 C 185.68 454.24 191.66 453.78 197.54 454.63 C 197.94 455.65 198.14 456.71 198.14 457.82 C 193.71 459.50 188.83 458.47 184.22 458.68 C 184.21 459.66 184.20 461.62 184.19 462.60 C 187.85 462.59 191.50 462.61 195.16 462.74 C 196.21 469.25 188.22 466.65 184.18 467.20 C 184.18 468.44 184.17 469.69 184.17 470.94 C 188.91 470.94 193.66 470.94 198.37 471.56 C 198.06 472.85 197.75 474.14 197.44 475.44 C 191.67 475.57 185.89 475.62 180.13 475.40 C 179.36 468.48 179.66 461.52 179.78 454.58 Z" />
<path fill="#2a2a2a" opacity="1.00" d=" M 210.59 465.01 C 209.98 454.70 224.57 450.35 230.17 458.81 C 229.29 459.64 228.41 460.47 227.53 461.31 C 223.42 457.51 215.04 458.09 215.12 464.93 C 215.14 471.70 223.47 472.17 227.54 468.43 C 228.41 469.35 229.28 470.28 230.14 471.22 C 224.31 479.10 210.27 475.15 210.59 465.01 Z" />
<path fill="#2a2a2a" opacity="1.00" d=" M 234.60 453.91 C 235.82 454.24 237.04 454.57 238.27 454.91 C 238.33 457.48 238.39 460.05 238.44 462.62 C 241.52 462.61 244.60 462.61 247.69 462.64 C 247.91 459.72 248.20 456.80 248.64 453.91 C 249.86 454.24 251.08 454.58 252.30 454.92 C 252.24 461.62 252.97 468.39 251.92 475.04 C 246.78 477.22 248.14 470.10 247.71 467.11 C 244.66 467.14 241.61 467.14 238.56 467.11 C 238.38 469.95 239.12 477.82 234.38 474.75 C 233.30 467.88 233.62 460.78 234.60 453.91 Z" />
<path fill="#2a2a2a" opacity="1.00" d=" M 256.10 471.32 C 259.35 465.23 261.45 458.26 266.45 453.30 C 270.05 459.09 272.99 465.26 275.91 471.41 C 277.34 473.29 275.26 474.92 274.41 476.50 C 273.09 474.80 271.82 473.07 270.57 471.33 C 267.51 471.33 264.46 471.33 261.40 471.33 C 260.16 473.08 258.87 474.80 257.56 476.50 C 256.72 474.86 254.56 473.22 256.10 471.32 M 263.20 466.79 C 265.00 466.80 266.79 466.81 268.59 466.83 C 267.77 465.10 266.94 463.38 266.11 461.67 C 265.13 463.37 264.17 465.08 263.20 466.79 Z" />
<path fill="#2a2a2a" opacity="1.00" d=" M 281.24 454.41 C 286.85 454.62 294.46 452.30 298.16 457.91 C 300.83 461.59 298.50 465.91 296.19 469.05 C 297.41 470.41 298.63 471.77 299.84 473.15 C 298.92 474.11 298.00 475.07 297.07 476.03 C 293.93 472.98 290.72 469.39 285.93 469.56 C 285.54 471.80 284.62 477.82 281.38 474.72 C 280.17 468.04 280.84 461.15 281.24 454.41 M 285.37 458.54 C 285.36 460.88 285.36 463.23 285.38 465.59 C 287.86 465.46 290.40 465.60 292.85 465.06 C 295.51 464.22 295.52 459.89 292.84 459.09 C 290.40 458.52 287.86 458.66 285.37 458.54 Z" />
<path fill="#2a2a2a" opacity="1.00" d=" M 304.42 454.46 C 310.01 454.62 317.50 452.32 321.34 457.70 C 324.06 461.29 321.98 465.71 319.66 468.86 C 321.35 470.67 324.72 475.34 320.12 475.52 C 316.68 472.90 313.69 469.19 308.89 469.52 C 308.65 471.49 308.42 473.48 308.16 475.46 C 306.88 475.33 305.60 475.21 304.33 475.08 C 304.10 468.21 304.02 461.33 304.42 454.46 M 308.65 458.55 C 308.63 460.89 308.62 463.22 308.61 465.57 C 312.06 465.14 317.56 466.71 318.41 461.98 C 317.30 457.55 312.02 458.92 308.65 458.55 Z" />
<path fill="#2a2a2a" opacity="1.00" d=" M 326.88 454.19 C 328.22 454.43 329.59 454.63 330.88 455.12 C 331.47 461.31 331.54 467.64 330.88 473.84 C 330.70 476.22 327.25 476.21 327.03 473.85 C 326.23 467.34 326.82 460.73 326.88 454.19 Z" />
<path fill="#2a2a2a" opacity="1.00" d=" M 342.43 454.65 C 349.39 452.27 357.20 458.72 356.12 466.00 C 355.63 474.06 344.88 478.63 338.83 473.17 C 332.16 468.32 334.45 456.65 342.43 454.65 M 343.30 459.10 C 339.11 460.57 337.92 466.70 341.44 469.50 C 344.80 472.78 351.15 470.44 351.61 465.78 C 352.48 461.36 347.44 457.26 343.30 459.10 Z" />
<path fill="#2a2a2a" opacity="1.00" d=" M 358.43 454.47 C 364.37 454.14 370.33 454.16 376.28 454.42 C 376.29 455.76 376.30 457.11 376.30 458.47 C 374.06 458.59 371.83 458.69 369.60 458.80 C 369.39 464.18 370.23 469.69 369.00 474.99 C 367.80 475.22 366.60 475.42 365.39 475.58 C 365.05 470.00 365.16 464.41 365.14 458.83 C 362.90 458.70 360.66 458.57 358.42 458.41 C 358.41 457.09 358.42 455.78 358.43 454.47 Z" />
</g>
</svg>
