<?xml version="1.0" encoding="UTF-8" ?>
<!DOCTYPE svg PUBLIC "-//W3C//DTD SVG 1.1//EN" "http://www.w3.org/Graphics/SVG/1.1/DTD/svg11.dtd">
<svg width="120pt" height="120pt" viewBox="0 0 512 512" version="1.1" xmlns="http://www.w3.org/2000/svg">
<g id="#2a2a2afd">
<path fill="#2a2a2a" opacity="1.00" d=" M 132.35 21.49 C 213.57 21.09 294.82 21.47 376.06 21.30 C 381.73 20.98 387.65 23.28 390.85 28.12 C 394.43 33.00 393.59 39.33 393.67 45.00 C 393.60 188.32 393.70 331.64 393.62 474.96 C 393.83 483.35 386.36 490.82 377.97 490.64 C 296.97 490.72 215.96 490.65 134.97 490.68 C 126.27 491.24 118.13 483.75 118.38 474.96 C 118.31 329.30 118.38 183.63 118.34 37.97 C 117.82 29.91 124.21 22.10 132.35 21.49 M 131.45 25.77 C 125.89 26.83 122.09 32.43 122.41 37.97 C 122.42 183.32 122.42 328.68 122.41 474.03 C 121.86 480.93 128.00 487.14 134.92 486.59 C 215.64 486.59 296.36 486.59 377.08 486.59 C 383.99 487.14 390.13 480.93 389.59 474.03 C 389.58 328.68 389.58 183.32 389.59 37.97 C 390.13 31.08 384.00 24.85 377.08 25.41 C 299.72 25.40 222.36 25.42 145.00 25.41 C 140.49 25.48 135.93 25.06 131.45 25.77 Z" />
<path fill="#2a2a2a" opacity="1.00" d=" M 201.00 32.20 C 207.28 32.04 214.04 33.28 219.73 29.90 C 224.20 33.13 229.85 32.13 235.00 32.21 C 251.69 32.17 268.38 32.21 285.07 32.22 C 287.70 32.39 290.04 31.13 292.27 29.90 C 295.00 31.20 297.87 32.40 300.96 32.23 C 326.33 32.20 351.71 32.16 377.08 32.23 C 380.40 31.82 383.15 34.61 382.75 37.92 C 382.85 58.63 382.73 79.35 382.77 100.06 C 382.70 102.62 383.76 104.97 384.81 107.23 C 381.90 112.36 382.87 118.37 382.77 123.99 C 382.79 228.35 382.78 332.71 382.80 437.07 C 383.32 440.03 381.20 442.76 378.06 442.27 C 297.37 442.38 216.66 442.22 135.97 442.35 C 133.03 442.60 128.64 442.02 129.24 438.03 C 129.17 330.34 129.20 222.64 129.23 114.95 C 129.33 112.22 128.29 109.68 127.20 107.23 C 130.08 102.29 129.12 96.45 129.22 91.00 C 129.23 73.31 129.14 55.61 129.24 37.92 C 128.83 34.60 131.59 31.82 134.92 32.23 C 156.94 32.14 178.97 32.23 201.00 32.20 M 133.31 36.29 C 133.20 57.83 133.30 79.37 133.26 100.90 C 136.47 98.30 139.66 95.67 142.82 93.01 C 142.52 89.07 142.19 84.42 145.57 81.62 C 151.54 76.51 158.38 68.46 167.09 72.79 C 170.92 69.76 174.68 66.65 178.40 63.49 C 178.07 59.80 177.49 55.40 180.56 52.63 C 186.58 47.37 193.36 39.25 202.31 43.12 C 205.13 40.90 207.91 38.62 210.64 36.30 C 184.87 36.21 159.09 36.23 133.31 36.29 M 206.18 47.19 C 206.65 51.51 205.92 55.87 203.28 59.41 C 201.63 58.37 199.99 57.32 198.34 56.27 C 199.58 54.80 200.81 53.34 202.01 51.84 C 200.54 51.64 199.06 51.44 197.59 51.24 C 197.25 49.67 196.90 48.09 196.56 46.51 C 191.57 50.40 186.44 54.19 182.12 58.85 C 183.80 59.21 185.49 59.57 187.17 59.94 C 187.22 61.30 187.26 62.67 187.31 64.03 C 190.33 61.71 193.52 62.35 196.12 65.00 C 192.26 68.57 186.99 69.57 182.07 67.76 C 178.24 70.84 174.46 73.95 170.68 77.07 C 170.84 80.83 171.19 85.26 168.01 87.97 C 162.07 93.06 155.42 101.06 146.69 97.13 C 142.14 100.72 137.66 104.41 133.25 108.17 C 133.39 130.99 133.05 153.81 133.42 176.63 C 135.56 215.64 160.74 249.98 192.21 271.47 C 202.07 266.48 212.02 261.67 222.06 257.04 C 217.88 248.07 211.63 240.20 207.94 231.00 C 204.66 222.93 204.87 214.06 205.22 205.53 C 191.22 213.22 173.39 207.29 162.41 197.06 C 169.56 190.39 175.58 182.11 184.28 177.27 C 193.45 171.93 204.86 172.56 214.38 176.64 C 215.89 175.03 217.42 173.44 218.99 171.90 C 219.17 165.09 218.31 158.08 214.88 152.07 C 207.57 138.01 190.46 130.35 175.06 133.03 C 165.66 134.64 159.12 143.36 157.89 152.46 C 157.07 154.87 157.85 158.63 154.94 159.63 C 146.23 152.63 145.86 139.24 150.95 129.96 C 157.64 116.62 172.78 110.14 186.99 108.88 C 204.40 107.68 223.10 111.71 236.31 123.70 C 248.32 134.48 254.40 150.36 256.32 166.10 C 258.24 150.29 264.39 134.33 276.51 123.55 C 295.07 107.64 323.55 104.12 345.63 114.41 C 360.20 120.98 370.37 139.94 361.86 154.86 C 360.90 156.92 356.76 161.88 355.71 157.60 C 354.69 148.14 350.75 137.52 341.01 134.04 C 321.73 127.84 298.46 140.93 294.46 161.02 C 293.10 166.42 292.88 172.60 297.21 176.75 C 307.08 172.53 318.95 171.85 328.35 177.63 C 337.06 182.45 342.37 191.30 350.34 197.07 C 338.32 206.80 320.45 213.86 306.01 205.03 C 306.69 214.72 306.50 224.96 301.83 233.74 C 297.54 241.78 291.80 248.98 288.02 257.32 C 298.08 262.19 307.98 267.40 317.86 272.64 C 349.22 250.61 375.70 217.01 378.51 177.59 C 379.01 154.46 378.56 131.30 378.74 108.16 C 374.34 104.39 369.87 100.70 365.32 97.13 C 361.76 97.97 357.63 99.08 354.47 96.55 C 348.19 91.69 338.92 86.57 341.33 77.07 C 337.54 73.95 333.76 70.82 329.93 67.77 C 325.01 69.57 319.74 68.58 315.89 65.01 C 318.47 62.34 321.66 61.71 324.69 64.03 C 324.73 62.66 324.77 61.30 324.82 59.94 C 326.50 59.57 328.19 59.21 329.87 58.84 C 325.56 54.18 320.43 50.40 315.44 46.52 C 315.09 48.09 314.75 49.67 314.41 51.24 C 312.93 51.44 311.46 51.65 309.99 51.85 C 311.19 53.34 312.43 54.80 313.67 56.27 C 312.01 57.32 310.36 58.37 308.71 59.41 C 306.08 55.87 305.34 51.51 305.82 47.19 C 299.76 43.27 295.14 35.16 287.02 36.19 C 266.34 36.29 245.66 36.29 224.98 36.19 C 216.86 35.16 212.25 43.28 206.18 47.19 M 301.36 36.29 C 304.10 38.61 306.88 40.89 309.69 43.12 C 313.39 42.25 317.73 41.27 320.96 43.94 C 327.17 48.80 336.54 53.99 333.59 63.48 C 337.31 66.64 341.08 69.75 344.90 72.79 C 348.47 71.78 352.67 70.57 355.93 73.09 C 362.38 77.99 371.81 83.29 369.18 92.99 C 372.33 95.65 375.52 98.28 378.73 100.87 C 378.68 79.34 378.78 57.82 378.68 36.29 C 352.91 36.22 327.13 36.21 301.36 36.29 M 146.71 88.18 C 148.54 88.37 150.38 88.56 152.22 88.77 C 152.27 90.44 152.32 92.12 152.36 93.79 C 157.24 89.95 162.18 86.15 166.60 81.76 C 165.24 81.28 163.87 80.79 162.51 80.31 C 162.17 78.79 161.83 77.27 161.48 75.76 C 156.34 79.63 151.21 83.56 146.71 88.18 M 350.52 75.76 C 350.16 77.27 349.82 78.79 349.48 80.31 C 348.12 80.79 346.76 81.27 345.41 81.76 C 349.82 86.14 354.75 89.94 359.62 93.79 C 359.67 92.09 359.73 90.40 359.80 88.71 C 361.67 88.54 363.53 88.41 365.40 88.26 C 360.86 83.63 355.70 79.65 350.52 75.76 M 176.40 114.94 C 177.18 119.41 174.87 123.27 172.43 126.79 C 175.34 127.06 178.26 127.32 181.17 127.60 C 183.39 122.23 187.20 117.79 190.43 113.03 C 185.68 112.96 180.98 113.74 176.40 114.94 M 194.68 112.71 C 192.55 118.47 187.94 122.74 185.21 128.16 C 188.20 128.97 191.21 129.77 194.20 130.60 C 197.30 124.76 206.35 121.55 205.10 114.09 C 201.75 112.96 198.16 112.98 194.68 112.71 M 307.32 113.74 C 306.52 121.40 315.06 124.64 318.33 130.57 C 321.35 129.78 324.38 129.01 327.40 128.22 C 324.79 122.70 320.03 118.49 317.97 112.67 C 314.42 112.97 310.87 113.32 307.32 113.74 M 322.24 112.79 C 325.32 117.77 329.22 122.23 331.59 127.64 C 334.47 127.32 337.35 127.05 340.23 126.76 C 337.74 123.27 335.47 119.39 336.31 114.91 C 331.70 113.75 326.99 112.99 322.24 112.79 M 198.41 131.73 C 201.60 133.48 204.78 135.28 207.87 137.21 C 210.36 132.77 213.70 128.68 218.39 126.47 C 220.68 125.06 225.16 123.30 223.31 119.87 C 219.31 117.13 214.47 116.09 209.93 114.60 C 209.72 122.28 202.74 126.35 198.41 131.73 M 288.26 120.16 C 289.18 123.23 291.56 125.27 294.39 126.55 C 299.02 128.78 302.29 132.87 304.80 137.24 C 307.87 135.27 311.04 133.47 314.25 131.74 C 309.99 126.29 302.93 122.31 302.66 114.64 C 297.70 116.04 292.85 117.81 288.26 120.16 M 155.51 129.72 C 159.51 128.61 163.64 128.02 167.59 126.72 C 170.19 123.89 171.50 120.09 172.77 116.51 C 165.66 118.77 159.80 123.72 155.51 129.72 M 339.73 116.63 C 341.04 120.18 342.91 123.48 344.53 126.89 C 348.83 127.61 353.06 128.63 357.26 129.79 C 352.82 123.86 347.08 118.54 339.73 116.63 M 228.55 122.63 C 224.33 130.12 213.86 131.22 211.14 140.04 C 212.73 141.96 214.30 143.89 215.86 145.83 C 218.79 141.82 222.38 137.57 227.64 136.92 C 231.35 136.18 237.58 136.37 237.35 131.02 C 235.22 127.49 231.67 125.20 228.55 122.63 M 275.32 131.17 C 275.09 136.18 281.04 136.19 284.57 136.84 C 290.02 137.40 293.83 141.68 296.80 145.88 C 298.35 143.90 299.93 141.94 301.51 139.98 C 298.74 131.21 288.30 130.10 284.09 122.58 C 281.01 125.24 277.30 127.51 275.32 131.17 M 229.40 140.75 C 224.07 141.05 220.82 145.68 218.47 149.91 C 219.31 151.92 220.14 153.94 220.96 155.96 C 228.05 148.10 240.51 154.11 247.20 146.30 C 245.33 142.53 243.35 138.81 241.19 135.21 C 238.27 138.84 233.95 140.49 229.40 140.75 M 266.18 145.90 C 267.36 150.57 273.11 150.50 276.95 150.76 C 282.36 150.67 287.50 152.63 291.78 155.86 C 292.56 153.89 293.37 151.92 294.19 149.96 C 291.93 145.79 288.82 141.20 283.61 140.82 C 278.96 140.47 274.48 138.94 271.37 135.30 C 269.48 138.74 266.96 141.99 266.18 145.90 M 226.79 156.83 C 223.12 158.42 222.76 162.68 222.50 166.16 C 226.17 164.70 229.94 162.99 234.00 163.27 C 239.89 163.35 246.43 166.70 251.65 162.42 C 250.84 158.65 249.93 154.91 248.97 151.18 C 242.46 156.16 233.80 153.45 226.79 156.83 M 263.78 151.01 C 262.72 154.81 261.79 158.64 261.04 162.51 C 266.08 166.48 272.33 163.58 277.98 163.30 C 282.25 162.85 286.26 164.62 290.13 166.15 C 289.85 163.20 290.17 159.50 287.27 157.71 C 280.26 152.86 270.55 156.70 263.78 151.01 M 223.25 171.37 C 233.25 172.77 242.82 176.14 252.71 178.08 C 252.65 174.52 252.52 170.96 252.35 167.41 C 242.87 171.44 231.42 163.04 223.25 171.37 M 260.25 167.41 C 260.15 170.91 260.05 174.41 260.03 177.92 C 269.89 175.96 279.42 172.50 289.45 171.35 C 281.21 163.06 269.77 171.42 260.25 167.41 M 220.38 176.35 C 218.21 176.89 217.98 180.02 219.55 181.35 C 222.60 184.47 226.99 185.73 231.06 186.94 C 248.34 191.48 266.93 191.29 284.03 186.00 C 287.62 184.58 292.39 183.22 293.54 179.02 C 293.41 176.27 290.26 175.66 288.06 175.85 C 277.45 176.58 267.65 181.64 257.02 182.24 C 244.47 182.74 232.87 174.62 220.38 176.35 M 190.01 179.10 C 181.87 182.04 176.08 188.78 170.50 195.07 C 179.98 195.04 190.02 196.01 198.87 191.90 C 204.83 189.23 210.78 186.27 215.64 181.83 C 207.85 177.81 198.42 175.84 190.01 179.10 M 296.29 181.88 C 301.35 186.12 307.29 189.10 313.26 191.84 C 322.06 195.96 332.05 195.05 341.49 195.07 C 335.90 188.80 330.12 182.06 321.98 179.11 C 313.55 175.85 304.07 177.79 296.29 181.88 M 211.09 227.70 C 216.53 241.44 226.41 253.06 230.69 267.38 C 232.69 264.23 234.80 261.15 237.26 258.33 C 238.32 259.82 239.87 261.47 238.21 263.17 C 233.22 270.63 228.27 281.05 233.33 289.60 C 239.88 293.75 251.09 292.55 253.68 284.06 C 249.78 280.47 244.50 280.97 239.68 280.10 C 235.08 279.06 235.07 271.43 240.02 270.95 C 246.94 269.72 249.70 277.72 255.10 280.26 C 261.31 278.82 263.71 269.64 270.98 270.92 C 276.05 271.32 276.03 279.15 271.32 280.15 C 266.51 280.93 261.30 280.54 257.42 284.06 C 260.18 292.70 271.74 293.78 278.35 289.38 C 283.53 279.84 277.43 268.96 271.79 261.06 C 272.62 260.25 273.46 259.45 274.30 258.66 C 276.40 261.03 278.31 263.56 280.10 266.17 C 284.06 252.44 293.49 241.45 299.60 228.79 C 304.06 214.74 303.51 197.79 294.93 185.35 C 283.21 192.20 269.35 193.94 256.00 194.22 C 242.64 193.94 228.76 192.21 217.03 185.34 C 207.74 197.10 207.51 213.77 211.09 227.70 M 133.32 200.60 C 133.15 231.69 133.37 262.78 133.21 293.87 C 141.44 287.70 151.97 285.90 162.04 286.49 C 166.37 287.22 169.81 284.27 173.20 282.11 C 161.88 274.66 151.99 264.99 143.76 254.27 C 141.26 252.09 145.35 249.85 146.82 252.12 C 155.93 262.29 165.18 272.73 177.11 279.70 C 180.78 277.70 184.43 275.69 188.09 273.67 C 163.00 255.68 142.31 230.46 133.32 200.60 M 321.82 274.84 C 325.49 276.93 329.16 279.03 332.82 281.14 C 346.33 273.50 356.22 261.24 366.13 249.60 C 367.12 250.35 368.11 251.11 369.10 251.88 C 360.00 263.91 349.56 275.26 336.89 283.59 C 339.97 285.54 342.99 288.48 346.95 287.90 C 357.93 287.05 369.66 288.23 378.77 294.96 C 378.61 263.43 378.86 231.89 378.64 200.36 C 368.99 230.84 347.48 256.34 321.82 274.84 M 172.49 287.35 C 180.61 289.58 190.25 289.46 196.92 295.00 C 194.32 298.83 189.72 294.99 186.23 294.62 C 170.43 290.69 151.79 286.84 137.17 296.18 C 132.18 298.60 133.22 304.45 133.23 309.00 C 133.31 352.07 133.25 395.14 133.26 438.20 C 141.53 438.24 149.79 438.21 158.06 438.22 C 145.44 425.89 147.57 407.08 143.44 391.32 C 141.07 390.77 137.19 392.09 136.41 389.02 C 140.31 385.33 145.20 382.78 150.27 381.12 C 150.00 396.22 148.81 412.02 154.72 426.31 C 157.24 432.54 162.80 438.26 169.95 438.17 C 225.29 438.30 280.65 438.15 336.00 438.25 C 340.99 438.19 346.49 438.82 350.86 435.88 C 356.29 432.24 358.96 425.87 360.59 419.78 C 363.93 407.16 363.01 394.02 362.78 381.14 C 367.85 382.75 372.74 385.27 376.62 388.96 C 376.06 392.19 372.02 390.72 369.71 391.29 C 365.48 407.04 367.61 425.78 355.09 438.20 C 362.97 438.23 370.85 438.23 378.74 438.20 C 378.73 393.45 378.71 348.69 378.74 303.93 C 378.75 302.15 378.53 300.20 376.97 299.08 C 369.18 292.08 357.93 291.32 347.97 291.98 C 337.18 292.55 326.85 295.81 316.44 298.35 C 316.28 297.48 315.96 295.73 315.80 294.85 C 322.87 292.21 330.22 290.47 337.60 288.98 C 321.18 278.50 303.79 269.65 286.34 261.05 C 284.97 265.28 281.92 269.73 283.76 274.27 C 289.88 290.29 291.14 308.84 284.91 325.00 C 281.21 321.75 281.01 316.44 278.24 312.56 C 276.73 321.90 274.82 331.25 270.89 339.91 C 270.26 339.91 269.00 339.92 268.37 339.92 C 267.18 337.10 265.95 334.29 264.55 331.57 C 261.99 337.91 259.70 344.39 256.17 350.27 C 255.57 350.03 254.37 349.54 253.77 349.30 C 252.89 342.07 250.51 335.04 246.45 328.96 C 245.05 333.66 247.66 340.27 244.02 343.78 C 233.49 337.68 230.07 324.84 228.11 313.65 C 227.39 316.73 226.83 319.84 226.06 322.90 C 220.34 319.83 218.75 312.98 218.71 306.99 C 218.70 295.33 222.28 284.04 226.39 273.25 C 228.19 268.98 225.04 264.80 223.76 260.82 C 206.24 268.78 188.87 277.21 172.49 287.35 M 223.29 313.40 C 225.15 310.33 227.18 307.36 229.66 304.76 C 230.19 305.14 231.24 305.90 231.77 306.27 C 232.34 317.07 234.57 328.26 241.48 336.91 C 242.45 332.54 241.15 326.77 245.08 323.66 C 252.31 325.87 253.58 334.77 256.53 340.76 C 259.20 335.89 259.27 329.62 262.95 325.43 C 265.62 327.09 267.71 329.48 269.84 331.75 C 272.87 323.66 272.98 314.86 274.77 306.64 C 278.31 305.63 281.56 310.95 284.04 313.49 C 285.09 305.35 284.85 297.13 283.99 288.99 C 280.94 292.65 276.83 295.14 273.59 298.59 C 264.54 308.71 246.72 308.37 237.88 298.11 C 233.04 294.19 227.12 290.83 226.90 283.73 C 224.03 293.31 221.73 303.36 223.29 313.40 M 255.50 289.94 C 252.17 293.81 247.40 295.69 242.44 296.38 C 250.85 301.00 261.30 300.95 269.69 296.32 C 264.32 295.90 259.17 293.99 255.50 289.94 Z" />
<path fill="#2a2a2a" opacity="1.00" d=" M 232.19 49.93 C 233.15 48.99 234.12 48.05 235.09 47.12 C 237.50 49.56 239.74 52.16 241.95 54.78 C 244.16 52.12 246.42 49.52 248.89 47.11 C 249.83 48.06 250.77 49.01 251.70 49.97 C 249.57 52.72 247.12 55.25 245.27 58.22 C 246.87 61.67 250.65 63.94 251.25 67.86 C 247.17 71.20 244.56 64.26 242.01 61.93 C 239.73 64.68 237.34 67.34 234.60 69.63 C 234.02 68.94 232.85 67.54 232.27 66.85 C 234.42 63.93 236.70 61.12 238.97 58.29 C 236.65 55.55 234.38 52.78 232.19 49.93 Z" />
<path fill="#2a2a2a" opacity="1.00" d=" M 255.72 49.92 C 256.43 48.69 257.52 47.77 258.73 47.05 C 261.53 51.78 263.84 56.77 266.35 61.65 C 269.32 56.98 270.43 50.81 274.95 47.33 C 278.77 49.04 275.58 53.10 274.52 55.61 C 271.66 60.36 270.42 66.44 265.62 69.73 C 262.09 63.25 258.45 56.77 255.72 49.92 Z" />
<path fill="#2a2a2a" opacity="1.00" d=" M 235.07 204.00 C 241.33 198.38 253.71 210.75 247.23 216.90 C 245.45 210.54 240.51 207.02 235.07 204.00 Z" />
<path fill="#2a2a2a" opacity="1.00" d=" M 271.46 202.52 C 274.00 201.24 277.78 204.46 273.83 205.67 C 268.65 207.35 266.16 211.89 263.93 216.46 C 258.22 211.93 265.99 203.59 271.46 202.52 Z" />
<path fill="#2a2a2a" opacity="1.00" d=" M 218.82 214.76 C 231.44 206.13 246.37 221.98 242.96 234.80 C 237.97 235.66 239.53 228.29 238.19 225.23 C 231.85 227.47 225.18 224.43 222.57 218.29 C 221.51 218.00 220.46 217.71 219.41 217.42 C 219.26 216.75 218.97 215.42 218.82 214.76 M 228.55 216.34 C 228.73 219.80 231.40 222.83 234.17 219.42 C 232.42 218.17 230.48 217.25 228.55 216.34 Z" />
<path fill="#2a2a2a" opacity="1.00" d=" M 268.02 234.82 C 264.43 221.65 280.37 205.56 292.85 215.30 C 291.44 216.53 289.94 217.66 288.39 218.71 C 285.43 224.49 279.05 227.44 272.79 225.22 C 271.45 228.31 273.03 235.62 268.02 234.82 M 276.21 220.13 C 279.89 221.79 282.14 220.35 282.42 216.30 C 280.24 217.40 278.18 218.69 276.21 220.13 Z" />
<path fill="#2a2a2a" opacity="1.00" d=" M 254.28 240.12 C 255.46 239.47 257.28 238.09 257.48 240.37 C 258.75 246.22 257.79 252.33 258.02 258.29 C 259.79 258.99 261.88 259.37 262.99 261.10 C 259.35 264.40 252.80 264.26 249.12 261.07 C 250.06 259.20 252.21 258.93 253.95 258.23 C 254.07 252.20 253.49 246.12 254.28 240.12 Z" />
<path fill="#2a2a2a" opacity="1.00" d=" M 226.91 353.74 C 225.93 351.84 227.05 349.15 229.33 350.66 C 238.54 356.19 247.17 362.69 256.15 368.62 C 265.37 362.78 274.18 356.22 283.58 350.69 C 285.85 349.12 287.06 351.81 286.03 353.74 C 282.61 363.07 278.67 372.20 275.16 381.49 C 282.42 386.56 289.99 391.20 297.00 396.64 C 296.72 397.26 296.17 398.52 295.89 399.15 C 286.66 399.31 277.43 399.14 268.20 399.12 C 263.94 408.49 261.50 418.72 255.99 427.47 C 250.56 418.65 248.23 408.37 244.06 398.95 C 234.28 398.71 224.46 399.34 214.73 398.31 C 219.84 390.19 230.04 387.14 237.27 381.12 C 233.93 371.95 230.14 362.94 226.91 353.74 M 232.81 357.77 C 235.34 364.83 238.11 371.80 240.79 378.81 C 244.69 376.23 248.60 373.66 252.46 371.02 C 245.93 366.58 239.45 362.06 232.81 357.77 M 259.86 371.07 C 263.77 373.79 267.71 376.46 271.69 379.09 C 274.51 371.98 277.41 364.91 280.05 357.73 C 273.25 362.07 266.59 366.61 259.86 371.07 M 242.27 382.73 C 243.81 386.79 245.36 390.85 246.94 394.90 C 253.13 394.91 259.32 394.99 265.51 394.90 C 267.03 390.93 268.59 386.97 270.14 383.01 C 265.48 379.82 260.81 376.64 256.10 373.52 C 251.50 376.60 246.87 379.65 242.27 382.73 M 224.30 394.73 C 230.37 394.83 236.44 394.81 242.51 394.85 C 241.29 391.58 240.05 388.32 238.80 385.07 C 233.93 388.23 229.07 391.41 224.30 394.73 M 269.82 394.98 C 275.76 395.10 281.70 395.15 287.65 395.04 C 283.09 391.66 278.33 388.58 273.66 385.37 C 272.34 388.56 271.07 391.77 269.82 394.98 M 248.52 399.07 C 251.02 405.59 253.46 412.14 256.02 418.64 C 258.68 412.15 261.24 405.63 263.77 399.09 C 258.68 399.04 253.60 399.03 248.52 399.07 Z" />
<path fill="#2a2a2a" opacity="1.00" d=" M 159.62 454.60 C 165.12 453.89 170.79 453.90 176.29 454.65 C 176.60 455.86 176.83 457.08 177.10 458.31 C 174.75 458.51 172.40 458.68 170.05 458.81 C 169.96 464.15 170.49 469.55 169.59 474.84 C 168.44 475.46 167.24 475.55 165.99 475.11 C 165.09 469.76 165.63 464.32 165.56 458.93 C 163.06 458.69 160.55 458.44 158.06 458.09 C 158.52 456.89 159.04 455.73 159.62 454.60 Z" />
<path fill="#2a2a2a" opacity="1.00" d=" M 182.81 454.33 C 188.17 453.05 187.04 459.10 187.42 462.61 C 190.46 462.58 193.49 462.59 196.53 462.61 C 197.07 459.55 195.32 454.25 199.79 453.98 C 202.62 460.22 201.18 468.00 200.68 474.73 C 196.00 477.79 196.69 469.90 196.53 467.09 C 193.48 467.12 190.43 467.12 187.39 467.09 C 187.24 469.64 187.28 472.24 186.64 474.74 C 185.24 476.56 182.51 475.12 182.84 472.97 C 182.37 466.77 182.74 460.54 182.81 454.33 Z" />
<path fill="#2a2a2a" opacity="1.00" d=" M 208.64 454.57 C 214.05 454.19 219.50 453.92 224.91 454.36 C 226.95 454.38 226.61 457.02 227.11 458.38 C 222.40 458.75 217.68 458.68 212.96 458.71 C 213.00 459.99 213.05 461.28 213.10 462.57 C 216.87 463.14 222.44 460.80 224.60 464.95 C 222.26 468.69 216.78 466.62 213.05 467.18 C 213.04 468.42 213.04 469.67 213.04 470.93 C 217.75 470.91 222.49 470.93 227.17 471.56 C 227.03 472.49 226.74 474.34 226.59 475.26 C 220.64 475.63 214.68 475.63 208.73 475.28 C 208.39 468.38 208.46 461.47 208.64 454.57 Z" />
<path fill="#2a2a2a" opacity="1.00" d=" M 248.58 454.46 C 253.45 454.29 259.23 453.12 263.18 456.78 C 267.96 460.57 268.12 468.56 263.57 472.59 C 259.65 476.50 253.67 475.42 248.68 475.37 C 248.23 468.41 248.31 461.42 248.58 454.46 M 252.88 458.38 C 252.83 462.69 252.83 467.00 252.88 471.31 C 256.92 471.30 262.49 470.13 262.42 465.00 C 262.75 459.75 257.02 458.29 252.88 458.38 Z" />
<path fill="#2a2a2a" opacity="1.00" d=" M 273.43 455.35 C 278.70 452.78 285.45 454.77 291.28 454.40 C 291.27 455.77 291.26 457.15 291.24 458.53 C 286.75 458.70 282.26 458.69 277.77 458.66 C 277.67 459.93 277.56 461.21 277.46 462.49 C 281.43 462.52 285.42 462.58 289.35 463.24 C 288.47 469.05 281.70 466.70 277.60 467.15 C 277.60 468.42 277.60 469.70 277.61 470.98 C 282.11 471.92 292.05 468.02 291.66 475.27 C 285.55 475.63 279.42 475.65 273.32 475.22 C 273.22 468.60 272.70 461.93 273.43 455.35 Z" />
<path fill="#2a2a2a" opacity="1.00" d=" M 296.52 457.51 C 295.00 455.60 298.48 452.65 299.86 455.02 C 302.67 459.11 304.39 463.82 306.75 468.17 C 309.25 463.35 311.59 458.45 314.27 453.72 C 315.47 454.38 316.66 455.07 317.85 455.77 C 314.48 462.80 311.46 470.07 306.97 476.48 C 302.31 470.90 299.63 464.01 296.52 457.51 Z" />
<path fill="#2a2a2a" opacity="1.00" d=" M 323.65 454.81 C 324.86 454.49 326.09 454.33 327.32 454.14 C 327.45 461.07 328.24 468.14 327.00 475.00 C 325.78 475.19 324.56 475.34 323.33 475.46 C 323.24 468.59 322.44 461.60 323.65 454.81 Z" />
<path fill="#2a2a2a" opacity="1.00" d=" M 335.28 455.18 C 336.41 454.34 337.93 454.48 339.25 454.21 C 339.46 459.76 339.40 465.32 339.39 470.89 C 343.10 470.97 346.82 471.07 350.53 471.40 C 350.42 472.71 350.31 474.02 350.20 475.34 C 345.20 475.58 340.19 475.60 335.19 475.25 C 334.98 468.57 334.47 461.83 335.28 455.18 Z" />
</g>
</svg>
