<?xml version="1.0" encoding="UTF-8" ?>
<!DOCTYPE svg PUBLIC "-//W3C//DTD SVG 1.1//EN" "http://www.w3.org/Graphics/SVG/1.1/DTD/svg11.dtd">
<svg width="120pt" height="120pt" viewBox="0 0 512 512" version="1.1" xmlns="http://www.w3.org/2000/svg">
<g id="#2a2a2afd">
<path fill="#2a2a2a" opacity="1.00" d=" M 266.39 21.51 C 303.29 21.47 340.19 21.36 377.08 21.34 C 386.01 20.93 393.80 29.12 393.19 38.00 C 393.40 183.01 393.65 328.04 393.88 473.05 C 394.19 478.76 391.68 484.69 386.70 487.73 C 381.79 491.05 375.60 490.18 370.00 490.29 C 294.34 490.39 218.67 490.52 143.00 490.68 C 137.30 490.57 130.97 491.54 125.98 488.10 C 121.23 485.12 118.64 479.53 118.80 474.00 C 118.62 328.65 118.31 183.29 118.14 37.94 C 117.65 29.28 125.31 21.46 133.97 21.76 C 178.11 21.62 222.25 21.61 266.39 21.51 M 323.39 25.48 C 260.59 25.59 197.79 25.68 134.99 25.76 C 128.18 25.13 121.73 31.00 122.20 37.92 C 122.36 182.95 122.67 327.98 122.84 473.02 C 121.97 480.05 127.69 487.01 134.95 486.59 C 215.63 486.51 296.32 486.32 377.01 486.24 C 383.82 486.86 390.26 481.00 389.79 474.08 C 389.64 332.06 389.35 190.03 389.16 48.00 C 389.07 43.38 389.51 38.71 388.67 34.14 C 387.58 28.88 382.32 25.23 377.06 25.41 C 359.17 25.38 341.28 25.48 323.39 25.48 Z" />
<path fill="#2a2a2a" opacity="1.00" d=" M 132.49 32.74 C 136.61 31.96 140.83 32.46 145.00 32.36 C 222.36 32.41 299.73 32.33 377.09 32.40 C 380.81 31.94 383.20 35.54 382.72 38.94 C 382.69 171.65 382.72 304.36 382.71 437.06 C 383.15 439.96 381.12 442.54 378.06 442.11 C 297.37 442.29 216.67 442.08 135.97 442.21 C 133.12 442.42 128.79 441.89 129.33 438.01 C 129.20 304.98 129.32 171.94 129.27 38.92 C 129.17 36.51 129.83 33.49 132.49 32.74 M 133.43 36.45 C 133.27 170.31 133.41 304.18 133.35 438.04 C 215.12 438.18 296.88 438.18 378.65 438.04 C 378.58 304.18 378.71 170.32 378.56 36.45 C 296.85 36.38 215.14 36.39 133.43 36.45 Z" />
<path fill="#2a2a2a" opacity="1.00" d=" M 333.43 45.33 C 335.26 46.39 337.11 47.45 338.85 48.66 C 341.89 46.73 345.38 46.28 348.52 48.26 C 351.33 47.25 355.42 45.28 357.44 48.63 C 360.87 57.35 356.38 67.37 360.24 76.02 C 362.92 70.02 367.30 74.46 369.75 78.01 C 368.52 81.22 365.41 82.98 362.55 84.50 C 362.11 83.22 361.69 81.95 361.27 80.67 C 358.56 79.29 355.17 77.78 354.81 74.33 C 353.85 66.33 355.08 58.21 354.01 50.19 C 345.88 55.63 350.60 66.70 349.23 74.75 C 347.87 74.48 345.34 74.95 345.29 72.91 C 344.69 65.38 345.67 57.77 344.54 50.26 C 337.03 54.92 340.84 64.83 339.81 72.04 C 340.31 74.59 337.51 74.65 335.78 74.77 C 334.42 65.93 338.68 55.34 332.24 47.94 C 332.54 47.28 333.14 45.98 333.43 45.33 Z" />
<path fill="#2a2a2a" opacity="1.00" d=" M 235.60 58.67 C 234.11 54.75 226.09 50.40 232.38 47.33 C 234.58 49.85 236.72 52.43 238.88 54.99 C 241.54 52.61 243.34 47.02 247.70 48.30 C 248.72 52.42 243.97 54.81 242.45 58.18 C 242.45 61.68 251.77 66.57 245.87 69.30 C 242.92 67.59 241.06 64.62 238.88 62.10 C 236.53 64.41 232.40 72.44 229.46 67.03 C 231.08 63.95 233.72 61.58 235.60 58.67 Z" />
<path fill="#2a2a2a" opacity="1.00" d=" M 254.63 47.34 C 257.76 49.25 260.16 52.05 262.41 54.89 C 265.26 52.21 268.05 45.55 272.45 49.55 C 270.22 52.67 267.81 55.65 265.44 58.66 C 267.86 61.51 270.24 64.40 272.46 67.41 C 268.09 71.62 265.27 64.85 262.41 62.13 C 259.86 64.33 256.75 71.78 253.13 67.67 C 254.01 64.00 257.22 61.54 259.44 58.66 C 257.25 55.85 255.02 53.06 252.86 50.23 C 253.30 49.51 254.19 48.06 254.63 47.34 Z" />
<path fill="#2a2a2a" opacity="1.00" d=" M 278.18 48.22 C 279.50 48.21 280.82 48.20 282.15 48.19 C 282.50 55.07 282.50 61.96 282.15 68.84 C 280.82 68.83 279.49 68.82 278.17 68.80 C 277.66 61.95 277.66 55.07 278.18 48.22 Z" />
<path fill="#2a2a2a" opacity="1.00" d=" M 144.85 58.36 C 144.88 53.18 151.93 52.04 155.34 49.10 C 156.40 50.67 157.43 52.25 158.46 53.84 C 160.75 52.23 163.04 50.63 165.35 49.07 C 166.42 50.62 167.46 52.21 168.48 53.80 C 170.80 52.16 173.13 50.55 175.50 48.99 C 177.32 51.78 179.07 54.77 179.32 58.18 C 176.41 59.35 175.50 55.93 174.05 54.18 C 171.74 55.81 169.39 57.39 167.00 58.90 C 166.05 57.33 165.11 55.75 164.18 54.17 C 161.82 55.79 159.43 57.38 157.00 58.89 C 156.03 57.26 155.07 55.62 154.12 53.97 C 151.21 55.73 148.42 58.23 144.85 58.36 Z" />
<path fill="#2a2a2a" opacity="1.00" d=" M 144.73 70.02 C 147.77 66.81 151.89 64.95 155.67 62.78 C 156.56 64.36 157.43 65.94 158.31 67.53 C 160.67 65.94 163.03 64.34 165.40 62.75 C 166.44 64.29 167.45 65.85 168.46 67.41 C 170.81 65.81 173.16 64.21 175.53 62.64 C 177.57 65.66 179.06 69.05 179.31 72.73 C 177.07 71.72 175.39 69.95 173.94 68.02 C 170.74 70.89 165.77 74.00 164.06 67.97 C 161.85 69.51 159.68 71.20 157.13 72.13 C 155.91 70.80 154.94 69.28 153.90 67.82 C 151.34 69.04 145.47 74.59 144.73 70.02 Z" />
<path fill="#2a2a2a" opacity="1.00" d=" M 255.37 93.15 C 257.87 93.09 257.93 96.57 259.10 98.20 C 260.73 98.91 262.37 99.59 264.02 100.29 C 263.95 100.77 263.81 101.73 263.74 102.21 C 259.85 103.24 257.89 106.63 256.00 109.84 C 254.11 106.63 252.13 103.27 248.26 102.21 C 248.19 101.73 248.04 100.78 247.97 100.30 C 249.62 99.60 251.27 98.91 252.92 98.20 C 253.68 96.49 254.37 94.74 255.37 93.15 Z" />
<path fill="#2a2a2a" opacity="1.00" d=" M 162.78 96.29 C 163.23 96.28 164.13 96.24 164.58 96.23 C 165.27 97.83 165.95 99.44 166.64 101.04 C 168.52 101.94 170.41 102.83 172.17 103.96 C 168.55 106.13 165.72 109.08 163.33 112.53 C 161.55 108.99 158.83 106.23 155.27 104.47 C 158.05 101.93 161.78 100.31 162.78 96.29 Z" />
<path fill="#2a2a2a" opacity="1.00" d=" M 341.68 104.54 C 344.58 101.74 348.13 99.48 350.01 95.62 C 351.12 97.32 352.07 99.12 353.02 100.92 C 354.97 101.99 356.87 103.19 358.50 104.73 C 354.33 105.81 351.54 108.84 350.20 112.85 C 348.08 109.38 345.31 106.44 341.68 104.54 Z" />
<path fill="#2a2a2a" opacity="1.00" d=" M 196.17 116.65 C 200.47 116.04 201.47 111.13 204.57 109.53 C 206.18 112.68 208.27 115.59 211.87 116.60 C 211.86 117.05 211.86 117.93 211.85 118.38 C 208.27 119.38 206.19 122.29 204.57 125.42 C 201.47 123.86 200.49 118.88 196.17 118.34 C 196.17 117.91 196.17 117.07 196.17 116.65 Z" />
<path fill="#2a2a2a" opacity="1.00" d=" M 300.14 116.59 C 303.72 115.59 305.80 112.69 307.42 109.55 C 310.53 111.07 311.52 116.06 315.82 116.65 C 315.82 117.07 315.83 117.91 315.83 118.33 C 311.48 118.87 310.54 123.87 307.43 125.44 C 305.81 122.29 303.73 119.37 300.14 118.38 C 300.14 117.93 300.14 117.04 300.14 116.59 Z" />
<path fill="#2a2a2a" opacity="1.00" d=" M 243.40 130.52 C 249.92 129.38 255.56 133.73 261.58 135.46 C 265.87 136.69 269.34 139.64 271.54 143.49 C 321.11 145.44 362.40 192.96 360.31 241.97 C 359.39 275.71 340.72 308.22 312.21 326.23 C 284.35 344.41 247.60 347.81 216.87 335.08 C 186.81 323.06 163.17 296.31 155.08 264.95 C 146.38 232.94 154.38 197.07 175.70 171.69 C 189.53 155.06 208.61 142.78 229.60 137.42 C 234.78 136.32 238.10 131.33 243.40 130.52 M 231.87 141.02 C 204.75 147.56 180.90 166.15 167.74 190.72 C 155.87 212.62 152.54 239.01 158.81 263.14 C 166.29 293.16 188.60 318.92 217.14 330.80 C 247.31 343.78 283.79 340.44 311.06 322.13 C 337.56 304.90 354.97 274.59 356.21 242.97 C 358.11 207.74 336.87 173.29 305.97 156.99 C 303.00 154.77 300.74 158.39 298.54 159.96 C 308.57 167.23 318.49 175.20 325.13 185.84 C 339.19 208.31 344.00 237.17 335.36 262.52 C 326.77 288.45 304.33 309.14 277.81 315.66 C 256.23 321.15 232.49 317.30 213.80 305.18 C 187.58 288.78 172.49 256.70 176.67 226.04 C 180.32 192.98 206.26 164.00 238.72 156.72 C 247.25 163.41 255.80 154.86 263.75 151.72 C 268.55 150.15 268.38 142.99 263.99 141.03 C 258.47 138.54 252.80 136.19 247.00 134.47 C 240.82 133.37 237.45 140.00 231.87 141.02 M 252.16 162.12 C 247.34 164.90 242.18 162.49 237.30 161.48 C 202.85 169.71 177.80 204.77 180.23 240.01 C 181.23 275.20 209.31 307.04 243.98 312.79 C 275.95 319.10 310.49 302.57 325.89 273.92 C 342.73 244.02 336.88 203.98 314.40 178.59 C 302.29 166.40 287.68 156.03 270.98 151.36 C 265.53 156.24 258.44 158.55 252.16 162.12 Z" />
<path fill="#2a2a2a" opacity="1.00" d=" M 240.14 138.67 C 243.98 138.99 248.14 139.57 250.79 142.69 C 246.64 143.60 242.77 141.87 240.14 138.67 Z" />
<path fill="#2a2a2a" opacity="1.00" d=" M 160.11 142.09 C 160.66 142.20 161.78 142.41 162.33 142.52 C 162.84 144.07 163.36 145.62 163.88 147.17 C 165.59 147.87 167.32 148.56 169.04 149.25 C 168.97 149.74 168.83 150.73 168.76 151.22 C 164.86 152.24 162.94 155.65 161.01 158.84 C 159.12 155.62 157.18 152.23 153.29 151.21 C 153.21 150.73 153.07 149.77 152.99 149.29 C 154.69 148.58 156.40 147.89 158.10 147.19 C 158.77 145.49 159.43 143.79 160.11 142.09 Z" />
<path fill="#2a2a2a" opacity="1.00" d=" M 350.08 146.98 C 351.01 145.19 351.94 143.40 353.05 141.70 C 355.27 145.21 357.90 148.33 361.74 150.14 C 358.17 152.29 355.32 155.20 353.14 158.73 C 351.31 155.03 348.70 151.88 344.57 150.68 C 346.30 149.30 348.16 148.10 350.08 146.98 Z" />
<path fill="#2a2a2a" opacity="1.00" d=" M 241.34 155.38 C 243.65 151.90 247.37 149.69 251.65 150.34 C 249.13 153.52 245.18 154.74 241.34 155.38 Z" />
<path fill="#2a2a2a" opacity="1.00" d=" M 217.32 194.01 C 217.80 192.32 218.29 190.63 218.79 188.95 C 219.79 190.36 220.79 191.79 221.78 193.22 C 223.16 192.24 224.54 191.27 225.92 190.31 C 225.91 191.91 225.89 193.52 225.87 195.14 C 227.49 195.11 229.12 195.09 230.74 195.08 C 229.82 196.42 228.89 197.75 227.96 199.09 C 229.36 200.13 230.75 201.17 232.15 202.23 C 230.49 202.76 228.84 203.28 227.18 203.79 C 227.73 205.29 228.28 206.80 228.83 208.31 C 227.28 207.88 225.73 207.45 224.19 207.02 C 223.60 208.56 223.01 210.09 222.40 211.62 C 221.39 210.28 220.39 208.94 219.39 207.60 C 218.06 208.57 216.74 209.53 215.41 210.49 C 215.43 208.77 215.47 207.05 215.51 205.33 C 213.94 205.50 212.37 205.68 210.81 205.85 C 213.54 202.99 212.73 200.25 209.62 198.15 C 211.11 197.87 212.60 197.59 214.09 197.31 C 213.66 195.62 213.23 193.93 212.81 192.25 C 214.31 192.83 215.81 193.42 217.32 194.01 Z" />
<path fill="#2a2a2a" opacity="1.00" d=" M 290.22 193.21 C 291.21 191.79 292.20 190.36 293.21 188.95 C 293.71 190.63 294.20 192.32 294.68 194.01 C 296.19 193.42 297.69 192.83 299.20 192.25 C 298.77 193.93 298.34 195.62 297.91 197.30 C 299.40 197.59 300.89 197.87 302.38 198.15 C 299.28 200.25 298.46 202.99 301.19 205.85 C 299.62 205.68 298.05 205.50 296.49 205.33 C 296.53 207.04 296.57 208.76 296.60 210.48 C 295.26 209.53 293.93 208.57 292.60 207.60 C 291.60 208.94 290.60 210.28 289.59 211.62 C 288.99 210.09 288.40 208.56 287.82 207.02 C 286.27 207.45 284.72 207.88 283.17 208.30 C 283.71 206.79 284.27 205.29 284.82 203.79 C 283.16 203.28 281.50 202.76 279.85 202.23 C 281.24 201.17 282.64 200.13 284.04 199.08 C 283.10 197.75 282.17 196.42 281.26 195.08 C 282.88 195.09 284.50 195.11 286.12 195.13 C 286.10 193.52 286.09 191.91 286.08 190.30 C 287.46 191.26 288.84 192.23 290.22 193.21 Z" />
<path fill="#2a2a2a" opacity="1.00" d=" M 229.18 215.81 C 231.36 213.53 233.58 211.30 235.84 209.12 C 241.52 217.36 249.22 223.85 256.00 231.12 C 262.78 223.85 270.49 217.36 276.16 209.12 C 278.42 211.30 280.64 213.53 282.82 215.80 C 274.41 221.29 267.98 229.14 260.70 235.95 C 268.44 243.34 274.93 252.13 283.90 258.14 C 290.38 264.07 296.42 270.49 302.60 276.73 C 300.65 278.69 298.70 280.64 296.75 282.58 C 288.98 274.57 280.09 267.46 273.96 258.04 C 268.17 251.97 261.97 246.30 256.00 240.40 C 248.37 248.30 239.39 255.06 233.42 264.40 C 227.56 270.65 221.37 276.58 215.26 282.59 C 213.31 280.64 211.35 278.69 209.40 276.73 C 217.25 269.12 224.26 260.52 233.30 254.26 C 239.63 248.49 245.22 241.96 251.32 235.94 C 244.01 229.16 237.60 221.29 229.18 215.81 Z" />
<path fill="#2a2a2a" opacity="1.00" d=" M 159.38 336.15 C 159.85 336.17 160.80 336.21 161.27 336.22 C 162.31 340.09 165.63 342.11 168.83 344.03 C 165.40 346.13 162.42 348.80 160.64 352.48 C 158.34 348.95 155.39 346.05 151.77 343.90 C 153.54 342.76 155.45 341.86 157.34 340.96 C 158.03 339.36 158.70 337.75 159.38 336.15 Z" />
<path fill="#2a2a2a" opacity="1.00" d=" M 350.74 336.23 C 351.20 336.20 352.14 336.15 352.61 336.13 C 353.29 337.74 353.98 339.35 354.68 340.96 C 356.55 341.87 358.46 342.75 360.21 343.90 C 356.70 346.07 353.56 348.70 351.71 352.49 C 349.55 349.24 347.09 346.23 343.48 344.52 C 345.61 341.57 350.02 340.46 350.74 336.23 Z" />
<path fill="#2a2a2a" opacity="1.00" d=" M 191.32 359.48 C 195.07 357.62 197.98 354.72 199.84 350.98 C 201.28 355.17 204.74 357.67 208.27 359.99 C 206.49 361.14 204.56 362.04 202.67 362.97 C 202.00 364.56 201.34 366.16 200.68 367.77 C 200.21 367.73 199.27 367.65 198.80 367.61 C 197.84 363.60 194.17 361.91 191.32 359.48 Z" />
<path fill="#2a2a2a" opacity="1.00" d=" M 303.73 359.99 C 307.22 357.75 310.40 355.16 312.18 351.29 C 314.36 354.84 317.26 357.71 320.78 359.92 C 317.49 361.70 314.21 363.73 313.20 367.60 C 312.73 367.64 311.79 367.73 311.32 367.77 C 310.65 366.16 309.99 364.56 309.33 362.96 C 307.43 362.03 305.51 361.14 303.73 359.99 Z" />
<path fill="#2a2a2a" opacity="1.00" d=" M 247.35 380.81 C 251.58 379.89 253.58 375.83 256.01 373.22 C 258.44 375.92 260.44 379.85 264.65 380.81 C 262.23 382.63 259.35 384.07 257.95 386.90 C 257.42 387.90 256.03 390.27 255.02 388.38 C 253.40 384.99 250.41 382.80 247.35 380.81 Z" />
<path fill="#2a2a2a" opacity="1.00" d=" M 344.11 390.09 C 349.65 385.13 359.91 388.47 360.98 396.01 C 363.21 405.85 353.90 413.28 354.43 422.89 C 357.24 422.00 359.92 420.62 362.86 420.12 C 365.63 426.53 352.57 429.97 350.63 423.41 C 347.82 413.65 358.89 406.15 356.58 396.34 C 355.55 391.30 347.05 390.41 345.60 395.60 C 343.51 402.12 351.04 407.39 349.03 413.87 C 347.29 419.63 339.04 421.44 335.10 416.86 C 329.95 411.63 334.43 403.32 341.09 402.45 C 340.95 398.21 340.51 393.14 344.11 390.09 M 339.51 407.63 C 334.91 409.49 338.15 417.06 342.72 414.82 C 347.48 413.05 344.04 405.27 339.51 407.63 Z" />
<path fill="#2a2a2a" opacity="1.00" d=" M 145.45 392.11 C 146.64 390.97 147.95 389.21 149.84 390.07 C 156.32 392.40 157.19 402.71 165.00 402.52 C 172.87 401.30 173.51 389.84 181.99 389.37 C 182.33 390.42 182.68 391.46 183.02 392.52 C 177.98 395.02 175.24 400.05 171.81 404.24 C 177.00 408.84 179.57 417.05 174.92 422.93 C 169.93 430.47 157.32 429.72 153.28 421.64 C 149.67 415.74 152.50 408.56 157.21 404.25 C 153.69 399.82 150.71 394.72 145.45 392.11 M 161.30 407.27 C 155.63 409.32 153.82 417.54 158.40 421.60 C 162.70 426.25 171.34 423.99 172.89 417.87 C 175.18 411.30 167.66 404.33 161.30 407.27 Z" />
<path fill="#2a2a2a" opacity="1.00" d=" M 217.11 406.19 C 218.12 404.31 219.09 402.33 220.76 400.93 C 221.82 402.63 222.71 404.45 223.63 406.24 C 225.57 407.35 227.49 408.50 229.36 409.75 C 227.43 410.72 225.49 411.63 223.54 412.55 C 222.59 414.52 221.65 416.49 220.65 418.44 C 219.41 416.52 218.24 414.56 217.16 412.56 C 215.28 411.64 213.39 410.71 211.53 409.76 C 213.38 408.55 215.21 407.32 217.11 406.19 Z" />
<path fill="#2a2a2a" opacity="1.00" d=" M 282.77 409.86 C 286.59 407.85 289.33 404.58 291.81 401.20 C 293.71 404.89 296.60 407.76 300.24 409.74 C 296.32 411.03 293.77 414.05 291.87 417.55 C 289.75 417.19 289.51 414.12 288.35 412.53 C 286.49 411.64 284.61 410.76 282.77 409.86 Z" />
<path fill="#2a2a2a" opacity="1.00" d=" M 149.64 455.40 C 155.25 454.37 161.14 454.49 166.77 455.37 C 169.12 459.77 163.05 459.32 160.31 459.62 C 160.36 465.22 160.43 470.82 160.04 476.41 C 152.36 475.47 157.04 464.88 155.82 459.49 C 153.39 459.34 150.96 459.16 148.55 458.92 C 148.86 457.73 149.23 456.56 149.64 455.40 Z" />
<path fill="#2a2a2a" opacity="1.00" d=" M 173.52 454.75 C 174.45 454.90 176.29 455.19 177.22 455.34 C 177.35 457.95 177.45 460.58 177.52 463.21 C 180.60 463.25 183.67 463.28 186.75 463.31 C 186.97 460.45 187.20 457.60 187.56 454.77 C 188.48 454.91 190.32 455.20 191.24 455.34 C 191.60 462.11 191.60 468.90 191.24 475.68 C 190.32 475.82 188.48 476.10 187.56 476.25 C 187.20 473.40 186.97 470.55 186.75 467.70 C 183.67 467.72 180.60 467.75 177.52 467.80 C 177.45 470.43 177.35 473.05 177.22 475.68 C 176.29 475.82 174.44 476.11 173.52 476.26 C 172.64 469.13 172.63 461.88 173.52 454.75 Z" />
<path fill="#2a2a2a" opacity="1.00" d=" M 199.09 455.18 C 204.95 454.85 210.94 454.25 216.75 455.38 C 218.34 462.15 207.44 458.49 203.31 459.33 C 203.28 460.61 203.26 461.89 203.23 463.18 C 206.89 463.36 210.73 462.74 214.24 464.05 C 215.33 469.91 206.73 467.11 203.24 467.83 C 203.26 469.11 203.28 470.39 203.30 471.68 C 207.45 472.54 218.29 468.84 216.78 475.63 C 210.95 476.74 204.95 476.15 199.08 475.83 C 198.61 468.95 198.60 462.05 199.09 455.18 Z" />
<path fill="#2a2a2a" opacity="1.00" d=" M 237.64 454.04 C 243.65 456.82 244.25 464.28 248.10 469.04 C 251.48 463.68 241.26 457.37 248.44 454.30 C 249.57 456.25 250.68 458.22 251.77 460.19 C 252.94 458.16 254.13 456.15 255.39 454.17 C 260.86 456.85 255.59 461.96 254.23 465.77 C 254.85 466.71 255.46 467.66 256.08 468.62 C 258.62 464.24 260.12 459.18 263.37 455.27 C 265.46 453.14 267.55 457.24 265.97 458.91 C 263.00 464.64 260.69 470.83 256.86 476.05 C 253.92 476.58 253.25 472.67 251.68 470.91 C 250.76 472.60 249.83 474.28 248.89 475.97 C 248.21 475.95 246.85 475.90 246.17 475.88 C 243.38 468.65 236.70 462.16 237.64 454.04 Z" />
<path fill="#2a2a2a" opacity="1.00" d=" M 278.33 455.41 C 285.46 452.62 293.77 459.48 292.35 467.01 C 291.58 474.88 281.12 479.05 275.16 473.86 C 268.64 469.12 270.58 457.70 278.33 455.41 M 280.43 459.48 C 276.00 460.36 273.96 466.53 277.34 469.71 C 280.36 473.38 287.05 471.50 287.81 466.84 C 288.94 462.60 284.63 458.39 280.43 459.48 Z" />
<path fill="#2a2a2a" opacity="1.00" d=" M 298.87 455.17 C 304.43 455.12 311.91 452.99 315.78 458.28 C 318.54 461.89 316.40 466.31 314.22 469.57 C 315.69 471.40 319.07 475.45 314.90 476.24 C 311.21 473.85 308.35 469.61 303.37 470.34 C 303.10 472.35 302.83 474.36 302.54 476.38 C 301.17 475.76 298.66 476.09 298.87 473.97 C 298.29 467.72 298.68 461.42 298.87 455.17 M 303.21 459.21 C 303.19 461.54 303.18 463.86 303.17 466.19 C 305.69 466.10 308.25 466.23 310.72 465.66 C 313.43 464.83 313.20 460.43 310.55 459.71 C 308.14 459.19 305.65 459.32 303.21 459.21 Z" />
<path fill="#2a2a2a" opacity="1.00" d=" M 323.59 454.93 C 324.86 455.13 326.15 455.31 327.41 455.64 C 328.21 460.91 327.66 466.28 327.84 471.60 C 331.71 471.60 335.60 471.67 339.45 472.16 C 338.03 479.34 328.68 475.31 323.50 475.71 C 323.28 468.79 323.19 461.85 323.59 454.93 Z" />
<path fill="#2a2a2a" opacity="1.00" d=" M 344.88 455.14 C 352.62 453.13 363.81 456.27 363.15 466.01 C 362.93 475.29 352.29 477.61 344.88 475.87 C 344.55 468.97 344.55 462.04 344.88 455.14 M 349.25 459.03 C 349.16 463.35 349.16 467.66 349.25 471.98 C 353.15 471.89 358.48 470.92 358.64 465.99 C 359.24 460.65 353.50 458.91 349.25 459.03 Z" />
</g>
</svg>
