<?xml version="1.0" encoding="UTF-8" ?>
<!DOCTYPE svg PUBLIC "-//W3C//DTD SVG 1.1//EN" "http://www.w3.org/Graphics/SVG/1.1/DTD/svg11.dtd">
<svg width="120pt" height="120pt" viewBox="0 0 512 512" version="1.1" xmlns="http://www.w3.org/2000/svg">
<g id="#2a2a2aff">
<path fill="#2a2a2a" opacity="1.00" d=" M 132.36 21.49 C 213.58 21.10 294.83 21.48 376.06 21.30 C 381.73 20.98 387.65 23.28 390.86 28.13 C 394.43 33.01 393.59 39.33 393.66 45.00 C 393.60 188.33 393.70 331.66 393.62 474.98 C 393.81 483.36 386.36 490.81 377.99 490.64 C 296.98 490.72 215.96 490.64 134.96 490.67 C 126.28 491.23 118.14 483.75 118.38 474.98 C 118.31 329.30 118.38 183.63 118.35 37.95 C 117.83 29.89 124.23 22.10 132.36 21.49 M 131.45 25.76 C 125.89 26.83 122.09 32.42 122.41 37.96 C 122.42 183.32 122.42 328.68 122.41 474.04 C 121.86 480.94 128.01 487.15 134.92 486.59 C 215.64 486.59 296.36 486.59 377.08 486.59 C 383.99 487.15 390.13 480.94 389.59 474.05 C 389.58 328.68 389.58 183.31 389.59 37.95 C 389.87 32.67 386.48 27.32 381.26 25.93 C 376.91 24.98 372.41 25.50 368.00 25.40 C 293.67 25.42 219.33 25.41 145.00 25.40 C 140.49 25.48 135.93 25.06 131.45 25.76 Z" />
<path fill="#2a2a2a" opacity="1.00" d=" M 132.41 32.58 C 136.89 31.77 141.48 32.31 146.00 32.20 C 222.69 32.20 299.39 32.22 376.08 32.19 C 379.61 31.63 383.27 34.05 382.75 37.92 C 382.84 170.63 382.71 303.34 382.82 436.05 C 383.34 439.19 381.83 442.90 378.05 442.27 C 297.36 442.38 216.67 442.22 135.99 442.35 C 133.05 442.59 128.64 442.04 129.25 438.04 C 129.15 305.01 129.26 171.96 129.19 38.93 C 129.14 36.50 129.59 33.24 132.41 32.58 M 339.50 38.47 C 330.34 47.36 321.00 56.07 311.84 64.97 C 320.91 76.12 330.09 87.18 339.24 98.27 C 314.97 116.45 290.55 134.44 266.10 152.38 C 264.73 148.68 263.39 144.97 261.83 141.34 C 257.44 150.00 253.55 158.89 249.30 167.61 C 258.69 167.78 268.08 167.72 277.47 167.65 C 274.92 164.73 272.32 161.85 269.75 158.95 C 302.47 140.81 335.26 122.79 367.99 104.66 C 359.83 92.99 351.58 81.38 343.30 69.80 C 354.31 61.61 365.56 53.74 376.63 45.65 C 379.87 43.68 378.43 39.42 378.78 36.30 C 367.49 36.21 356.20 36.24 344.91 36.23 C 342.80 36.01 340.91 36.96 339.50 38.47 M 133.25 45.49 C 133.29 167.37 133.24 289.25 133.27 411.13 C 155.03 402.81 178.07 397.90 201.26 395.94 C 205.30 320.50 209.56 245.07 213.76 169.63 C 202.62 166.34 192.12 160.39 184.71 151.30 C 174.91 141.23 172.64 126.40 173.50 112.90 C 163.86 110.75 154.08 105.46 149.88 96.07 C 144.97 84.81 147.48 71.66 153.91 61.53 C 144.82 59.83 137.39 53.64 133.25 45.49 M 226.06 49.60 C 228.24 52.60 231.04 55.21 232.69 58.58 C 230.64 61.68 228.05 64.40 226.00 67.50 C 230.65 71.27 233.23 64.72 236.03 61.90 C 238.85 64.72 241.40 71.26 246.09 67.52 C 244.01 64.41 241.42 61.69 239.36 58.57 C 240.98 55.35 243.63 52.80 245.79 49.94 C 244.83 49.00 243.87 48.06 242.91 47.12 C 240.48 49.55 238.23 52.14 236.02 54.76 C 233.27 52.11 230.19 44.93 226.06 49.60 M 253.00 56.99 C 255.69 60.91 256.35 67.13 260.95 69.18 C 264.80 64.92 266.45 59.21 269.28 54.29 C 270.25 52.22 272.48 48.23 268.93 47.48 C 264.46 50.85 263.47 57.05 260.40 61.56 C 257.56 56.87 256.26 51.05 252.07 47.31 C 247.58 49.37 251.89 54.03 253.00 56.99 M 277.09 49.14 C 276.44 55.32 276.50 61.63 277.03 67.82 C 278.12 68.60 279.45 68.94 280.65 69.51 C 281.42 62.76 281.67 55.88 280.90 49.13 C 281.00 47.23 276.97 47.24 277.09 49.14 M 364.16 92.10 C 367.40 96.75 370.72 101.35 373.94 106.02 C 364.95 111.01 355.93 115.95 346.91 120.91 C 344.28 122.05 343.12 124.75 342.14 127.25 C 334.57 146.78 317.67 161.79 298.37 169.31 C 302.23 244.87 306.79 320.39 310.73 395.94 C 333.92 397.88 356.98 402.74 378.73 411.08 C 378.76 300.03 378.66 188.97 378.77 77.92 C 375.15 83.78 370.09 88.61 364.16 92.10 M 250.10 99.23 C 243.66 95.56 237.75 90.89 230.93 87.92 C 226.90 94.27 225.63 101.95 222.74 108.84 C 213.73 109.84 204.56 109.37 195.64 111.06 C 195.61 113.77 197.69 115.73 199.26 117.69 C 204.20 123.28 208.80 129.17 213.84 134.68 C 233.53 127.44 253.84 121.47 273.07 113.26 C 273.33 103.45 275.10 93.19 272.70 83.58 C 264.98 88.51 257.67 94.07 250.10 99.23 M 217.62 172.13 C 213.62 246.81 209.26 321.47 205.32 396.15 C 208.42 396.14 211.52 396.11 214.61 396.07 C 214.76 383.68 214.29 371.28 214.81 358.91 C 214.44 356.61 218.70 356.99 218.48 359.13 C 218.96 371.44 218.47 383.79 218.68 396.12 C 221.86 396.13 225.05 396.14 228.23 396.13 C 228.46 388.13 227.95 380.11 228.42 372.12 C 228.24 369.93 230.54 369.87 232.09 369.41 C 232.58 378.29 232.26 387.19 232.34 396.08 C 235.53 396.12 238.72 396.14 241.92 396.14 C 241.99 388.71 241.77 381.28 242.20 373.86 C 243.38 373.86 244.56 373.86 245.75 373.88 C 246.23 381.28 245.83 388.71 246.05 396.12 C 251.41 396.15 256.77 396.15 262.13 396.13 C 262.37 388.81 261.68 381.45 262.48 374.17 C 263.53 373.67 264.60 373.63 265.70 374.07 C 266.80 381.36 265.93 388.78 266.20 396.12 C 270.04 396.14 273.87 396.14 277.71 396.09 C 277.95 387.77 277.24 379.40 278.02 371.11 C 277.87 369.10 281.71 369.36 281.55 371.28 C 282.12 379.54 281.55 387.85 281.79 396.13 C 285.63 396.14 289.47 396.14 293.32 396.12 C 293.53 383.79 293.04 371.44 293.52 359.12 C 293.31 356.97 297.53 356.62 297.19 358.91 C 297.71 371.28 297.24 383.68 297.38 396.07 C 300.48 396.11 303.58 396.14 306.68 396.15 C 302.74 321.47 298.38 246.81 294.38 172.13 C 268.79 172.15 243.21 172.15 217.62 172.13 M 150.59 409.58 C 221.09 409.86 291.60 409.73 362.10 409.64 C 342.24 404.08 321.75 399.52 301.00 400.18 C 267.31 400.25 233.62 400.07 199.94 400.27 C 183.21 401.37 166.65 404.83 150.59 409.58 M 133.36 415.22 C 133.28 418.26 133.25 421.30 133.21 424.34 C 215.07 424.44 296.93 424.44 378.79 424.34 C 378.75 421.28 378.72 418.22 378.66 415.16 C 372.64 413.09 366.23 413.88 360.00 413.79 C 287.33 413.78 214.65 413.82 141.98 413.77 C 139.04 413.77 136.17 414.44 133.36 415.22 M 133.27 428.43 C 133.27 431.68 133.26 434.93 133.25 438.19 C 215.08 438.25 296.92 438.25 378.75 438.19 C 378.74 434.93 378.73 431.68 378.73 428.43 C 296.91 428.47 215.09 428.47 133.27 428.43 Z" />
<path fill="#2a2a2a" opacity="1.00" d=" M 155.37 183.00 C 155.83 183.06 156.76 183.18 157.22 183.24 C 158.29 187.12 161.67 189.11 164.90 191.01 C 161.70 192.94 158.31 194.91 157.24 198.78 C 156.77 198.84 155.82 198.95 155.35 199.00 C 154.65 197.39 153.95 195.77 153.24 194.16 C 151.29 193.20 149.31 192.28 147.53 191.01 C 149.33 189.79 151.29 188.85 153.24 187.92 C 153.96 186.28 154.66 184.64 155.37 183.00 Z" />
<path fill="#2a2a2a" opacity="1.00" d=" M 354.65 183.15 C 355.06 183.16 355.88 183.16 356.29 183.17 C 357.40 187.04 360.71 189.10 363.97 191.01 C 360.74 192.94 357.46 195.02 356.31 198.85 C 355.89 198.85 355.05 198.86 354.63 198.87 C 353.49 195.00 350.13 192.98 346.93 191.02 C 350.17 189.08 353.50 187.02 354.65 183.15 Z" />
<path fill="#2a2a2a" opacity="1.00" d=" M 238.52 224.35 C 240.32 216.82 246.29 208.45 254.95 209.26 C 261.92 209.56 266.64 215.60 268.85 221.67 C 270.44 221.68 272.03 221.69 273.63 221.73 C 272.85 226.04 271.61 230.24 270.40 234.44 C 273.87 231.62 276.32 226.97 280.89 225.88 C 283.65 235.73 279.56 246.36 273.82 254.44 C 276.78 254.79 284.83 253.27 281.65 258.34 C 265.11 258.99 248.50 258.45 231.94 258.60 C 229.66 259.09 227.57 257.29 228.76 254.95 C 231.53 254.48 234.34 254.51 237.15 254.46 C 237.69 244.44 236.14 234.21 238.52 224.35 M 251.95 245.66 C 251.75 241.77 251.97 237.88 252.11 233.99 C 247.35 240.07 244.53 247.32 242.04 254.55 C 250.52 254.31 259.05 255.02 267.50 254.27 C 274.22 249.60 276.71 241.03 277.68 233.28 C 273.52 236.99 269.82 241.20 265.44 244.66 C 262.95 239.60 266.59 234.44 267.50 229.45 C 261.60 234.19 258.82 242.18 251.95 245.66 Z" />
<path fill="#2a2a2a" opacity="1.00" d=" M 179.83 224.27 C 180.31 224.18 181.26 224.02 181.74 223.94 C 182.43 225.60 183.11 227.26 183.81 228.92 C 185.63 229.72 187.47 230.49 189.21 231.49 C 186.58 234.36 182.50 235.82 181.49 240.03 C 181.08 239.96 180.27 239.81 179.87 239.74 C 178.69 235.87 175.30 233.76 172.09 231.73 C 175.59 230.28 178.85 228.17 179.83 224.27 Z" />
<path fill="#2a2a2a" opacity="1.00" d=" M 330.71 223.12 C 332.06 224.96 333.20 226.95 334.36 228.93 C 336.21 229.81 338.06 230.70 339.90 231.63 C 338.13 233.00 336.21 234.13 334.35 235.34 C 333.16 237.22 332.00 239.12 330.64 240.89 C 329.71 238.97 328.84 237.02 327.98 235.08 C 326.00 234.21 324.04 233.32 322.11 232.38 C 323.99 231.03 325.99 229.86 327.99 228.72 C 328.88 226.84 329.77 224.97 330.71 223.12 Z" />
<path fill="#2a2a2a" opacity="1.00" d=" M 156.36 264.01 C 156.82 264.06 157.74 264.18 158.21 264.24 C 159.28 268.11 162.64 270.12 165.87 272.01 C 162.69 273.95 159.30 275.91 158.23 279.77 C 157.76 279.84 156.82 279.97 156.35 280.03 C 155.64 278.41 154.94 276.79 154.22 275.17 C 152.27 274.21 150.29 273.29 148.52 272.01 C 150.31 270.79 152.28 269.84 154.23 268.90 C 154.95 267.27 155.65 265.63 156.36 264.01 Z" />
<path fill="#2a2a2a" opacity="1.00" d=" M 345.99 272.05 C 349.63 269.92 352.59 267.00 354.89 263.48 C 356.14 267.57 359.41 270.06 362.99 272.01 C 359.78 273.96 356.49 276.04 355.33 279.86 C 354.91 279.86 354.07 279.86 353.65 279.86 C 352.52 276.02 349.18 274.01 345.99 272.05 Z" />
<path fill="#2a2a2a" opacity="1.00" d=" M 240.49 292.55 C 243.25 286.35 249.92 281.15 257.00 283.07 C 263.32 284.17 266.95 290.05 269.04 295.60 C 270.52 295.42 272.00 295.25 273.49 295.10 C 272.90 299.33 271.72 303.44 270.64 307.57 C 274.03 304.50 276.89 300.41 281.57 299.26 C 282.74 309.44 280.00 319.88 273.77 328.03 C 276.75 328.09 279.72 328.18 282.70 328.38 C 282.84 333.37 277.38 332.02 274.00 332.23 C 259.67 332.00 245.31 332.46 230.99 332.03 C 228.64 332.46 228.83 329.88 228.28 328.36 C 231.24 328.17 234.22 328.09 237.20 328.05 C 237.85 316.24 235.28 303.65 240.49 292.55 M 254.03 318.49 C 249.55 317.75 252.81 310.80 252.24 307.32 C 247.46 313.45 244.52 320.73 242.06 328.05 C 250.60 327.90 259.22 328.68 267.71 327.72 C 274.19 322.94 276.74 314.56 277.67 306.88 C 273.45 310.46 269.83 314.70 265.48 318.14 C 262.85 313.29 266.59 308.24 267.27 303.37 C 262.14 307.78 258.85 313.83 254.03 318.49 Z" />
<path fill="#2a2a2a" opacity="1.00" d=" M 180.79 310.26 C 181.22 310.17 182.08 309.99 182.51 309.90 C 183.62 313.31 185.95 315.99 189.49 316.95 C 189.60 317.42 189.82 318.35 189.93 318.82 C 188.30 319.50 186.66 320.16 185.03 320.84 C 184.05 322.76 183.34 324.95 181.58 326.32 C 180.06 322.31 176.19 320.41 173.63 317.47 C 176.74 315.82 179.78 313.87 180.79 310.26 Z" />
<path fill="#2a2a2a" opacity="1.00" d=" M 329.53 309.14 C 331.98 312.85 335.06 315.99 338.79 318.42 C 336.98 319.30 335.16 320.15 333.34 321.01 C 332.20 323.00 331.06 325.00 329.70 326.86 C 328.76 324.89 327.87 322.90 327.02 320.90 C 325.32 320.23 323.62 319.58 321.93 318.93 C 322.04 318.34 322.27 317.16 322.38 316.57 C 323.91 316.06 325.44 315.56 326.97 315.05 C 327.80 313.07 328.64 311.09 329.53 309.14 Z" />
<path fill="#2a2a2a" opacity="1.00" d=" M 152.62 365.99 C 156.22 363.74 159.56 361.12 161.10 356.99 C 163.05 360.88 166.06 363.94 169.96 365.88 C 165.80 367.52 163.00 370.85 160.79 374.59 C 159.90 372.72 159.04 370.85 158.19 368.97 C 156.30 368.03 154.39 367.13 152.62 365.99 Z" />
<path fill="#2a2a2a" opacity="1.00" d=" M 342.18 365.90 C 345.74 363.63 348.83 360.79 350.82 357.02 C 352.31 360.99 355.15 364.06 359.28 365.33 C 356.03 367.53 352.63 369.78 351.28 373.69 C 350.91 373.69 350.18 373.69 349.81 373.69 C 348.70 369.84 345.47 367.72 342.18 365.90 Z" />
<path fill="#2a2a2a" opacity="1.00" d=" M 147.36 454.55 C 152.92 453.95 158.66 453.79 164.19 454.68 C 164.59 455.86 164.83 457.08 165.11 458.30 C 162.73 458.51 160.34 458.67 157.96 458.82 C 157.95 464.25 158.01 469.69 157.76 475.13 C 156.42 475.19 155.07 475.25 153.73 475.32 C 153.42 469.92 153.48 464.52 153.54 459.13 C 150.73 458.67 144.20 458.95 147.36 454.55 Z" />
<path fill="#2a2a2a" opacity="1.00" d=" M 170.79 454.21 C 176.07 453.39 175.15 459.11 175.37 462.62 C 178.45 462.59 181.53 462.59 184.62 462.61 C 184.66 459.80 184.72 456.98 184.83 454.18 C 186.16 454.43 187.58 454.49 188.81 455.15 C 189.45 461.65 189.60 468.33 188.67 474.81 C 183.72 477.53 184.77 470.01 184.51 467.10 C 181.46 467.12 178.41 467.12 175.36 467.09 C 175.02 469.97 176.14 477.40 171.16 474.89 C 170.03 468.07 170.82 461.09 170.79 454.21 Z" />
<path fill="#2a2a2a" opacity="1.00" d=" M 196.61 454.56 C 202.46 454.22 208.42 453.65 214.22 454.67 C 214.59 455.87 214.80 457.12 215.05 458.37 C 210.35 458.74 205.63 458.68 200.93 458.71 C 200.98 460.00 201.05 461.29 201.11 462.58 C 205.10 463.07 212.49 460.50 212.37 466.68 C 208.60 467.05 204.81 467.17 201.03 467.18 C 201.03 468.44 201.03 469.71 201.03 470.98 C 205.88 471.87 214.32 468.20 215.55 475.06 C 209.29 475.74 202.98 475.60 196.70 475.28 C 196.35 468.38 196.42 461.46 196.61 454.56 Z" />
<path fill="#2a2a2a" opacity="1.00" d=" M 235.40 454.56 C 240.53 453.90 245.76 454.02 250.90 454.37 C 253.12 454.33 252.79 456.85 253.11 458.36 C 250.79 458.54 248.47 458.68 246.15 458.81 C 246.05 464.13 246.69 469.54 245.67 474.81 C 244.53 475.66 243.37 475.68 242.18 474.88 C 241.13 469.68 241.79 464.33 241.69 459.08 C 238.82 458.59 232.59 459.08 235.40 454.56 Z" />
<path fill="#2a2a2a" opacity="1.00" d=" M 265.39 454.57 C 271.57 452.61 278.68 457.47 278.93 463.97 C 279.65 469.72 274.75 475.28 269.01 475.48 C 263.17 476.03 257.59 470.85 257.70 465.00 C 257.53 460.30 260.89 455.83 265.39 454.57 M 265.42 459.43 C 261.66 461.28 261.07 467.03 264.41 469.57 C 267.74 472.60 273.78 470.49 274.41 465.99 C 275.59 461.15 269.68 456.74 265.42 459.43 Z" />
<path fill="#2a2a2a" opacity="1.00" d=" M 284.05 457.72 C 282.55 455.70 285.23 454.68 286.36 453.41 C 289.28 458.08 291.57 463.10 294.08 468.00 C 294.69 466.98 295.29 465.98 295.90 464.97 C 294.07 461.29 291.29 457.44 292.83 453.13 C 295.12 454.69 296.91 456.79 298.43 459.09 C 299.92 457.00 301.11 453.08 304.41 454.59 C 305.17 458.38 302.25 461.60 300.90 464.93 C 301.43 465.99 301.96 467.05 302.50 468.12 C 305.20 463.49 306.95 458.29 310.25 454.04 C 311.28 454.27 312.27 454.61 313.24 455.05 C 312.39 460.41 309.00 464.87 306.89 469.77 C 305.59 471.94 304.84 475.10 302.03 475.72 C 300.62 474.09 299.55 472.20 298.46 470.36 C 297.17 472.39 295.89 474.50 293.96 476.01 C 289.51 470.65 287.09 463.92 284.05 457.72 Z" />
<path fill="#2a2a2a" opacity="1.00" d=" M 319.50 454.59 C 325.16 453.90 330.96 453.91 336.63 454.55 C 337.21 455.63 337.43 456.78 337.31 458.01 C 332.78 459.19 328.04 458.57 323.42 458.65 C 323.41 459.62 323.40 461.57 323.39 462.54 C 327.31 463.15 335.10 460.42 334.66 466.74 C 330.89 467.07 327.11 467.16 323.34 467.18 C 323.34 468.43 323.34 469.68 323.34 470.94 C 327.52 471.98 338.26 468.09 336.97 474.96 C 331.10 476.09 325.07 475.46 319.15 475.22 C 318.93 468.37 318.12 461.36 319.50 454.59 Z" />
<path fill="#2a2a2a" opacity="1.00" d=" M 343.88 454.99 C 348.52 453.69 354.07 453.43 358.54 455.46 C 363.52 458.46 362.43 465.01 359.16 468.87 C 360.64 470.80 363.87 474.35 360.03 475.72 C 356.37 473.29 353.49 469.27 348.61 469.47 C 348.17 471.84 347.82 477.33 344.11 474.92 C 343.12 468.35 343.44 461.60 343.88 454.99 M 348.10 458.57 C 348.09 460.88 348.09 463.20 348.10 465.52 C 351.29 465.10 357.24 466.73 357.61 462.03 C 357.24 457.36 351.30 458.95 348.10 458.57 Z" />
</g>
</svg>
