<?xml version="1.0" encoding="UTF-8" ?>
<!DOCTYPE svg PUBLIC "-//W3C//DTD SVG 1.1//EN" "http://www.w3.org/Graphics/SVG/1.1/DTD/svg11.dtd">
<svg width="120pt" height="120pt" viewBox="0 0 512 512" version="1.1" xmlns="http://www.w3.org/2000/svg">
<g id="#2a2a2afd">
<path fill="#2a2a2a" opacity="1.00" d=" M 132.36 21.47 C 213.91 21.13 295.49 21.43 377.04 21.32 C 385.73 20.72 393.87 28.27 393.63 37.03 C 393.66 183.01 393.67 328.99 393.63 474.97 C 393.84 483.35 386.34 490.83 377.97 490.65 C 296.66 490.69 215.34 490.69 134.02 490.65 C 125.66 490.82 118.15 483.35 118.37 474.97 C 118.31 329.30 118.38 183.63 118.34 37.96 C 117.80 29.90 124.25 22.10 132.36 21.47 M 131.45 25.74 C 125.92 26.85 122.04 32.42 122.41 37.97 C 122.45 183.63 122.37 329.30 122.45 474.96 C 122.28 481.53 128.43 487.12 134.93 486.59 C 215.65 486.59 296.36 486.59 377.07 486.59 C 383.97 487.17 390.16 480.91 389.59 474.03 C 389.55 328.37 389.63 182.70 389.55 37.04 C 389.75 30.00 382.86 24.50 376.04 25.39 C 294.52 25.67 212.94 24.96 131.45 25.74 Z" />
<path fill="#2a2a2a" opacity="1.00" d=" M 132.41 32.54 C 212.89 31.72 293.48 32.48 374.00 32.15 C 376.81 32.25 380.71 31.68 382.20 34.76 C 383.33 38.37 382.64 42.26 382.80 45.99 C 382.76 176.67 382.84 307.35 382.77 438.02 C 383.21 440.79 380.60 442.65 378.03 442.29 C 296.68 442.32 215.32 442.31 133.96 442.29 C 131.34 442.68 128.75 440.85 129.23 438.02 C 129.16 305.00 129.25 171.96 129.18 38.94 C 129.06 36.47 129.62 33.27 132.41 32.54 M 133.33 36.31 C 133.19 170.25 133.31 304.18 133.27 438.12 C 215.09 438.28 296.92 438.27 378.73 438.13 C 378.68 304.19 378.80 170.25 378.66 36.31 C 296.89 36.20 215.11 36.20 133.33 36.31 Z" />
<path fill="#2a2a2a" opacity="1.00" d=" M 226.20 49.85 C 229.88 44.47 233.33 52.19 236.03 54.81 C 238.20 52.14 240.44 49.52 242.94 47.15 C 243.89 48.08 244.83 49.01 245.77 49.95 C 243.51 52.83 241.19 55.67 239.01 58.61 C 241.51 61.29 243.81 64.14 245.89 67.17 C 241.76 71.95 238.75 64.42 236.02 61.88 C 233.62 64.18 229.67 72.41 226.68 66.93 C 228.01 63.73 230.87 61.56 232.69 58.68 C 231.39 55.30 228.20 52.87 226.20 49.85 Z" />
<path fill="#2a2a2a" opacity="1.00" d=" M 251.62 50.04 C 251.23 47.02 256.31 46.91 255.85 50.06 C 255.84 56.40 256.77 62.92 255.17 69.13 C 254.35 69.03 252.72 68.81 251.91 68.70 C 251.22 62.51 251.36 56.25 251.62 50.04 Z" />
<path fill="#2a2a2a" opacity="1.00" d=" M 261.92 50.84 C 260.90 48.92 263.04 47.24 264.90 47.80 C 267.96 52.01 269.65 57.01 272.23 61.50 C 275.21 57.20 276.30 51.39 280.14 47.88 C 284.91 47.36 281.82 53.26 280.50 55.42 C 277.26 59.86 276.85 67.23 271.26 69.34 C 267.96 63.27 264.78 57.12 261.92 50.84 Z" />
<path fill="#2a2a2a" opacity="1.00" d=" M 151.10 55.12 C 151.66 52.73 154.40 47.28 155.93 52.09 C 156.19 56.12 162.18 55.42 162.24 58.82 C 157.64 59.74 156.70 64.31 153.38 66.64 C 152.47 63.01 150.41 59.85 146.43 59.29 C 146.35 58.77 146.17 57.73 146.08 57.21 C 147.75 56.51 149.43 55.83 151.10 55.12 Z" />
<path fill="#2a2a2a" opacity="1.00" d=" M 357.29 49.38 C 359.04 50.90 360.02 52.99 360.88 55.10 C 362.60 55.82 368.01 57.40 364.67 59.46 C 361.18 60.33 359.40 63.21 358.58 66.52 C 355.29 63.80 353.38 59.87 349.16 57.95 C 352.95 56.13 356.20 53.69 357.29 49.38 Z" />
<path fill="#2a2a2a" opacity="1.00" d=" M 315.17 79.41 C 319.49 78.87 320.82 75.05 322.98 72.01 C 325.36 74.85 326.44 78.94 330.86 79.38 C 330.86 79.93 330.85 81.03 330.85 81.59 C 327.07 82.20 325.02 85.10 323.78 88.46 C 320.34 87.69 320.11 81.44 315.18 81.55 C 315.18 81.02 315.17 79.95 315.17 79.41 Z" />
<path fill="#2a2a2a" opacity="1.00" d=" M 180.67 80.02 C 184.31 78.42 187.36 76.05 188.20 71.93 C 191.35 74.27 192.06 79.03 196.76 79.45 C 196.76 79.97 196.74 81.00 196.74 81.52 C 191.82 81.49 191.63 87.43 188.20 88.54 C 187.49 84.01 182.70 82.95 180.67 80.02 Z" />
<path fill="#2a2a2a" opacity="1.00" d=" M 242.95 99.16 C 247.49 94.46 250.73 87.93 256.00 84.30 C 261.29 87.93 264.51 94.46 269.06 99.17 C 276.93 97.77 284.66 93.62 292.51 93.55 C 294.12 97.47 289.89 102.77 288.94 107.18 C 308.60 107.34 328.26 107.20 347.92 107.25 C 348.24 119.57 347.59 131.91 348.16 144.23 C 351.64 145.18 354.84 147.12 356.76 150.24 C 363.29 159.96 366.07 171.64 367.95 183.05 C 369.39 192.83 370.45 203.25 366.69 212.65 C 365.33 216.03 362.20 219.66 358.16 218.85 C 353.14 217.64 350.74 212.56 348.11 208.63 C 347.70 236.15 348.12 263.68 347.94 291.20 C 320.89 291.35 293.83 291.11 266.77 291.32 C 270.64 294.65 274.90 297.82 280.01 298.86 C 284.90 300.19 290.94 301.90 292.89 307.15 C 294.86 327.41 285.96 350.30 266.68 359.35 C 267.86 362.30 269.15 365.19 270.52 368.06 C 268.22 372.96 263.35 377.11 264.01 382.98 C 264.02 387.88 264.06 392.78 264.12 397.68 C 273.04 398.67 282.55 399.63 290.17 404.82 C 293.44 406.79 295.22 411.44 292.70 414.71 C 288.56 419.78 281.72 421.34 275.63 422.72 C 261.61 425.32 246.97 425.20 233.09 421.86 C 227.98 420.37 222.06 418.62 219.22 413.73 C 217.34 410.36 219.60 406.43 222.53 404.56 C 230.05 399.61 239.30 398.81 248.01 397.80 C 248.44 392.87 248.20 387.92 248.23 382.98 C 248.81 377.16 244.21 372.86 241.95 367.93 C 243.00 365.03 244.99 362.31 245.22 359.21 C 226.11 350.09 216.67 327.43 218.91 307.14 C 224.79 298.01 237.36 297.68 247.08 296.21 C 245.91 294.58 244.74 292.94 243.59 291.29 C 217.08 291.14 190.56 291.34 164.04 291.20 C 164.03 229.89 164.00 168.57 164.08 107.25 C 183.74 107.20 203.40 107.35 223.06 107.18 C 222.10 102.77 217.90 97.47 219.48 93.54 C 227.33 93.59 235.08 97.74 242.95 99.16 M 244.19 103.81 C 237.52 102.03 230.93 99.97 224.23 98.30 C 226.07 103.85 228.27 109.27 230.31 114.75 C 247.44 114.84 264.56 114.84 281.69 114.75 C 283.72 109.27 285.92 103.86 287.77 98.31 C 281.08 100.00 274.49 102.07 267.81 103.80 C 263.57 99.35 260.09 94.25 256.00 89.66 C 251.91 94.25 248.43 99.35 244.19 103.81 M 168.12 111.30 C 168.02 169.91 168.08 228.51 168.09 287.12 C 192.95 287.14 217.81 287.27 242.66 287.06 C 244.99 279.75 253.89 279.40 257.72 273.68 C 258.05 268.34 251.84 265.55 247.75 263.60 C 225.74 262.92 203.65 263.94 181.63 263.10 C 181.91 261.39 182.21 259.64 183.12 258.14 C 206.63 217.61 229.98 176.98 253.45 136.42 C 254.13 135.06 255.86 132.86 257.28 134.67 C 263.26 143.57 267.81 153.41 273.74 162.34 C 284.63 165.49 294.87 171.26 301.66 180.58 C 304.07 178.83 306.39 176.91 309.06 175.56 C 313.59 175.85 317.35 179.35 321.91 179.47 C 327.82 178.74 333.65 177.42 339.52 176.42 C 338.76 166.10 338.49 155.18 343.72 145.89 C 344.23 134.39 343.83 122.83 343.88 111.30 C 325.04 111.35 306.20 111.26 287.37 111.35 C 285.86 113.92 285.95 119.08 282.02 118.83 C 264.67 118.88 247.32 118.87 229.98 118.83 C 226.05 119.07 226.13 113.92 224.64 111.35 C 205.80 111.26 186.96 111.35 168.12 111.30 M 187.33 259.27 C 206.13 259.40 224.93 259.33 243.72 259.31 C 243.08 255.95 242.56 251.95 245.46 249.45 C 248.96 245.27 256.83 245.17 257.70 238.99 C 256.13 231.59 245.77 231.63 243.35 224.67 C 241.77 221.48 245.01 218.31 243.86 215.10 C 239.99 202.08 237.98 188.27 239.89 174.74 C 240.74 170.05 242.45 164.19 247.68 162.82 C 254.44 161.23 261.45 161.45 268.33 161.72 C 264.38 154.49 260.24 147.36 256.00 140.30 C 233.00 179.89 210.07 219.52 187.33 259.27 M 346.26 150.34 C 342.38 157.56 343.13 166.19 343.49 174.11 C 346.61 171.13 347.93 167.02 349.85 163.29 C 355.27 164.24 351.09 171.18 348.94 173.92 C 343.73 183.14 331.89 180.86 323.15 183.48 C 323.55 185.99 323.96 188.50 324.38 191.01 C 331.30 190.22 338.06 188.26 345.01 187.78 C 350.20 190.16 357.18 193.46 357.97 199.76 C 353.89 203.21 351.57 193.91 347.02 193.33 C 349.20 200.81 351.69 209.00 357.77 214.27 C 361.91 216.71 363.46 210.07 364.06 207.15 C 366.33 189.26 363.18 170.32 354.63 154.38 C 353.07 151.78 349.06 146.15 346.26 150.34 M 254.91 165.77 C 267.16 182.93 270.37 205.38 268.11 225.97 C 270.35 227.92 272.93 229.59 275.91 228.07 C 276.12 220.58 275.56 213.11 274.79 205.66 C 275.93 205.64 277.14 205.24 278.25 205.67 C 280.34 212.08 279.64 218.97 280.16 225.61 C 281.68 224.76 283.21 223.90 284.74 223.04 C 284.65 217.61 284.16 212.19 283.71 206.77 C 284.93 206.63 286.16 206.51 287.39 206.40 C 288.21 210.77 288.50 215.21 288.85 219.64 C 296.65 215.08 291.58 205.47 292.43 198.39 C 298.33 196.63 296.15 205.92 297.39 209.34 C 304.23 198.77 301.49 183.17 291.48 175.53 C 292.41 179.39 293.68 183.28 293.26 187.32 C 292.15 186.76 290.03 187.15 289.73 185.55 C 287.68 179.34 287.97 170.18 279.91 168.65 C 280.79 172.96 282.83 177.13 282.60 181.60 C 281.55 182.50 279.39 182.53 279.06 180.93 C 277.55 176.31 276.56 171.53 274.90 166.96 C 273.01 166.69 271.12 166.44 269.24 166.23 C 271.45 173.09 274.68 179.92 274.52 187.29 C 273.67 187.17 271.97 186.94 271.12 186.82 C 269.50 179.64 267.31 172.60 264.79 165.69 C 261.50 165.52 258.20 165.57 254.91 165.77 M 305.43 196.94 C 307.43 197.51 309.43 198.06 311.45 198.60 C 311.14 192.53 310.38 186.42 308.30 180.68 C 300.55 183.41 305.08 191.07 305.43 196.94 M 312.91 180.96 C 314.11 186.24 315.09 191.57 315.53 196.97 C 321.40 194.33 320.52 188.41 318.83 183.27 C 316.86 182.50 314.88 181.73 312.91 180.96 M 327.01 194.74 C 321.52 195.43 318.37 200.59 313.99 203.40 C 311.07 202.66 308.15 201.94 305.23 201.23 C 304.04 204.47 302.80 207.69 301.53 210.90 C 310.68 226.63 319.70 242.43 328.87 258.14 C 329.79 259.64 330.08 261.39 330.37 263.10 C 311.88 263.78 293.35 263.24 274.84 263.38 C 277.71 266.46 281.77 270.20 280.03 274.88 C 277.64 281.44 269.39 281.76 265.53 287.00 C 291.65 287.34 317.78 287.11 343.91 287.12 C 343.98 258.39 343.88 229.67 343.96 200.95 C 344.01 197.94 343.27 195.02 342.51 192.14 C 337.33 192.96 332.17 193.85 327.01 194.74 M 246.76 221.98 C 248.79 228.92 258.09 229.51 260.86 236.05 C 263.37 240.62 259.89 245.72 255.73 247.75 C 252.59 249.82 246.86 251.15 247.22 255.82 C 249.93 262.27 258.95 262.98 261.40 269.76 C 263.57 274.91 259.10 279.70 254.64 281.59 C 251.61 283.28 246.11 285.15 247.41 289.60 C 250.89 295.93 260.93 296.96 261.92 305.07 C 262.07 313.34 252.56 315.48 246.65 318.47 C 252.88 318.73 259.25 319.36 265.41 318.18 C 270.30 315.41 276.73 311.45 276.27 305.01 C 273.39 298.57 264.43 297.72 261.96 290.86 C 260.08 286.24 263.82 281.75 267.77 279.80 C 270.94 277.82 276.21 276.50 276.34 272.04 C 273.38 264.73 261.75 264.01 261.48 254.99 C 261.60 246.27 273.21 246.69 275.98 239.95 C 274.71 234.05 267.98 231.63 263.92 227.77 C 264.23 221.50 265.32 215.24 264.71 208.93 C 258.72 213.15 250.73 215.53 246.76 221.98 M 276.25 232.11 C 278.42 235.02 281.51 238.64 279.48 242.46 C 277.05 248.27 269.57 248.54 266.09 253.27 C 264.51 255.47 266.77 257.57 267.84 259.38 C 286.78 259.24 305.73 259.45 324.67 259.27 C 316.28 244.34 307.64 229.57 299.03 214.77 C 293.20 222.54 285.22 228.43 276.25 232.11 M 222.80 316.26 C 223.18 319.49 223.64 322.72 224.24 325.92 C 231.23 327.61 238.40 328.13 245.54 328.72 C 247.37 328.60 248.02 332.49 245.94 332.34 C 239.17 333.11 232.42 331.31 225.72 330.52 C 226.30 332.18 226.90 333.86 227.49 335.53 C 232.78 336.65 238.25 336.46 243.53 337.57 C 244.05 338.82 244.36 340.27 242.90 341.01 C 238.57 341.35 234.28 340.46 229.98 340.18 C 233.39 348.12 243.06 346.13 250.00 346.98 C 250.30 348.06 250.61 349.14 250.91 350.23 C 246.95 351.21 242.87 350.69 238.86 350.39 C 248.19 359.03 264.21 359.10 273.43 350.26 C 269.55 350.43 265.62 351.08 261.77 350.34 C 260.60 348.34 262.12 346.56 264.23 346.70 C 270.38 345.88 279.08 347.63 281.84 340.36 C 277.65 339.72 270.55 343.51 268.38 338.98 C 272.66 333.75 285.48 340.37 286.28 330.56 C 279.45 331.28 272.61 333.13 265.72 332.21 C 264.99 330.81 265.23 328.66 267.15 328.61 C 273.99 328.02 280.89 327.62 287.59 325.93 C 288.11 322.80 288.59 319.67 289.02 316.53 C 279.04 321.24 267.95 322.84 257.01 322.88 C 245.36 322.94 233.26 321.79 222.80 316.26 M 247.06 366.15 C 253.06 366.94 259.13 366.92 265.15 366.38 C 264.28 364.35 263.35 362.35 262.37 360.38 C 258.18 360.67 253.98 360.68 249.79 360.51 C 248.87 362.38 247.96 364.26 247.06 366.15 M 248.17 370.56 C 249.19 372.40 250.22 374.24 251.23 376.09 C 254.45 376.21 257.67 376.23 260.90 376.18 C 261.99 374.33 263.11 372.50 264.22 370.67 C 258.87 370.86 253.51 370.86 248.17 370.56 M 252.26 380.25 C 252.01 387.12 252.64 394.03 252.00 400.87 C 248.75 405.82 243.76 411.46 237.28 411.07 C 237.21 410.35 237.07 408.90 237.00 408.18 C 240.39 406.75 243.51 404.76 246.07 402.11 C 237.66 403.11 227.76 403.97 222.01 410.99 C 226.65 417.19 234.95 418.18 242.03 419.50 C 256.23 421.13 271.27 421.12 284.71 415.71 C 287.09 414.68 291.70 412.01 288.94 409.10 C 282.73 403.97 274.21 402.91 266.45 402.14 C 268.74 404.98 271.91 406.85 275.29 408.13 C 275.18 408.88 274.95 410.39 274.84 411.14 C 268.42 411.31 263.40 405.86 260.23 400.86 C 259.50 394.02 260.19 387.11 259.90 380.24 C 257.35 380.25 254.80 380.25 252.26 380.25 Z" />
<path fill="#2a2a2a" opacity="1.00" d=" M 141.15 160.40 C 145.56 159.94 146.65 155.88 149.01 153.06 C 151.30 155.96 152.46 159.94 156.84 160.39 C 156.84 160.93 156.84 162.02 156.84 162.56 C 151.91 162.40 151.69 168.77 148.24 169.44 C 146.98 166.09 144.94 163.18 141.16 162.59 C 141.16 162.04 141.16 160.95 141.15 160.40 Z" />
<path fill="#2a2a2a" opacity="1.00" d=" M 355.27 247.56 C 359.55 247.08 360.91 243.21 362.98 240.12 C 365.30 243.02 366.39 247.12 370.78 247.51 C 370.83 248.05 370.93 249.12 370.98 249.65 C 366.62 250.28 365.27 254.15 362.99 257.20 C 361.46 255.76 360.84 253.71 360.06 251.82 C 358.39 251.08 356.71 250.38 355.04 249.67 C 355.09 249.14 355.21 248.09 355.27 247.56 Z" />
<path fill="#2a2a2a" opacity="1.00" d=" M 159.27 314.17 C 160.24 310.86 162.69 314.04 163.07 315.92 C 163.79 318.94 168.05 318.31 169.00 321.05 C 167.66 322.56 165.63 323.06 163.86 323.88 C 162.74 325.57 162.69 328.76 160.24 328.99 C 158.67 325.41 156.46 322.27 152.26 321.70 C 153.71 318.27 158.60 318.30 159.27 314.17 Z" />
<path fill="#2a2a2a" opacity="1.00" d=" M 343.02 319.82 C 348.06 319.97 348.63 314.15 351.88 312.71 C 353.15 316.91 356.73 318.58 359.86 321.07 C 356.11 322.67 353.21 325.16 351.77 329.06 C 349.37 328.63 349.25 325.61 348.17 323.86 C 346.12 322.96 343.39 322.45 343.02 319.82 Z" />
<path fill="#2a2a2a" opacity="1.00" d=" M 162.35 362.00 C 166.82 360.99 167.94 356.65 170.95 354.19 C 171.76 358.73 176.51 360.15 178.65 363.02 C 174.45 364.35 172.39 367.87 170.09 371.29 C 169.55 366.47 164.36 364.91 162.35 362.00 Z" />
<path fill="#2a2a2a" opacity="1.00" d=" M 340.52 357.70 C 341.38 356.64 341.76 353.45 343.71 354.70 C 344.96 358.03 347.03 360.83 350.76 361.47 C 350.77 362.00 350.80 363.07 350.81 363.61 C 349.16 364.29 347.51 364.97 345.87 365.69 C 345.25 367.39 343.73 372.85 341.65 369.57 C 340.75 366.00 337.61 364.50 334.62 362.97 C 335.40 360.05 339.72 360.70 340.52 357.70 Z" />
<path fill="#2a2a2a" opacity="1.00" d=" M 205.51 380.33 C 207.57 376.81 209.17 382.40 209.91 384.16 C 211.70 384.93 213.50 385.68 215.30 386.44 C 214.19 389.67 209.50 389.26 208.86 392.88 C 208.46 395.74 205.45 396.07 204.98 393.06 C 204.30 389.36 199.56 389.70 198.45 386.39 C 201.75 385.57 204.62 383.80 205.51 380.33 Z" />
<path fill="#2a2a2a" opacity="1.00" d=" M 304.20 379.06 C 304.71 379.17 305.73 379.40 306.24 379.51 C 306.82 383.43 309.89 385.55 313.52 386.41 C 312.04 389.73 307.23 389.71 306.60 393.79 C 305.97 396.57 303.31 394.99 303.10 392.90 C 302.46 389.26 297.71 389.68 296.65 386.41 C 298.46 385.64 300.29 384.90 302.12 384.15 C 302.81 382.45 303.49 380.75 304.20 379.06 Z" />
<path fill="#2a2a2a" opacity="1.00" d=" M 157.28 401.49 C 159.68 402.32 160.28 404.84 161.16 406.94 C 162.98 407.70 164.82 408.44 166.65 409.20 C 165.86 411.66 163.28 412.21 161.19 413.15 C 160.27 415.22 159.68 417.74 157.25 418.53 C 156.50 416.70 155.77 414.87 155.02 413.05 C 152.82 412.35 150.57 411.53 149.51 409.31 C 151.33 408.50 153.19 407.76 155.04 407.01 C 155.78 405.16 156.52 403.32 157.28 401.49 Z" />
<path fill="#2a2a2a" opacity="1.00" d=" M 354.44 402.18 C 354.99 402.17 356.08 402.16 356.63 402.16 C 357.14 406.49 360.98 407.81 364.02 409.97 C 361.16 412.35 357.09 413.45 356.62 417.87 C 356.07 417.86 354.98 417.85 354.44 417.84 C 353.97 413.51 350.02 412.25 347.08 410.00 C 350.05 407.78 354.05 406.56 354.44 402.18 Z" />
<path fill="#2a2a2a" opacity="1.00" d=" M 140.45 454.51 C 145.83 453.98 151.30 454.02 156.68 454.44 C 158.49 454.90 157.55 457.12 157.74 458.43 C 155.52 458.57 153.29 458.70 151.07 458.82 C 150.91 464.14 151.51 469.53 150.66 474.81 C 149.51 475.62 148.31 475.66 147.08 474.94 C 146.03 469.63 146.82 464.17 146.56 458.79 C 143.64 458.89 137.22 458.82 140.45 454.51 Z" />
<path fill="#2a2a2a" opacity="1.00" d=" M 162.56 454.53 C 168.55 454.04 174.58 454.06 180.57 454.50 C 180.56 455.81 180.53 457.12 180.51 458.43 C 175.92 458.73 171.32 458.69 166.73 458.72 C 166.82 460.01 166.92 461.31 167.03 462.61 C 170.70 462.48 174.38 462.53 178.03 463.03 C 178.64 469.39 170.66 466.57 166.83 467.12 C 166.82 468.41 166.81 469.70 166.81 470.99 C 171.39 470.97 175.99 470.83 180.54 471.41 C 180.61 472.59 180.68 473.78 180.75 474.96 C 174.81 475.97 168.76 475.47 162.76 475.36 C 161.95 468.45 162.29 461.46 162.56 454.53 Z" />
<path fill="#2a2a2a" opacity="1.00" d=" M 185.69 454.67 C 190.54 453.21 192.92 459.16 196.22 461.62 C 199.55 459.08 201.79 454.12 206.49 454.19 C 207.10 460.70 207.11 467.28 206.71 473.79 C 206.72 475.57 204.32 475.78 203.07 475.17 C 201.81 471.00 202.66 466.54 202.35 462.25 C 200.27 463.78 198.65 466.40 196.08 467.00 C 193.62 466.06 192.05 463.69 190.13 461.99 C 190.07 466.25 190.53 470.59 189.66 474.80 C 188.60 475.82 185.85 475.80 185.88 473.94 C 185.19 467.54 185.74 461.09 185.69 454.67 Z" />
<path fill="#2a2a2a" opacity="1.00" d=" M 213.26 454.37 C 217.38 454.28 221.54 453.85 225.63 454.52 C 231.01 455.80 233.28 463.33 229.29 467.27 C 226.43 470.70 221.58 469.68 217.66 469.92 C 217.14 471.93 217.63 475.00 215.06 475.68 C 212.63 475.39 212.90 472.85 212.78 471.03 C 212.78 465.47 212.48 459.88 213.26 454.37 M 217.33 458.62 C 217.32 460.90 217.32 463.18 217.32 465.46 C 219.83 465.39 222.40 465.66 224.85 465.04 C 227.44 464.24 227.41 459.90 224.87 459.01 C 222.40 458.45 219.84 458.67 217.33 458.62 Z" />
<path fill="#2a2a2a" opacity="1.00" d=" M 236.45 454.46 C 242.34 454.04 248.25 454.20 254.15 454.32 C 256.31 464.01 239.34 453.42 240.28 462.52 C 243.97 462.57 247.65 462.60 251.34 462.68 C 253.46 469.20 244.39 466.71 240.64 467.10 C 240.62 468.40 240.61 469.70 240.61 471.02 C 245.16 470.95 249.71 470.99 254.26 471.17 C 254.33 472.48 254.30 473.78 254.17 475.10 C 248.25 475.88 242.21 475.70 236.28 475.08 C 236.11 468.21 235.88 461.32 236.45 454.46 Z" />
<path fill="#2a2a2a" opacity="1.00" d=" M 259.58 454.55 C 265.14 454.52 272.55 452.29 276.47 457.53 C 279.25 461.12 277.36 465.74 274.82 468.85 C 276.33 470.51 277.66 472.37 278.03 474.65 C 277.27 474.90 275.75 475.41 274.99 475.67 C 272.96 473.74 270.95 471.79 268.95 469.84 C 267.36 469.84 265.78 469.85 264.20 469.87 C 263.61 471.79 264.34 474.72 261.99 475.58 C 259.27 475.93 259.41 472.88 259.35 471.02 C 259.32 465.53 259.30 460.04 259.58 454.55 M 263.83 458.67 C 263.83 460.91 263.83 463.16 263.83 465.41 C 267.13 465.17 272.91 466.76 273.49 462.01 C 272.86 457.29 267.11 458.93 263.83 458.67 Z" />
<path fill="#2a2a2a" opacity="1.00" d=" M 289.66 455.59 C 290.24 453.87 292.88 453.63 293.49 455.45 C 296.62 461.17 299.67 467.01 302.20 473.04 C 301.60 477.90 297.21 474.10 296.34 471.40 C 292.39 471.49 287.18 469.75 284.95 474.11 C 283.77 476.88 279.94 474.87 281.32 472.33 C 283.86 466.65 286.70 461.07 289.66 455.59 M 288.90 466.75 C 290.67 466.76 292.45 466.77 294.23 466.78 C 293.41 465.07 292.58 463.37 291.75 461.68 C 290.78 463.36 289.84 465.05 288.90 466.75 Z" />
<path fill="#2a2a2a" opacity="1.00" d=" M 307.14 453.95 C 313.48 455.60 315.92 462.87 320.56 466.98 C 320.47 462.65 320.26 458.29 321.11 454.02 C 322.47 454.48 324.83 454.04 324.79 456.12 C 325.40 462.33 325.07 468.62 324.75 474.85 C 324.06 475.06 322.68 475.47 322.00 475.67 C 318.24 471.52 314.81 467.08 311.12 462.87 C 311.06 466.93 310.99 470.99 310.77 475.05 C 309.44 475.15 308.11 475.24 306.78 475.33 C 306.47 468.22 305.94 461.01 307.14 453.95 Z" />
<path fill="#2a2a2a" opacity="1.00" d=" M 329.78 465.01 C 328.98 454.73 344.21 450.07 349.30 459.05 C 346.15 463.96 341.49 456.17 337.44 459.46 C 332.89 461.73 333.47 469.10 338.31 470.64 C 342.26 472.65 346.79 465.64 349.26 471.00 C 343.76 479.27 329.46 475.05 329.78 465.01 Z" />
<path fill="#2a2a2a" opacity="1.00" d=" M 353.44 454.46 C 359.33 454.04 365.24 454.20 371.14 454.33 C 372.70 461.74 361.93 457.65 357.66 458.67 C 357.60 459.61 357.47 461.48 357.40 462.41 C 361.17 462.51 364.95 462.53 368.68 463.12 C 368.64 464.27 368.60 465.44 368.56 466.60 C 364.94 467.20 361.26 467.23 357.61 467.10 C 357.60 468.40 357.59 469.71 357.59 471.02 C 362.14 470.95 366.69 470.99 371.24 471.17 C 371.31 472.47 371.29 473.78 371.16 475.09 C 365.25 475.90 359.21 475.69 353.28 475.08 C 353.09 468.21 352.86 461.32 353.44 454.46 Z" />
</g>
</svg>
