<?xml version="1.0" encoding="UTF-8" ?>
<!DOCTYPE svg PUBLIC "-//W3C//DTD SVG 1.1//EN" "http://www.w3.org/Graphics/SVG/1.1/DTD/svg11.dtd">
<svg width="120pt" height="120pt" viewBox="0 0 512 512" version="1.1" xmlns="http://www.w3.org/2000/svg">
<g id="#2a2a2aff">
<path fill="#2a2a2a" opacity="1.00" d=" M 130.35 21.51 C 213.23 21.08 296.15 21.46 379.05 21.32 C 386.03 20.73 392.49 26.87 391.88 33.93 C 391.87 181.98 391.87 330.02 391.88 478.07 C 392.42 484.72 386.67 490.85 379.98 490.63 C 297.63 490.72 215.27 490.64 132.92 490.67 C 125.95 491.26 119.51 485.11 120.12 478.06 C 120.13 330.02 120.13 181.98 120.12 33.93 C 119.68 27.93 124.29 22.08 130.35 21.51 M 130.38 28.57 C 127.06 29.29 126.85 33.23 126.85 35.97 C 126.91 170.67 126.84 305.37 126.89 440.07 C 126.62 442.69 127.83 445.91 131.01 445.49 C 214.02 445.62 297.05 445.52 380.07 445.54 C 383.40 446.13 385.58 443.19 385.10 440.07 C 385.08 305.02 385.13 169.97 385.08 34.93 C 385.77 30.71 382.21 27.45 378.07 28.21 C 295.52 28.48 212.90 27.76 130.38 28.57 M 199.21 458.03 C 196.83 463.95 198.06 471.94 198.51 478.56 C 205.92 481.95 217.71 477.49 216.83 468.00 C 216.77 459.21 206.45 455.85 199.21 458.03 M 223.60 457.77 C 222.96 464.91 222.97 472.12 223.59 479.27 C 229.57 479.45 235.56 479.50 241.53 479.13 C 241.72 478.23 242.09 476.43 242.27 475.53 C 237.49 474.60 232.61 474.66 227.77 474.80 C 227.75 473.47 227.75 472.15 227.74 470.84 C 231.52 470.80 235.30 470.77 239.07 470.54 C 239.82 464.01 231.63 466.78 227.73 466.20 C 227.74 464.88 227.76 463.55 227.78 462.24 C 232.12 462.19 236.51 462.67 240.81 461.93 C 242.89 461.15 242.12 457.76 239.98 457.82 C 234.54 457.36 229.06 457.73 223.60 457.77 M 256.47 457.14 C 253.12 463.73 249.37 470.18 246.65 477.07 C 247.97 481.99 251.38 477.64 252.76 475.18 C 257.90 474.49 263.11 474.86 266.10 479.66 C 270.35 477.71 266.48 473.43 265.38 470.64 C 262.49 466.13 261.62 459.77 256.47 457.14 M 268.34 458.32 C 265.46 462.44 272.23 462.33 274.81 462.53 C 274.88 467.63 274.36 472.77 275.12 477.83 C 275.20 479.95 278.86 479.94 279.02 477.86 C 279.82 472.80 279.24 467.64 279.32 462.54 C 281.98 462.33 288.66 462.45 285.78 458.22 C 280.08 457.32 273.98 457.09 268.34 458.32 M 292.79 457.17 C 292.09 463.94 291.86 470.84 292.56 477.63 C 292.46 479.91 295.12 478.89 296.56 479.23 C 296.70 476.41 296.79 473.58 296.86 470.76 C 300.03 470.78 303.19 470.80 306.36 470.86 C 306.56 473.79 305.61 481.47 310.58 478.70 C 311.44 472.02 311.52 465.09 310.55 458.42 C 305.86 455.40 306.37 463.35 306.37 466.18 C 303.22 466.23 300.08 466.25 296.93 466.26 C 296.70 462.66 297.86 457.47 292.79 457.17 Z" />
<path fill="#2a2a2a" opacity="1.00" d=" M 133.81 32.41 C 151.97 32.34 170.12 32.39 188.27 32.38 C 197.51 51.15 207.41 69.58 216.73 88.30 C 217.93 90.40 218.89 93.68 221.97 92.92 C 223.07 90.88 221.69 88.87 220.87 87.03 C 211.44 68.86 202.13 50.63 192.83 32.39 C 234.64 32.38 276.44 32.35 318.24 32.40 C 308.66 51.34 298.89 70.18 289.16 89.04 C 288.10 90.93 286.84 94.41 290.14 94.73 C 293.17 91.62 294.60 87.40 296.64 83.65 C 305.45 66.54 314.15 49.38 323.08 32.34 C 342.49 32.52 361.91 32.15 381.32 32.54 C 364.32 55.07 345.69 76.46 329.47 99.53 C 330.17 99.94 331.58 100.76 332.29 101.18 C 348.90 81.20 364.43 60.34 380.79 40.16 C 380.94 63.07 380.81 85.98 380.85 108.89 C 367.38 118.78 353.61 128.27 340.21 138.24 C 337.63 139.69 340.11 143.99 342.46 141.37 C 355.49 132.64 367.98 123.05 380.86 114.06 C 380.83 144.30 380.89 174.53 380.83 204.77 C 371.94 205.97 362.94 206.51 354.11 208.11 C 352.13 208.01 352.05 212.14 354.10 211.75 C 363.06 211.52 371.91 209.72 380.84 208.96 C 380.89 230.52 380.82 252.07 380.87 273.62 C 376.86 273.30 370.09 268.29 368.67 274.36 C 372.67 275.76 376.76 276.89 380.83 278.05 C 380.87 303.18 380.88 328.31 380.83 353.43 C 372.61 347.56 364.80 341.11 356.48 335.39 C 354.75 333.50 353.67 336.22 352.48 337.26 C 361.31 344.25 370.53 350.73 379.42 357.64 C 381.21 358.79 380.75 361.14 380.91 362.96 C 380.82 389.11 380.87 415.26 380.88 441.41 C 366.93 441.45 352.97 441.45 339.01 441.42 C 328.36 414.27 317.45 387.22 306.85 360.05 C 306.13 358.30 305.27 356.59 304.09 355.11 C 300.69 354.98 301.60 358.43 302.46 360.48 C 313.19 387.44 323.90 414.41 334.54 441.41 C 308.56 441.46 282.57 441.44 256.59 441.42 C 256.49 422.40 256.71 403.38 256.48 384.37 C 254.82 384.80 251.86 384.42 252.50 387.02 C 252.33 405.15 252.53 423.29 252.43 441.42 C 227.60 441.43 202.77 441.47 177.95 441.40 C 186.71 418.01 195.43 394.61 204.22 371.24 C 205.49 367.63 207.34 364.14 207.67 360.28 C 206.03 358.04 203.67 360.07 203.20 362.08 C 193.23 388.53 183.51 415.08 173.40 441.48 C 159.31 441.37 145.21 441.48 131.12 441.42 C 131.17 414.72 131.09 388.02 131.16 361.32 C 141.26 353.66 151.63 346.31 161.51 338.38 C 164.54 336.89 160.46 333.22 158.66 335.61 C 149.38 342.30 140.39 349.40 131.15 356.16 C 131.12 331.48 131.12 306.81 131.16 282.13 C 135.52 280.79 139.88 279.41 144.23 278.02 C 144.21 277.10 144.16 275.27 144.14 274.35 C 139.70 275.05 135.39 276.38 131.10 277.71 C 131.17 254.31 131.13 230.91 131.12 207.51 C 142.27 208.25 153.35 210.33 164.54 210.21 C 164.20 205.47 159.18 206.13 155.73 205.68 C 147.53 204.98 139.33 204.13 131.14 203.31 C 131.15 171.76 131.10 140.22 131.16 108.67 C 146.69 119.30 161.35 131.26 177.32 141.20 C 177.68 140.38 178.38 138.74 178.74 137.92 C 163.48 126.57 147.86 115.70 132.53 104.46 C 130.67 103.32 131.31 100.85 131.09 99.04 C 131.20 77.96 131.08 56.88 131.16 35.80 C 148.81 57.86 166.17 80.17 183.83 102.23 C 185.41 105.44 189.81 102.53 187.10 99.92 C 169.50 77.30 151.55 54.93 133.81 32.41 M 233.53 54.91 C 231.27 57.58 229.05 60.27 226.90 63.02 C 227.11 63.59 227.53 64.72 227.74 65.28 C 228.31 65.45 229.47 65.79 230.04 65.95 C 232.11 63.62 234.02 61.14 236.31 59.01 C 238.97 60.85 240.81 63.58 242.95 65.95 C 243.53 65.78 244.69 65.45 245.26 65.29 C 245.47 64.72 245.88 63.58 246.09 63.01 C 243.94 60.27 241.72 57.58 239.48 54.92 C 241.62 51.56 248.96 46.96 243.47 43.33 C 241.05 45.89 238.75 48.55 236.43 51.19 C 234.21 48.51 231.95 45.86 229.57 43.32 C 224.00 46.92 231.39 51.54 233.53 54.91 M 252.70 44.75 C 251.69 51.60 252.30 58.59 252.52 65.48 C 253.84 65.49 255.16 65.49 256.49 65.49 C 256.93 58.33 256.99 51.14 256.45 43.99 C 255.19 44.21 253.92 44.40 252.70 44.75 M 264.58 44.02 C 264.09 51.15 264.15 58.32 264.54 65.46 C 265.86 65.48 267.19 65.49 268.52 65.50 C 268.76 58.60 269.39 51.58 268.33 44.73 C 267.09 44.40 265.83 44.22 264.58 44.02 M 276.60 43.96 C 276.14 51.12 276.19 58.30 276.56 65.45 C 277.88 65.48 279.21 65.50 280.53 65.51 C 280.88 59.05 281.09 52.55 280.68 46.08 C 280.64 44.04 277.95 44.47 276.60 43.96 M 247.21 109.15 C 251.56 110.41 254.15 113.93 256.28 117.66 C 257.70 113.55 260.54 110.38 264.80 109.16 C 261.05 106.85 257.77 103.90 256.00 99.77 C 254.22 103.89 250.96 106.84 247.21 109.15 M 197.54 124.60 C 201.45 126.33 204.30 129.35 206.00 133.26 C 207.69 129.79 209.73 126.27 213.79 125.27 C 213.88 124.81 214.06 123.88 214.16 123.42 C 210.04 122.43 207.69 119.11 206.29 115.35 C 204.39 119.41 200.77 121.82 197.54 124.60 M 308.73 116.22 C 307.64 120.37 303.91 122.40 300.69 124.70 C 305.05 125.83 307.37 129.39 309.77 132.82 C 311.53 128.85 314.81 126.27 318.36 124.01 C 316.56 122.84 314.60 121.94 312.67 121.01 C 311.99 119.39 311.31 117.76 310.64 116.14 C 310.16 116.16 309.21 116.20 308.73 116.22 M 292.31 164.07 C 284.59 155.07 272.39 151.98 260.97 151.75 C 247.39 151.40 232.33 153.04 222.01 162.85 C 213.95 156.19 203.24 153.86 193.00 153.93 C 191.33 153.67 191.07 155.81 190.92 156.97 C 190.17 166.21 192.21 175.56 196.48 183.77 C 189.64 187.77 184.49 194.12 181.30 201.31 C 174.95 215.40 171.45 231.65 175.83 246.84 C 166.97 254.18 155.19 261.63 153.62 273.96 C 163.61 276.87 174.11 277.67 184.35 279.49 C 186.56 289.20 192.63 297.55 200.29 303.74 C 211.10 312.76 224.36 320.76 238.99 319.63 C 240.90 330.46 246.02 341.50 256.21 346.78 C 263.67 340.28 267.68 330.94 271.11 321.90 C 284.14 323.26 296.35 317.07 306.44 309.43 C 316.30 301.96 326.09 292.72 328.91 280.17 C 339.87 281.37 351.51 278.00 359.72 270.59 C 357.63 260.09 347.46 254.00 338.98 248.83 C 344.78 236.30 342.91 221.73 337.45 209.45 C 333.28 199.29 326.93 189.65 317.52 183.65 C 321.82 173.06 322.30 161.42 321.42 150.15 C 309.97 149.29 300.50 157.11 292.31 164.07 M 341.41 171.77 C 345.27 173.63 347.99 176.74 350.09 180.40 C 351.29 178.63 352.17 176.68 353.08 174.75 C 354.71 174.03 356.34 173.34 357.98 172.64 C 357.95 172.14 357.88 171.13 357.85 170.63 C 353.84 169.62 351.90 166.14 349.99 162.84 C 348.01 166.66 344.89 169.37 341.41 171.77 M 162.49 168.27 C 160.53 169.35 158.58 170.46 156.68 171.63 C 160.99 173.16 163.58 176.70 165.95 180.36 C 167.09 178.55 167.99 176.60 168.91 174.67 C 170.54 173.97 172.17 173.28 173.81 172.59 C 173.78 172.13 173.72 171.22 173.69 170.76 C 169.57 169.55 167.41 165.93 165.25 162.55 C 164.30 164.44 163.40 166.36 162.49 168.27 M 141.18 230.48 C 143.08 231.36 145.00 232.18 146.92 233.01 C 148.08 234.71 148.19 237.96 150.63 238.19 C 152.31 234.43 155.28 231.82 158.91 229.99 C 155.32 228.06 152.30 225.47 150.62 221.68 C 147.57 224.49 145.27 228.51 141.18 230.48 M 362.00 226.82 C 360.09 227.73 358.13 228.61 356.52 230.03 C 358.24 231.33 360.23 232.20 362.18 233.11 C 363.05 235.02 363.90 236.93 364.79 238.83 C 367.18 235.16 370.16 232.02 374.08 229.98 C 370.25 227.93 367.33 224.89 365.09 221.20 C 363.95 223.01 363.00 224.93 362.00 226.82 M 154.52 299.83 C 158.37 301.59 160.88 304.81 163.03 308.33 C 164.21 306.53 165.11 304.58 166.03 302.65 C 167.64 301.96 169.26 301.29 170.88 300.62 C 170.87 300.06 170.87 298.94 170.87 298.38 C 169.25 297.70 167.63 297.04 166.03 296.35 C 165.11 294.42 164.23 292.47 163.06 290.69 C 161.10 294.60 157.54 297.12 154.52 299.83 M 352.29 290.60 C 351.12 294.82 347.94 297.49 344.13 299.28 C 347.82 301.56 350.75 304.60 352.99 308.31 C 354.15 306.51 355.04 304.56 355.96 302.64 C 357.59 301.93 359.22 301.24 360.86 300.55 C 360.86 300.03 360.86 298.99 360.86 298.46 C 359.25 297.77 357.63 297.07 356.03 296.36 C 355.02 294.29 353.87 292.28 352.29 290.60 M 182.19 340.13 C 186.62 341.39 189.16 345.06 191.44 348.75 C 192.33 346.85 193.17 344.93 194.00 343.00 C 195.85 341.91 198.50 341.54 199.42 339.37 C 195.58 337.69 192.92 334.66 191.00 331.01 C 188.91 334.82 185.91 337.87 182.19 340.13 M 321.30 336.52 C 319.39 337.43 317.47 338.32 315.57 339.26 C 318.94 341.44 322.59 343.60 323.73 347.75 C 324.21 347.77 325.16 347.82 325.63 347.84 C 326.31 346.21 326.98 344.58 327.68 342.95 C 329.61 342.03 331.56 341.13 333.37 339.97 C 329.70 337.60 326.16 335.01 324.64 330.70 C 323.47 332.60 322.37 334.55 321.30 336.52 M 233.96 362.24 C 232.32 362.95 230.68 363.64 229.04 364.36 C 229.10 364.82 229.22 365.75 229.28 366.22 C 233.42 367.36 235.52 371.03 237.71 374.37 C 238.64 372.41 239.53 370.44 240.43 368.47 C 242.39 367.58 244.35 366.69 246.29 365.77 C 242.39 363.53 238.96 360.63 237.36 356.28 C 236.15 358.22 235.04 360.22 233.96 362.24 M 275.02 362.07 C 273.16 363.00 271.29 363.93 269.55 365.08 C 273.34 367.43 276.57 370.43 278.76 374.36 C 279.68 372.41 280.57 370.44 281.46 368.48 C 283.42 367.58 285.38 366.69 287.33 365.77 C 283.44 363.52 280.01 360.63 278.39 356.30 C 277.21 358.19 276.10 360.12 275.02 362.07 Z" />
<path fill="#2a2a2a" opacity="1.00" d=" M 294.65 167.65 C 300.91 161.79 308.04 156.65 316.34 154.17 C 310.24 162.02 303.87 169.66 297.66 177.43 C 296.78 174.13 295.81 170.86 294.65 167.65 Z" />
<path fill="#2a2a2a" opacity="1.00" d=" M 224.98 165.97 C 232.93 157.71 245.13 156.23 256.01 155.83 C 266.61 155.77 278.46 156.82 286.65 164.31 C 291.48 168.52 293.26 175.01 293.51 181.20 C 291.13 183.50 288.95 186.00 287.06 188.72 C 280.54 184.90 272.89 181.18 265.17 183.28 C 259.99 184.55 256.61 189.02 253.94 193.31 C 250.81 189.36 247.18 185.18 241.98 184.14 C 235.29 182.56 228.88 186.00 223.50 189.59 C 216.29 183.33 219.40 172.24 224.98 165.97 Z" />
<path fill="#2a2a2a" opacity="1.00" d=" M 198.64 158.26 C 206.03 159.06 213.42 161.19 219.27 165.96 C 217.54 169.73 216.15 173.64 215.07 177.64 C 209.63 171.15 203.95 164.87 198.64 158.26 Z" />
<path fill="#2a2a2a" opacity="1.00" d=" M 301.60 179.25 C 306.86 172.63 312.05 165.94 317.63 159.59 C 317.69 167.05 316.51 174.50 313.97 181.53 C 309.91 180.48 305.78 179.68 301.60 179.25 Z" />
<path fill="#2a2a2a" opacity="1.00" d=" M 194.94 160.71 C 201.07 167.39 206.78 174.44 212.75 181.26 C 208.58 181.31 204.42 181.57 200.26 181.92 C 196.67 175.43 195.08 168.09 194.94 160.71 Z" />
<path fill="#2a2a2a" opacity="1.00" d=" M 290.63 190.96 C 295.14 181.01 308.63 182.47 316.21 187.80 C 328.82 196.79 335.66 212.12 338.13 227.03 C 340.37 239.89 334.09 254.61 320.98 258.70 C 318.95 257.09 316.92 255.50 314.86 253.93 C 315.95 247.53 316.81 240.47 313.49 234.55 C 310.49 228.67 304.66 225.05 298.81 222.48 C 302.27 219.20 306.23 215.22 305.51 209.99 C 304.35 201.45 296.82 196.05 290.63 190.96 Z" />
<path fill="#2a2a2a" opacity="1.00" d=" M 192.72 191.72 C 199.71 184.62 214.76 181.72 220.24 192.01 C 214.29 197.88 207.08 204.14 206.30 213.02 C 205.69 218.06 209.35 222.00 212.81 225.09 C 207.80 227.70 202.77 231.19 200.68 236.68 C 197.77 243.51 199.85 251.03 202.02 257.74 C 196.63 258.40 190.55 258.58 186.16 254.83 C 178.72 248.61 177.54 238.01 178.16 228.92 C 179.57 215.66 183.40 201.67 192.72 191.72 Z" />
<path fill="#2a2a2a" opacity="1.00" d=" M 256.82 201.76 C 256.16 194.38 262.21 186.42 269.99 186.85 C 278.76 187.41 286.25 192.82 292.88 198.15 C 296.92 201.72 301.68 206.12 301.36 211.99 C 300.13 217.67 294.14 220.12 289.39 222.30 C 283.27 210.01 270.39 202.39 256.82 201.76 Z" />
<path fill="#2a2a2a" opacity="1.00" d=" M 220.01 198.03 C 225.54 193.03 232.09 187.36 240.06 188.02 C 247.21 189.03 250.96 196.15 253.39 202.20 C 240.40 203.89 229.05 212.71 223.98 224.75 C 218.65 223.30 211.79 221.23 210.52 215.02 C 210.01 208.04 215.44 202.58 220.01 198.03 Z" />
<path fill="#2a2a2a" opacity="1.00" d=" M 290.88 225.37 C 301.62 225.54 312.94 234.55 311.72 246.05 C 310.53 256.92 305.81 269.26 295.28 274.14 C 288.97 277.00 283.95 270.49 282.51 265.10 C 284.80 259.38 289.13 254.67 290.91 248.70 C 293.61 241.15 292.72 233.00 290.88 225.37 Z" />
<path fill="#2a2a2a" opacity="1.00" d=" M 203.51 242.22 C 204.49 233.23 214.06 226.90 222.76 228.08 C 221.66 234.82 221.16 241.87 223.44 248.43 C 225.28 254.73 229.75 259.68 232.91 265.30 C 229.71 268.52 225.90 272.10 221.00 271.81 C 215.91 271.53 212.37 267.17 209.80 263.21 C 206.04 256.92 202.80 249.72 203.51 242.22 Z" />
<path fill="#2a2a2a" opacity="1.00" d=" M 235.47 237.44 C 242.13 234.24 251.33 241.66 250.08 248.88 C 245.79 254.19 236.80 251.99 232.95 247.12 C 230.25 244.02 232.41 239.37 235.47 237.44 Z" />
<path fill="#2a2a2a" opacity="1.00" d=" M 272.43 237.47 C 277.71 233.95 285.08 240.05 282.90 245.81 C 279.64 251.77 269.62 254.50 264.91 248.89 C 263.97 243.83 268.12 239.42 272.43 237.47 Z" />
<path fill="#2a2a2a" opacity="1.00" d=" M 252.89 263.24 C 253.02 257.43 254.84 251.83 257.72 246.82 C 259.85 251.61 262.31 256.58 262.21 261.95 C 260.23 264.87 255.86 262.96 252.89 263.24 Z" />
<path fill="#2a2a2a" opacity="1.00" d=" M 159.25 268.81 C 163.98 261.63 170.63 256.01 177.43 250.85 C 179.75 254.15 182.44 257.18 185.46 259.86 C 176.78 263.02 168.08 266.14 159.25 268.81 Z" />
<path fill="#2a2a2a" opacity="1.00" d=" M 328.89 259.83 C 331.64 257.45 334.29 254.95 336.83 252.35 C 343.31 256.12 349.71 260.41 354.06 266.66 C 345.58 264.71 337.29 262.06 328.89 259.83 Z" />
<path fill="#2a2a2a" opacity="1.00" d=" M 313.52 257.93 C 319.47 262.52 325.24 268.98 324.82 277.01 C 324.40 287.74 316.12 295.87 308.52 302.50 C 298.69 310.45 287.13 318.48 273.90 317.81 C 262.84 317.27 253.85 307.55 252.60 296.81 C 262.09 296.77 272.57 296.55 280.36 290.34 C 284.23 287.46 285.87 282.74 286.79 278.19 C 300.16 282.00 309.52 268.82 313.52 257.93 Z" />
<path fill="#2a2a2a" opacity="1.00" d=" M 191.83 262.25 C 195.89 262.38 199.95 262.12 203.97 261.51 C 207.18 267.08 210.98 273.18 217.41 275.34 C 221.72 276.87 226.21 275.26 230.18 273.50 C 230.11 278.40 230.08 283.74 233.14 287.87 C 236.57 293.01 242.76 295.01 248.49 296.29 C 249.02 300.14 250.01 303.91 251.50 307.50 C 247.14 313.07 240.13 316.32 233.03 315.45 C 219.81 314.01 208.50 305.76 199.02 296.98 C 189.54 288.48 184.49 273.70 191.83 262.25 Z" />
<path fill="#2a2a2a" opacity="1.00" d=" M 324.84 262.95 C 334.08 265.64 343.40 268.06 352.60 270.86 C 345.58 274.79 337.54 277.22 329.44 275.91 C 328.53 271.39 326.99 267.03 324.84 262.95 Z" />
<path fill="#2a2a2a" opacity="1.00" d=" M 164.33 271.92 C 171.43 268.92 178.85 266.78 186.09 264.14 C 185.15 267.78 184.44 271.48 183.95 275.22 C 177.39 274.24 170.81 273.36 164.33 271.92 Z" />
<path fill="#2a2a2a" opacity="1.00" d=" M 239.75 269.04 C 240.64 269.08 242.41 269.16 243.30 269.20 C 243.36 272.43 243.30 275.66 243.25 278.89 C 244.57 279.27 245.89 279.65 247.22 280.04 C 247.71 276.67 246.22 270.54 251.54 271.55 C 251.59 274.67 251.58 277.80 251.58 280.93 C 252.93 280.94 254.29 280.96 255.65 280.98 C 255.71 278.12 255.78 275.27 255.92 272.41 C 256.78 272.28 258.50 272.01 259.36 271.88 C 259.69 274.91 259.85 277.95 259.99 281.00 C 261.26 280.93 262.53 280.86 263.81 280.79 C 264.42 277.66 262.16 270.78 266.94 270.86 C 268.60 273.55 267.96 276.91 268.30 279.93 C 269.53 279.55 270.77 279.17 272.02 278.79 C 272.09 275.69 271.82 272.52 272.59 269.48 C 277.14 267.86 275.85 274.31 276.57 276.99 C 278.32 275.31 280.07 273.64 281.84 271.99 C 283.40 278.19 281.74 285.58 275.61 288.62 C 265.60 293.66 253.19 293.87 242.68 290.30 C 235.83 287.93 233.52 280.30 234.22 273.70 C 235.81 274.78 237.40 275.89 238.99 276.98 C 239.21 274.33 239.45 271.68 239.75 269.04 Z" />
<path fill="#2a2a2a" opacity="1.00" d=" M 243.09 318.70 C 246.68 316.96 250.05 314.80 253.16 312.30 C 253.19 321.49 253.51 330.69 253.25 339.88 C 247.42 334.27 244.55 326.49 243.09 318.70 Z" />
<path fill="#2a2a2a" opacity="1.00" d=" M 257.26 315.00 C 260.35 317.26 263.64 319.25 267.05 320.99 C 264.61 327.44 261.65 333.72 257.68 339.39 C 257.31 331.26 257.48 323.13 257.26 315.00 Z" />
<path fill="#2a2a2a" opacity="1.00" d=" M 202.68 461.91 C 206.66 461.97 212.04 463.09 212.30 468.03 C 212.87 473.43 206.98 475.26 202.66 475.15 C 202.58 470.74 202.59 466.32 202.68 461.91 Z" />
<path fill="#2a2a2a" opacity="1.00" d=" M 257.35 465.21 C 258.31 466.96 259.25 468.72 260.20 470.48 C 258.40 470.48 256.61 470.49 254.83 470.50 C 255.66 468.73 256.50 466.97 257.35 465.21 Z" />
</g>
</svg>
