<?xml version="1.0" encoding="UTF-8" ?>
<!DOCTYPE svg PUBLIC "-//W3C//DTD SVG 1.1//EN" "http://www.w3.org/Graphics/SVG/1.1/DTD/svg11.dtd">
<svg width="256pt" height="256pt" viewBox="0 0 256 256" version="1.1" xmlns="http://www.w3.org/2000/svg">
<g id="#ffffffff">
</g>
<g id="#2a2a2aff">
<path fill="#2a2a2a" opacity="1.00" d=" M 64.27 11.19 C 65.79 10.65 67.42 10.70 69.00 10.65 C 109.01 10.74 149.03 10.60 189.04 10.71 C 193.40 10.59 197.12 14.65 196.79 18.97 C 196.81 91.65 196.81 164.35 196.79 237.03 C 197.18 241.80 192.70 245.85 188.02 245.33 C 148.01 245.32 108.00 245.32 67.99 245.33 C 63.30 245.86 58.81 241.80 59.21 237.03 C 59.19 164.34 59.19 91.66 59.21 18.97 C 59.00 15.62 61.10 12.32 64.27 11.19 M 64.36 13.33 C 61.87 14.49 61.03 17.40 61.20 19.95 C 61.25 92.31 61.18 164.67 61.23 237.03 C 60.90 240.73 64.33 243.80 67.96 243.32 C 107.99 243.32 148.01 243.32 188.04 243.32 C 191.67 243.80 195.10 240.72 194.76 237.03 C 194.80 164.34 194.80 91.66 194.76 18.97 C 195.10 15.27 191.67 12.19 188.03 12.68 C 148.35 12.66 108.67 12.71 68.99 12.65 C 67.44 12.73 65.79 12.62 64.36 13.33 Z" />
<path fill="#2a2a2a" opacity="1.00" d=" M 66.22 16.29 C 106.47 15.88 146.77 16.28 187.04 16.10 C 188.95 15.93 191.91 16.34 191.34 18.98 C 191.46 85.32 191.36 151.67 191.40 218.02 C 191.85 220.31 190.16 221.52 188.03 221.17 C 147.68 221.12 107.33 221.27 66.99 221.09 C 64.85 221.54 64.53 219.68 64.61 218.01 C 64.61 152.00 64.61 85.99 64.61 19.97 C 64.72 18.57 64.38 16.64 66.22 16.29 M 66.64 18.13 C 66.53 55.25 66.73 92.36 66.54 129.48 C 70.88 129.64 75.22 129.59 79.56 129.56 C 79.55 131.35 79.53 133.15 79.52 134.95 C 80.59 135.03 81.66 135.10 82.74 135.16 C 82.73 131.24 82.74 127.33 82.74 123.41 C 84.19 123.39 85.64 123.38 87.09 123.36 C 87.20 122.71 87.41 121.39 87.52 120.73 C 90.46 121.00 94.72 119.48 95.63 123.41 C 97.21 123.40 98.79 123.38 100.37 123.37 C 100.37 125.86 100.38 128.36 100.38 130.85 C 102.82 130.84 105.26 130.83 107.70 130.81 C 112.56 120.63 113.63 109.57 112.69 98.46 C 108.25 102.13 104.39 106.97 98.54 108.39 C 91.60 110.36 83.73 114.95 76.83 110.39 C 75.47 110.60 74.07 110.84 72.73 110.36 C 89.08 99.62 106.74 90.72 123.41 80.38 C 124.48 79.52 124.94 78.15 125.67 77.04 C 124.49 75.66 123.32 74.29 122.14 72.92 C 123.12 71.07 124.13 69.25 125.11 67.42 C 127.97 66.62 129.69 64.15 131.97 62.47 C 136.49 62.46 140.27 65.70 142.04 69.69 C 150.05 65.01 158.04 60.30 166.10 55.72 C 168.71 61.61 172.58 67.35 172.52 74.02 C 172.70 82.47 158.02 83.85 156.07 75.95 C 155.26 70.97 157.71 66.24 159.56 61.77 C 154.05 65.24 148.13 68.08 142.78 71.78 C 141.28 75.21 138.28 78.58 139.45 82.56 C 137.04 82.42 134.67 81.93 132.31 81.43 C 133.82 84.36 137.91 83.68 139.97 86.06 C 143.19 89.60 146.18 93.38 150.00 96.32 C 159.07 96.31 167.67 94.35 175.97 90.80 C 175.75 91.38 175.31 92.54 175.09 93.12 C 176.67 93.19 178.25 93.27 179.84 93.35 C 181.78 95.92 178.48 97.84 177.21 99.82 C 174.14 99.34 171.07 98.84 168.01 98.28 C 162.35 101.15 156.57 104.86 150.02 104.85 C 144.54 103.86 140.29 99.87 135.99 96.61 C 133.82 102.65 127.43 108.66 130.64 115.41 C 135.09 121.08 140.59 125.85 145.51 131.11 C 145.55 127.01 145.55 122.91 145.54 118.81 C 148.39 118.81 151.25 118.82 154.11 118.82 C 154.11 123.60 154.11 128.38 154.12 133.16 C 155.36 133.15 156.61 133.15 157.85 133.16 C 157.86 130.14 157.86 127.12 157.87 124.10 C 161.89 124.05 165.91 124.04 169.93 124.06 C 169.94 126.64 169.99 129.22 170.19 131.79 C 173.14 128.54 170.92 123.47 171.55 119.47 C 172.93 119.48 174.31 119.49 175.69 119.50 C 175.74 118.29 175.80 117.08 175.85 115.87 C 178.45 115.87 181.04 115.87 183.64 115.86 C 183.64 117.20 183.64 118.54 183.64 119.88 C 184.85 120.01 186.07 120.14 187.28 120.27 C 188.06 123.81 185.24 129.74 189.28 131.43 C 189.51 93.66 189.35 55.89 189.36 18.13 C 177.18 18.15 165.00 18.15 152.81 18.13 C 152.65 19.52 152.49 20.91 152.34 22.30 C 158.10 23.97 163.92 25.45 169.65 27.21 C 169.35 27.57 168.74 28.30 168.44 28.67 C 162.80 27.68 157.40 25.64 151.85 24.27 C 151.22 26.07 150.52 27.84 149.89 29.63 C 152.78 31.25 156.68 31.91 158.25 35.16 C 154.82 34.63 151.81 32.83 148.80 31.22 C 147.40 32.90 145.99 34.57 144.56 36.22 C 147.77 39.89 151.94 42.79 154.33 47.12 C 149.29 45.95 146.85 40.58 143.01 37.50 C 141.10 38.67 139.17 39.80 137.23 40.90 C 138.29 43.80 139.37 46.69 140.18 49.67 C 136.53 49.02 136.79 44.31 135.32 41.60 C 133.05 42.04 130.77 42.45 128.49 42.81 C 128.47 47.19 128.61 51.59 128.18 55.96 C 124.65 52.79 127.24 47.06 126.47 42.82 C 124.24 42.47 122.02 42.07 119.81 41.65 C 118.76 44.45 118.04 47.45 116.20 49.87 C 114.04 47.53 117.42 43.78 117.88 40.96 C 115.92 39.88 113.97 38.77 112.05 37.62 C 108.23 40.59 105.82 46.19 100.74 46.98 C 103.34 42.88 107.24 39.88 110.47 36.32 C 109.02 34.67 107.59 33.00 106.18 31.31 C 103.32 32.81 100.44 34.30 97.41 35.45 C 97.62 31.76 102.56 31.42 105.10 29.66 C 104.42 27.88 103.74 26.11 103.07 24.33 C 97.35 25.88 91.69 27.66 85.90 28.94 C 86.00 28.49 86.21 27.58 86.32 27.12 C 91.59 25.09 97.20 24.05 102.60 22.39 C 102.43 20.97 102.27 19.56 102.11 18.14 C 90.29 18.14 78.46 18.15 66.64 18.13 M 125.23 24.26 C 119.15 26.49 122.70 36.62 128.94 34.29 C 135.81 32.37 131.77 21.14 125.23 24.26 M 162.23 60.32 C 162.68 62.35 163.14 64.39 163.69 66.40 C 164.17 63.90 164.43 61.37 164.66 58.85 C 163.84 59.33 163.03 59.82 162.23 60.32 M 82.67 106.94 C 92.03 106.13 101.32 101.03 106.25 92.83 C 98.40 97.55 90.16 101.66 82.67 106.94 M 177.70 118.08 C 177.72 118.93 177.74 120.64 177.76 121.49 C 176.35 121.49 174.95 121.50 173.56 121.51 C 173.58 125.42 173.57 129.33 173.57 133.24 C 171.69 133.23 169.81 133.23 167.93 133.22 C 167.92 130.84 167.91 128.46 167.90 126.09 C 165.23 126.10 162.56 126.11 159.89 126.12 C 159.89 129.14 159.88 132.17 159.87 135.19 C 157.28 135.18 154.69 135.18 152.10 135.19 C 152.05 130.41 152.04 125.62 152.06 120.84 C 150.56 120.83 149.06 120.83 147.56 120.83 C 147.54 124.91 147.55 128.99 147.54 133.07 C 148.46 134.11 149.38 135.15 150.29 136.19 C 146.55 138.80 142.31 140.53 138.05 142.09 C 133.89 149.72 143.45 151.60 147.28 156.22 C 150.77 155.24 152.79 157.79 151.83 161.13 C 153.49 163.19 155.23 165.21 156.97 167.21 C 166.31 160.19 178.25 157.77 189.37 154.91 C 189.40 147.58 189.39 140.25 189.37 132.92 C 187.99 132.89 186.60 132.85 185.22 132.82 C 185.24 129.30 185.23 125.79 185.23 122.28 C 184.04 122.21 182.84 122.14 181.65 122.07 C 181.64 120.67 181.64 119.27 181.63 117.87 C 180.32 117.92 179.01 117.99 177.70 118.08 M 89.62 122.43 C 89.49 123.17 89.25 124.65 89.12 125.39 C 87.67 125.40 86.21 125.42 84.75 125.44 C 84.75 129.35 84.75 133.26 84.76 137.17 C 82.33 137.14 79.91 137.12 77.48 137.05 C 77.51 135.23 77.53 133.40 77.56 131.58 C 73.91 131.58 70.26 131.59 66.61 131.59 C 66.62 160.77 66.60 189.95 66.63 219.12 C 80.51 219.13 94.40 219.16 108.28 219.11 C 107.59 212.50 104.45 206.29 99.74 201.62 C 98.74 205.15 98.39 209.02 96.12 212.05 C 94.08 207.93 92.17 203.43 88.25 200.72 C 85.11 198.21 80.41 198.39 77.70 195.29 C 75.65 191.60 79.49 188.00 82.63 186.61 C 95.29 181.28 108.83 178.50 122.25 175.83 C 122.44 173.68 119.59 172.78 118.42 171.26 C 121.91 162.62 114.70 154.03 114.69 145.18 C 111.27 144.74 107.44 144.51 104.84 141.93 C 104.21 138.78 105.81 135.79 106.69 132.86 C 103.91 132.86 101.14 132.87 98.36 132.88 C 98.37 130.38 98.36 127.89 98.36 125.39 C 96.78 125.40 95.20 125.42 93.61 125.43 C 92.97 123.63 91.60 122.44 89.62 122.43 M 128.12 144.18 C 127.69 147.02 126.26 150.84 129.02 152.96 C 133.60 156.91 138.42 160.58 143.29 164.16 C 144.52 162.42 145.69 160.63 146.87 158.86 C 143.28 154.80 138.67 151.91 134.14 149.02 C 134.83 146.90 135.47 144.75 136.03 142.59 C 133.39 143.12 130.76 143.64 128.12 144.18 M 116.86 145.29 C 117.55 153.04 120.89 160.24 122.08 167.93 C 123.87 167.16 126.31 167.15 127.60 165.62 C 127.50 158.54 124.39 151.60 125.88 144.51 C 122.87 144.80 119.87 145.05 116.86 145.29 M 128.33 155.03 C 128.81 159.27 129.00 163.73 131.64 167.28 C 131.59 169.78 129.98 172.06 129.66 174.57 C 136.12 173.99 142.44 172.37 148.62 170.45 C 146.56 169.03 143.99 168.92 141.65 168.28 C 141.66 167.55 141.69 166.07 141.71 165.33 C 136.98 162.25 132.67 158.60 128.33 155.03 M 159.12 168.22 C 160.60 172.86 156.61 175.86 153.82 178.84 C 151.52 181.07 146.93 184.85 144.25 181.28 C 146.61 178.76 148.54 175.86 149.37 172.46 C 143.14 174.24 136.82 175.73 130.42 176.72 C 130.27 181.26 132.11 187.51 127.13 190.12 C 123.67 192.04 119.54 195.19 115.45 193.55 C 114.10 188.63 120.14 186.01 122.85 182.83 C 122.74 181.21 122.64 179.60 122.53 178.00 C 109.21 180.25 95.92 183.32 83.41 188.47 C 80.49 189.36 76.83 194.21 81.44 195.51 C 87.86 197.04 93.14 201.33 96.24 207.13 C 97.35 204.31 96.91 200.05 100.03 198.57 C 107.95 199.07 114.38 204.19 121.19 207.70 C 122.36 200.42 129.57 197.14 135.93 195.73 C 139.04 197.55 139.86 201.89 142.50 204.42 C 145.11 200.72 146.18 195.54 150.06 192.96 C 155.74 193.15 161.38 192.67 167.01 191.93 C 174.53 192.17 181.93 193.95 189.37 194.98 C 189.39 182.26 189.42 169.54 189.35 156.82 C 179.08 159.84 167.92 161.85 159.12 168.22 M 164.47 194.10 C 164.47 202.41 164.51 210.73 164.44 219.05 C 166.17 219.07 167.90 219.09 169.63 219.11 C 169.60 210.71 169.61 202.32 169.62 193.92 C 167.90 193.97 166.18 194.03 164.47 194.10 M 150.22 194.83 C 150.14 202.93 150.18 211.04 150.19 219.14 C 151.88 219.13 153.58 219.13 155.29 219.13 C 155.31 211.08 155.32 203.04 155.28 195.00 C 153.59 194.94 151.90 194.88 150.22 194.83 M 157.32 195.08 C 157.31 203.09 157.32 211.09 157.31 219.09 C 159.02 219.11 160.73 219.12 162.45 219.15 C 162.50 210.90 162.48 202.66 162.46 194.42 C 160.74 194.64 159.03 194.86 157.32 195.08 M 171.62 194.22 C 171.62 202.53 171.60 210.83 171.63 219.13 C 173.34 219.13 175.04 219.13 176.75 219.12 C 176.75 211.09 176.77 203.06 176.74 195.03 C 175.04 194.76 173.33 194.49 171.62 194.22 M 178.77 195.33 C 178.78 203.26 178.76 211.19 178.79 219.13 C 180.15 219.13 181.52 219.13 182.88 219.13 C 182.89 211.40 182.90 203.67 182.88 195.94 C 181.51 195.73 180.14 195.53 178.77 195.33 M 184.95 196.33 C 184.96 203.93 184.91 211.52 184.98 219.12 C 186.44 219.12 187.91 219.13 189.38 219.14 C 189.40 211.74 189.41 204.35 189.37 196.97 C 187.89 196.75 186.42 196.54 184.95 196.33 M 128.66 200.81 C 128.69 206.91 128.66 213.02 128.69 219.12 C 130.39 219.13 132.09 219.13 133.80 219.14 C 133.80 212.17 133.82 205.20 133.78 198.22 C 132.07 199.08 130.37 199.95 128.66 200.81 M 135.88 198.26 C 135.76 205.22 135.83 212.18 135.84 219.14 C 137.53 219.13 139.21 219.13 140.90 219.13 C 141.47 211.65 141.42 204.00 135.88 198.26 M 143.11 206.39 C 142.88 210.63 142.91 214.88 143.07 219.13 C 144.76 219.13 146.45 219.13 148.15 219.13 C 148.15 212.38 148.23 205.62 148.09 198.87 C 146.55 201.45 145.02 204.06 143.11 206.39 M 102.03 200.75 C 103.09 202.17 104.16 203.60 105.23 205.02 C 105.21 203.94 105.20 202.85 105.19 201.77 C 104.13 201.43 103.08 201.09 102.03 200.75 M 107.23 202.25 C 106.43 208.05 109.47 213.21 110.46 218.76 C 110.92 218.95 111.83 219.33 112.28 219.52 C 112.42 214.68 112.35 209.85 112.34 205.02 C 110.64 204.09 108.94 203.16 107.23 202.25 M 121.57 210.02 C 121.50 213.06 121.51 216.10 121.53 219.15 C 123.24 219.12 124.96 219.11 126.68 219.09 C 126.58 213.19 126.84 207.29 126.50 201.40 C 124.67 204.17 123.75 207.46 121.57 210.02 M 114.40 206.15 C 114.35 210.47 114.37 214.79 114.36 219.12 C 116.08 219.10 117.81 219.08 119.55 219.05 C 119.50 215.78 119.50 212.51 119.54 209.24 C 117.83 208.20 116.11 207.18 114.40 206.15 Z" />
<path fill="#2a2a2a" opacity="1.00" d=" M 126.27 26.17 C 129.75 25.04 132.12 30.28 128.77 31.99 C 124.97 34.08 122.19 27.53 126.27 26.17 Z" />
<path fill="#2a2a2a" opacity="1.00" d=" M 100.65 227.91 C 101.16 227.77 102.16 227.48 102.66 227.33 C 102.15 230.93 104.69 236.50 100.90 238.60 C 100.76 237.05 100.63 235.49 100.51 233.94 C 99.02 233.92 97.52 233.91 96.03 233.90 C 95.73 235.70 96.11 238.07 93.83 238.63 C 93.51 234.80 93.50 230.95 93.86 227.13 C 96.32 227.40 95.52 230.08 96.01 231.69 C 97.53 231.71 99.05 231.74 100.57 231.77 C 100.60 230.48 100.63 229.20 100.65 227.91 Z" />
<path fill="#2a2a2a" opacity="1.00" d=" M 81.91 227.80 C 84.80 227.36 87.87 227.14 90.71 227.98 C 91.79 230.14 88.38 229.34 87.31 230.01 C 87.29 232.86 87.26 235.70 87.10 238.55 C 83.55 237.48 85.64 232.85 85.06 230.09 C 84.08 229.39 79.76 229.84 81.91 227.80 Z" />
<path fill="#2a2a2a" opacity="1.00" d=" M 106.60 227.60 C 109.66 228.14 114.71 225.76 116.12 229.53 C 113.73 229.71 111.34 229.76 108.95 229.82 C 108.80 230.26 108.51 231.13 108.36 231.57 C 110.33 231.65 112.31 231.75 114.28 231.82 C 114.26 232.33 114.21 233.35 114.19 233.86 C 112.38 233.88 110.58 233.90 108.78 233.93 C 108.77 234.41 108.74 235.38 108.73 235.86 C 111.19 235.89 113.66 235.95 116.11 236.14 C 114.89 239.95 109.62 237.55 106.63 238.15 C 106.49 234.63 106.49 231.11 106.60 227.60 Z" />
<path fill="#2a2a2a" opacity="1.00" d=" M 126.52 237.85 C 126.42 234.39 126.37 230.92 126.71 227.47 C 129.76 228.11 134.66 225.85 136.10 229.54 C 133.71 229.69 131.31 229.75 128.91 229.78 C 128.77 230.23 128.50 231.13 128.36 231.58 C 130.33 231.66 132.29 231.75 134.25 231.83 C 134.23 232.33 134.18 233.34 134.15 233.84 C 132.36 233.87 130.57 233.90 128.78 233.94 C 128.69 235.30 128.60 236.67 128.51 238.04 C 128.01 237.99 127.02 237.90 126.52 237.85 Z" />
<path fill="#2a2a2a" opacity="1.00" d=" M 141.19 228.03 C 144.56 226.18 149.15 229.08 148.86 232.92 C 149.11 236.97 143.88 239.73 140.65 237.32 C 137.23 235.28 137.60 229.68 141.19 228.03 M 142.20 229.99 C 138.70 231.62 141.13 237.19 144.68 235.74 C 148.67 234.44 145.90 228.02 142.20 229.99 Z" />
<path fill="#2a2a2a" opacity="1.00" d=" M 154.25 228.11 C 160.10 224.63 165.42 234.33 159.48 237.43 C 153.55 241.36 147.94 231.13 154.25 228.11 M 155.30 230.15 C 151.50 231.95 155.11 237.81 158.45 235.44 C 161.80 233.61 158.50 227.92 155.30 230.15 Z" />
<path fill="#2a2a2a" opacity="1.00" d=" M 165.29 238.08 C 165.58 234.56 164.29 230.46 166.07 227.33 C 168.74 228.76 166.93 233.17 167.44 235.86 C 169.35 235.88 171.27 235.93 173.19 236.00 C 172.81 239.81 167.89 237.67 165.29 238.08 Z" />
</g>
</svg>
