<?xml version="1.0" encoding="UTF-8" ?>
<!DOCTYPE svg PUBLIC "-//W3C//DTD SVG 1.1//EN" "http://www.w3.org/Graphics/SVG/1.1/DTD/svg11.dtd">
<svg width="120pt" height="120pt" viewBox="0 0 512 512" version="1.1" xmlns="http://www.w3.org/2000/svg">
<g id="#2d2d2dfb">
<path fill="#2d2d2d" opacity="1.00" d=" M 132.36 21.48 C 213.57 21.08 294.82 21.47 376.05 21.29 C 381.73 20.98 387.65 23.27 390.86 28.12 C 394.43 33.00 393.60 39.33 393.68 45.00 C 393.61 188.33 393.71 331.65 393.63 474.97 C 393.83 483.36 386.36 490.82 377.98 490.65 C 296.97 490.73 215.96 490.65 134.96 490.68 C 126.27 491.24 118.13 483.76 118.37 474.97 C 118.30 329.30 118.37 183.63 118.34 37.96 C 117.82 29.90 124.22 22.10 132.36 21.48 M 131.45 25.77 C 125.89 26.83 122.10 32.43 122.42 37.96 C 122.42 183.32 122.42 328.68 122.42 474.03 C 121.87 480.93 128.01 487.14 134.92 486.58 C 215.64 486.59 296.36 486.59 377.08 486.58 C 383.99 487.13 390.12 480.93 389.58 474.04 C 389.58 328.69 389.58 183.32 389.58 37.97 C 390.12 31.07 384.00 24.85 377.08 25.42 C 299.72 25.41 222.36 25.43 145.00 25.41 C 140.49 25.49 135.93 25.06 131.45 25.77 Z" />
<path fill="#2d2d2d" opacity="1.00" d=" M 132.41 32.58 C 136.88 31.76 141.47 32.30 146.00 32.19 C 222.69 32.19 299.39 32.21 376.08 32.18 C 379.62 31.63 383.28 34.05 382.76 37.92 C 382.85 170.63 382.72 303.35 382.84 436.06 C 383.35 439.20 381.83 442.90 378.04 442.28 C 297.36 442.38 216.67 442.22 135.98 442.35 C 133.04 442.60 128.64 442.04 129.24 438.04 C 129.13 305.00 129.25 171.96 129.18 38.92 C 129.14 36.50 129.58 33.24 132.41 32.58 M 133.31 36.29 C 133.24 119.02 133.24 201.75 133.30 284.47 C 136.32 281.96 138.72 278.27 142.65 277.16 C 145.79 281.54 148.74 286.12 152.99 289.58 C 156.74 288.41 160.86 284.75 164.81 287.17 C 168.47 289.12 171.88 291.48 175.41 293.66 C 177.87 289.50 181.98 284.87 180.21 279.71 C 177.09 274.32 169.16 271.26 170.04 263.97 C 171.53 254.50 182.94 251.49 186.09 242.97 C 184.67 237.05 180.76 231.51 182.11 225.10 C 184.57 209.18 196.90 197.34 208.39 187.12 C 204.42 176.66 200.78 166.08 196.73 155.66 C 189.18 155.82 187.84 148.49 188.46 142.42 C 193.79 141.23 201.17 145.58 200.70 151.91 C 218.78 153.57 237.62 149.09 252.24 138.10 C 250.98 136.70 249.73 135.31 248.49 133.91 C 250.39 129.92 252.37 125.95 254.66 122.16 C 258.46 124.90 260.62 129.14 262.90 133.09 C 261.42 134.79 259.92 136.46 258.43 138.15 C 272.87 148.81 291.46 151.49 308.97 151.62 C 309.22 149.73 309.47 147.84 309.72 145.96 C 313.29 144.07 316.99 142.37 320.95 141.48 C 320.91 145.57 320.30 149.63 319.56 153.65 C 317.26 154.31 314.95 154.96 312.64 155.61 C 308.19 165.71 304.99 176.29 301.90 186.87 C 311.96 196.41 321.84 206.99 326.66 220.24 C 330.11 227.83 327.32 235.75 324.65 242.99 C 327.93 251.47 339.24 254.61 340.77 264.07 C 341.56 272.90 330.00 275.29 329.48 283.73 C 334.91 280.72 338.90 285.41 342.03 289.30 C 345.91 285.05 348.78 279.93 352.95 275.96 C 355.31 273.90 358.13 276.53 359.26 278.65 C 361.58 282.90 363.56 287.38 366.85 291.02 C 369.85 287.44 373.72 282.97 378.86 285.58 C 378.51 202.49 378.86 119.39 378.68 36.29 C 296.89 36.22 215.10 36.23 133.31 36.29 M 255.42 128.98 C 254.69 130.50 253.97 132.01 253.27 133.54 C 254.06 134.05 254.86 134.56 255.66 135.08 C 256.42 134.27 257.18 133.46 257.94 132.65 C 257.10 131.42 256.26 130.20 255.42 128.98 M 201.37 156.12 C 202.69 159.82 204.03 163.51 205.39 167.21 C 235.10 149.61 273.88 149.51 304.28 165.50 C 305.52 162.27 306.77 159.04 308.05 155.82 C 289.65 155.49 270.25 152.35 255.25 140.92 C 240.15 152.85 220.36 157.54 201.37 156.12 M 192.97 147.25 C 193.10 148.35 193.23 149.44 193.36 150.54 C 194.08 150.66 195.52 150.90 196.24 151.02 C 196.08 150.38 195.77 149.09 195.61 148.44 C 194.73 148.04 193.85 147.65 192.97 147.25 M 313.62 148.56 C 313.47 149.16 313.17 150.36 313.02 150.96 C 313.70 150.89 315.07 150.75 315.75 150.68 C 316.05 149.51 316.36 148.34 316.67 147.18 C 315.65 147.63 314.63 148.09 313.62 148.56 M 206.92 171.15 C 207.27 172.19 207.62 173.23 207.97 174.27 C 235.89 156.70 273.32 157.24 301.89 173.04 C 302.22 171.83 302.55 170.62 302.89 169.41 C 273.44 153.71 235.62 153.71 206.92 171.15 M 209.53 178.20 C 211.10 182.85 212.80 187.45 214.46 192.07 C 239.16 177.57 271.57 176.94 296.10 192.16 C 297.57 187.13 299.05 182.10 300.49 177.06 C 272.98 161.37 236.42 160.81 209.53 178.20 M 215.60 196.61 C 206.52 204.30 197.33 213.76 195.31 225.96 C 193.44 232.76 202.72 238.78 197.73 245.09 C 195.73 247.24 194.34 244.36 194.71 242.47 C 195.12 236.95 190.28 232.57 191.14 226.97 C 192.29 213.82 201.75 203.40 211.12 194.94 C 210.70 193.76 210.29 192.59 209.88 191.42 C 199.47 200.67 188.33 211.53 186.18 225.93 C 184.88 232.14 189.78 237.12 190.20 243.01 C 188.65 252.79 176.16 255.59 174.02 264.93 C 175.13 271.42 183.68 273.47 184.59 280.20 C 185.90 290.00 176.02 296.25 174.75 305.49 C 176.04 305.66 177.33 305.82 178.62 305.99 C 180.39 302.30 182.23 298.65 184.06 295.00 C 184.94 295.10 186.71 295.29 187.59 295.39 C 186.38 299.73 184.38 303.77 182.27 307.73 C 184.38 308.89 186.48 310.06 188.58 311.24 C 190.45 302.84 194.64 295.29 199.17 288.08 C 201.16 284.49 204.11 279.71 201.16 275.84 C 197.97 271.50 192.57 267.22 194.20 261.14 C 196.10 255.35 200.85 251.14 204.46 246.39 C 209.36 250.89 201.26 255.22 199.41 259.43 C 193.97 267.99 208.76 272.25 206.43 280.99 C 203.44 292.68 193.22 301.61 192.44 314.12 C 193.30 316.73 196.39 316.22 198.54 316.59 C 199.21 305.50 206.28 296.63 211.14 287.13 C 214.04 282.04 211.69 276.40 211.02 271.10 C 212.99 270.71 214.37 272.21 215.77 273.30 C 214.14 267.01 214.77 260.47 213.86 254.10 C 211.52 248.73 206.79 244.20 206.65 237.99 C 206.22 232.20 212.78 230.02 214.91 225.32 C 231.49 223.56 243.84 211.00 256.02 200.83 C 267.72 211.94 280.26 225.05 297.35 226.28 C 299.10 231.48 306.21 233.84 305.34 239.99 C 305.12 246.97 297.31 250.95 297.76 257.98 C 297.69 262.86 297.50 267.74 296.95 272.59 C 298.34 272.43 299.74 272.28 301.15 272.15 C 295.10 288.75 313.39 300.11 313.76 316.09 C 315.12 316.23 316.48 316.37 317.85 316.52 C 318.43 316.02 319.58 315.02 320.16 314.52 C 319.03 307.40 316.22 300.67 312.38 294.61 C 309.48 289.45 305.30 284.20 305.99 277.92 C 306.73 271.88 314.03 269.12 314.37 263.00 C 312.95 257.00 306.96 253.43 305.21 247.48 C 309.45 246.43 311.40 250.70 313.69 253.35 C 316.22 256.67 319.20 260.52 318.34 264.97 C 317.38 270.35 311.94 273.21 310.14 278.14 C 309.47 282.96 312.78 287.04 314.99 291.02 C 318.98 297.23 322.09 303.99 323.82 311.19 C 325.88 310.05 327.95 308.91 330.02 307.78 C 327.90 303.63 324.61 299.85 324.06 295.09 C 330.32 293.98 330.61 303.99 335.28 306.98 C 335.84 296.83 324.19 290.38 326.14 279.99 C 327.21 273.20 336.57 271.20 336.67 264.20 C 333.77 255.46 322.17 252.52 320.56 243.00 C 321.08 237.21 325.76 232.07 323.96 225.95 C 320.78 211.99 310.60 200.82 300.36 191.35 C 300.30 192.16 300.18 193.79 300.13 194.60 C 309.25 202.58 317.96 212.57 319.90 224.93 C 321.47 232.28 314.56 238.12 316.45 245.52 C 314.57 244.91 312.25 244.22 312.02 241.89 C 311.11 236.20 317.05 231.84 315.90 226.01 C 314.53 215.58 307.39 206.98 299.98 199.98 C 276.30 181.23 240.76 180.11 215.60 196.61 M 245.71 215.07 C 247.51 215.52 249.32 215.97 251.12 216.44 C 250.90 218.80 250.81 221.20 250.24 223.52 C 244.65 224.04 238.92 221.44 233.44 223.63 C 228.41 225.79 223.46 228.24 218.02 229.22 C 218.20 233.57 217.57 238.10 218.82 242.32 C 222.92 248.82 228.32 254.45 233.91 259.69 C 241.23 258.00 248.76 257.97 256.08 259.55 C 263.28 258.34 270.63 258.12 277.80 259.74 C 283.04 255.29 287.51 250.03 291.69 244.59 C 295.01 240.59 293.75 235.01 294.20 230.23 C 288.16 229.24 282.55 226.79 277.24 223.86 C 272.36 221.01 266.89 224.31 261.73 223.51 C 260.40 219.91 260.52 215.86 264.89 214.78 C 261.81 212.04 258.84 209.18 255.90 206.29 C 252.54 209.25 249.10 212.13 245.71 215.07 M 214.04 246.23 C 214.29 241.75 214.18 237.26 213.66 232.80 C 208.85 236.35 211.37 242.20 214.04 246.23 M 298.42 234.06 C 297.84 238.39 297.66 242.77 297.85 247.14 C 300.85 243.29 302.85 237.71 298.42 234.06 M 218.41 248.98 C 217.96 263.04 219.08 277.47 224.48 290.60 C 227.69 298.33 232.97 305.60 240.60 309.43 C 254.55 316.44 273.73 313.04 282.88 299.88 C 293.14 285.19 294.17 266.34 293.50 249.02 C 288.86 254.11 284.93 260.39 278.57 263.47 C 271.05 263.44 263.17 261.04 255.97 264.55 C 248.87 260.67 240.91 263.24 233.41 263.51 C 226.99 260.45 223.06 254.10 218.41 248.98 M 284.90 304.31 C 290.51 305.26 294.39 309.37 297.54 313.79 C 298.59 307.42 293.62 302.84 292.09 297.19 C 296.00 295.06 298.05 300.69 299.65 303.34 C 303.13 308.93 300.84 315.24 298.83 320.86 C 301.68 317.62 304.99 314.66 309.69 315.47 C 308.04 302.45 296.72 293.20 295.42 280.11 C 293.89 288.89 290.02 297.07 284.90 304.31 M 344.43 292.87 C 345.76 294.78 347.07 296.70 348.37 298.65 C 347.26 299.12 346.16 299.65 345.01 299.98 C 340.94 295.94 338.20 290.76 334.14 286.69 C 333.44 287.43 332.75 288.17 332.06 288.91 C 335.26 293.85 338.50 298.90 339.78 304.74 C 348.80 304.31 355.71 310.05 361.68 315.98 C 370.85 319.50 371.70 329.98 373.68 338.21 C 375.35 344.49 371.81 351.22 374.83 357.25 C 380.94 368.50 374.56 381.72 378.42 393.47 C 379.19 359.80 378.52 326.08 378.68 292.39 C 377.37 291.13 376.05 289.87 374.73 288.61 C 373.11 290.36 371.51 292.14 369.94 293.94 C 371.93 296.46 376.00 298.51 375.22 302.22 C 371.54 303.06 369.47 299.01 367.03 296.97 C 361.76 292.06 358.04 285.89 355.05 279.39 C 351.57 283.93 348.05 288.43 344.43 292.87 M 217.06 281.71 C 214.65 294.07 203.89 303.01 202.68 315.79 C 204.74 315.72 206.80 315.63 208.85 315.53 C 210.01 308.55 211.21 300.71 217.05 295.96 C 218.47 295.86 219.25 296.51 219.38 297.93 C 217.57 301.89 214.94 305.48 213.84 309.76 C 217.26 306.30 220.26 302.28 224.84 300.27 C 221.37 294.49 218.99 288.16 217.06 281.71 M 133.23 294.95 C 133.49 328.09 132.91 361.26 133.47 394.40 C 137.34 384.76 133.75 374.09 135.03 364.07 C 136.26 359.01 139.83 354.41 138.67 348.94 C 137.16 340.54 139.95 332.28 142.29 324.33 C 144.00 318.23 151.00 317.08 154.58 312.53 C 158.59 307.75 164.60 305.45 170.67 304.76 C 171.36 302.13 172.16 299.53 173.02 296.95 C 169.35 294.66 165.68 292.40 161.99 290.17 C 159.75 291.17 157.52 292.19 155.30 293.24 C 157.32 296.36 165.86 297.63 162.79 302.01 C 158.41 301.94 155.04 298.74 152.46 295.54 C 148.96 291.01 144.65 287.19 141.05 282.73 C 137.81 286.26 132.60 289.46 133.23 294.95 M 214.89 313.96 C 209.62 317.43 212.37 324.84 214.68 329.35 C 226.23 346.04 242.65 358.77 259.95 369.06 C 292.28 387.88 328.86 398.17 365.64 403.76 C 365.69 402.48 365.75 401.20 365.80 399.92 C 345.35 396.87 325.09 392.02 305.52 385.35 C 306.30 383.69 307.31 381.78 309.46 382.72 C 327.10 387.75 344.86 392.53 362.98 395.58 C 340.94 384.21 322.01 367.33 306.66 347.97 C 300.73 349.44 294.53 349.94 288.55 348.44 C 288.70 347.61 289.01 345.95 289.16 345.12 C 294.11 345.33 299.08 345.29 303.99 344.54 C 300.65 338.32 298.58 331.43 299.17 324.30 C 297.71 324.30 296.27 324.31 294.82 324.32 C 294.30 318.28 292.53 311.83 286.90 308.61 C 292.67 317.63 294.20 330.42 287.27 339.24 C 280.61 347.30 269.21 347.88 259.56 347.23 C 273.48 356.13 290.16 365.89 307.22 360.69 C 308.86 360.11 309.49 362.48 310.54 363.33 C 296.83 370.20 281.15 364.04 268.60 357.44 C 249.84 346.66 232.55 332.79 218.94 315.90 C 221.87 312.30 224.78 308.58 226.31 304.13 C 221.66 306.40 219.22 311.26 214.89 313.96 M 224.27 316.02 C 231.90 324.97 240.37 333.53 250.80 339.20 C 260.82 344.84 275.38 345.55 283.91 336.92 C 290.93 328.24 287.47 316.09 281.49 307.87 C 267.21 320.31 243.59 320.25 229.97 306.80 C 228.25 309.98 226.33 313.05 224.27 316.02 M 167.59 308.45 C 167.57 310.56 167.73 312.68 167.54 314.79 C 164.90 316.14 163.20 312.29 161.12 311.21 C 161.80 313.59 162.68 315.92 163.02 318.38 C 160.42 318.33 158.19 316.89 155.90 315.84 C 157.34 317.82 158.78 319.79 160.16 321.82 C 157.26 323.70 154.74 321.40 152.40 319.81 C 145.11 322.38 144.78 330.83 143.10 337.16 C 140.81 344.13 144.85 351.74 141.45 358.49 C 139.24 363.08 136.91 368.81 140.77 373.26 C 145.38 369.37 147.02 363.53 149.37 358.25 C 153.06 353.56 160.31 352.54 162.78 346.68 C 165.23 341.19 160.61 335.82 161.43 330.23 C 162.04 325.88 164.24 321.47 168.16 319.22 C 175.95 314.95 187.32 320.20 188.74 329.05 C 189.25 337.31 182.33 344.66 174.32 345.86 C 177.16 347.53 180.32 350.13 183.82 348.81 C 188.64 347.09 191.15 342.27 193.57 338.11 C 192.94 337.04 192.32 335.97 191.70 334.91 C 192.77 333.96 193.84 333.03 194.91 332.10 C 193.98 331.10 193.06 330.09 192.14 329.09 C 193.20 327.89 194.28 326.69 195.34 325.49 C 193.72 325.20 192.09 324.92 190.47 324.64 C 191.02 323.14 191.54 321.62 192.02 320.10 C 188.41 321.37 186.18 319.56 187.50 315.84 C 187.22 315.58 186.66 315.05 186.38 314.78 C 184.90 315.72 183.43 316.66 181.85 317.41 C 181.42 315.61 181.27 313.75 181.08 311.91 C 180.78 311.70 180.17 311.28 179.87 311.07 C 179.28 312.47 178.68 313.88 178.08 315.28 C 177.52 315.06 176.41 314.62 175.85 314.40 C 175.28 312.38 174.68 310.38 173.99 308.40 C 173.70 310.26 173.42 312.12 173.11 313.97 C 172.44 313.93 171.11 313.86 170.45 313.82 C 169.53 312.01 168.60 310.21 167.59 308.45 M 336.43 314.67 C 335.87 314.75 334.75 314.92 334.19 315.01 C 333.40 313.56 332.62 312.11 331.84 310.67 C 331.40 312.92 331.01 315.18 330.59 317.43 C 329.04 316.56 327.50 315.69 325.95 314.83 C 325.59 315.12 324.89 315.70 324.53 315.99 C 324.82 317.51 325.11 319.02 325.40 320.55 C 323.61 320.36 321.84 320.16 320.07 319.96 C 320.74 321.45 321.43 322.92 322.14 324.40 C 320.37 324.82 318.60 325.23 316.83 325.65 C 317.99 326.80 319.16 327.95 320.32 329.12 C 319.14 330.15 317.96 331.18 316.78 332.20 C 318.02 332.88 319.26 333.54 320.50 334.23 C 319.98 335.56 319.44 336.89 318.91 338.23 C 321.31 342.53 323.99 347.57 329.12 348.95 C 332.52 349.91 335.42 347.36 338.18 345.81 C 330.34 344.80 323.77 337.93 323.52 330.00 C 324.24 320.28 337.18 314.28 345.15 319.83 C 350.05 323.47 352.14 330.38 350.28 336.17 C 349.31 339.71 347.86 343.66 349.79 347.15 C 352.44 352.57 359.19 353.66 362.86 358.06 C 365.32 363.30 366.87 369.17 371.38 373.18 C 375.50 369.14 373.23 363.37 371.09 358.97 C 367.37 351.98 371.63 344.04 369.17 336.78 C 367.47 331.36 367.60 324.12 362.18 320.86 C 358.91 318.57 355.51 324.83 352.84 321.81 C 353.62 319.53 355.07 317.58 356.20 315.48 C 354.17 316.74 352.17 318.06 350.12 319.30 C 349.10 316.65 350.87 314.21 350.85 311.59 C 348.93 313.00 347.19 314.74 344.90 315.54 C 344.60 313.25 344.74 310.94 344.78 308.65 C 343.72 310.45 342.70 312.27 341.66 314.08 C 341.11 314.03 340.01 313.93 339.46 313.89 C 338.99 312.07 338.52 310.26 338.03 308.47 C 337.45 310.52 336.95 312.60 336.43 314.67 M 204.14 319.84 C 205.15 327.59 205.02 336.34 199.53 342.51 C 182.49 361.73 163.56 380.87 139.24 390.45 C 138.66 392.03 138.08 393.60 137.52 395.18 C 146.95 392.82 155.52 388.01 163.44 382.48 C 178.43 371.74 192.31 359.14 203.30 344.26 C 208.59 337.36 210.84 327.93 207.19 319.75 C 206.42 319.77 204.90 319.82 204.14 319.84 M 303.53 331.82 C 305.57 342.24 313.44 350.09 320.33 357.67 C 335.92 373.29 353.21 389.19 375.00 395.17 C 373.93 388.84 366.84 388.50 362.37 385.60 C 342.70 374.41 326.33 358.33 311.80 341.18 C 306.97 334.83 307.57 326.49 308.06 319.00 C 302.87 320.93 302.94 327.25 303.53 331.82 M 165.98 334.86 C 167.53 339.65 168.77 345.22 165.83 349.77 C 163.06 355.09 156.64 356.51 152.86 360.75 C 149.83 367.20 147.60 376.50 138.85 376.86 C 138.95 379.94 139.11 383.02 139.31 386.10 C 156.58 378.97 170.79 366.36 184.11 353.58 C 177.15 353.80 167.48 348.68 170.68 340.42 C 176.23 342.18 181.84 339.39 183.84 333.93 C 187.32 327.68 179.99 321.39 173.99 321.78 C 167.69 321.79 164.07 329.40 165.98 334.86 M 327.61 329.99 C 327.88 336.81 334.46 343.01 341.43 340.37 C 345.23 348.55 335.06 353.92 328.15 353.51 C 341.53 366.28 355.72 379.02 373.07 386.07 C 373.26 383.02 373.40 379.97 373.50 376.92 C 361.40 376.48 363.83 360.48 354.24 356.72 C 348.81 353.92 344.01 348.49 344.73 342.00 C 345.42 336.66 348.76 330.86 345.16 325.80 C 341.11 318.34 328.53 322.21 327.61 329.99 M 187.21 368.26 C 225.19 397.63 268.77 422.18 316.80 429.52 C 316.61 430.74 316.42 431.95 316.23 433.18 C 284.82 429.41 255.32 416.41 228.07 400.85 C 212.78 391.90 197.89 382.17 184.18 370.92 C 182.82 372.22 181.45 373.51 180.10 374.82 C 212.77 401.34 250.13 422.98 290.93 434.07 C 313.67 441.09 337.68 437.26 361.06 438.18 C 362.74 428.08 364.24 417.94 365.02 407.73 C 362.29 407.33 359.57 406.91 356.84 406.50 C 356.28 411.33 355.70 416.16 355.07 420.99 C 354.15 421.06 352.30 421.19 351.37 421.26 C 351.48 416.05 352.18 410.89 352.79 405.72 C 350.20 405.27 347.61 404.82 345.02 404.39 C 344.17 409.40 343.26 414.40 342.20 419.37 C 341.28 419.32 339.45 419.23 338.53 419.18 C 339.08 413.87 340.13 408.63 341.03 403.38 C 338.41 402.83 335.79 402.30 333.17 401.79 C 332.04 406.14 331.33 410.61 329.77 414.84 C 329.28 416.52 327.49 416.95 326.19 415.84 C 326.22 410.62 328.19 405.69 329.15 400.61 C 326.68 400.03 324.22 399.46 321.75 398.92 C 319.48 403.43 320.93 412.86 314.64 413.30 C 314.32 407.88 316.70 402.81 317.90 397.63 C 315.35 396.90 312.81 396.17 310.26 395.46 C 308.68 400.34 307.12 405.23 304.86 409.84 C 299.34 405.95 305.81 399.17 306.42 394.09 C 304.06 393.32 301.72 392.55 299.37 391.80 C 296.96 396.07 297.70 404.45 291.91 405.27 C 290.80 400.11 294.35 395.35 295.61 390.50 C 293.40 389.55 291.18 388.62 288.96 387.71 C 286.32 391.42 285.95 401.36 280.26 399.65 C 280.58 394.81 283.44 390.63 285.15 386.19 C 282.44 385.01 279.74 383.82 277.04 382.63 C 275.01 386.83 273.46 391.30 270.82 395.18 C 269.74 394.98 268.75 394.57 267.85 393.95 C 269.01 389.36 271.40 385.21 273.32 380.92 C 270.89 379.63 268.45 378.35 266.01 377.08 C 263.90 380.94 262.38 385.20 259.56 388.63 C 258.15 389.27 256.53 388.86 256.72 387.03 C 257.99 382.80 260.50 379.09 262.41 375.13 C 260.31 373.95 258.21 372.78 256.11 371.62 C 252.84 374.94 251.46 384.90 245.69 382.04 C 247.20 377.48 250.19 373.63 252.67 369.58 C 250.74 368.23 248.80 366.89 246.86 365.56 C 243.42 368.44 241.08 378.02 235.80 374.84 C 237.41 370.44 240.80 367.04 243.40 363.24 C 241.53 361.81 239.67 360.39 237.81 358.96 C 234.84 362.35 232.44 366.30 228.88 369.12 C 227.14 369.52 226.34 368.81 226.47 367.00 C 228.54 363.10 231.79 360.00 234.52 356.57 C 232.84 355.04 231.15 353.52 229.46 352.01 C 226.28 355.46 223.08 358.92 219.56 362.05 C 215.31 356.91 223.98 353.27 226.43 349.23 C 225.01 347.85 223.59 346.47 222.17 345.11 C 218.69 348.64 215.24 352.22 211.51 355.49 C 207.68 349.77 216.74 346.36 219.45 342.11 C 217.19 339.44 214.96 336.74 212.81 333.98 C 208.37 347.94 197.25 358.17 187.21 368.26 M 155.23 392.62 C 165.71 409.46 180.60 423.38 197.81 433.17 C 202.20 435.61 206.72 438.60 211.98 438.25 C 230.89 438.11 249.80 438.35 268.71 438.12 C 269.36 436.09 270.01 434.06 270.66 432.04 C 268.11 431.06 265.56 430.09 263.02 429.12 C 261.39 432.12 261.15 437.27 256.85 437.41 C 255.79 433.91 258.03 430.67 259.04 427.46 C 256.63 426.44 254.22 425.41 251.82 424.38 C 250.08 427.56 249.40 431.86 245.95 433.72 C 242.47 430.51 247.14 426.10 248.00 422.53 C 245.45 421.36 242.92 420.18 240.37 419.01 C 238.73 422.24 237.08 425.47 235.25 428.61 C 230.02 425.87 235.41 420.78 236.73 417.07 C 234.18 415.70 231.63 414.34 229.07 412.99 C 226.95 416.15 226.28 421.65 221.92 422.31 C 220.12 418.24 224.12 414.60 225.46 410.97 C 223.36 409.73 221.26 408.50 219.15 407.28 C 216.69 410.11 215.47 417.43 210.90 415.91 C 210.61 411.80 213.90 408.59 215.60 405.10 C 213.51 403.79 211.42 402.49 209.32 401.20 C 206.83 404.08 205.49 411.46 200.94 409.89 C 200.59 405.71 204.14 402.50 205.88 398.98 C 204.11 397.73 202.33 396.48 200.57 395.24 C 197.64 397.82 195.60 406.22 190.85 402.85 C 192.18 399.11 194.85 396.09 197.11 392.90 C 195.20 391.54 193.28 390.19 191.37 388.85 C 188.70 391.28 186.10 399.32 181.86 395.79 C 183.10 392.15 185.88 389.35 188.11 386.30 C 186.45 385.08 184.80 383.87 183.15 382.66 C 180.22 385.33 178.24 391.22 173.61 390.30 C 173.49 385.94 177.69 383.25 180.03 380.02 C 179.01 379.15 177.98 378.28 176.96 377.42 C 170.07 382.98 162.80 388.03 155.23 392.62 M 145.71 396.74 C 147.06 410.60 148.51 424.46 150.96 438.18 C 166.58 438.17 182.21 438.37 197.82 438.07 C 179.89 427.76 163.62 413.91 152.72 396.15 C 151.33 393.26 147.94 396.40 145.71 396.74 M 370.23 398.25 C 368.90 411.61 367.44 424.96 365.24 438.21 C 369.74 438.21 374.24 438.21 378.74 438.18 C 378.72 425.41 378.73 412.65 378.73 399.88 C 375.89 399.39 373.05 398.84 370.23 398.25 M 133.25 399.83 C 133.28 412.62 133.27 425.40 133.26 438.18 C 137.78 438.21 142.31 438.21 146.84 438.20 C 144.50 425.04 143.04 411.74 141.82 398.43 C 138.97 398.93 136.11 399.41 133.25 399.83 M 272.96 438.22 C 278.69 438.20 284.42 438.24 290.15 438.18 C 284.96 436.63 279.75 435.12 274.61 433.42 C 274.05 435.01 273.50 436.61 272.96 438.22 Z" />
<path fill="#2d2d2d" opacity="1.00" d=" M 240.05 49.14 C 239.99 47.18 243.90 47.21 243.86 49.16 C 244.58 54.75 244.31 60.43 244.12 66.05 C 244.52 68.44 241.84 68.82 240.22 69.50 C 239.57 62.76 239.26 55.89 240.05 49.14 Z" />
<path fill="#2d2d2d" opacity="1.00" d=" M 249.78 49.11 C 250.36 48.67 251.53 47.79 252.11 47.35 C 256.33 51.06 257.57 56.94 260.57 61.55 C 263.44 56.93 264.58 50.93 268.92 47.40 C 272.14 48.12 270.67 51.67 269.63 53.63 C 266.92 58.65 264.92 64.12 261.57 68.76 C 258.69 69.77 257.87 66.13 256.68 64.32 C 254.40 59.25 251.18 54.53 249.78 49.11 Z" />
<path fill="#2d2d2d" opacity="1.00" d=" M 198.40 101.55 C 201.97 99.72 204.54 96.78 206.72 93.49 C 208.53 97.32 211.72 99.90 215.21 102.12 C 213.43 103.24 211.52 104.12 209.64 105.04 C 208.96 106.65 208.28 108.25 207.61 109.86 C 207.14 109.84 206.21 109.80 205.74 109.78 C 204.83 105.71 200.87 104.30 198.40 101.55 Z" />
<path fill="#2d2d2d" opacity="1.00" d=" M 301.74 98.64 C 302.87 96.78 304.02 94.94 305.22 93.13 C 306.89 97.27 310.19 100.10 313.86 102.42 C 311.91 103.32 309.93 104.17 307.95 105.01 C 307.43 106.54 306.91 108.07 306.41 109.60 C 305.82 109.72 304.66 109.95 304.08 110.07 C 303.41 108.36 302.76 106.65 302.10 104.94 C 300.10 104.09 298.11 103.23 296.15 102.31 C 297.93 100.96 299.83 99.79 301.74 98.64 Z" />
<path fill="#2d2d2d" opacity="1.00" d=" M 151.48 165.28 C 155.16 163.46 158.10 160.69 159.67 156.83 C 161.57 160.20 163.87 163.45 167.73 164.70 C 167.74 165.09 167.74 165.88 167.74 166.27 C 163.66 167.18 162.30 171.19 159.52 173.63 C 157.71 170.04 154.69 167.54 151.48 165.28 Z" />
<path fill="#2d2d2d" opacity="1.00" d=" M 349.01 162.37 C 350.17 160.92 350.07 156.84 352.56 157.69 C 354.43 160.98 357.06 163.60 360.48 165.28 C 357.05 167.55 354.15 170.39 352.01 173.91 C 350.15 170.64 347.97 167.48 344.20 166.27 C 344.18 165.80 344.14 164.88 344.12 164.42 C 345.75 163.73 347.38 163.05 349.01 162.37 Z" />
<path fill="#2d2d2d" opacity="1.00" d=" M 252.41 168.33 C 255.26 166.15 259.87 168.46 259.92 172.02 C 260.43 175.80 255.62 178.74 252.52 176.51 C 249.56 174.81 249.53 170.12 252.41 168.33 Z" />
<path fill="#2d2d2d" opacity="1.00" d=" M 226.42 172.41 C 232.42 169.84 235.81 179.97 229.60 181.61 C 223.88 183.70 220.68 174.28 226.42 172.41 Z" />
<path fill="#2d2d2d" opacity="1.00" d=" M 280.47 172.51 C 283.89 170.83 288.14 174.28 287.17 177.98 C 286.58 181.43 281.91 183.08 279.33 180.68 C 276.50 178.58 277.26 173.81 280.47 172.51 Z" />
<path fill="#2d2d2d" opacity="1.00" d=" M 203.05 225.00 C 205.95 207.74 221.52 194.32 238.55 191.93 C 238.66 193.13 238.78 194.34 238.89 195.54 C 228.05 198.05 217.45 203.84 211.68 213.67 C 208.92 217.74 208.26 222.76 205.96 227.01 C 205.16 229.08 202.01 226.71 203.05 225.00 Z" />
<path fill="#2d2d2d" opacity="1.00" d=" M 274.35 192.22 C 292.03 194.34 307.72 209.39 309.75 227.29 C 308.82 227.32 306.96 227.38 306.04 227.41 C 303.36 212.67 291.83 200.34 277.30 196.72 C 275.10 196.35 271.47 194.45 274.35 192.22 Z" />
<path fill="#2d2d2d" opacity="1.00" d=" M 238.57 204.64 C 241.97 202.16 244.92 198.16 249.61 198.58 C 248.45 201.24 246.71 203.61 244.37 205.35 C 236.45 211.61 228.00 217.70 218.13 220.41 C 217.73 219.29 217.34 218.17 216.95 217.06 C 224.64 213.84 232.09 209.92 238.57 204.64 Z" />
<path fill="#2d2d2d" opacity="1.00" d=" M 263.79 198.71 C 267.22 197.97 269.41 201.40 271.94 203.11 C 278.53 208.98 286.47 212.88 294.29 216.79 C 297.21 217.66 294.09 220.75 292.18 219.78 C 283.08 216.89 275.28 211.03 267.86 205.19 C 266.03 203.41 262.84 201.73 263.79 198.71 Z" />
<path fill="#2d2d2d" opacity="1.00" d=" M 225.12 232.91 C 228.69 223.35 244.90 223.54 248.61 232.95 C 248.21 236.99 244.34 233.81 242.85 232.23 C 239.78 236.70 233.95 236.55 231.01 232.03 C 229.07 233.42 225.30 237.60 225.12 232.91 Z" />
<path fill="#2d2d2d" opacity="1.00" d=" M 264.12 232.97 C 267.22 223.53 284.06 223.31 287.07 232.97 C 287.30 237.07 282.88 233.71 281.52 232.21 C 278.39 236.39 272.79 236.73 269.69 232.31 C 268.26 233.76 263.82 237.01 264.12 232.97 Z" />
<path fill="#2d2d2d" opacity="1.00" d=" M 189.54 250.44 C 190.58 248.51 194.16 249.46 192.96 251.82 C 190.73 256.23 186.49 259.71 185.81 264.84 C 188.74 268.61 193.54 271.18 194.72 276.13 C 195.83 281.81 193.52 287.78 189.93 292.15 C 184.26 291.41 190.32 285.14 190.61 281.82 C 193.33 274.39 184.35 271.51 181.90 265.99 C 181.64 259.97 185.65 254.67 189.54 250.44 Z" />
<path fill="#2d2d2d" opacity="1.00" d=" M 245.91 251.61 C 251.22 249.67 256.70 252.92 262.07 250.86 C 264.84 249.75 265.71 252.52 266.63 254.50 C 259.94 256.17 253.09 256.02 246.39 254.60 C 246.27 253.85 246.03 252.35 245.91 251.61 Z" />
<path fill="#2d2d2d" opacity="1.00" d=" M 318.69 250.77 C 321.72 249.39 323.63 252.67 325.43 254.54 C 328.03 258.03 331.43 262.25 330.22 266.88 C 327.10 271.78 318.47 274.72 321.09 281.91 C 321.39 285.10 326.67 290.71 321.85 291.84 C 318.25 288.28 316.42 282.97 316.65 277.96 C 317.31 272.00 322.89 268.67 326.97 265.03 C 325.34 259.60 319.59 256.29 318.69 250.77 Z" />
<path fill="#2d2d2d" opacity="1.00" d=" M 302.31 256.11 C 308.96 253.97 309.05 271.03 301.68 269.24 C 302.66 264.89 302.69 260.51 302.31 256.11 Z" />
<path fill="#2d2d2d" opacity="1.00" d=" M 205.39 257.54 C 206.46 257.42 207.54 257.30 208.62 257.19 C 208.75 261.24 210.31 265.17 210.11 269.23 C 204.11 269.18 204.30 261.75 205.39 257.54 Z" />
<path fill="#2d2d2d" opacity="1.00" d=" M 222.70 267.33 C 223.88 267.41 225.06 267.48 226.25 267.57 C 228.20 280.39 231.77 294.03 242.39 302.50 C 238.49 305.80 235.01 301.13 232.71 298.29 C 226.42 289.29 223.19 278.24 222.70 267.33 Z" />
<path fill="#2d2d2d" opacity="1.00" d=" M 242.48 268.21 C 248.30 269.49 254.10 266.87 259.91 268.06 C 265.11 269.07 270.35 268.04 275.57 267.76 C 273.89 274.05 266.00 272.68 261.08 272.37 C 253.03 270.55 243.75 275.53 236.57 270.07 C 236.55 266.65 240.34 268.14 242.48 268.21 Z" />
<path fill="#2d2d2d" opacity="1.00" d=" M 285.70 267.52 C 286.87 267.46 288.05 267.41 289.23 267.36 C 288.70 278.00 285.64 288.73 279.69 297.63 C 277.32 300.69 273.70 305.87 269.51 302.49 C 280.19 294.05 283.71 280.35 285.70 267.52 Z" />
<path fill="#2d2d2d" opacity="1.00" d=" M 234.65 275.29 C 236.11 275.97 238.29 276.20 238.48 278.19 C 240.14 284.75 242.09 291.94 247.78 296.21 C 250.40 298.48 255.44 299.24 254.64 303.73 C 241.66 301.53 234.46 287.48 234.65 275.29 Z" />
<path fill="#2d2d2d" opacity="1.00" d=" M 250.96 280.42 C 250.53 278.85 248.22 276.99 250.06 275.60 C 254.43 275.36 258.84 275.42 263.20 275.79 C 262.52 277.44 261.64 279.00 260.77 280.57 C 261.18 282.64 264.30 285.49 261.79 287.04 C 257.87 287.60 257.15 282.50 255.77 279.85 C 254.55 282.91 253.46 288.27 248.95 286.91 C 249.11 284.61 250.11 282.52 250.96 280.42 Z" />
<path fill="#2d2d2d" opacity="1.00" d=" M 273.93 275.84 C 274.80 275.95 276.56 276.18 277.44 276.29 C 276.80 287.88 270.25 301.69 257.54 303.42 C 257.47 302.64 257.33 301.08 257.26 300.30 C 267.64 296.66 272.37 285.97 273.93 275.84 Z" />
<path fill="#2d2d2d" opacity="1.00" d=" M 217.61 327.38 C 214.79 325.31 217.36 320.69 219.98 323.96 C 233.71 341.49 251.58 355.55 271.41 365.57 C 273.69 366.32 273.70 368.55 273.50 370.56 C 251.62 361.36 232.25 346.00 217.61 327.38 Z" />
<path fill="#2d2d2d" opacity="1.00" d=" M 149.19 336.23 C 151.43 334.18 156.09 334.25 156.34 338.01 C 155.19 343.04 149.94 345.50 145.83 347.83 C 145.55 343.79 145.34 338.75 149.19 336.23 Z" />
<path fill="#2d2d2d" opacity="1.00" d=" M 358.22 335.03 C 364.43 333.66 368.88 342.72 365.82 346.99 C 361.50 346.20 352.41 339.22 358.22 335.03 Z" />
<path fill="#2d2d2d" opacity="1.00" d=" M 135.04 453.01 C 140.71 451.80 146.58 452.62 152.33 452.60 C 152.59 453.81 152.85 455.03 153.12 456.26 C 150.74 456.65 148.35 456.96 145.95 457.25 C 145.97 462.70 146.07 468.16 145.59 473.59 C 144.27 473.53 142.94 473.47 141.62 473.41 C 141.38 467.98 141.44 462.54 141.43 457.11 C 139.08 456.96 136.72 456.80 134.38 456.61 C 134.55 455.40 134.77 454.20 135.04 453.01 Z" />
<path fill="#2d2d2d" opacity="1.00" d=" M 181.18 453.18 C 186.80 451.50 193.17 452.74 199.07 452.71 C 198.85 459.99 189.59 455.92 184.89 456.96 C 184.90 458.22 184.91 459.48 184.92 460.75 C 188.76 460.78 192.59 460.89 196.41 461.30 C 196.38 467.42 189.07 464.86 185.08 465.40 C 185.00 466.67 184.92 467.94 184.84 469.23 C 189.43 469.26 194.02 469.24 198.61 469.49 C 198.62 470.83 198.62 472.17 198.62 473.53 C 192.62 473.88 186.60 473.88 180.61 473.49 C 180.81 466.79 179.42 459.56 181.18 453.18 Z" />
<path fill="#2d2d2d" opacity="1.00" d=" M 216.64 453.53 C 222.19 451.09 228.92 452.92 234.92 452.70 C 235.00 459.89 225.40 455.98 220.82 456.93 C 220.82 458.21 220.82 459.50 220.83 460.79 C 225.02 461.23 231.98 458.84 232.53 464.99 C 228.67 465.33 224.80 465.39 220.93 465.41 C 220.86 466.67 220.80 467.94 220.74 469.22 C 225.34 469.26 229.95 469.24 234.54 469.50 C 234.55 470.83 234.56 472.17 234.56 473.51 C 228.56 473.88 222.53 473.87 216.54 473.51 C 216.40 466.86 215.88 460.15 216.64 453.53 Z" />
<path fill="#2d2d2d" opacity="1.00" d=" M 288.71 453.61 C 294.11 450.99 300.99 452.97 306.96 452.70 C 307.08 459.92 297.45 455.95 292.85 456.95 C 292.86 458.21 292.86 459.48 292.87 460.75 C 296.51 460.79 300.14 460.89 303.77 461.16 C 303.78 462.49 303.78 463.82 303.79 465.16 C 300.19 465.32 296.59 465.38 292.99 465.40 C 292.92 466.67 292.85 467.95 292.78 469.23 C 297.41 470.31 306.93 466.22 307.03 473.42 C 300.89 473.95 294.72 473.87 288.58 473.49 C 288.49 466.87 287.92 460.19 288.71 453.61 Z" />
<path fill="#2d2d2d" opacity="1.00" d=" M 157.07 452.93 C 162.20 450.76 160.93 457.86 161.34 460.86 C 164.38 460.83 167.42 460.83 170.47 460.86 C 170.73 457.90 169.65 450.38 174.66 453.15 C 175.55 459.63 175.45 466.31 174.76 472.81 C 173.52 473.42 172.12 473.55 170.79 473.82 C 170.68 471.00 170.62 468.18 170.58 465.36 C 167.50 465.36 164.41 465.36 161.33 465.33 C 161.12 468.93 162.04 474.42 156.77 473.82 C 156.71 466.87 156.05 459.84 157.07 452.93 Z" />
<path fill="#2d2d2d" opacity="1.00" d=" M 239.41 452.22 C 243.91 453.05 246.68 456.91 249.76 459.90 C 252.60 457.04 255.46 454.19 258.52 451.56 C 262.13 458.37 259.79 466.45 260.21 473.81 C 253.04 474.11 256.68 464.94 255.84 460.46 C 253.92 462.19 252.09 464.05 249.92 465.48 C 247.48 464.29 245.60 462.29 243.59 460.54 C 243.57 464.83 243.56 469.12 243.37 473.41 C 242.05 473.47 240.72 473.53 239.40 473.59 C 238.91 466.48 238.91 459.33 239.41 452.22 Z" />
<path fill="#2d2d2d" opacity="1.00" d=" M 265.86 452.74 C 270.18 452.52 274.61 451.96 278.89 452.91 C 284.02 454.37 285.89 461.44 282.37 465.37 C 279.55 468.86 274.62 468.04 270.66 468.30 C 270.29 471.28 269.53 474.44 265.84 473.72 C 265.59 466.73 265.57 459.73 265.86 452.74 M 270.20 456.81 C 270.20 459.14 270.21 461.48 270.23 463.82 C 272.67 463.71 275.15 463.82 277.56 463.30 C 280.24 462.61 280.48 458.13 277.73 457.36 C 275.26 456.79 272.71 456.91 270.20 456.81 Z" />
<path fill="#2d2d2d" opacity="1.00" d=" M 311.32 452.75 C 316.88 452.77 324.27 450.60 328.20 455.80 C 331.08 459.35 328.95 463.82 326.74 467.07 C 327.79 469.07 330.81 471.39 328.70 473.66 C 325.18 473.92 323.23 470.15 320.77 468.20 C 319.12 468.19 317.47 468.19 315.82 468.19 C 315.56 470.02 315.32 471.84 315.09 473.68 C 313.85 473.60 312.62 473.52 311.40 473.45 C 310.99 466.56 311.05 459.64 311.32 452.75 M 315.58 456.89 C 315.59 459.18 315.59 461.48 315.60 463.78 C 318.17 463.67 320.78 463.86 323.30 463.27 C 325.83 462.23 325.66 457.75 322.87 457.26 C 320.47 456.80 318.01 456.94 315.58 456.89 Z" />
<path fill="#2d2d2d" opacity="1.00" d=" M 339.32 453.22 C 346.28 450.01 355.02 456.42 353.95 464.03 C 353.71 471.95 343.42 476.70 337.18 471.82 C 330.37 467.44 331.73 455.97 339.32 453.22 M 341.29 457.32 C 333.54 459.68 338.30 472.32 345.74 468.80 C 352.95 466.16 348.49 454.31 341.29 457.32 Z" />
<path fill="#2d2d2d" opacity="1.00" d=" M 358.41 452.76 C 364.12 452.75 372.05 450.48 375.69 456.36 C 378.11 460.02 375.84 464.20 373.61 467.30 C 374.70 468.52 375.79 469.75 376.89 470.99 C 376.66 471.78 376.22 473.36 375.99 474.15 C 371.29 472.52 368.47 467.18 362.94 467.92 C 362.67 469.85 362.42 471.79 362.17 473.73 C 360.93 473.62 359.69 473.50 358.46 473.39 C 358.13 466.52 358.15 459.63 358.41 452.76 M 362.73 456.79 C 362.72 459.12 362.71 461.45 362.72 463.79 C 366.09 463.37 372.09 464.97 372.36 459.95 C 371.22 455.69 365.97 457.28 362.73 456.79 Z" />
</g>
</svg>
