<?xml version="1.0" encoding="UTF-8" ?>
<!DOCTYPE svg PUBLIC "-//W3C//DTD SVG 1.1//EN" "http://www.w3.org/Graphics/SVG/1.1/DTD/svg11.dtd">
<svg width="120pt" height="120pt" viewBox="0 0 512 512" version="1.1" xmlns="http://www.w3.org/2000/svg">
<g id="#2a2a2afe">
<path fill="#2a2a2a" opacity="1.00" d=" M 132.36 21.49 C 213.58 21.09 294.83 21.48 376.06 21.30 C 381.73 20.99 387.65 23.28 390.86 28.13 C 394.42 33.01 393.59 39.33 393.67 45.00 C 393.60 188.33 393.70 331.65 393.62 474.97 C 393.82 483.36 386.36 490.81 377.98 490.64 C 296.97 490.72 215.96 490.64 134.95 490.68 C 126.27 491.23 118.14 483.76 118.38 474.98 C 118.31 329.31 118.38 183.63 118.34 37.96 C 117.83 29.90 124.22 22.10 132.36 21.49 M 131.45 25.77 C 125.88 26.83 122.10 32.43 122.41 37.96 C 122.42 183.32 122.42 328.69 122.41 474.05 C 121.87 480.94 128.01 487.14 134.92 486.59 C 215.64 486.59 296.36 486.59 377.08 486.59 C 383.99 487.14 390.12 480.94 389.59 474.04 C 389.58 328.68 389.58 183.32 389.59 37.96 C 389.86 32.68 386.49 27.31 381.26 25.94 C 376.91 24.98 372.41 25.50 368.00 25.40 C 293.67 25.42 219.34 25.41 145.00 25.40 C 140.49 25.48 135.93 25.05 131.45 25.77 Z" />
<path fill="#2a2a2a" opacity="1.00" d=" M 132.41 32.59 C 136.22 31.83 140.14 32.26 144.00 32.18 C 221.69 32.25 299.39 32.14 377.08 32.23 C 380.53 31.76 383.16 34.52 382.74 37.92 C 382.84 170.97 382.76 304.02 382.79 437.07 C 383.30 440.04 381.20 442.76 378.05 442.27 C 297.36 442.38 216.67 442.22 135.98 442.35 C 133.03 442.57 128.64 442.05 129.26 438.04 C 129.14 305.00 129.26 171.96 129.19 38.92 C 129.15 36.50 129.59 33.24 132.41 32.59 M 136.70 36.28 C 154.07 56.23 171.54 76.11 189.02 95.97 C 190.13 97.41 191.74 98.96 191.00 100.96 C 188.92 102.42 187.45 100.24 186.10 98.93 C 168.53 78.83 150.99 58.70 133.27 38.73 C 133.24 61.77 133.28 84.82 133.26 107.86 C 147.24 117.55 161.44 126.93 175.39 136.67 C 178.44 137.74 176.39 142.78 173.73 140.20 C 160.06 131.38 146.82 121.89 133.29 112.84 C 133.25 141.96 133.22 171.08 133.31 200.20 C 141.82 202.23 150.44 203.85 158.87 206.20 C 160.99 206.38 160.28 208.90 160.86 210.33 C 151.57 208.91 142.50 206.34 133.34 204.29 C 133.19 235.66 133.26 267.02 133.30 298.39 C 138.17 295.59 142.58 291.89 147.90 289.94 C 148.42 290.85 148.82 291.82 149.10 292.85 C 144.29 296.96 138.50 299.70 133.27 303.23 C 133.25 327.51 133.27 351.79 133.26 376.07 C 144.07 365.20 153.58 352.92 165.02 342.76 C 168.52 344.82 165.30 347.51 163.52 349.52 C 155.26 358.26 147.21 367.19 138.94 375.91 C 144.87 374.25 151.09 374.76 156.86 376.77 C 163.94 371.15 172.67 366.65 181.98 367.62 C 188.82 368.04 194.70 371.91 199.91 376.05 C 208.10 368.00 208.56 354.87 208.13 344.09 C 203.43 333.31 190.06 330.70 182.23 322.77 C 170.61 310.01 164.25 293.72 156.38 278.62 C 154.72 274.81 151.99 270.98 152.48 266.65 C 155.14 263.17 159.53 266.21 162.53 267.61 C 163.00 262.90 162.95 256.18 168.31 254.28 C 172.15 253.03 174.68 256.49 176.71 259.10 C 182.41 247.76 190.13 237.47 199.88 229.28 C 194.21 216.38 189.36 202.20 191.65 187.93 C 194.00 173.47 206.94 163.12 220.34 159.08 C 218.80 145.78 223.04 132.39 230.75 121.62 C 231.78 120.31 233.30 119.56 234.68 118.70 C 236.28 123.54 236.37 129.71 240.98 132.85 C 243.12 132.78 245.49 131.52 245.20 129.05 C 244.63 120.45 240.36 111.83 243.34 103.19 C 245.81 96.37 248.94 88.98 254.91 84.54 C 257.84 86.12 256.26 90.30 256.98 93.04 C 257.42 107.86 268.47 118.78 273.94 131.80 C 276.20 125.57 275.37 118.94 275.71 112.47 C 279.53 113.06 281.50 116.66 283.53 119.53 C 291.36 131.27 294.82 145.75 293.04 159.76 C 303.38 163.75 313.13 171.34 316.78 182.14 C 321.74 197.60 316.43 213.85 310.96 228.42 C 321.18 236.59 329.36 247.11 335.03 258.89 C 337.17 256.66 339.77 252.95 343.33 254.68 C 347.95 257.46 347.53 263.69 348.09 268.36 C 351.36 266.76 356.25 262.93 359.37 266.64 C 360.85 270.73 357.99 274.73 356.33 278.32 C 348.21 293.00 341.76 308.87 330.74 321.72 C 323.24 330.05 310.64 332.63 304.53 342.36 C 302.92 353.05 306.25 363.75 308.71 374.08 C 314.86 370.45 321.70 367.35 329.02 367.73 C 338.21 367.82 346.37 372.91 352.97 378.91 C 360.79 375.94 369.71 375.59 377.17 379.76 C 367.83 369.78 358.63 359.67 349.24 349.74 C 347.76 347.89 345.09 345.87 346.36 343.21 C 348.71 342.86 350.27 344.76 351.73 346.27 C 360.67 356.02 369.64 365.74 378.69 375.39 C 378.61 351.38 379.03 327.34 378.50 303.35 C 374.28 298.91 367.96 297.17 363.58 292.87 C 363.75 292.17 364.07 290.78 364.23 290.09 C 369.69 291.34 373.92 295.37 378.71 298.07 C 378.68 266.86 378.84 235.65 378.63 204.45 C 369.89 206.40 361.25 208.80 352.41 210.25 C 352.21 209.37 351.79 207.62 351.59 206.75 C 360.55 204.32 369.65 202.43 378.69 200.31 C 378.70 171.32 378.84 142.32 378.62 113.33 C 366.46 121.60 354.27 129.82 342.19 138.20 C 340.38 139.40 338.50 140.70 336.27 140.86 C 333.93 138.46 337.49 136.57 339.17 135.19 C 352.40 126.35 365.44 117.25 378.67 108.42 C 378.75 85.44 378.77 62.46 378.66 39.48 C 362.47 57.71 346.46 76.10 330.42 94.45 C 327.63 97.43 325.23 101.88 320.47 101.39 C 322.61 96.27 326.76 92.47 330.32 88.35 C 345.53 70.96 360.79 53.63 375.98 36.23 C 357.97 36.31 339.97 36.17 321.96 36.27 C 319.72 35.92 318.73 38.21 317.73 39.75 C 311.31 51.31 304.70 62.76 298.28 74.32 C 296.97 76.26 295.64 79.68 292.72 78.12 C 292.98 74.35 295.28 71.23 297.06 68.04 C 303.14 57.48 309.08 46.85 315.09 36.26 C 275.91 36.24 236.74 36.24 197.56 36.26 C 203.26 46.57 209.13 56.80 214.95 67.04 C 216.87 70.57 219.46 73.93 219.97 78.03 C 218.10 78.57 216.37 78.41 215.61 76.41 C 207.90 63.09 200.46 49.61 192.81 36.25 C 174.11 36.26 155.40 36.21 136.70 36.28 M 246.39 110.98 C 246.46 117.74 249.94 124.12 249.10 130.92 C 248.28 135.91 241.54 138.56 237.57 135.43 C 234.88 133.21 233.70 129.79 232.17 126.78 C 226.33 136.19 223.16 147.24 224.33 158.36 C 228.77 158.62 233.19 159.27 237.46 160.54 C 239.12 153.89 242.70 146.71 250.01 145.07 C 250.27 149.13 250.49 153.22 251.52 157.18 C 252.52 157.04 254.51 156.75 255.51 156.61 C 254.46 148.00 250.62 136.40 260.17 131.05 C 263.47 136.04 263.85 142.49 267.83 147.15 C 271.24 151.18 274.02 155.74 275.11 160.96 C 279.65 159.59 284.34 158.94 289.07 158.72 C 290.61 145.88 287.29 132.77 280.25 121.98 C 279.11 128.60 277.76 135.48 273.56 140.94 C 269.40 134.83 268.04 127.29 263.79 121.20 C 257.88 112.89 253.86 103.39 252.48 93.26 C 249.29 98.65 246.14 104.52 246.39 110.98 M 258.10 138.21 C 256.82 144.24 259.71 150.02 259.35 156.00 C 259.02 160.72 252.54 162.85 249.26 159.69 C 247.27 157.55 246.61 154.58 245.44 151.99 C 243.73 155.11 241.96 158.35 241.73 161.98 C 247.06 166.69 252.98 170.82 257.27 176.63 C 261.16 171.55 265.72 167.00 270.99 163.36 C 270.27 153.47 261.36 147.21 258.10 138.21 M 225.02 220.04 C 197.98 229.02 178.70 254.51 173.65 282.04 C 173.54 283.73 174.22 285.34 174.57 286.98 C 179.78 267.46 189.43 248.19 206.37 236.31 C 233.39 217.29 271.74 216.41 300.24 232.74 C 320.18 244.31 332.21 265.72 337.05 287.75 C 337.87 285.26 338.90 282.65 338.05 280.02 C 334.01 262.67 325.15 246.13 311.70 234.27 C 288.36 213.93 253.71 210.47 225.02 220.04 M 224.86 230.82 C 200.39 239.66 183.44 263.39 179.15 288.56 C 181.21 287.46 183.29 286.14 183.83 283.69 C 189.04 268.10 198.64 253.64 212.40 244.37 C 225.95 235.05 242.74 231.49 259.00 232.06 C 276.38 232.35 294.14 237.96 307.05 249.92 C 317.89 259.71 324.91 273.03 328.96 286.93 C 329.86 287.02 331.65 287.22 332.54 287.31 C 329.05 271.30 321.54 255.83 309.44 244.57 C 287.11 223.96 252.69 220.86 224.86 230.82 M 212.83 248.83 C 200.12 258.03 191.61 272.00 186.99 286.82 C 188.31 287.51 189.62 288.20 190.94 288.89 C 195.72 275.20 203.64 262.17 215.58 253.61 C 233.38 240.69 257.41 238.70 278.18 244.59 C 299.23 250.47 314.57 268.76 321.10 289.07 C 322.35 288.46 323.60 287.85 324.86 287.25 C 321.00 274.80 314.80 262.79 305.16 253.83 C 293.21 242.23 276.46 236.65 260.03 236.15 C 243.54 235.38 226.32 238.92 212.83 248.83 M 170.34 277.74 C 172.47 271.08 172.62 263.88 171.02 257.09 C 164.55 261.70 165.65 272.16 170.34 277.74 M 194.74 291.07 C 197.96 296.07 202.44 300.17 206.57 304.42 C 212.44 310.56 221.82 309.78 228.56 314.48 C 234.94 318.36 237.84 325.90 238.42 333.05 C 239.28 344.46 238.05 355.93 235.99 367.15 C 246.53 356.54 264.77 355.37 276.36 364.92 C 273.86 354.58 272.78 343.85 273.55 333.23 C 274.11 326.02 277.00 318.39 283.44 314.48 C 289.98 309.86 299.04 310.63 304.92 304.92 C 309.25 300.75 313.36 296.31 317.17 291.67 C 314.17 278.55 305.92 266.91 295.82 258.16 C 284.68 276.21 272.56 293.72 258.87 309.92 C 257.25 312.32 254.78 310.01 253.53 308.50 C 239.82 292.77 226.97 276.23 215.66 258.68 C 205.71 267.10 198.32 278.56 194.74 291.07 M 341.92 277.86 C 344.82 271.42 344.90 263.30 340.99 257.24 C 338.30 263.86 339.83 271.29 341.92 277.86 M 156.72 268.99 C 163.68 284.59 170.82 300.36 180.62 314.42 C 187.89 326.42 204.19 328.55 211.30 340.63 C 214.30 349.87 211.47 359.74 209.20 368.85 C 216.50 366.35 224.39 367.61 230.85 371.68 C 233.45 360.00 234.99 348.03 234.57 336.04 C 234.28 330.15 233.06 323.70 228.52 319.53 C 222.01 313.49 211.86 314.73 205.32 308.73 C 197.83 302.87 193.38 292.78 183.52 290.34 C 189.28 300.73 200.16 308.46 200.80 321.24 C 199.63 321.41 198.47 321.58 197.31 321.75 C 195.93 318.07 195.17 314.13 193.31 310.65 C 188.06 301.35 176.47 298.10 171.33 288.70 C 167.47 281.50 164.38 273.06 156.72 268.99 M 334.74 295.76 C 330.00 300.06 324.07 303.06 320.29 308.37 C 317.11 312.18 316.40 317.23 314.70 321.75 C 313.52 321.58 312.36 321.41 311.20 321.25 C 311.78 308.45 322.84 300.86 328.49 290.42 C 318.46 293.10 313.86 303.24 306.13 309.19 C 299.76 314.58 290.37 313.66 284.00 319.07 C 279.32 322.94 277.85 329.26 277.48 335.05 C 276.82 347.65 278.87 360.29 282.58 372.31 C 289.53 369.21 297.64 368.99 304.26 373.06 C 301.92 362.33 298.05 350.95 301.06 340.02 C 306.80 331.24 317.30 327.52 325.37 321.35 C 334.95 311.92 340.56 299.44 346.79 287.74 C 349.93 281.46 353.73 275.48 355.91 268.77 C 344.05 273.45 344.08 288.51 334.74 295.76 M 233.29 378.39 C 228.05 375.08 222.60 370.74 215.98 371.61 C 209.27 371.92 204.67 377.16 199.79 381.03 C 195.23 378.32 191.56 374.02 186.26 372.60 C 177.15 369.61 167.44 373.49 160.39 379.36 C 157.16 382.70 152.80 379.29 149.02 379.07 C 141.31 377.19 132.62 383.87 133.23 391.94 C 133.27 407.36 133.28 422.78 133.25 438.20 C 215.08 438.24 296.92 438.24 378.75 438.20 C 378.71 422.44 378.75 406.68 378.75 390.92 C 379.24 386.69 375.65 383.59 372.19 381.96 C 365.63 379.02 358.38 381.34 352.02 383.65 C 343.41 374.30 329.45 368.10 317.20 374.18 C 313.08 375.64 310.43 379.56 306.35 380.98 C 302.81 378.34 299.85 374.24 295.07 373.94 C 289.65 373.13 285.06 376.53 280.15 378.08 C 277.09 373.24 274.66 367.39 269.04 364.97 C 255.78 358.25 239.18 365.05 233.29 378.39 Z" />
<path fill="#2a2a2a" opacity="1.00" d=" M 240.14 54.87 C 239.18 52.45 236.31 48.79 240.07 47.43 C 244.66 50.77 245.68 57.03 248.70 61.63 C 251.21 57.03 253.00 52.00 256.13 47.75 C 258.19 47.48 259.86 48.59 258.91 50.79 C 256.22 57.37 252.81 63.68 249.25 69.84 C 244.68 65.93 242.98 59.96 240.14 54.87 Z" />
<path fill="#2a2a2a" opacity="1.00" d=" M 265.28 49.21 C 265.26 47.21 269.11 47.13 269.09 49.14 C 269.94 55.56 269.36 62.08 269.26 68.54 C 268.32 68.70 266.45 69.03 265.51 69.19 C 264.83 62.56 264.53 55.83 265.28 49.21 Z" />
<path fill="#2a2a2a" opacity="1.00" d=" M 198.23 389.18 C 206.32 384.04 216.34 387.61 223.20 393.13 C 228.97 389.90 236.58 387.50 242.58 391.49 C 245.05 395.05 240.14 394.83 237.90 394.01 C 232.46 392.37 227.42 395.45 223.07 398.34 C 218.39 394.70 213.27 390.54 207.00 390.74 C 201.77 390.63 197.90 394.52 194.12 397.56 C 190.90 394.07 195.39 390.90 198.23 389.18 Z" />
<path fill="#2a2a2a" opacity="1.00" d=" M 288.80 393.12 C 297.59 384.96 312.89 384.07 319.98 394.90 C 319.07 395.65 318.16 396.41 317.25 397.17 C 313.78 394.11 309.94 390.66 305.00 390.74 C 298.72 390.55 293.61 394.70 288.93 398.34 C 284.57 395.46 279.55 392.37 274.10 394.01 C 271.91 394.87 266.83 394.96 269.44 391.51 C 275.40 387.46 283.04 389.92 288.80 393.12 Z" />
<path fill="#2a2a2a" opacity="1.00" d=" M 170.58 410.97 C 176.78 402.61 190.72 402.81 196.37 411.62 C 197.80 412.98 197.87 416.47 195.18 415.91 C 191.85 413.04 188.96 408.82 184.05 408.87 C 178.49 407.84 174.67 412.46 171.94 416.54 C 165.62 412.66 156.71 409.87 150.47 415.44 C 147.74 417.02 145.35 423.61 142.42 419.11 C 146.87 408.29 160.93 405.58 170.58 410.97 Z" />
<path fill="#2a2a2a" opacity="1.00" d=" M 314.35 414.59 C 319.12 403.79 335.00 401.21 342.18 410.98 C 348.88 407.81 357.29 406.78 363.65 411.32 C 366.83 413.51 372.17 417.80 368.16 421.64 C 364.99 417.92 361.68 413.63 356.60 412.60 C 350.99 411.15 345.66 414.01 340.87 416.55 C 337.81 411.55 332.40 406.93 326.14 409.33 C 321.27 409.72 319.44 418.23 314.35 414.59 Z" />
<path fill="#2a2a2a" opacity="1.00" d=" M 261.28 410.21 C 267.08 407.46 273.44 410.04 277.75 414.24 C 287.75 411.59 299.77 418.17 300.83 428.86 C 296.23 430.65 295.68 423.63 292.49 421.54 C 288.29 416.75 281.69 418.11 276.13 418.60 C 273.36 416.89 271.45 413.57 267.97 413.20 C 263.86 412.65 260.23 415.01 256.82 416.96 C 252.58 415.11 247.75 413.35 243.18 415.13 C 239.46 416.44 238.03 420.43 236.19 423.55 C 232.09 422.75 227.56 421.52 223.59 423.52 C 219.26 425.41 217.81 431.20 212.67 431.60 C 214.32 422.00 224.65 416.48 233.81 418.61 C 236.31 415.20 239.22 411.54 243.63 410.73 C 249.54 409.10 255.65 413.55 261.28 410.21 Z" />
<path fill="#2a2a2a" opacity="1.00" d=" M 147.73 454.61 C 153.40 453.75 159.19 454.27 164.89 454.58 C 164.86 455.53 164.79 457.42 164.76 458.37 C 162.55 458.53 160.33 458.67 158.12 458.79 C 158.14 464.44 158.24 470.10 157.68 475.73 C 150.17 474.66 154.83 464.23 153.61 458.82 C 151.09 458.66 148.57 458.45 146.07 458.18 C 146.56 456.96 147.12 455.77 147.73 454.61 Z" />
<path fill="#2a2a2a" opacity="1.00" d=" M 169.54 454.51 C 170.85 454.48 172.17 454.47 173.49 454.46 C 173.67 457.17 173.78 459.88 173.88 462.60 C 177.00 462.60 180.12 462.61 183.25 462.61 C 183.33 459.90 183.43 457.20 183.59 454.50 C 184.90 454.48 186.22 454.47 187.54 454.47 C 187.94 461.34 187.85 468.23 187.65 475.11 C 186.31 475.21 184.97 475.31 183.63 475.41 C 183.46 472.64 183.35 469.89 183.28 467.13 C 180.14 467.15 177.00 467.16 173.86 467.18 C 173.78 470.15 173.58 473.11 173.25 476.07 C 172.04 475.49 170.83 474.91 169.63 474.33 C 168.88 467.76 169.38 461.11 169.54 454.51 Z" />
<path fill="#2a2a2a" opacity="1.00" d=" M 194.39 454.59 C 200.07 453.98 205.88 453.95 211.56 454.61 C 211.90 455.71 212.14 456.83 212.26 457.99 C 207.71 459.22 202.93 458.60 198.28 458.67 C 198.28 459.65 198.26 461.60 198.25 462.58 C 201.93 463.25 207.62 460.78 209.69 464.93 C 207.57 468.76 201.89 466.60 198.20 467.20 C 198.21 468.45 198.21 469.71 198.22 470.97 C 202.94 471.13 207.89 470.29 212.41 472.00 C 212.15 473.09 211.80 474.15 211.37 475.19 C 205.81 475.84 200.12 475.81 194.56 475.21 C 193.02 468.55 193.36 461.32 194.39 454.59 Z" />
<path fill="#2a2a2a" opacity="1.00" d=" M 231.11 455.11 C 232.39 454.63 233.75 454.41 235.09 454.16 C 235.32 459.74 235.27 465.33 235.24 470.92 C 239.06 470.98 242.88 471.07 246.69 471.39 C 246.02 478.71 236.20 474.54 231.22 475.39 C 230.65 468.66 230.32 461.83 231.11 455.11 Z" />
<path fill="#2a2a2a" opacity="1.00" d=" M 257.40 454.56 C 265.26 452.07 273.31 460.69 270.31 468.36 C 268.10 475.62 257.73 478.02 252.62 472.38 C 246.86 467.04 249.76 456.30 257.40 454.56 M 257.40 459.39 C 253.52 461.17 252.92 467.12 256.34 469.65 C 259.70 472.61 265.70 470.46 266.29 465.97 C 267.38 461.19 261.66 456.88 257.40 459.39 Z" />
<path fill="#2a2a2a" opacity="1.00" d=" M 276.58 462.38 C 275.42 459.61 272.27 455.85 276.03 453.75 C 280.44 457.40 281.72 463.38 284.57 468.15 C 287.22 463.53 288.94 458.34 292.28 454.14 C 293.87 454.44 296.22 454.74 294.90 456.91 C 292.24 463.49 289.31 470.22 285.01 475.91 C 280.41 472.88 279.41 466.83 276.58 462.38 Z" />
<path fill="#2a2a2a" opacity="1.00" d=" M 299.80 454.92 C 305.44 453.72 311.43 453.94 317.12 454.70 C 317.59 455.88 317.88 457.12 318.23 458.35 C 313.46 458.77 308.67 458.71 303.89 458.74 C 303.96 460.02 304.03 461.30 304.11 462.59 C 307.69 463.19 316.59 460.47 314.76 466.61 C 311.24 467.38 307.62 467.17 304.04 467.21 C 304.04 468.46 304.03 469.71 304.03 470.97 C 308.72 471.88 317.77 468.11 318.18 475.26 C 312.02 475.68 305.84 475.64 299.68 475.30 C 299.53 468.51 299.10 461.68 299.80 454.92 Z" />
<path fill="#2a2a2a" opacity="1.00" d=" M 323.43 454.60 C 329.09 454.18 337.19 452.46 340.46 458.57 C 342.57 462.12 340.25 465.93 338.27 468.91 C 339.99 470.97 342.99 474.10 339.13 475.80 C 335.58 473.08 332.48 469.26 327.54 469.53 C 327.25 471.61 326.95 473.70 326.64 475.79 C 325.20 475.10 322.61 475.23 322.93 472.99 C 322.68 466.88 322.16 460.61 323.43 454.60 M 327.29 458.51 C 327.28 460.87 327.28 463.24 327.30 465.61 C 330.38 465.10 336.66 466.72 336.74 461.98 C 336.50 457.43 330.33 459.08 327.29 458.51 Z" />
<path fill="#2a2a2a" opacity="1.00" d=" M 348.09 455.13 C 352.40 453.54 357.23 454.16 361.74 454.45 C 363.48 454.44 363.47 456.79 363.34 458.04 C 358.92 459.22 354.29 458.29 349.82 459.07 C 347.99 464.02 355.27 462.10 358.01 462.91 C 364.09 463.18 365.37 472.57 359.86 474.81 C 355.00 476.29 349.78 475.39 344.79 475.27 C 345.07 467.99 354.09 472.38 358.65 470.55 C 360.39 465.95 353.60 467.66 350.96 466.87 C 344.78 467.17 342.78 457.83 348.09 455.13 Z" />
</g>
</svg>
