<?xml version="1.0" encoding="UTF-8" ?>
<!DOCTYPE svg PUBLIC "-//W3C//DTD SVG 1.1//EN" "http://www.w3.org/Graphics/SVG/1.1/DTD/svg11.dtd">
<svg width="120pt" height="120pt" viewBox="0 0 512 512" version="1.1" xmlns="http://www.w3.org/2000/svg">
<g id="#2a2a2afe">
<path fill="#2a2a2a" opacity="1.00" d=" M 132.36 21.48 C 213.91 21.12 295.49 21.44 377.05 21.32 C 385.74 20.73 393.85 28.26 393.62 37.02 C 393.66 183.00 393.66 329.00 393.62 474.99 C 393.85 483.74 385.74 491.25 377.06 490.68 C 296.04 490.65 215.02 490.71 134.00 490.64 C 125.64 490.81 118.17 483.36 118.38 474.99 C 118.32 329.31 118.39 183.63 118.35 37.96 C 117.81 29.89 124.23 22.10 132.36 21.48 M 131.45 25.73 C 125.91 26.82 122.05 32.38 122.41 37.93 C 122.41 183.31 122.41 328.69 122.41 474.08 C 121.84 480.97 128.04 487.17 134.93 486.61 C 215.64 486.62 296.36 486.62 377.07 486.61 C 383.97 487.17 390.15 480.96 389.59 474.08 C 389.59 328.69 389.59 183.31 389.59 37.93 C 389.91 32.63 386.45 27.30 381.25 25.91 C 377.24 24.99 373.08 25.46 369.00 25.37 C 294.00 25.39 219.00 25.38 144.00 25.37 C 139.82 25.44 135.60 25.06 131.45 25.73 Z" />
<path fill="#2a2a2a" opacity="1.00" d=" M 132.40 32.54 C 213.57 31.73 294.85 32.46 376.07 32.18 C 379.61 31.58 383.30 34.05 382.76 37.92 C 382.82 170.97 382.76 304.02 382.81 437.07 C 383.37 440.06 381.20 442.79 378.04 442.28 C 296.68 442.32 215.31 442.31 133.96 442.28 C 130.04 442.98 128.63 439.26 129.16 436.04 C 129.27 303.33 129.15 170.62 129.22 37.91 C 129.15 35.73 130.02 33.11 132.40 32.54 M 133.29 36.28 C 133.21 141.41 133.26 246.53 133.27 351.65 C 215.09 351.60 296.91 351.61 378.72 351.65 C 378.71 246.53 378.78 141.40 378.69 36.28 C 296.89 36.22 215.09 36.22 133.29 36.28 M 133.26 355.67 C 133.23 365.45 133.30 375.23 133.22 385.02 C 139.12 377.98 147.11 373.15 155.42 369.46 C 171.47 362.33 188.76 358.55 206.03 355.76 C 181.77 355.57 157.51 355.76 133.26 355.67 M 304.93 355.76 C 323.41 358.85 342.01 362.90 358.94 371.19 C 366.61 374.91 373.86 379.92 378.81 387.00 C 378.67 376.55 378.77 366.11 378.73 355.67 C 354.13 355.76 329.53 355.58 304.93 355.76 M 243.40 356.52 C 212.66 357.90 181.12 361.74 153.05 375.10 C 144.81 379.60 134.25 385.49 133.73 396.01 C 135.34 406.25 145.60 411.77 153.92 416.21 C 180.76 428.76 210.72 432.63 240.02 434.25 C 277.38 435.41 315.80 432.72 350.88 418.89 C 360.88 414.27 373.00 409.01 376.71 397.70 C 377.94 385.84 365.34 379.21 356.40 374.48 C 321.16 358.63 281.58 355.75 243.40 356.52 M 351.15 423.18 C 328.96 432.08 305.08 435.49 281.44 437.87 C 313.85 438.69 346.32 438.00 378.75 438.21 C 378.77 426.78 378.67 415.36 378.81 403.94 C 372.10 413.34 361.60 418.92 351.15 423.18 M 133.20 405.90 C 133.31 416.67 133.24 427.44 133.25 438.21 C 165.32 438.00 197.43 438.69 229.48 437.86 C 206.78 435.65 183.92 432.38 162.46 424.33 C 151.65 420.21 140.85 414.85 133.20 405.90 Z" />
<path fill="#2a2a2a" opacity="1.00" d=" M 229.17 58.30 C 227.25 55.09 219.81 50.58 225.00 47.34 C 227.90 49.27 229.90 52.18 232.08 54.83 C 234.28 52.18 236.51 49.55 238.94 47.11 C 239.91 48.04 240.88 48.97 241.85 49.91 C 239.68 52.78 237.39 55.55 235.05 58.28 C 237.50 61.27 239.98 64.25 242.10 67.49 C 237.53 71.33 234.83 64.58 232.09 61.86 C 229.68 64.23 225.88 72.26 222.63 67.00 C 224.28 63.73 226.91 61.12 229.17 58.30 Z" />
<path fill="#2a2a2a" opacity="1.00" d=" M 246.77 52.26 C 244.80 50.33 247.16 45.62 249.46 48.43 C 252.43 52.42 254.03 57.25 256.44 61.58 C 259.50 56.96 260.68 50.99 264.95 47.27 C 268.99 48.99 265.80 53.03 264.65 55.64 C 262.03 60.14 260.58 65.42 256.95 69.25 C 251.49 65.52 250.24 57.77 246.77 52.26 Z" />
<path fill="#2a2a2a" opacity="1.00" d=" M 272.74 61.00 C 273.06 56.14 271.58 50.62 274.96 46.51 C 278.89 50.74 276.87 56.83 277.37 62.00 C 277.13 64.58 278.22 69.62 274.15 69.03 C 272.05 66.96 273.03 63.64 272.74 61.00 Z" />
<path fill="#2a2a2a" opacity="1.00" d=" M 285.28 68.64 C 284.85 61.48 282.59 52.71 287.08 46.51 C 290.61 51.30 288.80 57.52 289.23 63.02 C 289.46 65.63 289.10 70.50 285.28 68.64 Z" />
<path fill="#2a2a2a" opacity="1.00" d=" M 148.01 61.61 C 151.32 59.17 154.53 56.72 156.22 52.82 C 158.38 56.47 161.40 59.19 164.88 61.55 C 160.94 63.29 158.09 66.34 156.21 70.16 C 154.81 66.12 151.94 63.22 148.01 61.61 Z" />
<path fill="#2a2a2a" opacity="1.00" d=" M 355.15 52.56 C 357.50 56.28 360.44 59.50 364.36 61.61 C 360.18 62.85 357.56 66.00 355.78 69.79 C 353.50 66.39 351.07 63.15 347.12 61.56 C 350.39 59.03 354.16 57.00 355.15 52.56 Z" />
<path fill="#2a2a2a" opacity="1.00" d=" M 189.12 83.11 C 189.57 82.05 191.06 79.51 192.07 81.49 C 193.53 85.09 196.76 87.12 199.82 89.23 C 196.20 90.48 192.89 92.52 192.14 96.57 C 191.68 96.67 190.76 96.86 190.29 96.95 C 189.34 92.83 186.14 90.46 182.31 89.15 C 184.70 87.28 187.89 86.11 189.12 83.11 Z" />
<path fill="#2a2a2a" opacity="1.00" d=" M 313.18 87.77 C 317.40 87.40 318.54 82.69 320.96 80.82 C 323.29 83.88 325.85 87.33 329.69 89.16 C 325.86 90.46 322.65 92.82 321.71 96.94 C 321.25 96.85 320.32 96.66 319.86 96.57 C 319.09 92.91 316.40 90.58 312.85 89.70 C 312.94 89.22 313.10 88.25 313.18 87.77 Z" />
<path fill="#2a2a2a" opacity="1.00" d=" M 254.21 95.17 C 255.19 92.11 258.18 94.32 258.47 96.57 C 264.17 111.47 269.67 126.45 275.33 141.37 C 289.77 132.14 303.95 122.49 318.41 113.30 C 320.25 111.62 322.80 113.31 321.69 115.62 C 317.56 131.80 312.65 147.80 308.40 163.96 C 325.70 165.42 342.99 166.97 360.27 168.66 C 360.52 169.27 361.02 170.50 361.27 171.11 C 348.01 181.44 334.31 191.19 320.84 201.25 C 334.31 212.92 348.40 223.86 361.73 235.69 C 360.18 237.16 358.24 238.05 356.08 237.96 C 340.59 238.74 325.11 239.51 309.62 240.30 C 313.42 257.25 317.88 274.06 321.41 291.06 C 322.51 294.57 318.47 293.47 316.79 292.22 C 303.24 283.90 289.71 275.53 276.09 267.32 C 269.46 282.47 263.58 297.96 256.54 312.93 C 253.09 310.85 252.15 306.78 250.70 303.32 C 245.86 291.28 240.84 279.31 235.93 267.30 C 222.31 275.53 208.79 283.93 195.21 292.22 C 193.53 293.45 189.54 294.58 190.57 291.07 C 193.26 274.33 196.93 257.72 199.86 241.01 C 184.40 239.60 168.90 238.62 153.46 237.08 C 150.81 236.96 150.21 235.01 152.21 233.30 C 164.17 222.69 176.55 212.53 188.61 202.02 C 176.01 191.67 163.17 181.61 150.75 171.06 C 150.99 170.46 151.49 169.26 151.74 168.66 C 169.04 166.86 186.37 165.45 203.66 163.61 C 199.31 146.48 194.20 129.52 190.51 112.23 C 192.71 112.40 194.88 112.96 196.70 114.26 C 210.13 122.96 223.65 131.53 237.13 140.16 C 242.90 125.19 248.18 110.02 254.21 95.17 M 232.99 162.86 C 239.96 172.04 246.80 181.32 253.88 190.42 C 253.95 162.80 254.06 135.17 253.82 107.54 C 246.73 125.93 239.89 144.41 232.99 162.86 M 196.13 118.89 C 199.91 133.72 203.85 148.51 207.79 163.30 C 214.92 162.60 222.05 161.94 229.19 161.25 C 218.20 147.10 207.18 132.99 196.13 118.89 M 276.85 145.31 C 278.82 150.73 280.84 156.14 282.95 161.52 C 294.01 147.59 305.24 133.77 316.09 119.67 C 302.93 128.10 289.93 136.77 276.85 145.31 M 281.19 167.10 C 274.17 175.55 267.21 184.06 260.34 192.63 C 288.99 185.67 317.63 178.67 346.23 171.50 C 326.51 169.49 306.74 167.93 287.01 165.99 C 285.06 165.98 282.50 165.15 281.19 167.10 M 161.76 174.86 C 176.87 187.22 191.90 199.74 207.28 211.72 C 221.25 207.30 234.82 201.44 248.56 196.28 C 219.71 188.85 190.74 181.82 161.76 174.86 M 260.91 199.37 C 278.74 226.48 296.70 253.53 314.84 280.44 C 310.24 260.12 305.21 239.90 300.57 219.59 C 299.95 217.43 299.77 214.49 297.12 213.89 C 285.05 209.04 273.02 204.10 260.91 199.37 M 199.20 285.02 C 217.26 273.74 235.67 262.96 253.58 251.48 C 254.42 235.30 253.77 218.99 253.87 202.77 C 235.62 230.17 217.37 257.57 199.20 285.02 M 303.56 214.22 C 320.10 220.71 336.61 227.30 353.17 233.73 C 341.44 223.73 329.62 213.78 317.59 204.15 C 312.47 206.81 308.19 210.82 303.56 214.22 M 158.49 233.47 C 172.54 234.72 186.60 235.86 200.67 236.94 C 202.04 229.70 203.45 222.47 204.74 215.21 C 189.34 221.34 173.82 227.17 158.49 233.47 M 256.06 254.99 C 255.93 271.34 255.63 287.69 255.94 304.04 C 261.86 291.23 267.01 278.08 272.57 265.11 C 267.06 261.73 261.57 258.35 256.06 254.99 Z" />
<path fill="#2a2a2a" opacity="1.00" d=" M 149.62 133.71 C 153.20 131.40 156.41 128.68 158.21 124.72 C 160.38 128.29 163.03 131.38 166.95 133.09 C 163.19 135.14 160.33 138.14 158.18 141.82 C 156.47 137.99 153.89 134.77 149.62 133.71 Z" />
<path fill="#2a2a2a" opacity="1.00" d=" M 353.17 124.52 C 355.51 128.28 358.66 131.32 362.37 133.72 C 358.10 134.77 355.53 138.00 353.81 141.82 C 351.67 138.14 348.79 135.15 345.05 133.08 C 348.81 131.29 352.07 128.76 353.17 124.52 Z" />
<path fill="#2a2a2a" opacity="1.00" d=" M 158.66 267.16 C 162.63 265.34 165.37 262.11 167.72 258.55 C 168.79 262.76 171.74 265.68 175.91 266.83 C 172.22 269.10 169.19 272.10 167.05 275.88 C 165.38 271.93 162.31 269.24 158.66 267.16 Z" />
<path fill="#2a2a2a" opacity="1.00" d=" M 344.29 258.54 C 345.88 260.14 346.99 262.09 347.99 264.10 C 349.83 265.03 351.70 265.92 353.44 267.04 C 349.80 269.23 346.61 271.86 344.94 275.89 C 342.91 272.12 339.90 269.28 336.24 267.13 C 340.02 265.35 343.28 262.83 344.29 258.54 Z" />
<path fill="#2a2a2a" opacity="1.00" d=" M 194.99 318.17 C 198.53 312.54 206.51 312.33 211.98 315.03 C 222.30 319.97 230.12 328.81 236.86 337.84 C 236.56 338.43 235.96 339.63 235.66 340.23 C 223.70 337.60 211.74 334.02 201.00 328.03 C 197.70 326.05 193.01 322.57 194.99 318.17 M 197.83 320.00 C 205.89 328.57 218.20 330.87 228.97 334.36 C 223.07 327.71 216.60 320.74 207.93 317.88 C 204.39 316.52 200.84 318.18 197.83 320.00 Z" />
<path fill="#2a2a2a" opacity="1.00" d=" M 304.42 313.64 C 309.39 312.49 316.64 314.42 317.62 320.13 C 316.86 325.98 310.33 328.41 305.75 330.85 C 296.21 334.72 286.39 338.82 276.10 339.88 C 274.46 337.44 277.24 335.39 278.49 333.50 C 285.59 325.28 293.54 316.49 304.42 313.64 M 302.40 318.48 C 294.62 321.82 288.58 328.09 283.13 334.39 C 293.63 330.72 306.41 328.89 313.86 320.01 C 310.80 317.06 306.15 316.76 302.40 318.48 Z" />
<path fill="#2a2a2a" opacity="1.00" d=" M 148.44 325.93 C 150.84 323.15 155.17 320.87 156.69 316.69 C 158.01 320.82 161.03 323.64 164.95 325.29 C 161.64 327.53 158.41 329.84 156.83 333.69 C 154.12 331.23 152.38 327.31 148.44 325.93 Z" />
<path fill="#2a2a2a" opacity="1.00" d=" M 346.73 325.27 C 350.92 323.90 353.95 320.90 355.30 316.69 C 357.17 319.87 359.20 323.08 362.77 324.58 C 365.20 325.92 361.48 327.06 360.51 327.88 C 357.79 328.85 357.66 332.84 355.15 333.62 C 353.44 329.80 350.36 327.19 346.73 325.27 Z" />
<path fill="#2a2a2a" opacity="1.00" d=" M 238.31 366.30 C 261.30 365.35 284.43 366.07 307.22 369.40 C 321.23 371.64 335.41 374.46 348.20 380.84 C 353.12 383.50 358.56 386.81 360.36 392.45 C 361.78 397.33 358.28 401.85 354.67 404.72 C 347.48 410.34 338.73 413.47 330.08 416.08 C 309.28 421.99 287.61 424.17 266.05 424.75 C 237.25 425.31 208.01 423.73 180.23 415.57 C 170.03 412.05 158.17 408.46 152.26 398.71 C 148.54 390.48 157.35 384.00 163.80 380.84 C 186.98 369.98 213.08 367.76 238.31 366.30 M 236.37 370.46 C 212.63 371.99 188.14 374.14 166.25 384.17 C 161.84 386.63 156.11 389.47 155.34 395.02 C 156.16 399.13 159.87 401.73 163.16 403.89 C 172.16 409.33 182.41 412.24 192.57 414.63 C 218.91 420.44 246.07 421.48 272.95 420.46 C 293.75 419.38 314.73 417.03 334.56 410.39 C 342.02 407.60 350.13 404.66 355.27 398.26 C 358.63 394.40 354.76 389.83 351.44 387.61 C 341.48 380.75 329.44 377.92 317.80 375.37 C 291.02 370.14 263.56 369.33 236.37 370.46 Z" />
<path fill="#2a2a2a" opacity="1.00" d=" M 243.39 381.51 C 272.54 381.15 302.38 381.20 330.60 389.40 C 334.26 390.72 342.26 393.66 338.68 398.65 C 331.03 404.98 320.45 405.74 311.05 407.66 C 282.50 411.85 253.47 412.13 224.73 410.08 C 210.46 408.79 195.96 407.40 182.37 402.58 C 179.38 401.23 175.17 399.77 174.80 395.99 C 176.63 391.36 182.17 390.16 186.40 388.63 C 204.92 383.47 224.27 382.30 243.39 381.51 M 212.91 387.75 C 201.35 389.35 189.33 390.62 178.88 396.22 C 185.94 400.48 194.20 401.89 202.20 403.33 C 235.88 408.37 270.28 408.40 304.09 404.55 C 314.84 402.92 326.12 401.78 335.70 396.23 C 328.44 392.15 320.17 390.59 312.06 389.20 C 279.28 384.32 245.83 384.28 212.91 387.75 Z" />
<path fill="#2a2a2a" opacity="1.00" d=" M 249.40 391.49 C 259.28 391.41 270.03 390.49 279.08 395.17 C 279.03 398.14 275.17 398.35 273.00 399.10 C 261.82 401.13 250.20 401.14 239.02 399.09 C 236.83 398.37 232.99 398.15 232.91 395.17 C 237.83 392.18 243.81 391.97 249.40 391.49 Z" />
<path fill="#2a2a2a" opacity="1.00" d=" M 169.26 455.46 C 174.44 454.65 179.75 454.85 184.97 455.20 C 187.08 455.20 186.62 457.87 186.94 459.28 C 184.60 459.43 182.27 459.52 179.93 459.61 C 179.82 464.91 180.64 470.33 179.48 475.54 C 178.33 477.56 175.47 475.96 175.64 473.97 C 175.25 469.23 175.57 464.48 175.48 459.74 C 172.75 459.67 166.27 459.79 169.26 455.46 Z" />
<path fill="#2a2a2a" opacity="1.00" d=" M 192.74 455.28 C 198.12 453.87 197.20 460.00 197.28 463.42 C 200.37 463.43 203.46 463.45 206.55 463.49 C 206.63 460.75 206.70 458.00 206.80 455.26 C 208.16 455.43 209.84 454.96 210.86 456.14 C 211.53 461.06 211.15 466.07 211.21 471.03 C 211.03 473.04 211.49 475.93 208.99 476.65 C 205.44 475.30 207.02 470.82 206.54 467.93 C 203.47 467.91 200.40 467.90 197.33 467.91 C 196.72 470.74 198.30 475.26 194.99 476.61 C 193.33 476.17 192.53 474.66 192.68 473.03 C 192.50 467.11 192.67 461.19 192.74 455.28 Z" />
<path fill="#2a2a2a" opacity="1.00" d=" M 219.10 455.43 C 224.63 454.72 230.28 454.74 235.82 455.32 C 236.92 456.33 236.62 457.99 236.94 459.32 C 232.31 459.58 227.67 459.53 223.04 459.53 C 223.05 460.50 223.05 462.45 223.05 463.42 C 226.64 464.17 232.90 461.41 234.33 465.92 C 232.31 469.61 226.63 467.27 223.07 467.94 C 223.06 469.24 223.05 470.55 223.05 471.86 C 227.82 472.78 236.44 468.94 237.39 475.82 C 231.33 476.48 225.10 476.91 219.07 475.86 C 218.07 469.17 218.05 462.11 219.10 455.43 Z" />
<path fill="#2a2a2a" opacity="1.00" d=" M 260.13 466.85 C 254.73 463.71 257.63 454.48 263.91 455.07 C 267.99 455.35 276.48 452.78 275.75 459.32 C 271.17 459.62 266.54 459.18 261.99 459.95 C 260.43 464.98 266.89 462.83 269.85 463.61 C 275.99 463.60 277.95 472.87 272.46 475.51 C 267.63 477.22 262.29 476.14 257.27 476.20 C 256.59 467.69 268.48 475.05 271.46 470.02 C 269.58 466.06 263.46 469.23 260.13 466.85 Z" />
<path fill="#2a2a2a" opacity="1.00" d=" M 280.55 455.67 C 286.27 454.78 292.71 454.19 298.20 455.88 C 300.68 459.83 294.29 459.60 291.79 459.74 C 291.38 465.18 292.65 470.89 290.95 476.15 C 290.21 476.17 288.71 476.20 287.97 476.22 C 286.57 470.85 287.54 465.21 287.24 459.74 C 284.42 459.44 278.81 460.10 280.55 455.67 Z" />
<path fill="#2a2a2a" opacity="1.00" d=" M 300.13 469.25 C 302.83 464.48 304.57 459.11 308.04 454.82 C 314.08 458.88 315.77 467.76 319.32 474.09 C 317.94 478.95 314.64 474.67 313.26 472.20 C 310.25 472.17 307.25 472.15 304.25 472.15 C 302.98 473.81 301.77 475.56 300.02 476.77 C 296.62 475.12 299.01 471.56 300.13 469.25 M 305.95 467.61 C 307.74 467.63 309.52 467.64 311.31 467.66 C 310.46 465.90 309.60 464.14 308.75 462.40 C 307.81 464.13 306.88 465.87 305.95 467.61 Z" />
<path fill="#2a2a2a" opacity="1.00" d=" M 325.32 456.27 C 330.61 453.69 341.36 453.58 343.31 461.02 C 344.27 464.36 342.00 467.28 340.25 469.88 C 341.52 471.27 342.77 472.67 344.02 474.08 C 343.03 475.00 342.05 475.93 341.05 476.85 C 337.94 473.80 334.86 470.00 329.99 470.40 C 329.64 473.05 328.84 475.61 326.88 477.54 C 323.41 471.10 325.12 463.26 325.32 456.27 M 329.40 466.19 C 332.11 466.24 334.82 466.28 337.54 466.33 C 341.97 460.46 334.23 458.39 329.56 459.36 C 329.50 461.64 329.45 463.91 329.40 466.19 Z" />
</g>
</svg>
