<?xml version="1.0" encoding="UTF-8" ?>
<!DOCTYPE svg PUBLIC "-//W3C//DTD SVG 1.1//EN" "http://www.w3.org/Graphics/SVG/1.1/DTD/svg11.dtd">
<svg width="120pt" height="120pt" viewBox="0 0 512 512" version="1.1" xmlns="http://www.w3.org/2000/svg">
<g id="#2a2a2afd">
<path fill="#2a2a2a" opacity="1.00" d=" M 132.35 21.48 C 213.91 21.12 295.48 21.44 377.05 21.32 C 385.73 20.73 393.86 28.26 393.63 37.02 C 393.67 183.00 393.67 328.99 393.62 474.98 C 393.86 483.74 385.73 491.26 377.05 490.68 C 296.03 490.65 215.02 490.72 134.01 490.64 C 125.65 490.80 118.16 483.36 118.37 474.98 C 118.31 329.31 118.38 183.63 118.34 37.95 C 117.81 29.89 124.23 22.11 132.35 21.48 M 131.46 25.75 C 125.91 26.84 122.06 32.41 122.41 37.96 C 122.42 183.32 122.42 328.68 122.41 474.04 C 121.85 480.93 128.02 487.16 134.93 486.59 C 215.64 486.59 296.36 486.59 377.07 486.59 C 383.97 487.16 390.14 480.93 389.59 474.04 C 389.55 328.37 389.64 182.70 389.55 37.03 C 389.73 29.98 382.85 24.52 376.04 25.38 C 294.52 25.67 212.94 24.94 131.46 25.75 Z" />
<path fill="#2a2a2a" opacity="1.00" d=" M 132.42 32.55 C 136.56 31.80 140.81 32.30 145.00 32.20 C 222.36 32.22 299.72 32.16 377.08 32.22 C 380.39 31.80 383.18 34.62 382.76 37.92 C 382.81 170.97 382.76 304.01 382.80 437.06 C 383.36 440.03 381.20 442.80 378.04 442.28 C 297.02 442.35 216.00 442.26 134.98 442.33 C 132.19 442.69 128.66 441.46 129.24 438.04 C 129.15 305.01 129.25 171.97 129.19 38.94 C 129.09 36.49 129.60 33.25 132.42 32.55 M 133.31 36.29 C 133.21 170.26 133.31 304.23 133.26 438.20 C 137.72 438.22 142.17 438.22 146.63 438.22 C 142.62 412.76 134.10 384.54 147.37 360.36 C 132.02 345.19 136.92 318.35 151.75 304.51 C 151.84 293.04 151.78 281.56 151.79 270.09 C 143.77 270.49 138.09 262.79 139.68 255.16 C 140.81 254.64 141.95 254.13 143.08 253.62 C 140.25 249.61 137.37 243.02 142.47 239.54 C 140.23 236.17 138.06 231.82 139.91 227.81 C 142.20 225.31 145.97 226.77 148.87 227.00 C 145.42 220.90 147.54 213.08 154.04 210.13 C 160.41 213.08 162.54 220.97 159.19 226.98 C 161.98 226.74 165.30 225.37 167.80 227.22 C 170.33 231.42 167.76 236.39 165.25 239.96 C 166.17 240.68 167.09 241.39 168.01 242.12 C 168.14 246.18 167.06 250.14 164.63 253.44 C 165.75 254.04 166.87 254.65 167.99 255.27 C 169.35 262.72 163.89 270.46 155.91 269.83 C 155.80 279.84 155.78 289.86 155.92 299.88 C 168.61 283.86 177.38 264.99 183.80 245.68 C 187.07 231.42 191.64 217.24 200.22 205.20 C 192.17 197.79 183.89 188.40 184.43 176.71 C 185.33 176.69 187.14 176.67 188.04 176.66 C 188.46 184.47 192.45 191.38 197.66 197.00 C 212.89 183.34 234.01 178.57 254.00 178.44 C 275.05 178.31 297.21 183.06 313.76 196.78 C 318.45 191.09 321.69 184.46 323.84 177.44 C 324.48 174.82 327.96 176.92 327.11 179.03 C 325.49 189.31 318.50 197.68 311.74 205.18 C 317.39 213.47 321.91 222.56 324.67 232.22 C 330.32 256.47 340.71 279.86 355.87 299.67 C 356.18 289.82 356.08 279.96 355.96 270.11 C 347.48 271.18 338.95 258.84 346.99 253.18 C 344.18 249.20 341.95 242.98 346.60 239.44 C 344.36 235.99 342.06 231.39 344.34 227.41 C 346.91 225.60 350.19 226.69 353.05 226.95 C 349.87 221.28 351.33 212.91 358.03 210.65 C 365.04 212.33 366.54 221.43 363.31 227.06 C 366.10 226.76 369.34 225.44 371.90 227.07 C 374.46 230.98 372.23 235.93 369.87 239.39 C 373.68 243.40 371.90 249.07 369.09 253.09 C 377.05 258.70 368.57 271.18 360.08 269.84 C 360.08 280.25 360.06 290.65 360.04 301.06 C 359.62 305.92 364.63 308.48 366.69 312.34 C 376.11 326.36 377.52 347.99 364.64 360.37 C 377.89 384.55 369.38 412.76 365.37 438.22 C 369.83 438.22 374.28 438.22 378.74 438.21 C 378.68 304.23 378.78 170.26 378.68 36.29 C 296.89 36.22 215.10 36.22 133.31 36.29 M 200.62 199.88 C 201.40 200.64 202.19 201.39 202.97 202.15 C 217.65 189.91 237.24 185.35 255.99 185.28 C 272.65 185.20 290.07 188.37 303.95 198.07 C 306.30 199.47 308.63 202.95 311.47 200.33 C 296.22 187.37 275.59 182.74 255.99 182.52 C 236.46 182.36 215.67 186.68 200.62 199.88 M 228.90 193.12 C 228.10 196.06 227.48 199.36 225.04 201.44 C 221.03 201.32 223.65 196.66 223.94 194.36 C 214.81 199.32 210.55 210.01 210.83 220.03 C 211.32 222.32 209.57 224.14 207.37 222.77 C 205.63 215.34 208.15 207.74 211.19 201.01 C 196.94 211.05 192.22 229.26 188.15 245.28 C 180.27 269.53 168.85 293.43 150.75 311.75 C 140.74 324.18 138.07 344.82 149.76 357.03 C 152.10 354.78 154.46 352.54 156.84 350.34 C 147.37 339.52 152.98 324.38 159.86 313.82 C 170.38 297.36 182.46 281.63 189.43 263.19 C 189.72 260.46 193.99 259.63 193.61 262.98 C 186.70 284.30 171.62 301.46 160.65 320.66 C 155.87 328.82 153.34 339.81 159.89 347.79 C 163.50 345.36 167.24 343.11 171.08 341.07 C 165.13 332.29 168.22 320.77 174.94 313.41 C 179.71 313.43 176.03 318.59 174.86 320.84 C 170.95 326.51 171.06 333.94 174.94 339.59 C 181.44 337.66 188.15 336.48 194.94 336.24 C 190.20 330.71 189.35 323.15 190.49 316.19 C 193.41 297.54 202.76 280.48 204.85 261.66 C 200.16 275.28 194.57 288.72 186.61 300.77 C 182.97 302.22 183.30 297.85 184.94 295.93 C 195.99 277.10 204.14 256.12 205.75 234.20 C 205.29 231.87 209.67 230.46 209.48 233.37 C 211.03 244.85 209.97 256.60 208.04 267.98 C 204.93 285.02 196.80 300.75 194.37 317.92 C 193.31 324.58 195.07 333.29 202.15 335.85 C 213.28 335.29 224.67 327.02 226.68 315.71 C 226.87 307.89 227.16 300.00 226.54 292.21 C 222.81 286.20 219.23 280.09 216.72 273.44 C 214.30 284.93 210.10 296.19 209.77 308.02 C 209.49 313.80 213.15 318.50 217.74 321.53 C 216.83 322.29 215.95 323.08 215.01 323.80 C 207.98 321.18 205.33 312.93 205.70 306.03 C 206.73 291.04 213.18 276.98 214.20 261.99 C 214.22 249.78 212.88 237.58 213.20 225.35 C 214.89 225.30 216.57 225.27 218.26 225.25 C 218.38 218.09 218.15 210.54 221.11 203.86 C 221.84 203.89 223.30 203.95 224.04 203.97 C 223.72 211.25 221.66 218.45 222.34 225.82 C 225.18 226.07 228.01 226.29 230.85 226.50 C 230.75 219.41 230.57 211.91 233.46 205.30 C 234.64 203.23 237.64 204.99 236.65 207.06 C 235.43 213.54 234.27 220.10 235.05 226.73 C 238.24 226.84 241.43 226.94 244.62 227.02 C 244.66 220.33 244.00 213.36 246.04 206.92 C 246.54 204.61 250.27 205.65 249.42 207.97 C 248.96 214.37 248.28 220.78 248.74 227.22 C 253.25 227.26 257.76 227.26 262.28 227.22 C 262.75 220.44 262.28 213.67 261.63 206.92 C 261.29 204.78 264.97 204.10 265.30 206.44 C 266.99 213.14 266.49 220.16 266.40 227.01 C 269.60 226.94 272.80 226.85 276.00 226.73 C 277.48 219.04 275.27 211.47 274.83 203.87 C 275.58 203.87 277.08 203.88 277.84 203.89 C 280.97 210.98 280.69 219.01 280.23 226.59 C 283.03 226.37 285.83 226.17 288.63 225.94 C 288.80 220.08 288.70 214.17 287.28 208.45 C 286.68 206.05 285.85 201.78 289.73 203.17 C 292.98 210.06 292.68 217.96 292.74 225.40 C 294.66 225.41 296.60 225.34 298.53 225.48 C 299.19 235.31 298.00 245.18 297.78 255.03 C 296.71 270.99 304.36 285.66 306.91 301.12 C 308.38 308.84 306.99 319.42 298.83 322.84 C 296.36 324.39 295.00 320.50 297.36 319.43 C 302.70 315.85 304.14 309.04 303.07 303.02 C 301.38 292.69 297.83 282.78 295.31 272.64 C 293.32 277.68 291.36 282.79 288.28 287.29 C 282.81 293.62 285.99 302.45 285.13 310.00 C 283.51 323.88 296.94 335.31 309.97 335.91 C 316.67 334.24 319.29 326.19 318.63 319.94 C 317.62 307.02 312.20 295.03 308.42 282.77 C 303.33 268.10 300.94 252.43 302.05 236.91 C 302.28 234.86 302.19 231.63 305.02 231.56 C 307.39 234.32 306.52 238.35 307.33 241.68 C 310.39 259.71 316.89 277.16 326.10 292.94 C 327.47 295.32 328.49 297.87 329.37 300.47 C 328.52 300.65 326.83 301.00 325.99 301.18 C 318.09 288.10 311.81 274.14 307.09 259.61 C 308.79 275.42 315.88 289.92 319.95 305.16 C 322.79 315.26 324.99 327.39 317.80 336.27 C 324.46 336.66 331.06 337.84 337.41 339.88 C 341.30 334.57 341.94 327.33 338.26 321.72 C 337.31 319.11 333.07 315.04 337.03 313.15 C 344.69 320.06 347.61 332.64 341.26 341.44 C 345.11 343.42 348.81 345.67 352.38 348.12 C 361.87 336.93 353.69 322.29 346.89 312.06 C 336.71 296.88 325.86 281.82 319.46 264.56 C 318.69 262.88 319.03 260.76 321.11 260.37 C 324.53 263.92 325.25 269.13 327.68 273.32 C 335.93 291.36 349.88 306.05 358.10 324.08 C 362.29 332.64 361.98 343.35 355.57 350.76 C 357.82 352.82 360.04 354.92 362.25 357.03 C 374.11 344.64 371.22 323.59 360.80 311.19 C 343.19 293.41 332.21 270.15 324.29 246.69 C 319.98 230.13 315.37 211.28 300.76 200.69 C 303.62 207.51 306.34 215.06 304.65 222.53 C 303.59 222.86 302.51 223.15 301.43 223.41 C 301.52 212.03 298.20 197.97 286.29 193.56 C 287.05 196.01 290.38 200.94 285.97 201.44 C 283.39 199.24 282.58 195.82 282.43 192.58 C 264.96 188.11 246.27 188.19 228.90 193.12 M 153.31 225.77 C 158.52 224.60 156.90 217.36 154.03 214.36 C 151.07 217.49 150.13 222.42 153.31 225.77 M 358.04 226.70 C 361.79 223.28 361.59 217.92 358.14 214.37 C 354.67 217.95 354.93 222.98 358.04 226.70 M 155.62 238.44 C 161.04 239.39 164.83 235.13 165.08 230.03 C 160.06 230.09 156.38 233.53 155.62 238.44 M 217.16 229.45 C 217.61 240.82 217.82 252.22 218.62 263.58 C 220.66 275.07 225.69 286.55 234.56 294.40 C 246.32 304.75 265.62 304.70 277.36 294.34 C 286.24 286.51 291.23 275.01 293.26 263.53 C 294.03 252.23 294.26 240.88 294.73 229.56 C 290.30 229.92 285.87 230.26 281.44 230.51 C 283.96 231.76 286.74 232.75 288.68 234.90 C 286.83 239.29 282.01 234.69 278.85 234.44 C 273.39 232.00 267.78 236.94 262.55 234.54 C 263.34 233.39 264.15 232.25 264.95 231.11 C 258.37 231.38 251.77 231.37 245.19 231.10 C 245.95 232.03 246.72 232.96 247.48 233.91 C 247.06 234.42 246.22 235.44 245.80 235.95 C 238.33 232.49 230.25 234.14 223.00 237.19 C 219.65 232.99 226.63 232.01 229.31 230.44 C 225.25 230.16 221.21 229.80 217.16 229.45 M 359.83 238.41 C 365.23 239.35 369.05 235.12 369.31 230.02 C 364.28 230.11 360.59 233.48 359.83 238.41 M 142.96 230.07 C 143.16 235.16 146.93 239.18 152.19 238.45 C 151.42 233.69 148.10 229.92 142.96 230.07 M 347.14 230.08 C 347.39 235.14 351.12 239.16 356.40 238.50 C 355.71 233.66 352.25 229.97 347.14 230.08 M 143.36 243.65 C 143.61 248.54 147.03 252.62 152.19 252.26 C 152.43 247.03 148.30 243.81 143.36 243.65 M 155.49 252.34 C 160.64 252.60 163.89 248.50 164.28 243.71 C 159.30 243.75 155.22 247.10 155.49 252.34 M 347.61 243.68 C 347.76 248.59 351.25 252.54 356.34 252.34 C 356.66 247.10 352.56 243.80 347.61 243.68 M 359.69 252.32 C 364.78 252.53 368.23 248.57 368.40 243.68 C 363.45 243.79 359.40 247.12 359.69 252.32 M 143.30 257.40 C 143.51 262.29 146.97 266.27 152.06 266.02 C 152.45 260.80 148.25 257.45 143.30 257.40 M 155.40 265.70 C 160.67 266.37 163.97 262.17 164.44 257.35 C 159.47 257.29 155.46 260.54 155.40 265.70 M 347.40 257.43 C 347.76 262.30 351.17 266.24 356.27 266.06 C 356.64 260.80 352.40 257.42 347.40 257.43 M 359.55 265.69 C 364.77 266.34 368.29 262.26 368.61 257.34 C 363.66 257.31 359.72 260.61 359.55 265.69 M 230.90 296.67 C 230.80 304.08 231.12 311.50 230.54 318.89 C 238.32 325.79 245.75 334.40 256.00 337.39 C 266.16 334.06 273.73 325.35 280.86 317.74 C 281.60 310.74 280.89 303.62 281.09 296.58 C 267.42 309.28 244.61 309.35 230.90 296.67 M 256.01 341.44 C 244.94 339.19 236.97 330.04 228.79 322.87 C 225.38 328.56 220.55 333.24 214.86 336.62 C 221.51 337.55 229.18 337.33 234.55 341.97 C 234.19 342.61 233.48 343.89 233.12 344.54 C 220.90 339.96 207.66 340.17 194.81 340.35 C 196.50 349.11 202.27 356.66 209.96 361.08 C 224.07 369.41 240.94 370.99 257.00 371.20 C 273.10 371.01 290.06 369.61 304.24 361.26 C 311.89 356.90 317.45 349.23 318.81 340.48 C 306.11 340.10 293.02 339.82 280.85 344.04 C 279.15 344.79 277.50 343.85 277.56 341.94 C 282.98 337.52 290.53 337.59 297.15 336.64 C 291.19 333.08 286.11 328.13 282.81 321.99 C 274.81 329.42 267.13 339.03 256.01 341.44 M 173.43 344.57 C 174.64 358.46 180.89 372.28 192.24 380.75 C 204.36 389.69 220.10 393.69 235.02 392.14 C 244.19 391.27 251.71 384.27 253.94 375.45 C 237.86 374.48 220.92 372.96 207.00 364.06 C 198.65 358.86 192.38 350.37 190.74 340.58 C 184.82 341.14 178.97 342.37 173.43 344.57 M 322.81 340.82 C 321.53 350.27 315.84 358.73 307.83 363.82 C 293.21 373.40 275.14 374.82 258.14 375.36 C 260.21 384.26 267.80 391.28 276.98 392.14 C 291.59 393.63 307.22 389.97 318.94 380.89 C 330.17 372.02 335.28 357.30 334.76 343.30 C 330.82 342.25 326.84 341.40 322.81 340.82 M 338.89 344.87 C 338.51 357.51 334.65 370.49 325.85 379.87 C 314.50 391.99 297.21 396.74 281.02 396.60 C 270.78 396.61 260.42 391.30 256.00 381.77 C 251.58 391.30 241.22 396.61 230.97 396.60 C 214.90 396.75 198.10 391.95 186.17 380.81 C 176.57 371.89 171.25 359.24 169.56 346.41 C 162.87 350.49 156.38 355.28 151.67 361.62 C 144.42 372.82 143.53 386.81 144.72 399.75 C 146.09 412.68 148.30 425.50 150.85 438.25 C 157.95 438.19 165.05 438.24 172.15 438.20 C 171.66 436.76 171.18 435.32 170.70 433.88 C 167.15 433.31 159.15 435.86 160.35 429.76 C 163.48 429.72 166.61 429.72 169.74 429.72 C 169.68 428.58 169.62 427.44 169.57 426.31 C 166.81 426.24 164.00 426.37 161.30 425.69 C 158.93 420.65 166.93 422.46 169.77 422.05 C 169.83 421.29 169.94 419.79 170.00 419.03 C 167.81 418.80 162.73 418.41 165.15 415.09 C 168.25 414.29 171.58 414.35 174.67 415.18 C 173.69 422.92 172.65 431.13 176.75 438.24 C 228.52 438.21 280.28 438.20 332.05 438.25 C 333.37 438.06 335.33 438.56 335.99 436.99 C 339.84 430.21 338.31 422.19 337.13 414.91 C 340.43 414.68 343.79 414.33 347.07 415.00 C 349.10 418.56 344.31 418.81 342.00 419.02 C 342.09 419.77 342.25 421.26 342.33 422.01 C 345.29 422.62 349.88 420.81 351.54 423.97 C 350.39 427.54 345.51 425.77 342.60 426.30 C 342.55 427.43 342.51 428.56 342.47 429.70 C 345.46 429.98 353.65 428.14 351.38 433.35 C 346.94 434.36 340.82 432.05 339.74 438.17 C 346.87 438.28 354.01 438.18 361.15 438.25 C 363.73 425.24 366.02 412.15 367.35 398.95 C 368.41 386.04 367.41 372.05 359.92 361.04 C 354.39 354.03 346.88 348.76 338.89 344.87 Z" />
<path fill="#2a2a2a" opacity="1.00" d=" M 243.34 46.31 C 244.64 45.36 246.61 46.26 246.27 48.02 C 246.51 55.68 246.82 63.43 246.02 71.06 C 241.45 72.97 242.36 66.67 242.31 64.01 C 242.96 58.24 241.07 51.46 243.34 46.31 Z" />
<path fill="#2a2a2a" opacity="1.00" d=" M 255.23 46.14 C 257.73 44.85 258.04 48.25 258.03 49.94 C 257.93 56.88 258.54 63.90 257.60 70.79 C 253.23 73.39 253.92 66.59 253.90 64.00 C 254.59 58.28 252.45 50.73 255.23 46.14 Z" />
<path fill="#2a2a2a" opacity="1.00" d=" M 265.74 48.02 C 265.31 45.82 268.04 45.38 269.29 46.71 C 270.12 52.43 269.43 58.25 269.69 64.00 C 269.71 67.13 270.45 71.95 265.82 71.69 C 265.49 63.81 265.32 55.89 265.74 48.02 Z" />
<path fill="#2a2a2a" opacity="1.00" d=" M 247.04 96.59 C 251.60 95.61 253.92 91.86 256.31 88.28 C 257.48 92.18 259.78 95.37 263.95 96.24 C 263.86 96.73 263.69 97.71 263.61 98.20 C 259.50 98.84 257.59 102.25 256.35 105.84 C 253.96 102.04 250.87 98.93 247.04 96.59 Z" />
<path fill="#2a2a2a" opacity="1.00" d=" M 252.47 118.87 C 253.40 117.35 254.37 115.85 255.38 114.37 C 256.30 115.90 257.21 117.44 258.11 118.99 C 259.86 119.34 261.61 119.68 263.36 120.05 C 262.21 121.46 261.03 122.84 259.84 124.22 C 259.99 126.02 260.14 127.82 260.28 129.62 C 258.55 128.93 256.83 128.22 255.10 127.51 C 253.56 128.27 252.01 129.02 250.46 129.76 C 250.48 127.89 250.54 126.02 250.60 124.16 C 249.48 122.80 248.37 121.44 247.25 120.08 C 248.99 119.68 250.73 119.29 252.47 118.87 Z" />
<path fill="#2a2a2a" opacity="1.00" d=" M 159.89 127.97 C 163.96 126.26 166.53 122.93 168.86 119.37 C 170.54 123.08 172.91 126.40 177.21 127.18 C 176.11 129.24 173.95 130.10 171.92 130.96 C 170.99 133.07 169.90 135.15 168.01 136.55 C 167.13 132.16 163.64 129.78 159.89 127.97 Z" />
<path fill="#2a2a2a" opacity="1.00" d=" M 342.39 119.87 C 342.89 119.95 343.88 120.09 344.38 120.16 C 345.15 124.25 348.81 126.08 352.06 127.95 C 348.34 129.79 344.80 132.12 343.97 136.52 C 342.04 135.16 340.97 133.07 340.06 130.96 C 338.21 130.12 336.33 129.32 334.73 128.06 C 337.83 125.75 341.70 124.20 342.39 119.87 Z" />
<path fill="#2a2a2a" opacity="1.00" d=" M 268.98 129.11 C 269.92 127.57 270.87 126.04 271.86 124.53 C 272.77 126.05 273.68 127.57 274.61 129.09 C 276.36 129.57 278.11 130.07 279.87 130.59 C 278.70 131.87 277.53 133.14 276.37 134.42 C 276.47 136.26 276.55 138.10 276.57 139.95 C 275.01 139.23 273.46 138.51 271.91 137.78 C 270.18 138.47 268.44 139.16 266.70 139.82 C 266.88 138.13 267.08 136.43 267.29 134.74 C 266.10 133.28 264.92 131.82 263.77 130.33 C 265.50 129.91 267.24 129.51 268.98 129.11 Z" />
<path fill="#2a2a2a" opacity="1.00" d=" M 236.63 129.58 C 237.46 128.09 238.30 126.61 239.17 125.14 C 240.21 126.65 241.22 128.19 242.22 129.73 C 243.94 130.11 245.67 130.49 247.40 130.89 C 246.23 132.29 245.05 133.69 243.86 135.08 C 244.03 136.88 244.20 138.68 244.35 140.49 C 242.64 139.78 240.95 139.06 239.25 138.35 C 237.61 139.04 235.96 139.71 234.30 140.35 C 234.42 138.65 234.55 136.95 234.68 135.25 C 233.68 133.78 232.63 132.35 231.73 130.83 C 233.35 130.37 234.99 129.98 236.63 129.58 Z" />
<path fill="#2a2a2a" opacity="1.00" d=" M 220.58 140.75 C 221.56 139.22 222.56 137.70 223.62 136.22 C 224.52 137.73 225.41 139.26 226.29 140.80 C 228.00 141.12 229.71 141.45 231.43 141.79 C 230.35 143.26 229.22 144.69 228.07 146.09 C 228.20 147.81 228.34 149.52 228.49 151.24 C 225.19 149.57 221.68 149.50 218.40 151.24 C 218.56 149.53 218.73 147.83 218.89 146.12 C 217.73 144.71 216.60 143.28 215.52 141.82 C 217.20 141.45 218.89 141.10 220.58 140.75 Z" />
<path fill="#2a2a2a" opacity="1.00" d=" M 285.89 140.84 C 286.91 139.25 287.93 137.67 288.98 136.10 C 289.83 137.61 290.67 139.13 291.49 140.66 C 293.29 141.08 295.09 141.51 296.88 141.97 C 295.73 143.34 294.56 144.70 293.39 146.06 C 293.55 147.84 293.70 149.61 293.85 151.39 C 292.20 150.74 290.56 150.07 288.93 149.38 C 287.22 150.09 285.51 150.80 283.79 151.49 C 283.95 149.70 284.13 147.93 284.31 146.15 C 283.11 144.73 281.93 143.32 280.75 141.89 C 282.46 141.52 284.17 141.17 285.89 140.84 Z" />
<path fill="#2a2a2a" opacity="1.00" d=" M 249.67 141.30 C 251.91 143.38 253.97 145.63 256.00 147.91 C 258.03 145.63 260.10 143.38 262.33 141.31 C 262.49 144.42 262.44 147.55 262.36 150.67 C 265.33 150.59 268.31 150.55 271.28 150.68 C 269.26 152.96 267.14 155.16 265.00 157.33 C 267.20 159.41 269.26 161.64 271.10 164.05 C 268.19 164.11 265.29 164.10 262.38 164.03 C 262.44 167.14 262.47 170.25 262.30 173.35 C 260.11 171.24 258.03 169.01 256.00 166.75 C 253.97 169.01 251.89 171.24 249.70 173.35 C 249.52 170.25 249.55 167.14 249.62 164.03 C 246.72 164.09 243.82 164.11 240.92 164.05 C 242.76 161.60 244.86 159.37 247.01 157.20 C 244.84 155.09 242.71 152.94 240.69 150.69 C 243.67 150.56 246.65 150.60 249.64 150.67 C 249.55 147.54 249.50 144.42 249.67 141.30 Z" />
<path fill="#2a2a2a" opacity="1.00" d=" M 205.04 152.11 C 205.97 150.56 206.92 149.01 207.89 147.48 C 208.80 149.00 209.72 150.52 210.66 152.04 C 212.42 152.53 214.17 153.03 215.93 153.56 C 214.76 154.84 213.60 156.13 212.43 157.41 C 212.53 159.25 212.61 161.09 212.64 162.94 C 211.07 162.21 209.53 161.48 207.98 160.73 C 206.36 161.40 204.75 162.08 203.14 162.76 C 203.83 159.10 202.38 155.88 199.96 153.24 C 201.65 152.86 203.34 152.49 205.04 152.11 Z" />
<path fill="#2a2a2a" opacity="1.00" d=" M 304.11 152.05 C 305.01 150.58 305.90 149.10 306.80 147.62 C 308.36 150.88 311.22 152.84 314.70 153.62 C 311.97 155.97 311.07 159.23 311.70 162.73 C 310.10 162.09 308.52 161.44 306.93 160.80 C 305.36 161.44 303.80 162.09 302.24 162.74 C 302.73 159.17 301.73 155.85 299.01 153.43 C 300.71 152.98 302.41 152.52 304.11 152.05 Z" />
<path fill="#2a2a2a" opacity="1.00" d=" M 188.34 163.15 C 189.27 161.61 190.19 160.07 191.13 158.53 C 192.08 160.05 193.02 161.59 193.94 163.13 C 195.69 163.56 197.44 164.00 199.20 164.47 C 198.02 165.91 196.82 167.33 195.62 168.76 C 195.82 170.46 196.02 172.16 196.22 173.86 C 194.52 173.22 192.83 172.57 191.14 171.94 C 189.42 172.56 187.71 173.17 185.99 173.76 C 186.24 172.08 186.50 170.41 186.77 168.75 C 185.54 167.36 184.31 165.98 183.09 164.59 C 184.83 164.08 186.58 163.61 188.34 163.15 Z" />
<path fill="#2a2a2a" opacity="1.00" d=" M 319.45 163.29 C 320.43 161.77 321.42 160.25 322.44 158.76 C 323.96 162.04 326.75 164.09 330.33 164.63 C 329.25 165.89 328.15 167.14 327.05 168.39 C 327.18 170.15 327.32 171.90 327.47 173.67 C 324.19 172.08 320.68 172.03 317.40 173.66 C 317.54 171.93 317.70 170.20 317.85 168.47 C 316.69 167.10 315.56 165.72 314.47 164.31 C 316.12 163.96 317.78 163.62 319.45 163.29 Z" />
<path fill="#2a2a2a" opacity="1.00" d=" M 286.33 159.90 C 287.39 161.43 288.41 163.00 289.41 164.58 C 291.04 164.89 292.68 165.20 294.32 165.51 C 291.84 168.25 290.66 171.62 291.23 175.32 C 289.69 174.56 288.15 173.80 286.62 173.04 C 285.00 173.78 283.37 174.53 281.76 175.27 C 282.34 171.58 281.13 168.23 278.68 165.50 C 280.34 165.19 282.01 164.88 283.69 164.58 C 284.56 163.02 285.44 161.45 286.33 159.90 Z" />
<path fill="#2a2a2a" opacity="1.00" d=" M 222.69 165.61 C 223.55 164.08 224.42 162.55 225.31 161.04 C 226.39 162.53 227.42 164.06 228.43 165.61 C 230.10 165.95 231.77 166.28 233.44 166.63 C 232.36 168.12 231.23 169.58 230.08 171.02 C 230.22 172.79 230.36 174.57 230.49 176.36 C 228.85 175.63 227.22 174.89 225.59 174.14 C 223.89 174.87 222.19 175.60 220.49 176.32 C 220.63 174.55 220.78 172.78 220.94 171.02 C 219.78 169.58 218.64 168.12 217.56 166.62 C 219.26 166.27 220.98 165.94 222.69 165.61 Z" />
<path fill="#2a2a2a" opacity="1.00" d=" M 236.98 202.85 C 233.18 200.15 236.09 196.28 237.98 193.41 C 242.03 195.94 238.92 200.02 236.98 202.85 Z" />
<path fill="#2a2a2a" opacity="1.00" d=" M 271.27 195.33 C 274.10 193.23 275.86 197.80 276.35 200.01 C 274.09 204.27 269.34 197.93 271.27 195.33 Z" />
<path fill="#2a2a2a" opacity="1.00" d=" M 249.07 203.21 C 245.57 201.55 248.48 197.90 250.02 195.86 C 250.68 196.44 251.99 197.60 252.64 198.19 C 251.59 199.91 251.49 202.86 249.07 203.21 Z" />
<path fill="#2a2a2a" opacity="1.00" d=" M 258.05 197.68 C 261.19 194.70 264.86 198.82 262.99 202.03 C 260.04 203.56 259.25 199.45 258.05 197.68 Z" />
<path fill="#2a2a2a" opacity="1.00" d=" M 198.44 223.39 C 199.27 222.44 201.76 223.62 201.41 224.94 C 201.50 231.63 201.12 238.57 198.86 244.91 C 197.51 247.37 194.30 244.61 195.60 242.47 C 197.37 236.29 196.32 229.15 198.44 223.39 Z" />
<path fill="#2a2a2a" opacity="1.00" d=" M 311.29 225.07 C 311.20 222.79 313.68 223.36 315.16 223.39 C 315.06 230.90 316.22 238.31 317.49 245.69 C 316.27 245.56 315.05 245.48 313.85 245.28 C 311.63 238.84 311.11 231.85 311.29 225.07 Z" />
<path fill="#2a2a2a" opacity="1.00" d=" M 230.29 239.79 C 231.01 238.78 231.44 237.46 232.58 236.82 C 237.64 240.50 245.97 240.29 247.59 247.65 C 246.89 247.99 245.50 248.68 244.81 249.03 C 243.84 247.94 242.88 246.85 241.93 245.76 C 238.92 250.71 232.46 250.71 229.39 245.83 C 228.04 248.12 224.93 251.52 223.52 247.32 C 220.38 244.37 221.98 240.78 226.25 242.55 C 226.21 241.23 226.18 239.92 226.15 238.62 C 227.52 239.04 228.90 239.44 230.29 239.79 Z" />
<path fill="#2a2a2a" opacity="1.00" d=" M 276.64 239.40 C 277.47 238.64 278.29 237.88 279.12 237.12 C 282.37 238.98 285.42 241.16 288.43 243.37 C 287.25 245.43 286.12 247.52 284.76 249.47 C 282.52 249.60 281.65 247.15 280.29 245.82 C 277.42 250.70 270.89 250.80 268.04 245.85 C 266.53 247.58 264.02 250.42 262.43 247.07 C 264.05 240.94 271.05 239.11 276.64 239.40 Z" />
<path fill="#2a2a2a" opacity="1.00" d=" M 194.40 250.25 C 199.91 247.14 197.25 260.50 192.80 257.17 C 191.97 254.85 193.09 252.19 194.40 250.25 Z" />
<path fill="#2a2a2a" opacity="1.00" d=" M 315.29 250.34 C 318.94 247.71 320.41 254.28 320.11 256.94 C 316.24 259.64 314.66 253.13 315.29 250.34 Z" />
<path fill="#2a2a2a" opacity="1.00" d=" M 247.47 270.33 C 245.39 267.34 250.52 265.53 252.77 267.00 C 257.15 269.35 264.52 263.24 265.42 270.50 C 259.51 271.80 253.28 272.43 247.47 270.33 Z" />
<path fill="#2a2a2a" opacity="1.00" d=" M 241.38 277.49 C 245.79 277.39 250.25 277.81 254.61 278.54 C 256.69 283.29 249.64 282.16 246.91 281.98 C 244.47 282.04 238.29 280.71 241.38 277.49 Z" />
<path fill="#2a2a2a" opacity="1.00" d=" M 268.41 277.41 C 271.13 276.29 272.95 280.07 269.91 281.04 C 265.82 281.92 260.50 283.44 256.89 280.87 C 257.47 275.97 264.79 278.60 268.41 277.41 Z" />
<path fill="#2a2a2a" opacity="1.00" d=" M 249.35 285.34 C 253.66 284.40 258.34 284.75 262.73 285.19 C 264.18 289.21 258.66 289.26 256.01 289.31 C 253.42 289.14 248.18 289.35 249.35 285.34 Z" />
<path fill="#2a2a2a" opacity="1.00" d=" M 179.94 311.72 C 175.91 309.79 179.26 302.60 182.89 305.05 C 183.97 307.71 181.15 309.66 179.94 311.72 Z" />
<path fill="#2a2a2a" opacity="1.00" d=" M 335.63 309.30 C 332.10 314.10 326.07 304.55 332.00 304.34 C 333.40 305.85 334.49 307.59 335.63 309.30 Z" />
<path fill="#2a2a2a" opacity="1.00" d=" M 245.03 348.17 C 246.49 343.29 252.39 343.47 256.09 345.53 C 259.74 343.59 265.54 343.11 267.06 347.95 C 269.94 355.86 262.83 362.68 256.02 365.26 C 249.39 362.58 242.30 356.04 245.03 348.17 Z" />
<path fill="#2a2a2a" opacity="1.00" d=" M 249.69 401.65 C 255.66 396.39 266.13 401.04 266.25 408.98 C 267.02 414.94 261.49 418.27 257.30 421.18 C 258.79 421.64 260.28 422.10 261.77 422.57 C 261.74 423.52 261.72 424.48 261.70 425.44 C 260.60 425.69 259.51 425.95 258.42 426.21 C 257.61 428.00 258.83 432.08 255.99 431.84 C 253.33 431.82 254.43 427.99 253.70 426.24 C 252.63 425.93 251.55 425.63 250.48 425.32 C 250.45 424.50 250.42 423.69 250.39 422.88 C 252.11 422.33 255.86 420.97 252.68 419.41 C 245.48 416.73 243.34 406.37 249.69 401.65 M 253.27 404.15 C 249.30 406.00 248.83 412.09 252.43 414.56 C 255.78 417.30 261.27 415.10 262.07 410.91 C 263.37 406.12 257.57 401.70 253.27 404.15 Z" />
<path fill="#2a2a2a" opacity="1.00" d=" M 136.78 453.00 C 142.71 451.84 148.83 452.59 154.83 452.65 C 155.75 457.23 151.08 457.22 147.84 457.22 C 147.67 462.55 148.41 467.98 147.33 473.24 C 146.11 473.49 144.87 473.59 143.64 473.73 C 143.29 468.23 143.41 462.72 143.41 457.22 C 140.68 456.98 134.85 457.47 136.78 453.00 Z" />
<path fill="#2a2a2a" opacity="1.00" d=" M 183.14 453.14 C 188.71 451.54 195.00 452.76 200.84 452.66 C 201.26 460.06 191.38 455.86 186.87 456.91 C 186.87 458.20 186.88 459.50 186.89 460.80 C 190.48 460.84 194.14 460.52 197.67 461.38 C 199.43 467.56 190.46 464.82 186.96 465.36 C 186.92 466.66 186.88 467.95 186.85 469.26 C 191.53 469.29 196.22 469.18 200.89 469.56 C 200.71 470.81 200.56 472.07 200.27 473.32 C 194.44 474.26 188.47 473.71 182.60 473.46 C 182.76 466.76 181.43 459.52 183.14 453.14 Z" />
<path fill="#2a2a2a" opacity="1.00" d=" M 218.40 455.08 C 218.31 453.97 218.87 452.59 220.17 452.61 C 225.69 452.19 231.25 452.47 236.78 452.66 C 237.13 460.02 227.27 455.84 222.72 457.05 C 222.73 458.29 222.74 459.54 222.75 460.79 C 226.58 461.27 235.31 458.67 233.63 465.30 C 229.97 465.36 226.32 465.37 222.67 465.38 C 222.73 466.67 222.80 467.97 222.87 469.27 C 227.42 469.27 231.98 469.21 236.52 469.52 C 236.53 470.83 236.54 472.16 236.54 473.49 C 230.55 473.89 224.52 473.88 218.53 473.49 C 218.28 467.36 218.13 461.21 218.40 455.08 Z" />
<path fill="#2a2a2a" opacity="1.00" d=" M 268.67 452.76 C 274.99 451.78 285.65 451.22 286.17 460.00 C 286.55 467.34 278.28 469.08 272.56 468.24 C 272.40 471.19 271.49 474.71 267.74 473.57 C 268.17 466.70 266.34 459.25 268.67 452.76 M 272.18 456.84 C 272.18 459.15 272.18 461.46 272.19 463.77 C 274.64 463.68 277.14 463.84 279.56 463.34 C 282.20 462.52 282.42 458.24 279.74 457.32 C 277.26 456.76 274.69 456.91 272.18 456.84 Z" />
<path fill="#2a2a2a" opacity="1.00" d=" M 290.66 453.58 C 294.21 451.31 299.23 452.54 303.29 452.82 C 309.86 454.51 310.22 463.20 305.61 467.24 C 306.75 468.49 307.90 469.75 309.05 471.02 C 308.85 471.59 308.47 472.73 308.28 473.30 C 307.71 473.46 306.58 473.78 306.01 473.94 C 303.99 472.03 302.01 470.08 300.02 468.15 C 298.40 468.17 296.78 468.20 295.17 468.23 C 295.15 471.31 294.29 474.21 290.63 473.83 C 290.38 467.10 289.98 460.29 290.66 453.58 M 294.82 456.81 C 294.84 459.13 294.86 461.44 294.88 463.76 C 298.08 463.41 304.40 464.98 304.36 460.03 C 303.60 455.61 297.99 457.26 294.82 456.81 Z" />
<path fill="#2a2a2a" opacity="1.00" d=" M 313.44 452.62 C 319.06 452.59 324.76 451.95 330.34 452.82 C 332.31 452.96 331.87 456.85 329.90 456.71 C 325.79 457.14 321.65 456.88 317.52 457.04 C 317.53 458.30 317.54 459.56 317.55 460.83 C 321.46 461.28 329.81 458.68 328.60 465.25 C 324.77 465.34 320.95 465.36 317.12 465.44 C 316.99 472.01 324.89 468.27 329.00 469.37 C 332.32 468.62 332.34 474.40 329.01 473.66 C 323.92 473.37 317.99 475.00 313.41 472.69 C 312.74 466.03 313.09 459.29 313.44 452.62 Z" />
<path fill="#2a2a2a" opacity="1.00" d=" M 338.79 452.92 C 343.40 451.95 348.19 452.56 352.87 452.60 C 354.15 460.90 342.39 454.12 339.28 458.33 C 338.75 462.15 344.70 460.27 347.04 461.02 C 353.29 460.77 355.43 470.12 349.97 472.90 C 345.66 474.44 340.83 473.82 336.33 473.54 C 334.07 473.45 334.08 469.57 336.37 469.50 C 340.51 468.99 344.69 469.37 348.85 469.14 C 348.82 462.41 340.57 467.30 337.06 463.92 C 333.20 461.10 334.26 454.41 338.79 452.92 Z" />
<path fill="#2a2a2a" opacity="1.00" d=" M 359.43 453.37 C 364.24 451.51 369.66 452.71 374.71 452.68 C 375.81 461.82 360.67 452.20 360.60 460.56 C 364.38 461.04 368.58 460.12 372.03 462.05 C 376.25 464.68 375.33 471.91 370.55 473.34 C 365.93 474.23 361.17 473.70 356.51 473.48 C 356.50 472.15 356.50 470.83 356.52 469.51 C 360.89 469.10 365.38 469.80 369.67 468.75 C 372.38 464.68 365.33 465.47 362.98 465.25 C 356.49 465.99 353.70 456.32 359.43 453.37 Z" />
<path fill="#2a2a2a" opacity="1.00" d=" M 159.04 452.96 C 164.13 450.62 162.90 457.90 163.21 460.85 C 166.29 460.82 169.38 460.83 172.46 460.88 C 172.65 457.88 171.61 450.22 176.63 453.19 C 177.44 459.39 177.18 465.73 176.86 471.97 C 176.81 473.99 174.06 473.36 172.72 473.63 C 172.62 470.87 172.58 468.12 172.56 465.36 C 169.43 465.36 166.32 465.36 163.20 465.34 C 163.03 468.81 164.07 474.79 158.70 473.64 C 158.71 466.76 158.01 459.79 159.04 452.96 Z" />
<path fill="#2a2a2a" opacity="1.00" d=" M 241.41 453.17 C 245.87 451.30 248.49 457.68 251.72 459.94 C 254.51 457.10 257.34 454.28 260.35 451.66 C 264.39 458.09 261.55 466.34 262.21 473.55 C 254.98 474.76 258.66 464.59 257.81 460.31 C 255.92 462.10 254.11 464.01 251.96 465.50 C 249.36 464.44 247.55 462.20 245.52 460.36 C 245.51 464.82 245.54 469.28 245.31 473.73 C 243.88 473.28 241.29 474.08 241.25 471.91 C 240.87 465.69 240.71 459.37 241.41 453.17 Z" />
</g>
</svg>
