<?xml version="1.0" encoding="UTF-8" ?>
<!DOCTYPE svg PUBLIC "-//W3C//DTD SVG 1.1//EN" "http://www.w3.org/Graphics/SVG/1.1/DTD/svg11.dtd">
<svg width="120pt" height="120pt" viewBox="0 0 512 512" version="1.1" xmlns="http://www.w3.org/2000/svg">
<g id="#2a2a2afe">
<path fill="#2a2a2a" opacity="1.00" d=" M 132.36 21.48 C 213.91 21.12 295.48 21.44 377.04 21.32 C 385.73 20.73 393.86 28.26 393.62 37.03 C 393.69 182.70 393.62 328.37 393.66 474.04 C 394.26 482.74 386.74 490.85 377.97 490.64 C 296.66 490.69 215.33 490.69 134.02 490.64 C 125.65 490.80 118.16 483.36 118.38 474.97 C 118.31 329.30 118.38 183.63 118.34 37.96 C 117.82 29.90 124.23 22.10 132.36 21.48 M 131.45 25.75 C 125.91 26.84 122.07 32.41 122.41 37.96 C 122.42 183.32 122.42 328.68 122.41 474.04 C 121.85 480.93 128.02 487.16 134.93 486.59 C 212.62 486.60 290.31 486.58 368.00 486.60 C 372.18 486.53 376.40 486.91 380.55 486.24 C 386.10 485.15 389.93 479.57 389.59 474.04 C 389.55 328.37 389.64 182.70 389.55 37.03 C 389.74 29.98 382.86 24.52 376.05 25.38 C 294.52 25.68 212.94 24.93 131.45 25.75 Z" />
<path fill="#2a2a2a" opacity="1.00" d=" M 132.42 32.56 C 135.90 31.87 139.48 32.24 143.00 32.19 C 221.03 32.24 299.05 32.16 377.07 32.23 C 380.95 31.69 383.38 35.39 382.80 38.93 C 382.76 171.64 382.78 304.36 382.80 437.07 C 383.35 440.04 381.19 442.79 378.04 442.28 C 296.68 442.32 215.32 442.31 133.96 442.28 C 130.73 442.84 128.62 440.08 129.19 437.06 C 129.21 304.35 129.23 171.64 129.19 38.93 C 129.11 36.49 129.60 33.25 132.42 32.56 M 133.31 36.29 C 133.41 50.72 132.89 65.21 133.53 79.60 C 137.95 89.25 150.41 87.65 157.97 82.94 C 163.98 88.30 170.69 93.74 179.00 94.65 C 188.65 96.18 197.51 91.16 204.81 85.42 C 207.79 88.35 210.76 91.99 215.17 92.60 C 220.55 93.54 225.38 90.50 230.03 88.29 C 234.36 100.98 249.38 107.78 261.80 102.84 C 268.94 100.33 273.68 94.17 277.92 88.25 C 282.77 91.51 287.86 95.35 294.03 95.13 C 301.62 95.24 307.89 90.27 313.09 85.28 C 318.38 89.54 323.91 94.33 330.99 94.93 C 340.43 96.11 349.12 91.02 356.06 85.16 C 363.02 87.98 374.26 91.06 378.49 82.68 C 379.04 67.25 378.60 51.75 378.67 36.30 C 296.89 36.21 215.10 36.22 133.31 36.29 M 133.16 86.34 C 133.23 89.22 133.26 92.10 133.27 94.99 C 150.81 103.40 168.45 111.64 186.06 119.91 C 187.88 120.77 191.22 122.65 188.72 124.75 C 185.64 124.83 183.00 122.93 180.27 121.75 C 164.63 114.33 148.99 106.90 133.28 99.61 C 133.24 114.42 133.27 129.24 133.27 144.05 C 149.71 145.66 166.22 146.64 182.63 148.56 C 182.50 149.78 182.37 151.00 182.24 152.22 C 165.89 151.19 149.61 149.45 133.28 148.18 C 133.25 162.05 133.25 175.93 133.29 189.80 C 147.91 185.48 162.45 180.81 177.13 176.70 C 179.36 175.94 179.68 178.50 179.77 180.06 C 164.26 184.72 148.75 189.32 133.28 194.08 C 133.28 212.14 133.21 230.20 133.31 248.25 C 146.81 237.76 160.05 226.94 173.53 216.44 C 175.10 214.42 176.77 216.67 178.07 217.75 C 163.37 229.90 148.27 241.57 133.33 253.43 C 133.19 285.33 133.26 317.22 133.30 349.11 C 150.37 322.55 167.14 295.78 184.29 269.27 C 185.74 265.61 190.11 268.68 187.52 271.51 C 170.19 298.92 152.71 326.25 135.27 353.60 C 156.13 353.54 176.98 353.55 197.84 353.59 C 197.86 317.73 197.85 281.87 197.84 246.01 C 197.79 234.60 203.53 223.48 212.67 216.69 C 223.05 208.87 236.29 206.15 249.02 205.42 C 264.19 204.80 280.09 205.28 294.04 211.95 C 306.06 217.51 315.26 229.53 315.79 242.98 C 315.89 279.85 315.64 316.72 315.90 353.58 C 336.28 353.53 356.66 353.60 377.03 353.55 C 360.97 326.73 345.03 299.84 328.90 273.07 C 327.87 271.32 327.29 269.36 326.72 267.43 C 327.53 267.30 329.14 267.04 329.94 266.91 C 346.31 293.94 362.29 321.20 378.67 348.23 C 378.81 314.87 378.65 281.52 378.74 248.17 C 363.13 236.09 347.16 224.46 331.53 212.41 C 329.23 211.27 330.78 209.31 331.60 207.69 C 347.52 219.15 362.98 231.24 378.71 242.95 C 378.72 225.13 378.75 207.31 378.70 189.49 C 363.24 185.40 347.64 181.77 332.24 177.51 C 329.36 177.14 330.03 172.54 333.01 173.83 C 348.33 177.18 363.41 181.68 378.70 185.21 C 378.74 171.55 378.73 157.89 378.71 144.23 C 363.13 145.78 347.60 147.81 332.01 149.13 C 329.09 150.31 328.41 145.60 331.26 145.39 C 347.04 143.34 362.92 142.00 378.72 140.11 C 378.72 124.97 378.74 109.82 378.71 94.68 C 362.18 102.73 345.76 111.04 329.28 119.21 C 325.82 120.75 322.29 123.81 318.31 122.04 C 321.00 117.43 326.60 116.33 330.93 113.83 C 347.02 105.57 363.57 98.13 379.38 89.34 C 372.33 93.02 364.19 92.83 356.93 89.85 C 350.27 94.86 342.53 99.17 333.96 99.15 C 326.92 99.39 320.40 96.13 314.85 92.07 C 307.91 99.41 301.42 107.20 294.29 114.34 C 293.07 116.50 289.61 114.08 291.15 112.29 C 295.50 106.72 300.63 101.80 305.31 96.50 C 296.76 100.83 286.48 99.56 278.83 93.95 C 274.67 99.10 269.87 104.07 263.55 106.46 C 250.78 111.73 234.67 106.30 228.20 93.95 C 224.38 95.57 220.36 96.61 216.26 97.18 C 232.39 110.96 249.78 124.81 271.05 129.29 C 271.33 134.87 268.13 139.58 264.66 143.63 C 255.79 154.31 244.88 164.87 231.03 168.26 C 228.26 165.14 228.74 160.38 227.13 156.64 C 219.58 134.52 204.05 116.48 190.16 98.11 C 178.12 101.12 166.02 95.97 157.23 87.87 C 149.62 91.71 139.87 92.34 133.16 86.34 M 194.34 96.80 C 209.95 117.38 227.29 138.01 233.50 163.71 C 247.52 157.14 259.33 146.05 267.11 132.69 C 260.82 130.72 254.57 128.54 248.72 125.46 C 246.78 127.22 244.85 128.99 242.88 130.72 C 242.01 129.87 241.15 129.02 240.29 128.16 C 241.71 126.49 243.18 124.85 244.64 123.21 C 243.92 122.78 242.48 121.92 241.76 121.49 C 239.89 123.04 238.11 124.74 235.97 125.91 C 232.06 124.27 236.13 120.81 237.71 119.02 C 236.73 118.33 235.76 117.64 234.80 116.95 C 233.16 118.34 231.52 119.73 229.87 121.12 C 228.99 120.43 228.11 119.74 227.24 119.05 C 228.49 117.44 229.78 115.85 231.07 114.27 C 230.50 113.81 229.38 112.91 228.81 112.45 C 226.75 113.61 224.93 116.84 222.29 115.66 C 220.46 113.34 223.87 111.56 224.93 109.70 C 224.25 109.07 223.56 108.45 222.88 107.82 C 221.27 109.06 219.67 110.32 218.06 111.56 C 217.43 111.11 216.16 110.20 215.53 109.75 C 216.70 108.13 217.91 106.52 219.10 104.91 C 218.35 104.22 217.60 103.54 216.86 102.85 C 215.52 103.90 214.19 104.96 212.86 106.01 C 212.01 105.38 211.16 104.76 210.31 104.13 C 211.26 102.71 212.23 101.29 213.19 99.88 C 212.28 99.17 211.38 98.45 210.48 97.74 C 208.79 98.61 207.22 100.66 205.12 99.82 C 203.73 97.81 205.95 96.15 206.80 94.46 C 205.65 93.52 204.51 92.57 203.36 91.63 C 200.42 93.46 197.40 95.17 194.34 96.80 M 217.97 217.96 C 208.00 223.98 201.58 235.31 201.87 247.00 C 201.99 282.53 201.69 318.06 202.03 353.58 C 215.92 353.44 229.81 353.79 243.70 353.40 C 237.56 344.35 227.94 337.34 224.80 326.51 C 222.35 318.32 226.82 310.61 229.87 303.29 C 233.56 306.94 234.16 312.13 233.57 317.06 C 232.79 322.00 236.91 325.48 239.84 328.81 C 240.96 321.49 242.44 314.03 241.51 306.61 C 240.08 298.78 238.41 290.93 238.24 282.95 C 238.23 280.64 238.35 277.91 240.37 276.38 C 243.53 275.13 245.26 278.77 245.88 281.25 C 247.97 290.59 248.44 300.52 253.01 309.14 C 259.73 299.17 259.27 286.47 259.73 274.95 C 259.50 272.65 261.72 271.42 263.06 269.93 C 268.71 274.55 267.40 282.53 267.28 288.97 C 267.30 295.62 265.10 302.04 265.25 308.70 C 272.55 301.30 271.68 289.81 273.25 280.25 C 273.39 277.70 275.54 276.09 277.19 274.43 C 283.25 285.97 277.16 299.28 275.37 311.20 C 283.76 307.58 279.08 295.38 286.13 291.05 C 288.78 293.99 287.75 298.39 287.78 302.00 C 287.56 310.55 280.44 316.73 279.38 325.04 C 277.74 334.63 276.00 344.22 273.32 353.59 C 282.47 353.55 291.62 353.55 300.77 353.59 C 300.81 317.37 300.83 281.15 300.76 244.93 C 299.71 225.57 281.12 210.88 262.60 209.48 C 247.43 208.84 231.25 209.87 217.97 217.96 M 133.23 357.70 C 133.25 360.36 133.27 363.04 133.28 365.71 C 163.05 365.74 192.82 365.62 222.58 365.77 C 223.80 370.75 218.23 369.77 214.99 369.81 C 187.74 369.72 160.49 369.73 133.24 369.81 C 133.26 372.05 133.27 374.31 133.29 376.56 C 151.18 376.70 169.08 376.19 186.96 376.83 C 186.82 378.05 186.68 379.28 186.53 380.51 C 168.77 380.80 151.00 380.45 133.23 380.69 C 133.26 383.70 133.27 386.71 133.27 389.73 C 140.80 389.95 148.37 389.27 155.87 390.01 C 157.97 389.96 157.84 393.71 155.74 393.61 C 148.27 394.16 140.75 393.59 133.26 393.85 C 133.27 396.86 133.27 399.87 133.25 402.89 C 144.83 402.97 156.43 402.61 168.00 403.01 C 169.95 402.91 169.63 405.43 170.18 406.67 C 157.89 407.35 145.58 406.70 133.28 407.04 C 133.27 409.85 133.24 412.67 133.18 415.49 C 150.40 414.82 167.68 415.16 184.91 415.27 C 187.12 414.83 186.67 417.46 187.21 418.83 C 169.23 419.39 151.15 419.64 133.19 418.69 C 133.24 421.55 133.26 424.40 133.27 427.27 C 141.00 427.45 148.73 427.15 156.46 427.50 C 156.56 428.67 156.66 429.84 156.77 431.02 C 148.96 431.74 141.12 431.26 133.29 431.37 C 133.27 433.64 133.26 435.90 133.24 438.18 C 215.08 438.25 296.91 438.25 378.74 438.18 C 378.74 435.76 378.73 433.35 378.74 430.94 C 372.57 430.64 366.37 431.29 360.23 430.63 C 358.52 430.42 359.02 428.26 358.63 427.11 C 365.32 426.59 372.04 426.85 378.74 426.79 C 378.74 424.43 378.74 422.07 378.76 419.72 C 362.84 419.52 346.91 419.81 331.00 419.60 C 328.61 420.15 328.88 417.30 328.29 415.82 C 345.09 415.33 361.90 415.72 378.70 415.61 C 378.72 412.61 378.75 409.60 378.79 406.60 C 366.60 406.30 354.40 406.71 342.22 406.43 C 339.66 407.10 338.44 402.31 341.46 402.65 C 353.87 402.02 366.34 402.72 378.77 402.34 C 378.75 399.83 378.74 397.32 378.73 394.81 C 371.73 394.45 364.67 395.36 357.73 394.32 C 357.53 393.15 357.49 391.95 357.44 390.78 C 364.53 390.65 371.62 390.71 378.71 390.71 C 378.72 387.70 378.74 384.69 378.77 381.68 C 361.36 381.42 343.94 381.82 326.52 381.48 C 326.37 380.26 326.23 379.05 326.10 377.84 C 343.62 377.17 361.18 377.71 378.71 377.56 C 378.72 374.98 378.73 372.39 378.75 369.81 C 350.11 369.42 321.44 370.33 292.83 369.35 C 292.94 368.49 293.17 366.76 293.29 365.90 C 321.76 365.44 350.24 365.83 378.71 365.71 C 378.72 363.04 378.74 360.37 378.77 357.70 C 343.17 357.56 307.57 357.60 271.97 357.68 C 271.70 360.15 271.44 362.62 271.21 365.10 C 273.63 365.21 276.06 365.33 278.49 365.50 C 278.58 366.62 278.66 367.74 278.75 368.87 C 276.25 369.11 273.75 369.28 271.25 369.48 C 271.36 372.15 271.45 374.83 271.55 377.51 C 279.65 377.69 287.76 377.23 295.85 377.86 C 295.72 379.06 295.59 380.26 295.46 381.46 C 287.57 381.75 279.67 381.52 271.77 381.64 C 272.01 384.71 272.26 387.78 272.49 390.86 C 278.27 390.82 284.05 390.71 289.82 391.17 C 289.79 392.35 289.77 393.53 289.74 394.72 C 268.34 395.06 246.93 394.98 225.54 394.76 C 225.68 393.58 225.88 392.42 226.15 391.27 C 232.76 390.32 239.47 391.07 246.12 390.82 C 246.34 387.76 246.52 384.69 246.68 381.62 C 237.85 381.47 229.01 381.82 220.19 381.52 C 217.95 381.88 217.93 379.32 217.46 377.84 C 227.15 377.23 236.87 377.67 246.57 377.56 C 246.50 374.85 246.43 372.16 246.37 369.46 C 243.31 369.37 240.21 369.49 237.21 368.80 C 235.17 363.57 243.16 365.60 246.08 365.14 C 245.77 362.63 245.48 360.13 245.18 357.63 C 207.86 357.66 170.55 357.53 133.23 357.70 Z" />
<path fill="#2a2a2a" opacity="1.00" d=" M 233.06 49.91 C 234.04 48.99 235.04 48.07 236.04 47.16 C 238.38 49.61 240.59 52.18 242.78 54.75 C 245.07 51.98 247.47 49.30 250.16 46.91 C 255.16 51.26 246.66 54.72 246.36 58.73 C 247.54 62.06 254.28 65.51 250.71 68.89 C 246.92 68.90 245.30 64.23 242.83 61.90 C 240.38 64.19 236.57 72.20 233.38 67.02 C 234.97 63.73 237.58 61.12 239.85 58.31 C 237.51 55.57 235.22 52.78 233.06 49.91 Z" />
<path fill="#2a2a2a" opacity="1.00" d=" M 257.50 48.50 C 261.52 46.13 263.71 52.64 266.33 54.76 C 268.55 52.22 270.76 49.66 273.09 47.21 C 274.11 48.09 275.13 48.99 276.14 49.88 C 273.97 52.77 271.67 55.55 269.32 58.29 C 271.05 61.29 279.21 67.02 273.12 69.11 C 270.44 67.16 268.47 64.45 266.33 61.96 C 264.17 64.54 261.99 67.09 259.74 69.59 C 253.82 66.59 261.42 61.60 263.41 58.29 C 261.46 55.19 256.64 52.49 257.50 48.50 Z" />
<path fill="#2a2a2a" opacity="1.00" d=" M 272.38 152.69 C 276.52 151.75 278.59 148.09 280.61 144.73 C 281.98 148.93 285.02 151.90 289.18 153.33 C 287.41 154.63 285.50 155.74 283.54 156.72 C 282.58 158.62 281.67 160.54 280.73 162.44 C 278.62 159.09 276.51 155.41 272.37 154.37 C 272.37 153.95 272.38 153.11 272.38 152.69 Z" />
<path fill="#2a2a2a" opacity="1.00" d=" M 244.17 178.10 C 245.14 176.11 246.19 174.11 247.95 172.70 C 248.97 176.84 252.03 179.44 255.80 181.08 C 252.58 183.67 248.80 185.77 247.66 190.21 C 246.35 188.43 245.24 186.52 244.26 184.55 C 242.36 183.60 240.44 182.68 238.55 181.72 C 240.29 180.33 242.21 179.17 244.17 178.10 Z" />
<path fill="#2a2a2a" opacity="1.00" d=" M 269.41 181.83 C 273.05 180.57 275.10 177.50 276.39 174.03 C 278.52 177.24 280.35 181.02 284.53 181.83 C 284.60 182.31 284.76 183.28 284.83 183.77 C 283.22 184.44 281.61 185.12 280.01 185.82 C 278.97 187.86 277.84 189.86 276.49 191.72 C 275.03 189.20 274.22 185.86 271.11 184.87 C 269.93 184.49 267.35 182.83 269.41 181.83 Z" />
<path fill="#2a2a2a" opacity="1.00" d=" M 305.43 377.65 C 309.33 377.31 313.35 377.11 317.21 377.86 C 318.95 378.63 318.16 380.08 317.33 381.24 C 313.41 381.82 309.38 381.81 305.45 381.35 C 303.13 381.44 303.27 377.67 305.43 377.65 Z" />
<path fill="#2a2a2a" opacity="1.00" d=" M 194.14 377.85 C 199.00 377.45 203.89 377.39 208.75 377.80 C 208.13 384.66 199.19 380.63 194.53 381.45 C 194.39 380.25 194.26 379.05 194.14 377.85 Z" />
<path fill="#2a2a2a" opacity="1.00" d=" M 161.31 390.90 C 176.44 390.57 191.58 390.58 206.71 390.90 C 206.20 392.47 206.52 395.31 204.02 394.70 C 190.68 394.81 177.32 394.82 163.98 394.69 C 161.50 395.29 161.82 392.46 161.31 390.90 Z" />
<path fill="#2a2a2a" opacity="1.00" d=" M 308.32 390.95 C 322.44 390.50 336.57 390.61 350.69 390.90 C 350.16 392.46 350.48 395.29 348.01 394.69 C 334.65 394.61 321.25 395.27 307.92 394.30 C 308.02 393.46 308.22 391.79 308.32 390.95 Z" />
<path fill="#2a2a2a" opacity="1.00" d=" M 180.49 402.45 C 185.18 402.10 189.91 402.08 194.60 402.50 C 194.47 403.71 194.34 404.91 194.20 406.12 C 189.58 406.37 184.94 406.33 180.33 405.87 C 180.38 404.73 180.43 403.59 180.49 402.45 Z" />
<path fill="#2a2a2a" opacity="1.00" d=" M 201.55 402.64 C 237.84 402.38 274.15 402.38 310.45 402.64 C 310.45 403.88 310.45 405.13 310.46 406.38 C 274.16 406.68 237.84 406.68 201.54 406.38 C 201.54 405.13 201.54 403.88 201.55 402.64 Z" />
<path fill="#2a2a2a" opacity="1.00" d=" M 317.51 406.13 C 316.76 399.09 327.13 403.15 331.51 402.47 C 331.56 403.60 331.62 404.73 331.67 405.87 C 326.96 406.34 322.23 406.36 317.51 406.13 Z" />
<path fill="#2a2a2a" opacity="1.00" d=" M 196.20 415.79 C 201.05 415.45 205.92 415.47 210.75 416.02 C 210.64 417.16 210.52 418.31 210.41 419.46 C 205.78 418.69 196.56 422.76 196.20 415.79 Z" />
<path fill="#2a2a2a" opacity="1.00" d=" M 218.31 415.97 C 243.42 415.60 268.57 415.60 293.69 415.97 C 293.82 416.82 294.08 418.52 294.21 419.37 C 268.78 420.14 243.23 420.13 217.80 419.38 C 217.93 418.52 218.18 416.82 218.31 415.97 Z" />
<path fill="#2a2a2a" opacity="1.00" d=" M 304.16 416.10 C 308.62 415.07 313.25 415.66 317.77 415.84 C 317.83 416.70 317.95 418.42 318.01 419.28 C 313.57 419.59 309.03 420.21 304.62 419.32 C 303.44 418.45 303.29 417.37 304.16 416.10 Z" />
<path fill="#2a2a2a" opacity="1.00" d=" M 167.17 427.12 C 226.82 426.44 286.51 426.88 346.18 426.90 C 346.33 428.11 346.49 429.33 346.64 430.55 C 286.88 431.19 227.07 430.90 167.30 430.69 C 167.25 429.50 167.21 428.31 167.17 427.12 Z" />
<path fill="#2a2a2a" opacity="1.00" d=" M 157.41 454.44 C 161.07 454.19 164.75 454.22 168.41 454.48 C 168.23 461.02 170.82 469.90 164.21 474.14 C 158.18 478.32 148.96 472.61 150.24 465.34 C 152.16 462.17 154.67 465.51 155.16 467.77 C 156.00 471.73 161.79 472.01 163.50 468.59 C 164.66 465.49 164.07 462.06 164.20 458.82 C 161.95 458.69 159.70 458.55 157.46 458.39 C 157.43 457.07 157.42 455.75 157.41 454.44 Z" />
<path fill="#2a2a2a" opacity="1.00" d=" M 175.11 453.83 C 181.37 454.35 178.24 461.88 179.12 466.04 C 178.45 471.11 186.40 472.91 188.10 468.20 C 189.00 463.48 188.23 458.59 189.10 453.84 C 195.24 454.33 192.64 461.96 193.00 466.08 C 193.46 473.10 184.75 478.13 178.94 474.13 C 172.28 469.70 174.66 460.51 175.11 453.83 Z" />
<path fill="#2a2a2a" opacity="1.00" d=" M 199.29 455.26 C 201.88 453.21 205.77 454.33 208.86 454.43 C 216.34 455.47 220.12 465.47 215.30 471.26 C 211.66 476.44 204.71 475.72 199.20 475.20 C 198.99 468.57 198.45 461.87 199.29 455.26 M 203.44 471.17 C 207.19 471.26 212.16 470.49 212.85 465.98 C 213.94 460.96 208.50 457.61 204.03 458.62 C 202.67 462.59 203.66 467.02 203.44 471.17 Z" />
<path fill="#2a2a2a" opacity="1.00" d=" M 227.79 454.90 C 232.26 452.86 241.60 455.08 239.35 461.49 C 235.77 460.36 231.49 456.96 227.95 459.99 C 223.92 462.77 225.39 469.80 230.16 470.80 C 233.28 471.84 235.79 469.44 237.82 467.45 C 235.08 467.18 232.33 466.97 229.59 466.73 C 228.93 460.19 237.78 462.78 241.90 463.10 C 244.64 471.66 233.13 479.01 226.08 473.89 C 218.76 469.74 219.90 457.73 227.79 454.90 Z" />
<path fill="#2a2a2a" opacity="1.00" d=" M 247.45 454.46 C 253.41 454.11 259.38 454.16 265.34 454.34 C 265.22 455.75 265.19 457.17 265.26 458.59 C 260.79 458.69 256.31 458.66 251.84 458.68 C 251.73 459.96 251.62 461.25 251.51 462.54 C 255.69 463.07 262.17 460.61 263.61 466.11 C 259.73 467.21 255.69 467.31 251.69 467.13 C 251.69 468.42 251.69 469.72 251.69 471.03 C 256.34 472.00 265.94 467.95 265.72 475.28 C 259.69 475.62 253.65 475.57 247.62 475.40 C 246.92 468.44 247.12 461.43 247.45 454.46 Z" />
<path fill="#2a2a2a" opacity="1.00" d=" M 270.42 466.99 C 270.99 462.53 268.85 456.94 272.62 453.49 C 275.52 456.12 278.30 458.88 281.07 461.65 C 283.84 458.97 286.58 456.25 289.36 453.58 C 293.62 456.62 291.15 462.59 291.82 467.00 C 291.56 469.97 293.10 476.73 287.98 475.29 C 286.74 471.03 287.43 466.53 287.26 462.17 C 285.24 463.77 283.61 466.21 281.08 466.98 C 278.58 466.14 276.96 463.76 274.97 462.14 C 274.91 466.53 274.91 470.93 274.73 475.33 C 269.26 476.73 270.58 470.45 270.42 466.99 Z" />
<path fill="#2a2a2a" opacity="1.00" d=" M 297.74 454.64 C 303.63 454.15 309.61 453.79 315.50 454.58 C 316.13 455.78 316.48 457.26 315.32 458.29 C 310.96 459.06 306.51 458.59 302.11 458.71 C 302.14 460.00 302.18 461.29 302.22 462.60 C 305.64 462.95 315.19 460.69 312.71 466.61 C 309.26 467.43 305.68 467.13 302.16 467.17 C 302.16 468.43 302.15 469.69 302.15 470.96 C 306.87 470.87 311.60 470.94 316.28 471.59 C 316.15 472.50 315.87 474.31 315.73 475.22 C 309.88 475.43 303.92 476.13 298.13 474.96 C 297.09 468.24 297.85 461.40 297.74 454.64 Z" />
<path fill="#2a2a2a" opacity="1.00" d=" M 321.37 455.30 C 322.11 453.31 324.36 454.33 325.31 455.55 C 328.65 459.15 331.52 463.16 334.86 466.76 C 334.81 462.50 334.82 458.21 335.76 454.03 C 336.59 454.14 338.24 454.36 339.06 454.47 C 339.51 461.27 340.03 468.19 338.94 474.95 C 338.43 475.12 337.41 475.47 336.91 475.65 C 332.46 472.00 329.42 466.99 325.55 462.79 C 325.44 466.86 325.74 470.98 324.95 475.00 C 323.78 475.66 321.20 475.79 321.22 473.93 C 320.78 467.75 320.53 461.44 321.37 455.30 Z" />
<path fill="#2a2a2a" opacity="1.00" d=" M 343.99 454.37 C 349.99 454.14 356.01 454.14 362.02 454.40 C 362.96 459.07 358.51 458.82 355.18 458.91 C 355.04 464.19 355.71 469.56 354.69 474.78 C 353.54 475.72 352.37 475.74 351.18 474.84 C 350.11 469.64 350.85 464.27 350.70 459.00 C 347.47 458.64 342.36 459.15 343.99 454.37 Z" />
</g>
</svg>
