<?xml version="1.0" encoding="UTF-8" ?>
<!DOCTYPE svg PUBLIC "-//W3C//DTD SVG 1.1//EN" "http://www.w3.org/Graphics/SVG/1.1/DTD/svg11.dtd">
<svg width="120pt" height="120pt" viewBox="0 0 512 512" version="1.1" xmlns="http://www.w3.org/2000/svg">
<g id="#2a2a2afd">
<path fill="#2a2a2a" opacity="1.00" d=" M 132.36 21.47 C 213.91 21.12 295.48 21.44 377.04 21.32 C 385.73 20.73 393.87 28.26 393.63 37.03 C 393.66 183.01 393.67 328.99 393.63 474.97 C 393.86 483.74 385.73 491.27 377.04 490.68 C 296.04 490.65 215.03 490.71 134.03 490.65 C 125.66 490.81 118.15 483.36 118.37 474.97 C 118.31 329.31 118.38 183.63 118.34 37.97 C 117.80 29.90 124.24 22.10 132.36 21.47 M 131.45 25.75 C 125.91 26.85 122.05 32.42 122.41 37.97 C 122.42 183.32 122.42 328.68 122.41 474.03 C 121.84 480.92 128.03 487.17 134.93 486.59 C 215.64 486.59 296.36 486.59 377.07 486.59 C 383.97 487.17 390.15 480.92 389.59 474.03 C 389.55 328.37 389.63 182.71 389.55 37.05 C 389.75 30.00 382.87 24.51 376.05 25.38 C 294.52 25.67 212.94 24.95 131.45 25.75 Z" />
<path fill="#2a2a2a" opacity="1.00" d=" M 132.42 32.55 C 212.90 31.71 293.49 32.49 374.01 32.15 C 376.81 32.27 380.71 31.69 382.19 34.76 C 383.31 38.38 382.65 42.27 382.79 46.00 C 382.74 176.67 382.84 307.35 382.76 438.02 C 383.18 440.78 380.61 442.64 378.04 442.28 C 296.68 442.32 215.32 442.31 133.96 442.29 C 131.34 442.67 128.76 440.85 129.23 438.03 C 129.15 305.00 129.25 171.96 129.18 38.93 C 129.08 36.47 129.61 33.26 132.42 32.55 M 133.33 36.31 C 133.27 37.61 133.22 38.90 133.16 40.20 C 140.51 40.63 147.90 39.90 155.23 40.73 C 155.14 41.58 154.98 43.29 154.90 44.14 C 147.70 44.65 140.48 44.32 133.28 44.39 C 133.28 46.06 133.28 47.74 133.28 49.41 C 135.59 49.50 137.89 49.60 140.20 49.73 C 140.20 50.63 140.21 52.41 140.21 53.30 C 137.81 53.44 135.41 53.55 133.01 53.66 C 133.00 57.95 135.95 61.17 138.25 64.47 C 141.21 60.34 143.92 55.89 148.10 52.84 C 151.77 57.16 153.44 62.64 154.69 68.06 C 157.76 65.38 161.00 62.88 164.34 60.54 C 165.45 52.49 166.05 44.38 166.14 36.25 C 155.20 36.27 144.27 36.17 133.33 36.31 M 170.30 36.24 C 169.77 60.66 165.72 85.83 153.14 107.14 C 151.28 110.44 152.09 114.39 151.92 118.00 C 151.91 224.73 151.73 331.46 151.76 438.19 C 221.15 438.23 290.53 438.25 359.91 438.18 C 360.01 329.78 359.83 221.37 360.08 112.97 C 360.51 107.75 356.54 103.84 354.71 99.30 C 345.83 79.59 342.63 57.76 342.48 36.29 C 285.09 36.19 227.69 36.28 170.30 36.24 M 346.64 36.20 C 346.50 43.07 347.03 49.93 347.70 56.77 C 347.54 62.95 354.68 64.76 358.15 68.76 C 359.54 63.33 359.64 57.00 363.87 52.83 C 367.67 56.43 370.54 60.83 373.09 65.37 C 381.30 57.68 378.28 46.28 378.67 36.31 C 368.00 36.15 357.32 36.33 346.64 36.20 M 147.34 58.84 C 144.84 62.27 141.82 65.69 141.07 69.99 C 141.58 74.14 143.07 78.10 143.89 82.19 C 145.56 79.76 147.31 77.38 148.97 74.95 C 152.63 70.04 149.31 63.76 147.34 58.84 M 364.41 59.67 C 363.22 64.18 361.72 68.90 362.52 73.61 C 363.92 76.71 366.17 79.32 368.05 82.14 C 368.76 78.44 370.07 74.86 370.52 71.12 C 369.88 66.74 367.03 63.09 364.41 59.67 M 133.39 64.63 C 133.11 74.62 133.33 84.63 133.27 94.63 C 135.67 95.04 138.09 95.78 138.19 98.64 C 136.54 98.95 134.90 99.26 133.26 99.56 C 133.27 101.56 133.28 103.56 133.29 105.56 C 138.66 105.56 144.03 105.57 149.41 105.52 C 156.41 93.52 160.91 80.14 163.21 66.47 C 154.68 72.39 148.81 81.27 144.50 90.56 C 144.12 92.63 140.43 93.23 140.66 90.58 C 139.72 81.62 138.30 72.40 133.39 64.63 M 370.89 92.15 C 368.38 93.28 367.35 90.32 366.48 88.62 C 362.60 80.17 356.91 72.45 349.40 66.90 C 351.44 80.41 355.84 93.63 362.61 105.51 C 367.97 105.57 373.33 105.56 378.69 105.56 C 378.68 91.88 378.88 78.19 378.58 64.51 C 373.03 72.70 372.45 82.75 370.89 92.15 M 133.30 109.59 C 133.27 113.01 133.25 116.43 133.25 119.84 C 138.12 119.85 142.98 119.85 147.85 119.84 C 147.86 116.42 147.85 113.01 147.82 109.59 C 142.98 109.64 138.14 109.64 133.30 109.59 M 364.18 109.59 C 364.14 113.01 364.13 116.42 364.13 119.84 C 369.00 119.85 373.87 119.85 378.74 119.86 C 378.73 116.43 378.71 113.01 378.68 109.59 C 373.84 109.64 369.01 109.64 364.18 109.59 M 133.27 123.99 C 133.26 125.91 133.25 127.82 133.23 129.74 C 136.08 130.05 139.80 129.85 139.32 133.77 C 137.29 134.01 135.25 134.23 133.21 134.42 C 133.24 136.05 133.28 137.68 133.31 139.31 C 135.25 139.44 137.18 139.58 139.11 139.74 C 139.08 140.59 139.01 142.28 138.98 143.13 C 137.08 143.30 135.18 143.45 133.29 143.60 C 133.27 145.24 133.26 146.87 133.25 148.51 C 135.26 148.67 137.27 148.84 139.27 149.04 C 140.18 152.98 136.00 152.75 133.32 153.02 C 133.32 154.62 133.32 156.23 133.33 157.83 C 135.24 157.98 137.14 158.14 139.05 158.30 C 139.05 159.42 139.04 160.54 139.03 161.66 C 137.13 161.82 135.22 161.97 133.32 162.13 C 133.32 163.73 133.32 165.33 133.33 166.94 C 136.22 167.09 139.79 166.96 139.35 170.86 C 137.31 171.08 135.27 171.28 133.23 171.45 C 133.25 173.08 133.28 174.72 133.30 176.36 C 135.22 176.49 137.14 176.63 139.05 176.80 C 139.06 177.65 139.07 179.37 139.07 180.22 C 137.15 180.38 135.22 180.52 133.30 180.65 C 133.28 182.28 133.25 183.91 133.23 185.55 C 135.27 185.72 137.30 185.92 139.34 186.16 C 139.79 190.06 136.24 189.93 133.33 190.06 C 133.32 191.66 133.31 193.27 133.31 194.88 C 135.18 195.02 137.05 195.16 138.92 195.32 C 138.96 196.44 139.00 197.57 139.04 198.69 C 137.09 198.91 135.14 199.11 133.19 199.30 C 133.24 200.93 133.28 202.56 133.33 204.19 C 135.28 204.33 137.22 204.49 139.17 204.67 C 139.10 205.52 138.97 207.21 138.91 208.05 C 137.03 208.21 135.14 208.35 133.26 208.49 C 133.27 210.13 133.27 211.78 133.28 213.42 C 135.18 213.57 137.08 213.72 138.98 213.89 C 139.01 214.74 139.08 216.43 139.12 217.28 C 137.19 217.44 135.26 217.60 133.32 217.73 C 133.28 219.35 133.24 220.97 133.19 222.60 C 135.24 222.80 137.28 223.03 139.32 223.27 C 139.85 227.18 136.00 226.93 133.23 227.30 C 133.23 228.76 133.23 230.23 133.22 231.70 C 136.02 232.06 139.83 231.83 139.33 235.74 C 137.29 235.98 135.24 236.20 133.20 236.41 C 133.24 238.03 133.28 239.65 133.32 241.28 C 135.25 241.42 137.19 241.57 139.12 241.74 C 139.09 242.58 139.02 244.27 138.98 245.12 C 137.08 245.28 135.18 245.43 133.28 245.58 C 133.27 247.21 133.27 248.85 133.26 250.49 C 135.28 250.65 137.30 250.83 139.32 251.03 C 139.96 254.93 136.07 254.85 133.32 255.01 C 133.32 256.62 133.32 258.22 133.33 259.83 C 135.24 259.97 137.15 260.13 139.06 260.30 C 139.02 261.42 138.98 262.55 138.93 263.68 C 137.06 263.84 135.19 263.98 133.32 264.12 C 133.32 265.72 133.32 267.32 133.32 268.93 C 136.19 269.09 139.83 268.94 139.34 272.86 C 137.30 273.08 135.27 273.28 133.23 273.46 C 133.25 275.09 133.28 276.72 133.30 278.36 C 135.22 278.49 137.14 278.63 139.07 278.79 C 139.06 279.65 139.06 281.36 139.06 282.22 C 137.14 282.37 135.22 282.51 133.30 282.65 C 133.28 284.28 133.25 285.91 133.23 287.55 C 135.27 287.72 137.30 287.92 139.34 288.15 C 139.80 292.06 136.24 291.92 133.33 292.08 C 133.32 293.68 133.31 295.28 133.31 296.88 C 135.18 297.02 137.06 297.16 138.93 297.32 C 138.96 298.44 139.00 299.56 139.03 300.69 C 137.08 300.91 135.14 301.11 133.19 301.30 C 133.24 302.93 133.28 304.56 133.33 306.19 C 135.28 306.33 137.22 306.48 139.17 306.67 C 139.10 307.51 138.97 309.20 138.91 310.05 C 137.03 310.20 135.14 310.35 133.26 310.50 C 133.27 312.14 133.27 313.78 133.28 315.43 C 135.17 315.57 137.07 315.72 138.97 315.89 C 139.01 316.73 139.08 318.43 139.12 319.27 C 137.18 319.44 135.25 319.60 133.31 319.74 C 133.27 321.35 133.24 322.97 133.20 324.60 C 135.23 324.80 137.27 325.02 139.30 325.26 C 139.93 329.16 135.93 328.93 133.23 329.31 C 133.23 330.77 133.23 332.24 133.23 333.71 C 136.06 334.05 139.80 333.82 139.33 337.74 C 137.29 337.98 135.24 338.20 133.20 338.41 C 133.24 340.03 133.28 341.65 133.32 343.28 C 135.26 343.41 137.19 343.56 139.13 343.74 C 139.09 344.58 139.00 346.27 138.96 347.12 C 137.07 347.28 135.17 347.43 133.28 347.58 C 133.27 349.22 133.27 350.85 133.26 352.50 C 135.30 352.65 137.35 352.83 139.39 353.04 C 139.69 356.91 136.27 356.90 133.32 356.98 C 133.32 358.59 133.32 360.21 133.33 361.83 C 135.24 361.97 137.15 362.13 139.06 362.29 C 139.01 363.42 138.97 364.55 138.92 365.68 C 137.05 365.84 135.19 365.97 133.32 366.12 C 133.32 367.72 133.32 369.32 133.32 370.93 C 136.22 371.08 139.80 370.94 139.34 374.85 C 137.31 375.08 135.27 375.28 133.23 375.46 C 133.25 377.09 133.28 378.73 133.30 380.37 C 135.22 380.49 137.14 380.63 139.07 380.78 C 139.07 381.64 139.06 383.36 139.06 384.21 C 137.14 384.37 135.22 384.51 133.30 384.65 C 133.28 386.28 133.25 387.91 133.23 389.55 C 135.27 389.72 137.30 389.91 139.34 390.14 C 139.83 394.05 136.19 393.91 133.33 394.09 C 133.32 395.68 133.31 397.28 133.32 398.88 C 135.18 399.02 137.06 399.16 138.93 399.32 C 138.96 400.44 138.99 401.56 139.03 402.69 C 137.08 402.90 135.13 403.10 133.19 403.30 C 133.24 404.93 133.28 406.56 133.33 408.19 C 135.28 408.33 137.24 408.48 139.19 408.66 C 139.11 409.51 138.96 411.20 138.88 412.05 C 137.01 412.21 135.14 412.35 133.26 412.50 C 133.27 414.14 133.27 415.78 133.27 417.43 C 135.17 417.57 137.07 417.71 138.96 417.88 C 139.00 418.73 139.08 420.42 139.12 421.27 C 137.18 421.43 135.25 421.59 133.32 421.73 C 133.28 423.35 133.24 424.97 133.20 426.60 C 135.24 426.80 137.29 427.02 139.33 427.26 C 139.80 431.16 136.19 430.94 133.31 431.14 C 133.30 433.49 133.29 435.84 133.29 438.20 C 138.09 438.27 142.88 438.25 147.68 438.10 C 147.69 333.38 147.82 228.67 147.83 123.96 C 142.98 123.82 138.12 123.82 133.27 123.99 M 364.15 123.95 C 364.01 228.70 364.07 333.44 364.06 438.18 C 368.95 438.26 373.84 438.25 378.74 438.14 C 378.72 333.42 378.73 228.71 378.71 124.00 C 373.86 123.82 369.00 123.82 364.15 123.95 Z" />
<path fill="#2a2a2a" opacity="1.00" d=" M 247.52 48.15 C 247.29 46.17 251.68 45.73 251.24 47.95 C 251.64 55.92 251.62 63.95 251.11 71.92 C 249.91 71.78 248.71 71.64 247.52 71.49 C 247.37 63.71 247.18 55.92 247.52 48.15 Z" />
<path fill="#2a2a2a" opacity="1.00" d=" M 260.76 47.96 C 260.31 45.73 264.70 46.18 264.48 48.15 C 264.82 55.92 264.63 63.71 264.48 71.48 C 263.28 71.64 262.09 71.78 260.89 71.93 C 260.37 63.96 260.36 55.93 260.76 47.96 Z" />
<path fill="#2a2a2a" opacity="1.00" d=" M 248.17 94.48 C 252.38 93.78 253.94 90.09 256.00 86.92 C 258.17 90.00 259.57 93.82 263.85 94.44 C 263.85 94.97 263.85 96.02 263.85 96.54 C 260.11 97.26 258.05 100.10 256.73 103.45 C 253.39 102.57 252.97 96.56 248.17 96.50 C 248.17 96.00 248.17 94.98 248.17 94.48 Z" />
<path fill="#2a2a2a" opacity="1.00" d=" M 182.25 110.61 C 186.46 109.99 187.99 106.21 190.00 103.04 C 192.03 106.19 193.54 109.99 197.75 110.60 C 197.81 111.13 197.94 112.18 198.00 112.70 C 196.33 113.41 194.67 114.12 193.02 114.85 C 191.99 116.60 191.98 119.90 189.33 119.88 C 188.39 118.28 187.71 116.54 186.98 114.84 C 185.33 114.11 183.68 113.40 182.02 112.68 C 182.08 112.16 182.20 111.13 182.25 110.61 Z" />
<path fill="#2a2a2a" opacity="1.00" d=" M 314.25 110.60 C 318.47 109.99 319.95 106.17 322.01 103.05 C 324.00 106.22 325.54 109.99 329.75 110.61 C 329.80 111.13 329.92 112.16 329.98 112.68 C 328.29 113.40 326.61 114.12 324.94 114.85 C 324.17 116.73 323.38 118.60 322.56 120.45 C 320.68 119.08 319.70 116.99 318.97 114.85 C 317.32 114.11 315.66 113.41 314.00 112.70 C 314.06 112.18 314.19 111.13 314.25 110.60 Z" />
<path fill="#2a2a2a" opacity="1.00" d=" M 234.67 143.98 C 235.91 133.43 245.14 124.33 256.00 124.60 C 266.86 124.30 276.08 133.44 277.33 143.98 C 285.98 135.40 299.11 132.87 310.76 135.36 C 312.46 135.46 312.52 137.36 313.14 138.55 C 304.80 140.92 296.18 145.08 292.17 153.24 C 288.97 159.94 286.92 168.06 288.72 175.31 C 317.99 209.05 332.67 252.88 339.49 296.41 C 342.66 287.56 342.72 278.08 343.28 268.82 C 347.43 268.41 347.84 272.98 348.95 275.90 C 356.27 298.47 355.05 323.68 345.38 345.37 C 334.85 369.35 314.30 388.69 289.69 397.66 C 266.26 406.38 239.47 405.55 216.64 395.37 C 193.79 385.35 175.16 366.25 165.68 343.18 C 156.21 320.34 155.82 293.82 164.92 270.82 C 165.32 269.00 167.27 269.06 168.73 268.86 C 169.30 277.73 169.24 286.82 172.20 295.32 C 178.65 255.02 191.76 214.64 217.18 182.16 C 219.58 178.61 224.14 175.86 223.88 171.09 C 223.95 161.73 221.02 151.59 213.50 145.50 C 209.42 141.99 204.19 140.38 199.20 138.66 C 199.32 137.65 199.45 136.64 199.58 135.64 C 211.71 132.84 225.58 134.90 234.67 143.98 M 250.40 129.60 C 243.26 132.01 238.18 139.49 238.90 147.05 C 239.32 155.74 247.29 163.20 256.01 162.95 C 264.36 163.17 272.07 156.35 273.00 148.07 C 275.13 136.01 261.82 125.07 250.40 129.60 M 210.11 138.24 C 220.20 143.41 226.40 153.87 227.66 164.95 C 235.11 165.84 242.60 166.16 250.08 166.53 C 243.17 163.98 238.01 158.53 235.18 151.80 C 230.42 142.68 219.96 138.50 210.11 138.24 M 276.46 152.43 C 273.77 158.96 268.54 164.00 261.94 166.53 C 269.41 166.08 276.90 165.81 284.34 164.87 C 285.62 153.82 291.83 143.40 301.88 138.24 C 291.78 138.46 281.10 142.95 276.46 152.43 M 228.03 169.25 C 227.98 170.72 227.93 172.19 227.89 173.66 C 246.46 175.59 265.26 175.77 283.81 173.39 C 283.87 171.99 283.93 170.59 284.00 169.19 C 265.38 170.93 246.65 171.02 228.03 169.25 M 224.11 180.09 C 195.66 214.23 181.11 258.13 175.73 301.74 C 188.74 293.77 192.17 277.12 192.44 262.94 C 191.70 257.51 197.34 254.88 199.91 250.92 C 208.45 240.51 210.83 226.06 206.84 213.28 C 218.96 204.77 229.93 193.10 233.27 178.26 C 230.08 177.93 226.08 176.64 224.11 180.09 M 278.36 178.05 C 281.54 193.06 292.69 204.71 304.77 213.40 C 300.15 226.91 303.66 242.32 313.17 252.86 C 315.30 255.75 319.42 257.83 319.02 261.93 C 319.23 276.43 322.43 293.60 335.83 301.75 C 330.12 257.01 315.17 211.71 284.97 177.37 C 282.76 177.59 280.56 177.82 278.36 178.05 M 234.95 186.86 C 239.30 188.21 243.85 189.10 248.37 188.01 C 248.45 189.31 249.53 191.11 247.82 191.78 C 243.04 194.19 237.75 191.18 232.75 191.30 C 231.43 193.57 229.91 195.73 228.88 198.15 C 229.60 213.35 241.28 230.21 258.01 229.37 C 273.11 228.01 281.19 212.30 283.53 198.93 C 281.97 196.56 280.45 194.15 278.98 191.72 C 273.82 191.56 268.21 194.35 263.38 191.70 C 261.72 191.12 262.10 187.94 264.03 188.36 C 268.34 188.86 272.65 188.44 276.84 187.33 C 275.87 184.42 274.96 181.48 274.08 178.54 C 261.95 179.35 249.77 179.47 237.64 178.55 C 236.72 181.31 235.83 184.08 234.95 186.86 M 212.71 226.10 C 212.85 234.83 209.69 243.11 205.41 250.58 C 211.58 249.38 217.80 248.50 224.06 247.96 C 231.41 247.89 233.48 238.85 234.43 233.01 C 226.71 233.59 215.92 235.45 212.71 226.10 M 238.24 226.77 C 238.24 230.19 238.23 233.62 238.19 237.04 C 243.96 239.86 251.15 239.05 256.00 243.79 C 260.77 239.22 267.70 239.62 273.46 237.14 C 273.45 233.89 273.43 230.65 273.40 227.40 C 263.23 235.82 248.28 234.93 238.24 226.77 M 277.29 232.81 C 278.02 238.08 279.15 246.62 285.94 246.87 C 292.59 247.74 299.19 249.01 305.83 249.95 C 302.03 243.47 299.36 236.31 298.81 228.77 C 293.51 235.33 284.60 233.35 277.29 232.81 M 234.71 245.11 C 240.02 249.90 247.45 250.73 254.30 250.81 C 253.10 242.10 242.82 244.09 236.86 241.03 C 236.14 242.39 235.43 243.75 234.71 245.11 M 257.64 250.84 C 264.29 250.77 271.20 249.92 276.80 246.03 C 276.17 244.37 275.53 242.71 274.90 241.06 C 268.88 243.81 258.89 242.33 257.64 250.84 M 231.37 249.28 C 230.07 260.73 235.21 275.84 247.69 279.18 C 247.47 281.50 245.53 283.02 243.30 281.78 C 232.12 277.71 228.37 264.86 226.80 254.21 C 224.29 255.38 221.76 256.49 219.20 257.50 C 217.64 276.63 217.43 295.92 219.17 315.05 C 220.48 327.25 222.34 339.79 228.25 350.73 C 232.52 360.42 245.16 358.53 253.85 359.62 C 253.69 324.77 253.85 289.91 253.77 255.05 C 245.76 255.42 238.45 251.98 231.37 249.28 M 257.87 254.99 C 257.80 289.89 257.83 324.80 257.85 359.70 C 265.23 359.21 273.14 359.11 279.91 355.90 C 286.89 347.99 289.13 337.13 290.97 327.02 C 294.44 304.03 293.84 280.61 291.85 257.51 C 289.15 256.44 286.51 255.24 283.91 253.96 C 281.98 264.52 278.40 277.22 267.48 281.67 C 265.58 283.07 261.78 280.17 264.68 278.82 C 275.96 273.70 279.52 260.29 280.00 248.93 C 273.47 253.34 265.63 254.89 257.87 254.99 M 295.69 254.60 C 297.47 271.98 297.98 289.51 297.15 306.96 C 296.17 323.08 294.19 339.64 286.61 354.16 C 291.08 352.53 296.64 350.91 297.46 345.41 C 306.45 315.60 304.75 283.87 302.37 253.21 C 300.09 253.42 297.86 253.90 295.69 254.60 M 207.54 254.11 C 205.22 283.90 203.61 314.68 212.09 343.69 C 213.11 350.28 220.00 351.98 225.25 354.12 C 221.37 346.46 218.61 338.27 217.14 329.81 C 212.74 305.46 213.45 280.54 215.05 255.95 C 212.60 255.13 210.09 254.54 207.54 254.11 M 306.72 254.25 C 306.80 256.09 306.90 257.95 307.01 259.80 C 309.79 260.97 312.58 262.15 315.45 263.13 C 314.30 258.82 310.68 255.90 306.72 254.25 M 196.19 263.05 C 200.17 261.94 204.60 260.03 203.29 254.97 C 200.00 256.69 197.05 259.29 196.19 263.05 M 195.74 274.02 C 197.93 273.03 200.12 272.04 202.31 271.05 C 202.37 268.95 202.42 266.86 202.45 264.77 C 197.90 265.93 195.14 269.16 195.74 274.02 M 307.38 264.31 C 305.74 270.48 311.02 272.67 315.85 274.11 C 316.85 268.32 312.12 265.74 307.38 264.31 M 308.05 275.13 C 308.06 277.43 308.09 279.72 308.13 282.02 C 311.79 283.52 315.40 285.16 318.98 286.84 C 318.21 284.36 317.45 281.87 316.70 279.38 C 313.85 277.89 310.97 276.47 308.05 275.13 M 192.78 286.39 C 195.78 285.15 198.75 283.85 201.73 282.57 C 201.81 280.28 201.88 277.99 201.95 275.71 C 196.67 277.01 193.05 280.83 192.78 286.39 M 185.96 368.00 C 206.25 391.28 238.52 403.26 269.08 398.68 C 298.86 394.69 325.95 375.23 339.41 348.39 C 349.70 328.39 352.42 304.53 346.62 282.79 C 343.36 312.11 325.08 339.17 299.01 353.00 C 270.58 368.67 233.77 367.15 206.68 349.28 C 183.89 334.71 168.41 309.65 165.38 282.78 C 157.41 312.26 165.55 345.35 185.96 368.00 M 187.75 295.79 C 184.81 300.33 180.53 303.76 175.87 306.41 C 176.54 307.94 177.21 309.48 177.88 311.01 C 184.59 303.97 192.90 298.72 201.68 294.66 C 201.69 292.09 201.69 289.52 201.69 286.95 C 196.80 289.40 190.77 290.80 187.75 295.79 M 308.27 286.62 C 308.28 289.18 308.31 291.74 308.35 294.31 C 317.95 298.25 326.69 304.14 333.91 311.61 C 334.61 309.90 335.32 308.21 336.02 306.51 C 331.51 304.06 327.24 300.99 324.37 296.66 C 320.90 290.91 314.03 289.15 308.27 286.62 M 308.26 298.66 C 308.15 301.45 308.06 304.24 307.97 307.03 C 315.45 310.56 322.61 314.96 328.25 321.10 C 329.40 319.34 330.55 317.57 331.71 315.81 C 325.64 308.05 317.09 302.74 308.26 298.66 M 179.97 314.98 C 181.05 316.80 182.13 318.62 183.21 320.45 C 188.75 315.23 195.03 310.81 201.98 307.66 C 201.89 304.81 201.78 301.97 201.61 299.14 C 193.59 303.17 185.84 308.08 179.97 314.98 M 185.76 324.03 C 187.12 325.76 188.48 327.49 189.84 329.22 C 193.81 325.56 198.25 322.47 203.02 319.95 C 202.83 317.29 202.63 314.64 202.43 311.99 C 196.19 314.94 190.45 318.94 185.76 324.03 M 307.53 311.68 C 307.36 314.31 307.20 316.94 307.08 319.58 C 312.51 322.08 317.44 325.54 321.72 329.72 C 323.08 328.06 324.45 326.41 325.82 324.77 C 320.97 318.93 314.59 314.44 307.53 311.68 M 306.36 323.80 C 306.09 326.56 304.79 329.52 305.56 332.22 C 308.18 334.27 311.07 335.95 313.74 337.95 C 315.44 336.24 317.16 334.54 318.87 332.83 C 315.34 329.01 311.06 326.00 306.36 323.80 M 192.68 332.21 C 194.40 334.03 196.14 335.81 197.90 337.59 C 200.23 335.87 202.60 334.21 205.03 332.64 C 204.60 329.82 204.09 327.02 203.49 324.24 C 199.59 326.47 195.95 329.12 192.68 332.21 M 201.22 340.19 C 203.43 341.99 205.73 343.69 208.11 345.28 C 207.43 342.45 206.67 339.65 205.90 336.86 C 204.33 337.96 202.77 339.06 201.22 340.19 M 301.53 346.75 C 304.58 344.94 307.49 342.91 310.30 340.74 C 308.43 339.19 306.52 337.70 304.59 336.23 C 303.33 339.66 302.27 343.17 301.53 346.75 Z" />
<path fill="#2a2a2a" opacity="1.00" d=" M 243.30 144.25 C 247.25 143.73 247.56 148.15 249.38 150.58 C 251.82 154.45 257.71 154.93 261.18 152.21 C 263.51 150.33 264.14 147.14 266.18 145.03 C 268.06 143.95 269.24 146.27 268.67 147.86 C 267.27 153.48 261.96 158.20 256.00 157.97 C 248.75 158.35 242.72 151.29 243.30 144.25 Z" />
<path fill="#2a2a2a" opacity="1.00" d=" M 177.23 168.46 C 181.97 167.93 183.38 163.77 186.04 160.75 C 187.27 162.37 188.07 164.25 188.93 166.08 C 190.96 167.05 193.50 167.67 194.15 170.14 C 189.08 170.12 188.54 175.70 185.18 177.38 C 184.11 172.92 179.85 171.58 177.23 168.46 Z" />
<path fill="#2a2a2a" opacity="1.00" d=" M 317.98 168.32 C 322.27 167.62 323.80 163.86 325.99 160.73 C 327.63 162.11 328.19 164.24 329.02 166.13 C 330.68 166.85 332.35 167.56 334.03 168.27 C 333.95 168.79 333.79 169.81 333.71 170.33 C 328.88 170.26 328.70 176.47 325.31 177.25 C 323.89 174.01 322.03 170.99 318.25 170.33 C 318.18 169.83 318.05 168.82 317.98 168.32 Z" />
<path fill="#2a2a2a" opacity="1.00" d=" M 253.13 203.53 C 255.59 203.58 259.14 202.42 260.63 205.00 C 259.97 210.40 247.78 207.17 253.13 203.53 Z" />
<path fill="#2a2a2a" opacity="1.00" d=" M 168.82 215.97 C 169.98 214.26 170.02 210.51 172.75 210.96 C 173.66 212.57 174.32 214.30 175.05 216.00 C 176.89 216.77 178.75 217.53 180.58 218.35 C 179.35 220.43 177.15 221.33 175.00 222.12 C 174.23 223.96 173.48 225.80 172.71 227.64 C 170.51 226.58 169.71 224.27 168.80 222.19 C 166.71 221.28 164.39 220.47 163.33 218.26 C 165.15 217.48 166.99 216.73 168.82 215.97 Z" />
<path fill="#2a2a2a" opacity="1.00" d=" M 246.62 211.41 C 252.35 212.08 258.11 212.16 263.85 211.48 C 265.60 211.14 265.90 213.70 265.16 214.84 C 259.08 216.94 252.37 216.53 246.25 214.80 C 246.37 213.67 246.49 212.54 246.62 211.41 Z" />
<path fill="#2a2a2a" opacity="1.00" d=" M 340.34 210.38 C 342.42 211.55 343.30 213.77 344.19 215.86 C 346.31 216.76 348.55 217.66 349.77 219.77 C 347.91 220.55 346.05 221.31 344.19 222.08 C 343.31 224.20 342.55 226.59 340.29 227.64 C 339.51 225.80 338.77 223.95 338.01 222.11 C 335.84 221.34 333.65 220.41 332.41 218.35 C 334.27 217.53 336.15 216.77 338.03 216.00 C 338.78 214.12 339.54 212.24 340.34 210.38 Z" />
<path fill="#2a2a2a" opacity="1.00" d=" M 251.57 218.46 C 254.52 218.37 257.47 218.37 260.43 218.46 C 260.52 219.60 260.62 220.74 260.72 221.88 C 257.60 222.52 254.40 222.52 251.28 221.88 C 251.37 220.74 251.47 219.60 251.57 218.46 Z" />
<path fill="#2a2a2a" opacity="1.00" d=" M 224.06 287.73 C 227.06 287.10 227.28 290.84 228.23 292.77 C 230.65 300.03 235.69 307.86 243.95 308.86 C 246.09 308.81 248.60 310.43 246.89 312.71 C 236.63 314.39 228.69 305.33 225.24 296.67 C 224.40 293.89 221.97 290.44 224.06 287.73 Z" />
<path fill="#2a2a2a" opacity="1.00" d=" M 284.94 287.67 C 285.75 287.81 287.36 288.09 288.16 288.23 C 286.82 299.61 278.76 312.86 266.06 312.98 C 264.04 313.33 263.94 310.87 263.82 309.52 C 275.94 309.55 282.12 297.81 284.94 287.67 Z" />
<path fill="#2a2a2a" opacity="1.00" d=" M 226.39 323.91 C 227.03 322.81 228.34 322.50 229.39 321.93 C 232.01 327.15 234.85 333.26 240.80 335.31 C 243.57 336.46 248.46 335.85 247.40 340.28 C 237.32 341.55 228.75 333.10 226.39 323.91 Z" />
<path fill="#2a2a2a" opacity="1.00" d=" M 274.76 332.79 C 279.20 330.22 278.93 322.12 284.74 322.27 C 283.93 332.33 274.10 341.73 263.68 340.17 C 263.72 334.16 271.92 336.91 274.76 332.79 Z" />
<path fill="#2a2a2a" opacity="1.00" d=" M 174.49 387.47 C 177.28 390.35 178.52 394.68 183.13 395.26 C 183.00 395.77 182.76 396.81 182.64 397.33 C 178.91 397.97 177.09 400.96 175.75 404.16 C 173.73 404.84 173.54 402.38 172.69 401.18 C 171.65 398.27 167.88 398.16 166.47 395.49 C 170.68 394.55 173.38 391.56 174.49 387.47 Z" />
<path fill="#2a2a2a" opacity="1.00" d=" M 336.39 387.44 C 339.31 390.23 340.48 394.68 345.15 395.25 C 345.02 395.77 344.76 396.81 344.64 397.32 C 340.70 398.02 338.76 401.23 337.70 404.79 C 335.57 403.63 334.75 401.34 333.83 399.26 C 331.78 398.36 329.49 397.56 328.46 395.39 C 330.31 394.60 332.17 393.86 334.04 393.11 C 334.80 391.21 335.56 389.31 336.39 387.44 Z" />
<path fill="#2a2a2a" opacity="1.00" d=" M 204.98 417.96 C 209.92 417.79 210.64 412.66 213.87 410.61 C 215.17 414.26 217.78 416.87 221.39 418.23 C 219.64 421.49 214.24 422.74 213.63 427.66 C 212.14 425.95 211.01 423.98 210.10 421.92 C 208.11 420.97 205.52 420.44 204.98 417.96 Z" />
<path fill="#2a2a2a" opacity="1.00" d=" M 290.03 417.99 C 294.88 417.68 295.76 412.86 298.88 410.53 C 300.24 414.17 302.79 416.86 306.44 418.23 C 305.24 421.58 299.49 421.93 299.41 426.74 C 298.90 426.75 297.88 426.78 297.38 426.80 C 296.68 425.16 296.00 423.52 295.30 421.89 C 293.26 421.00 290.59 420.51 290.03 417.99 Z" />
<path fill="#2a2a2a" opacity="1.00" d=" M 136.45 455.76 C 141.13 454.53 140.08 459.64 140.45 462.73 C 143.07 462.69 145.70 462.67 148.33 462.66 C 148.41 460.32 148.51 457.99 148.64 455.66 C 149.50 455.70 151.23 455.79 152.09 455.83 C 152.31 461.80 152.54 467.80 151.83 473.74 C 150.75 473.63 149.68 473.52 148.60 473.41 C 148.50 471.17 148.42 468.92 148.35 466.69 C 145.72 466.61 143.09 466.54 140.47 466.44 C 140.25 468.87 140.03 471.30 139.76 473.74 C 138.69 473.63 137.63 473.52 136.57 473.41 C 136.26 467.53 136.35 461.64 136.45 455.76 Z" />
<path fill="#2a2a2a" opacity="1.00" d=" M 157.46 457.13 C 157.45 455.38 159.62 455.04 160.75 456.07 C 161.70 461.81 161.02 467.67 161.13 473.47 C 159.98 473.46 158.84 473.48 157.70 473.39 C 156.97 468.01 157.19 462.53 157.46 457.13 Z" />
<path fill="#2a2a2a" opacity="1.00" d=" M 165.98 460.97 C 168.31 454.87 177.74 453.43 181.43 459.00 C 181.82 463.01 177.49 460.09 175.43 459.72 C 170.63 457.84 166.91 465.14 170.63 468.37 C 173.32 471.20 177.53 469.68 179.41 466.76 C 177.17 466.58 174.92 466.44 172.68 466.29 C 172.70 465.42 172.75 463.68 172.77 462.81 C 176.33 462.69 179.90 462.70 183.46 462.85 C 184.22 468.10 180.44 473.65 174.92 473.74 C 168.38 474.46 163.14 466.87 165.98 460.97 Z" />
<path fill="#2a2a2a" opacity="1.00" d=" M 187.77 455.75 C 188.64 455.75 190.39 455.74 191.26 455.74 C 191.37 458.05 191.46 460.36 191.54 462.69 C 194.22 462.68 196.89 462.68 199.57 462.69 C 199.63 460.38 199.71 458.06 199.81 455.76 C 200.68 455.75 202.43 455.74 203.30 455.73 C 203.43 461.45 203.87 467.21 203.20 472.91 C 202.19 473.33 201.17 473.73 200.14 474.10 C 199.84 471.57 199.64 469.05 199.45 466.52 C 196.81 466.53 194.18 466.53 191.54 466.52 C 191.49 468.74 191.42 470.97 191.34 473.20 C 190.23 473.41 189.13 473.62 188.02 473.84 C 187.34 467.83 187.56 461.78 187.77 455.75 Z" />
<path fill="#2a2a2a" opacity="1.00" d=" M 216.84 455.73 C 220.52 455.56 224.27 455.10 227.91 455.86 C 232.10 457.02 234.06 462.82 231.18 466.18 C 228.88 469.56 224.37 468.85 220.85 469.21 C 220.73 471.68 219.86 473.78 217.17 474.15 C 216.32 468.05 216.62 461.87 216.84 455.73 M 220.51 459.29 C 220.49 461.20 220.47 463.12 220.45 465.04 C 223.20 464.91 228.48 466.27 228.66 462.16 C 228.32 458.15 223.24 459.66 220.51 459.29 Z" />
<path fill="#2a2a2a" opacity="1.00" d=" M 236.78 455.72 C 241.60 455.82 248.17 453.82 251.41 458.58 C 253.77 461.69 251.69 465.33 249.94 468.13 C 250.93 469.49 251.91 470.84 252.89 472.21 C 251.98 472.83 251.06 473.44 250.14 474.07 C 247.60 471.34 244.87 468.17 240.72 468.91 C 240.43 470.50 240.15 472.09 239.84 473.69 C 239.12 473.68 237.69 473.67 236.98 473.66 C 236.37 467.70 236.55 461.70 236.78 455.72 M 240.47 459.28 C 240.45 461.20 240.43 463.13 240.41 465.05 C 243.27 464.90 248.49 466.31 248.67 462.01 C 247.99 458.11 243.26 459.71 240.47 459.28 Z" />
<path fill="#2a2a2a" opacity="1.00" d=" M 256.74 455.75 C 257.62 455.75 259.38 455.75 260.26 455.74 C 260.37 461.46 260.81 467.21 260.15 472.90 C 259.13 473.34 258.09 473.74 257.05 474.12 C 256.24 468.03 256.53 461.87 256.74 455.75 Z" />
<path fill="#2a2a2a" opacity="1.00" d=" M 265.69 455.70 C 270.85 455.40 276.02 455.39 281.18 455.72 C 281.16 456.58 281.10 458.30 281.07 459.16 C 277.16 459.37 273.24 459.39 269.33 459.39 C 269.32 460.45 269.31 461.52 269.30 462.59 C 272.49 462.65 275.68 462.75 278.86 463.03 C 278.74 464.16 278.61 465.29 278.49 466.42 C 275.45 466.51 272.40 466.55 269.36 466.60 C 269.39 467.44 269.44 469.11 269.46 469.95 C 272.86 470.57 282.83 467.56 280.72 473.46 C 275.79 474.12 270.80 473.68 265.84 473.65 C 265.26 467.68 265.40 461.68 265.69 455.70 Z" />
<path fill="#2a2a2a" opacity="1.00" d=" M 287.20 465.80 C 283.28 463.73 283.79 457.11 288.12 455.88 C 292.09 455.06 296.18 455.57 300.19 455.73 C 300.17 456.59 300.11 458.31 300.08 459.17 C 296.19 459.99 290.89 457.80 288.02 460.99 C 290.66 464.65 297.27 460.75 299.56 465.42 C 302.37 469.76 297.69 474.75 293.07 473.81 C 290.36 473.61 282.77 475.12 285.06 470.30 C 288.70 469.63 292.42 469.88 296.09 469.82 C 296.16 469.06 296.29 467.53 296.36 466.77 C 293.32 466.48 290.10 466.93 287.20 465.80 Z" />
<path fill="#2a2a2a" opacity="1.00" d=" M 303.18 455.82 C 308.50 455.33 313.87 455.29 319.18 455.93 C 319.13 459.66 315.64 459.48 312.84 459.66 C 312.88 464.23 312.86 468.81 312.57 473.38 C 311.87 473.55 310.48 473.87 309.79 474.04 C 308.51 469.29 308.99 464.35 308.93 459.50 C 307.03 459.34 305.13 459.18 303.23 459.00 C 303.22 458.21 303.19 456.61 303.18 455.82 Z" />
<path fill="#2a2a2a" opacity="1.00" d=" M 322.69 455.70 C 327.84 455.40 333.02 455.39 338.18 455.73 C 338.15 456.59 338.09 458.30 338.07 459.16 C 334.16 459.37 330.24 459.39 326.33 459.39 C 326.31 460.45 326.30 461.52 326.30 462.59 C 329.48 462.65 332.67 462.75 335.84 463.04 C 335.72 464.16 335.60 465.29 335.48 466.42 C 332.44 466.51 329.40 466.55 326.36 466.60 C 326.38 467.44 326.43 469.12 326.46 469.96 C 329.85 470.57 339.81 467.57 337.72 473.46 C 332.79 474.12 327.79 473.68 322.84 473.65 C 322.25 467.68 322.40 461.68 322.69 455.70 Z" />
<path fill="#2a2a2a" opacity="1.00" d=" M 344.20 465.81 C 340.25 463.75 340.77 457.09 345.12 455.88 C 349.08 455.06 353.16 455.56 357.16 455.73 C 357.13 456.59 357.08 458.31 357.05 459.17 C 353.16 459.99 347.86 457.79 345.00 460.99 C 347.65 464.64 354.26 460.75 356.55 465.42 C 359.35 469.77 354.69 474.75 350.06 473.81 C 347.35 473.62 339.72 475.11 342.06 470.30 C 345.69 469.63 349.40 469.88 353.08 469.82 C 353.14 469.06 353.28 467.54 353.34 466.78 C 350.30 466.49 347.09 466.92 344.20 465.81 Z" />
<path fill="#2a2a2a" opacity="1.00" d=" M 363.19 465.81 C 359.25 463.74 359.77 457.09 364.12 455.88 C 368.08 455.06 372.16 455.56 376.16 455.73 C 376.13 456.59 376.08 458.29 376.05 459.14 C 372.20 459.33 368.36 459.39 364.52 459.55 C 364.50 460.50 364.50 461.46 364.50 462.43 C 368.38 462.91 374.05 461.63 375.92 466.16 C 377.89 470.52 373.33 474.59 369.07 473.81 C 366.36 473.61 358.72 475.11 361.05 470.30 C 364.69 469.63 368.40 469.88 372.08 469.81 C 372.15 469.06 372.28 467.54 372.34 466.78 C 369.30 466.49 366.09 466.92 363.19 465.81 Z" />
</g>
</svg>
