<?xml version="1.0" encoding="UTF-8" ?>
<!DOCTYPE svg PUBLIC "-//W3C//DTD SVG 1.1//EN" "http://www.w3.org/Graphics/SVG/1.1/DTD/svg11.dtd">
<svg width="120pt" height="120pt" viewBox="0 0 512 512" version="1.1" xmlns="http://www.w3.org/2000/svg">
<g id="#2a2a2aff">
<path fill="#2a2a2a" opacity="1.00" d=" M 132.36 21.47 C 213.91 21.13 295.48 21.44 377.03 21.32 C 385.72 20.72 393.88 28.28 393.63 37.04 C 393.66 183.01 393.66 328.99 393.62 474.96 C 393.84 483.34 386.34 490.83 377.97 490.64 C 296.66 490.69 215.34 490.69 134.04 490.64 C 125.67 490.82 118.14 483.35 118.37 474.96 C 118.32 329.30 118.38 183.63 118.34 37.97 C 117.79 29.90 124.25 22.11 132.36 21.47 M 131.45 25.74 C 125.92 26.85 122.03 32.42 122.41 37.97 C 122.44 183.63 122.37 329.30 122.44 474.95 C 122.27 481.53 128.43 487.12 134.93 486.59 C 215.65 486.59 296.36 486.59 377.07 486.59 C 383.97 487.18 390.17 480.91 389.59 474.03 C 389.58 328.68 389.58 183.32 389.59 37.98 C 390.10 31.51 384.63 25.29 378.05 25.45 C 299.37 25.35 220.68 25.45 142.00 25.40 C 138.49 25.44 134.94 25.15 131.45 25.74 Z" />
<path fill="#2a2a2a" opacity="1.00" d=" M 132.42 32.54 C 213.58 31.75 294.86 32.46 376.07 32.18 C 379.61 31.56 383.32 34.07 382.77 37.93 C 382.78 171.29 382.81 304.66 382.76 438.02 C 383.21 440.79 380.61 442.64 378.04 442.29 C 296.68 442.31 215.32 442.31 133.96 442.29 C 131.34 442.68 128.75 440.85 129.23 438.02 C 129.17 304.99 129.26 171.96 129.19 38.93 C 129.06 36.46 129.63 33.28 132.42 32.54 M 133.33 36.31 C 133.19 170.26 133.30 304.21 133.28 438.17 C 215.10 438.26 296.91 438.26 378.73 438.17 C 378.69 304.21 378.80 170.26 378.66 36.31 C 296.89 36.20 215.11 36.21 133.33 36.31 Z" />
<path fill="#2a2a2a" opacity="1.00" d=" M 226.23 50.00 C 226.01 47.79 229.12 46.84 230.16 48.77 C 232.73 52.86 234.46 57.42 236.86 61.61 C 239.45 57.13 241.15 52.13 244.15 47.89 C 245.91 47.00 248.26 49.00 247.20 50.83 C 244.31 57.13 241.19 63.35 237.80 69.40 C 234.30 68.58 233.46 64.77 231.94 62.03 C 230.13 57.98 227.63 54.23 226.23 50.00 Z" />
<path fill="#2a2a2a" opacity="1.00" d=" M 253.34 48.05 C 254.73 48.10 256.13 48.16 257.53 48.24 C 257.64 55.04 257.77 61.86 257.44 68.66 C 256.09 68.54 253.97 69.49 253.40 67.68 C 252.85 61.16 253.22 54.59 253.34 48.05 Z" />
<path fill="#2a2a2a" opacity="1.00" d=" M 265.10 50.05 C 264.75 47.50 268.36 46.74 269.21 49.10 C 269.67 55.60 269.69 62.19 269.04 68.68 C 268.24 68.80 266.64 69.04 265.84 69.16 C 264.18 62.95 265.04 56.39 265.10 50.05 Z" />
<path fill="#2a2a2a" opacity="1.00" d=" M 276.93 50.02 C 276.53 47.51 280.40 46.74 281.03 49.14 C 281.71 55.47 281.06 61.88 281.31 68.24 C 279.83 68.50 277.83 69.88 277.10 67.79 C 276.46 61.91 276.69 55.92 276.93 50.02 Z" />
<path fill="#2a2a2a" opacity="1.00" d=" M 168.23 61.24 C 169.06 59.15 169.95 57.01 171.89 55.69 C 172.69 60.48 176.85 62.10 180.07 64.86 C 175.89 65.97 172.96 68.92 171.85 73.10 C 169.16 69.84 167.46 65.75 162.76 64.89 C 164.01 62.93 166.15 62.06 168.23 61.24 Z" />
<path fill="#2a2a2a" opacity="1.00" d=" M 331.93 64.87 C 335.15 62.11 339.29 60.47 340.12 55.70 C 342.04 57.02 342.93 59.15 343.76 61.23 C 345.84 62.06 347.98 62.93 349.24 64.89 C 344.53 65.74 342.83 69.83 340.15 73.10 C 339.03 68.93 336.11 65.96 331.93 64.87 Z" />
<path fill="#2a2a2a" opacity="1.00" d=" M 220.90 89.95 C 221.98 82.96 229.50 79.37 235.95 79.33 C 244.51 78.86 252.32 83.18 258.68 88.51 C 267.05 80.47 281.02 75.76 291.46 82.55 C 298.00 86.66 297.69 97.20 290.99 101.00 C 280.54 107.28 267.01 102.70 258.71 94.83 C 251.22 101.10 241.39 105.72 231.44 103.31 C 225.36 102.13 219.71 96.50 220.90 89.95 M 231.89 84.00 C 227.99 84.95 224.00 88.50 224.96 92.88 C 226.04 97.72 231.47 99.79 235.94 99.85 C 243.41 100.31 250.38 96.58 255.77 91.70 C 249.63 85.62 240.53 81.73 231.89 84.00 M 261.31 91.75 C 266.71 96.56 273.62 100.29 281.06 99.86 C 285.53 99.79 290.96 97.77 292.12 92.96 C 293.07 88.55 289.07 84.90 285.11 83.98 C 276.49 81.77 267.37 85.60 261.31 91.75 Z" />
<path fill="#2a2a2a" opacity="1.00" d=" M 148.03 95.82 C 152.35 95.17 154.74 91.75 156.11 87.91 C 158.29 90.50 159.25 94.26 162.90 95.25 C 166.38 96.22 163.14 98.71 161.20 99.12 C 158.27 99.93 158.76 104.16 155.97 105.07 C 154.79 103.46 154.05 101.60 153.21 99.81 C 151.16 98.93 148.52 98.37 148.03 95.82 Z" />
<path fill="#2a2a2a" opacity="1.00" d=" M 351.53 96.14 C 355.90 95.09 357.39 91.23 359.98 88.23 C 361.56 91.26 363.04 94.55 366.69 95.46 C 370.05 97.56 364.50 98.98 362.84 99.84 C 362.00 101.65 361.28 103.56 360.03 105.13 C 358.21 104.44 357.89 102.33 356.92 100.87 C 355.99 98.33 351.56 99.15 351.53 96.14 Z" />
<path fill="#2a2a2a" opacity="1.00" d=" M 212.61 134.64 C 218.10 115.24 240.65 107.39 258.99 107.78 C 277.01 107.69 299.17 115.71 304.21 134.91 C 316.80 137.53 324.60 151.85 319.00 163.68 C 329.46 169.49 333.30 184.96 325.06 194.19 C 334.52 201.31 335.78 217.22 325.65 224.32 C 327.93 231.17 327.84 238.95 323.37 244.92 C 332.55 246.10 341.92 249.76 347.70 257.30 C 356.37 269.36 356.11 285.23 354.05 299.31 C 350.39 325.94 345.55 352.45 338.66 378.45 C 336.96 386.79 328.96 391.28 322.21 395.22 C 317.46 398.19 311.27 399.07 307.83 403.87 C 302.54 410.41 293.66 412.56 285.60 411.36 C 285.22 424.56 272.90 434.45 259.99 433.18 C 247.16 434.28 235.28 424.34 234.76 411.35 C 229.66 411.81 224.29 411.78 219.64 409.37 C 214.24 407.05 211.53 400.96 205.67 399.40 C 195.34 394.35 181.70 389.07 179.57 376.23 C 172.93 350.47 168.13 324.24 164.60 297.88 C 162.82 285.06 162.78 271.05 169.58 259.59 C 174.63 251.16 184.18 246.81 193.52 245.12 C 188.99 239.09 188.94 231.31 191.03 224.35 C 181.18 217.05 182.20 201.26 191.79 194.20 C 183.43 185.03 187.37 169.37 197.90 163.66 C 194.74 156.31 195.62 147.22 201.37 141.38 C 204.23 137.82 208.82 136.79 212.61 134.64 M 238.17 115.31 C 227.84 118.79 217.06 126.62 216.36 138.44 C 210.29 139.52 203.94 142.40 201.48 148.47 C 198.41 154.23 200.97 160.55 203.59 165.89 C 195.68 167.96 190.45 175.85 191.38 183.93 C 191.52 188.56 195.47 191.49 198.01 194.90 C 194.02 197.78 189.56 201.03 188.52 206.18 C 186.50 213.01 190.45 219.63 196.32 222.94 C 192.94 229.75 191.90 239.99 199.44 244.39 C 204.28 244.73 209.16 244.54 214.02 244.76 C 225.05 245.22 236.01 235.35 235.09 224.00 C 234.88 219.83 235.67 215.46 234.52 211.43 C 230.45 205.69 226.66 199.60 225.21 192.61 C 224.19 185.47 217.74 179.82 219.17 172.23 C 219.62 168.42 223.68 167.12 226.54 165.47 C 239.48 158.65 248.86 147.16 258.63 136.64 C 267.36 147.36 276.47 158.47 288.83 165.14 C 292.02 167.04 297.35 167.52 297.92 172.00 C 299.00 178.80 292.98 183.65 292.23 190.07 C 291.07 197.50 287.31 204.08 283.33 210.32 C 282.41 215.10 283.69 220.12 283.63 224.99 C 283.54 235.99 294.19 245.29 304.97 244.76 C 309.32 244.45 313.90 245.12 318.11 244.00 C 324.96 239.11 323.69 229.62 320.50 222.93 C 326.72 219.47 330.60 212.17 327.99 205.16 C 326.74 200.21 321.94 197.82 318.75 194.29 C 330.17 187.31 325.85 168.66 313.25 165.91 C 315.42 160.96 318.14 155.48 315.94 150.01 C 313.89 143.21 307.13 139.50 300.49 138.50 C 299.80 127.32 290.01 119.58 280.27 115.90 C 266.82 111.18 251.77 111.10 238.17 115.31 M 231.92 172.62 C 236.06 175.42 241.22 177.97 246.27 176.07 C 248.73 175.01 252.90 173.66 251.73 170.22 C 247.87 169.00 244.59 174.16 240.48 172.35 C 237.48 171.66 232.73 167.30 231.92 172.62 M 263.67 171.96 C 268.37 178.02 278.94 178.33 283.72 172.12 C 283.37 171.40 282.68 169.96 282.33 169.24 C 278.75 171.21 274.46 174.11 270.34 171.73 C 268.26 170.92 264.09 168.02 263.67 171.96 M 249.78 188.91 C 249.99 189.49 250.43 190.65 250.64 191.23 C 255.62 192.45 260.71 192.49 265.70 191.35 C 265.61 190.05 265.51 188.75 265.41 187.45 C 260.18 188.90 254.30 185.78 249.78 188.91 M 251.40 197.42 C 248.88 198.41 245.85 198.84 244.01 200.97 C 248.28 204.57 251.56 210.77 257.99 210.28 C 264.48 210.86 267.78 204.63 272.02 200.95 C 266.36 196.39 258.28 196.05 251.40 197.42 M 225.40 262.79 C 226.90 264.19 228.41 265.58 229.90 266.99 C 222.60 278.36 212.36 287.65 201.49 295.54 C 199.71 297.41 197.84 295.34 197.72 293.39 C 199.32 292.20 200.90 290.99 202.47 289.78 C 201.39 288.22 200.31 286.66 199.23 285.11 C 187.76 295.83 191.73 312.44 187.12 325.91 C 183.85 346.15 190.57 372.78 211.87 380.31 C 208.74 389.70 211.85 401.33 221.33 405.65 C 226.72 408.69 232.92 407.09 238.71 406.69 C 239.06 412.22 239.47 418.29 243.36 422.64 C 254.42 434.93 281.71 429.91 281.29 410.94 C 280.52 403.01 289.69 409.17 294.02 407.30 C 306.43 405.48 312.61 391.31 308.57 380.11 C 315.79 378.04 321.87 373.08 325.61 366.60 C 334.63 351.85 336.63 333.26 331.52 316.79 C 330.59 305.71 329.03 293.75 321.03 285.28 C 319.99 286.73 318.97 288.20 317.95 289.66 C 319.67 291.10 321.39 292.54 323.10 294.00 C 322.34 295.79 320.18 297.06 318.61 295.37 C 308.50 288.02 299.14 279.35 291.83 269.17 C 289.40 266.60 293.28 264.67 294.77 262.88 C 285.40 253.63 271.22 256.43 260.08 260.29 C 249.00 256.82 234.51 253.10 225.40 262.79 M 204.07 267.10 C 198.65 272.86 200.90 281.87 205.73 287.25 C 206.63 286.46 207.54 285.68 208.45 284.90 C 205.39 280.85 203.45 274.67 207.60 270.62 C 211.38 265.86 218.06 267.41 222.24 270.73 C 223.11 269.72 223.98 268.72 224.86 267.71 C 219.10 262.96 209.59 260.88 204.07 267.10 M 295.79 267.25 C 296.54 268.52 297.31 269.79 298.08 271.06 C 302.09 268.11 308.09 265.59 312.25 269.72 C 317.43 273.63 315.84 280.80 312.09 285.10 C 313.00 285.80 313.91 286.51 314.82 287.23 C 319.40 281.70 322.01 272.47 316.04 266.96 C 310.45 261.32 301.73 263.31 295.79 267.25 M 210.97 273.01 C 207.87 275.47 209.59 279.56 211.60 282.10 C 214.41 279.51 217.08 276.77 219.59 273.88 C 217.09 272.25 213.46 270.17 210.97 273.01 M 300.95 274.02 C 303.52 276.92 306.25 279.68 309.12 282.30 C 311.02 279.65 313.02 275.71 309.93 273.07 C 307.36 270.05 303.56 272.37 300.95 274.02 Z" />
<path fill="#2a2a2a" opacity="1.00" d=" M 180.41 115.64 C 185.39 115.87 185.39 109.71 188.82 108.71 C 190.17 112.47 192.74 115.28 196.76 116.15 C 194.88 119.29 190.17 119.45 189.52 123.66 C 187.53 127.52 186.02 121.63 185.07 119.86 C 183.41 119.13 181.74 118.43 180.08 117.72 C 180.16 117.20 180.32 116.16 180.41 115.64 Z" />
<path fill="#2a2a2a" opacity="1.00" d=" M 316.44 116.20 C 320.95 115.45 322.87 111.81 325.01 108.36 C 327.46 111.02 328.37 115.25 332.74 115.65 C 332.85 116.18 333.08 117.23 333.20 117.76 C 329.66 118.56 326.84 120.78 326.25 124.52 C 325.74 124.63 324.70 124.87 324.19 124.99 C 323.49 123.30 322.81 121.60 322.10 119.92 C 319.97 119.08 317.65 118.30 316.44 116.20 Z" />
<path fill="#2a2a2a" opacity="1.00" d=" M 150.01 146.14 C 150.71 144.00 151.52 141.78 153.64 140.65 C 154.44 142.47 155.19 144.30 155.94 146.15 C 157.62 146.88 159.31 147.61 161.00 148.35 C 160.94 148.86 160.81 149.89 160.75 150.40 C 156.47 151.01 154.78 154.85 153.00 158.23 C 151.20 154.85 149.50 151.02 145.23 150.40 C 145.18 149.88 145.06 148.84 145.00 148.33 C 146.67 147.60 148.35 146.89 150.01 146.14 Z" />
<path fill="#2a2a2a" opacity="1.00" d=" M 354.86 155.86 C 355.79 153.79 356.30 151.19 358.79 150.48 C 359.54 152.30 360.27 154.12 361.00 155.95 C 362.86 156.69 364.71 157.45 366.55 158.24 C 365.48 160.48 363.17 161.30 361.00 162.05 C 360.24 163.87 359.51 165.70 358.76 167.53 C 356.35 166.68 355.75 164.14 354.87 162.04 C 353.06 161.29 351.25 160.56 349.44 159.81 C 350.23 157.37 352.77 156.78 354.86 155.86 Z" />
<path fill="#2a2a2a" opacity="1.00" d=" M 155.20 198.51 C 159.57 198.10 160.78 194.11 163.00 191.17 C 165.33 194.01 166.46 198.07 170.83 198.51 C 170.87 199.03 170.94 200.08 170.97 200.61 C 169.31 201.33 167.65 202.06 166.01 202.82 C 165.18 204.82 164.23 206.76 163.01 208.54 C 161.84 206.73 160.89 204.79 160.06 202.80 C 158.42 202.06 156.77 201.35 155.12 200.64 C 155.14 200.11 155.18 199.05 155.20 198.51 Z" />
<path fill="#2a2a2a" opacity="1.00" d=" M 349.44 202.62 C 353.02 201.73 354.47 198.50 356.04 195.52 C 358.82 196.50 358.32 200.70 361.30 201.53 C 362.49 202.43 365.41 202.65 364.27 204.76 C 360.86 205.89 358.13 208.07 357.46 211.78 C 356.95 211.79 355.92 211.82 355.41 211.83 C 354.70 210.17 354.01 208.52 353.29 206.87 C 351.57 206.16 345.98 204.63 349.44 202.62 Z" />
<path fill="#2a2a2a" opacity="1.00" d=" M 251.68 203.40 C 255.88 202.72 260.15 202.71 264.35 203.43 C 260.95 207.07 255.08 207.01 251.68 203.40 Z" />
<path fill="#2a2a2a" opacity="1.00" d=" M 152.60 237.35 C 153.06 237.34 153.99 237.33 154.45 237.32 C 155.07 241.89 159.47 243.00 162.23 245.85 C 157.52 246.69 155.74 250.73 153.13 254.08 C 151.96 249.92 149.06 246.91 144.84 245.81 C 147.67 243.05 152.02 241.92 152.60 237.35 Z" />
<path fill="#2a2a2a" opacity="1.00" d=" M 356.01 242.14 C 356.76 240.04 357.52 237.80 359.62 236.68 C 360.59 240.49 362.99 243.56 366.99 244.39 C 366.93 244.90 366.81 245.92 366.75 246.43 C 362.46 247.02 360.79 250.87 359.00 254.24 C 357.19 250.86 355.51 247.03 351.23 246.41 C 351.17 245.89 351.06 244.87 351.00 244.35 C 352.67 243.62 354.35 242.89 356.01 242.14 Z" />
<path fill="#2a2a2a" opacity="1.00" d=" M 231.02 283.04 C 237.12 273.99 250.00 269.62 260.12 274.28 C 266.95 271.24 274.90 271.98 281.30 275.73 C 286.98 278.17 289.50 284.17 293.91 288.11 C 299.76 294.04 307.00 298.28 314.38 302.01 C 314.24 302.76 313.96 304.24 313.83 304.99 C 312.11 304.72 310.40 304.43 308.70 304.13 C 309.44 311.38 309.79 318.70 309.45 325.98 C 308.73 337.53 301.34 347.68 291.97 354.01 C 289.13 355.59 289.10 359.12 287.81 361.76 C 286.25 366.09 280.73 367.84 280.49 372.79 C 279.42 380.20 273.49 388.75 265.01 386.87 C 259.22 384.84 252.87 389.15 247.50 385.50 C 241.75 382.12 240.61 375.16 238.88 369.32 C 234.83 365.56 231.30 361.16 230.49 355.49 C 221.33 349.66 213.53 340.76 211.46 329.84 C 210.03 321.11 211.10 312.20 212.43 303.53 C 210.62 304.13 208.81 304.74 207.00 305.32 C 206.62 304.25 206.25 303.19 205.89 302.12 C 215.31 297.36 224.54 291.56 231.02 283.04 M 260.12 278.99 C 251.60 273.65 239.77 277.39 234.33 285.40 C 232.47 287.78 230.41 290.00 228.35 292.21 C 234.77 291.90 242.09 291.30 247.45 295.54 C 247.56 296.60 247.62 297.66 247.63 298.74 C 239.79 296.16 231.46 294.76 223.40 297.54 C 214.34 298.92 216.05 310.28 215.02 316.99 C 212.99 330.25 219.67 343.55 230.78 350.73 C 231.74 347.22 232.77 343.73 233.95 340.29 C 227.00 336.46 220.55 329.67 220.91 321.22 C 221.69 321.08 223.25 320.82 224.03 320.68 C 225.38 327.46 229.44 333.51 235.75 336.59 C 238.98 330.53 242.83 324.66 244.38 317.88 C 248.80 316.98 247.93 322.15 246.60 324.63 C 241.96 335.46 232.55 346.09 235.54 358.62 C 239.02 368.88 252.89 369.48 260.11 362.83 C 265.36 366.60 272.59 369.20 278.66 365.71 C 285.72 362.30 286.91 353.30 284.31 346.60 C 281.90 336.57 273.04 328.74 272.84 318.21 C 273.61 318.11 275.16 317.92 275.94 317.82 C 277.64 324.41 281.25 330.21 284.40 336.16 C 290.34 333.35 294.05 327.51 295.28 321.19 C 296.04 321.07 297.55 320.83 298.30 320.71 C 299.68 329.03 292.87 335.97 286.30 339.95 C 287.57 343.54 288.67 347.17 289.67 350.85 C 297.68 344.88 304.59 336.31 305.35 326.00 C 305.67 318.40 305.57 310.71 304.38 303.19 C 304.14 300.65 301.74 299.29 299.62 298.42 C 291.90 295.70 283.10 294.70 275.46 298.26 C 273.11 299.94 271.36 295.98 273.81 294.91 C 279.25 291.36 286.10 291.79 292.29 292.33 C 289.06 289.30 286.41 285.77 283.56 282.41 C 277.48 276.54 267.57 274.37 260.12 278.99 M 243.51 371.21 C 244.74 375.24 245.90 379.98 249.86 382.21 C 253.09 384.12 256.70 382.15 260.07 381.81 C 263.48 382.07 267.08 384.11 270.38 382.29 C 274.42 380.07 275.62 375.26 276.95 371.20 C 271.11 371.85 265.25 370.78 260.10 367.94 C 255.07 370.86 249.26 371.83 243.51 371.21 Z" />
<path fill="#2a2a2a" opacity="1.00" d=" M 222.42 309.99 C 226.59 301.00 240.69 299.82 246.66 307.42 C 248.27 308.85 248.11 312.95 245.25 312.06 C 243.78 310.78 242.61 309.21 241.36 307.74 C 240.09 310.33 238.56 314.01 234.97 313.44 C 231.86 313.35 230.79 310.12 229.56 307.84 C 227.64 309.69 224.02 314.77 222.42 309.99 Z" />
<path fill="#2a2a2a" opacity="1.00" d=" M 275.97 304.93 C 282.92 300.53 294.31 301.81 297.87 309.98 C 296.77 314.89 292.55 309.64 290.76 307.79 C 289.61 310.25 288.34 313.66 285.00 313.48 C 281.46 313.69 280.20 310.03 279.04 307.41 C 277.61 309.20 276.20 311.00 274.77 312.79 C 271.13 310.78 273.24 306.64 275.97 304.93 Z" />
<path fill="#2a2a2a" opacity="1.00" d=" M 245.63 347.30 C 244.27 344.96 246.53 342.12 249.04 342.18 C 253.11 341.73 255.77 345.38 258.25 348.00 C 263.84 349.20 265.56 341.70 270.94 342.16 C 273.38 341.91 276.03 344.32 274.94 346.83 C 273.12 350.58 268.40 350.88 264.86 351.96 C 263.72 354.50 262.66 357.07 261.63 359.66 C 260.99 359.78 259.71 360.03 259.07 360.16 C 257.90 357.37 256.71 354.58 255.39 351.87 C 251.96 350.96 247.71 350.56 245.63 347.30 Z" />
<path fill="#2a2a2a" opacity="1.00" d=" M 146.12 357.15 C 146.93 355.35 147.47 353.32 148.97 351.95 C 151.77 353.57 151.60 358.21 155.54 358.65 C 159.35 359.90 155.79 362.21 153.63 362.84 C 150.91 363.52 151.40 369.20 148.36 368.10 C 147.09 364.62 144.87 361.79 140.97 361.27 C 141.12 358.53 144.15 358.16 146.12 357.15 Z" />
<path fill="#2a2a2a" opacity="1.00" d=" M 359.95 357.96 C 362.93 357.15 362.53 353.19 365.05 351.85 C 366.51 353.29 367.10 355.31 367.88 357.16 C 369.56 357.90 371.25 358.63 372.94 359.36 C 372.88 359.86 372.76 360.85 372.70 361.35 C 367.71 361.21 367.64 367.39 364.18 368.37 C 362.86 365.51 361.49 362.54 358.16 361.68 C 354.95 360.69 358.12 358.31 359.95 357.96 Z" />
<path fill="#2a2a2a" opacity="1.00" d=" M 154.18 408.23 C 155.05 406.57 156.43 400.93 158.55 404.29 C 159.56 408.02 162.87 409.72 166.18 411.07 C 162.48 413.23 158.77 415.48 157.77 420.03 C 154.99 417.24 153.97 412.84 149.38 412.31 C 149.34 411.84 149.28 410.89 149.24 410.41 C 150.89 409.69 152.54 408.97 154.18 408.23 Z" />
<path fill="#2a2a2a" opacity="1.00" d=" M 355.47 404.32 C 357.55 400.87 358.97 406.49 359.86 408.17 C 361.66 409.00 363.56 409.70 365.12 410.96 C 364.09 413.71 359.89 413.19 359.10 416.22 C 358.50 417.37 357.11 421.16 355.72 418.66 C 354.64 414.67 350.97 413.20 347.88 411.08 C 351.16 409.71 354.47 408.03 355.47 404.32 Z" />
<path fill="#2a2a2a" opacity="1.00" d=" M 165.31 454.45 C 169.72 453.88 174.19 454.24 178.62 454.49 C 178.61 455.81 178.59 457.14 178.57 458.47 C 174.12 458.68 169.66 458.60 165.22 458.95 C 165.17 459.74 165.06 461.34 165.01 462.14 C 170.12 462.68 178.70 461.60 178.88 468.93 C 178.73 477.12 168.62 475.71 163.01 475.39 C 160.04 476.04 160.68 473.07 160.79 471.18 C 165.25 471.08 169.70 471.02 174.16 470.81 C 174.15 469.62 174.14 468.45 174.12 467.27 C 169.97 466.82 164.48 468.29 161.61 464.37 C 158.91 460.95 161.03 455.22 165.31 454.45 Z" />
<path fill="#2a2a2a" opacity="1.00" d=" M 184.27 454.53 C 190.02 453.83 195.86 454.17 201.63 454.47 C 201.62 455.77 201.61 457.08 201.60 458.39 C 199.37 458.55 197.15 458.68 194.93 458.82 C 194.88 464.27 194.97 469.72 194.73 475.16 C 193.52 475.23 192.31 475.25 191.10 475.21 C 189.64 469.91 190.81 464.28 190.39 458.85 C 187.65 459.02 181.12 458.71 184.27 454.53 Z" />
<path fill="#2a2a2a" opacity="1.00" d=" M 207.91 455.17 C 213.30 453.41 222.95 452.52 225.62 459.33 C 227.02 462.80 224.99 466.16 223.00 468.88 C 224.71 470.67 228.01 474.40 224.01 475.68 C 220.06 473.58 217.59 468.46 212.38 469.75 C 212.24 472.21 211.77 477.33 208.12 474.89 C 207.12 468.42 207.44 461.69 207.91 455.17 M 212.07 458.66 C 212.06 460.91 212.06 463.16 212.06 465.41 C 215.29 465.17 221.23 466.80 221.61 462.04 C 221.24 457.29 215.29 458.91 212.07 458.66 Z" />
<path fill="#2a2a2a" opacity="1.00" d=" M 232.55 454.53 C 238.54 454.02 244.57 454.03 250.56 454.51 C 250.54 455.81 250.51 457.11 250.49 458.42 C 245.93 458.73 241.37 458.71 236.81 458.69 C 236.80 459.65 236.77 461.57 236.76 462.54 C 240.34 462.56 243.92 462.60 247.51 462.71 C 249.55 469.26 240.47 466.67 236.72 467.20 C 236.71 468.41 236.70 469.63 236.70 470.86 C 241.31 471.07 245.94 470.89 250.54 471.43 C 250.60 472.59 250.66 473.77 250.72 474.95 C 244.79 476.01 238.75 475.42 232.77 475.37 C 231.91 468.46 232.28 461.46 232.55 454.53 Z" />
<path fill="#2a2a2a" opacity="1.00" d=" M 257.50 454.18 C 263.99 454.97 266.16 462.97 270.93 466.74 C 270.98 462.64 270.98 458.53 271.44 454.46 C 272.61 454.38 273.78 454.32 274.96 454.26 C 275.84 461.11 275.88 468.18 275.03 475.03 C 268.87 475.56 266.31 466.45 261.59 462.97 C 260.59 466.97 264.21 476.73 257.23 475.19 C 257.13 468.19 256.47 461.14 257.50 454.18 Z" />
<path fill="#2a2a2a" opacity="1.00" d=" M 281.87 462.95 C 282.84 456.24 290.88 452.13 296.93 455.17 C 298.91 456.09 301.98 458.50 299.82 460.74 C 296.42 461.57 293.64 457.27 290.18 459.07 C 285.62 460.63 284.80 467.49 288.97 469.98 C 292.26 472.36 296.25 470.24 298.43 467.43 C 295.51 467.25 292.58 467.02 289.79 466.10 C 290.17 464.96 290.56 463.81 290.96 462.68 C 294.94 462.50 298.95 462.45 302.92 463.01 C 303.79 468.69 299.83 474.63 294.01 475.37 C 287.12 476.75 280.30 469.81 281.87 462.95 Z" />
<path fill="#2a2a2a" opacity="1.00" d=" M 307.93 454.34 C 313.50 454.29 319.12 453.85 324.67 454.42 C 326.44 455.05 325.59 457.02 325.69 458.41 C 323.48 458.56 321.27 458.68 319.06 458.81 C 319.07 464.27 319.15 469.73 318.79 475.19 C 317.41 475.19 315.71 475.79 314.80 474.36 C 314.15 469.22 314.73 464.02 314.49 458.86 C 311.30 458.89 306.10 459.01 307.93 454.34 Z" />
<path fill="#2a2a2a" opacity="1.00" d=" M 331.77 454.82 C 333.05 454.57 334.34 454.38 335.63 454.16 C 336.08 456.95 336.26 459.77 336.33 462.60 C 339.41 462.59 342.50 462.59 345.58 462.60 C 346.16 459.87 344.28 454.89 347.99 454.15 C 350.47 454.17 350.11 457.24 350.24 458.96 C 350.03 464.21 350.80 469.58 349.71 474.76 C 344.93 477.71 345.59 469.98 345.62 467.12 C 342.51 467.12 339.40 467.12 336.29 467.11 C 336.21 469.67 336.33 472.27 335.69 474.78 C 334.23 476.41 331.49 475.16 331.79 472.98 C 331.44 466.94 331.73 460.87 331.77 454.82 Z" />
</g>
</svg>
