<?xml version="1.0" encoding="UTF-8" ?>
<!DOCTYPE svg PUBLIC "-//W3C//DTD SVG 1.1//EN" "http://www.w3.org/Graphics/SVG/1.1/DTD/svg11.dtd">
<svg width="120pt" height="120pt" viewBox="0 0 512 512" version="1.1" xmlns="http://www.w3.org/2000/svg">
<g id="#2a2a2afe">
<path fill="#2a2a2a" opacity="1.00" d=" M 132.36 21.47 C 213.91 21.13 295.49 21.43 377.05 21.32 C 385.73 20.73 393.86 28.26 393.63 37.02 C 393.66 183.00 393.66 328.99 393.63 474.98 C 393.83 483.35 386.35 490.83 377.98 490.65 C 296.66 490.69 215.33 490.69 134.01 490.65 C 125.66 490.81 118.16 483.35 118.37 474.98 C 118.32 329.31 118.38 183.63 118.34 37.96 C 117.80 29.90 124.25 22.11 132.36 21.47 M 131.45 25.74 C 125.93 26.85 122.04 32.41 122.41 37.96 C 122.42 183.32 122.42 328.68 122.41 474.04 C 121.84 480.92 128.04 487.18 134.93 486.59 C 215.64 486.59 296.36 486.59 377.07 486.59 C 383.96 487.18 390.16 480.92 389.59 474.04 C 389.56 328.37 389.63 182.70 389.55 37.03 C 389.74 29.99 382.85 24.50 376.04 25.38 C 294.52 25.66 212.94 24.95 131.45 25.74 Z" />
<path fill="#2a2a2a" opacity="1.00" d=" M 132.41 32.54 C 213.58 31.74 294.86 32.45 376.07 32.18 C 379.60 31.57 383.32 34.07 382.76 37.93 C 382.79 170.97 382.77 304.03 382.80 437.06 C 383.37 440.04 381.19 442.82 378.03 442.29 C 297.01 442.34 215.99 442.26 134.98 442.33 C 132.19 442.73 128.64 441.45 129.23 438.03 C 129.16 305.00 129.26 171.97 129.19 38.94 C 129.06 36.46 129.62 33.28 132.41 32.54 M 133.32 36.31 C 133.18 153.94 133.31 271.57 133.26 389.20 C 169.06 389.28 204.87 389.42 240.67 389.13 C 240.58 379.63 240.76 370.13 240.56 360.63 C 234.04 358.31 229.01 352.20 229.30 345.08 C 229.75 295.99 230.83 246.90 231.68 197.81 C 228.92 191.67 219.14 194.34 218.19 187.03 C 216.42 172.66 219.07 158.21 220.23 143.90 C 216.35 136.37 208.66 132.24 201.49 128.43 C 198.02 126.73 200.86 123.05 201.73 120.59 C 199.70 119.15 197.61 117.82 195.41 116.65 C 195.56 121.32 195.65 126.66 191.46 129.71 C 195.56 131.95 199.33 134.78 203.84 136.20 C 206.72 139.55 205.04 144.58 201.42 146.64 C 201.30 157.45 201.35 168.27 201.37 179.08 C 201.16 182.36 205.93 183.50 205.25 187.00 C 205.69 190.08 203.23 193.11 200.01 192.70 C 189.12 192.61 178.19 193.05 167.33 192.48 C 162.04 190.82 164.18 184.10 166.57 180.77 C 167.10 170.53 166.56 160.23 166.81 149.96 C 167.33 145.24 161.33 140.84 165.29 136.31 C 169.82 134.75 173.73 132.02 177.86 129.64 C 169.96 121.21 175.67 107.68 182.81 100.76 C 185.08 95.81 191.36 95.33 195.15 98.85 C 209.32 111.29 224.18 123.13 240.62 132.34 C 240.66 125.88 240.68 119.41 240.67 112.95 C 240.70 106.84 236.75 101.73 235.40 95.94 C 236.93 91.72 239.81 88.05 243.01 84.94 C 245.85 88.31 249.05 91.70 250.49 95.94 C 248.99 102.07 244.56 107.43 244.91 113.98 C 244.96 120.95 244.87 127.91 245.03 134.88 C 247.00 135.85 248.97 136.84 250.93 137.83 C 247.66 127.22 247.75 114.54 256.41 106.45 C 263.80 94.96 281.37 92.35 291.46 101.54 C 294.74 104.62 292.57 108.95 288.84 110.26 C 293.44 116.72 303.00 122.95 299.11 132.00 C 304.99 136.01 310.55 144.22 305.77 151.03 C 312.65 162.75 315.44 176.49 314.45 189.99 C 314.73 252.00 316.80 313.98 317.45 375.99 C 317.66 380.42 316.30 384.67 315.30 388.93 C 336.44 388.82 357.59 388.92 378.73 388.88 C 378.68 271.35 378.80 153.83 378.66 36.31 C 296.88 36.21 215.10 36.21 133.32 36.31 M 258.82 109.88 C 249.89 118.52 253.20 131.69 256.51 142.06 C 254.04 145.95 248.55 140.33 245.03 139.51 C 244.88 144.23 244.87 148.95 245.08 153.67 C 249.54 156.52 252.39 161.27 257.10 163.77 C 259.08 159.51 261.56 155.43 262.86 150.90 C 262.61 140.99 255.82 132.14 257.26 122.09 C 257.48 118.60 262.15 116.82 264.58 119.40 C 270.61 124.86 269.93 133.61 269.88 140.99 C 270.64 150.88 261.71 158.20 261.32 167.90 C 260.04 183.80 259.68 200.02 263.33 215.65 C 264.84 221.98 267.06 228.58 272.34 232.78 C 274.50 233.79 272.92 236.28 271.05 236.38 C 264.99 233.32 262.29 226.54 260.37 220.44 C 256.41 206.63 256.00 192.08 256.56 177.82 C 253.05 175.83 249.11 174.84 245.07 175.09 C 244.90 237.02 244.77 298.97 245.14 360.91 C 247.55 361.80 250.02 362.52 252.52 363.10 C 252.66 336.30 252.44 309.50 252.63 282.71 C 253.97 282.79 255.30 282.88 256.64 282.98 C 256.62 309.71 256.57 336.44 256.66 363.17 C 258.82 363.07 260.99 362.97 263.15 362.87 C 263.27 345.84 263.17 328.80 263.20 311.77 C 264.53 311.75 265.87 311.72 267.21 311.71 C 267.40 334.35 267.09 357.00 267.36 379.65 C 269.37 380.04 271.38 380.40 273.41 380.75 C 273.49 373.82 273.43 366.88 273.42 359.94 C 274.79 359.95 276.17 359.96 277.55 359.98 C 278.28 369.32 275.63 379.67 279.52 388.35 C 289.69 389.77 300.30 389.08 310.59 388.58 C 313.86 382.65 313.49 375.58 313.32 369.01 C 312.55 309.67 310.71 250.34 310.37 190.99 C 311.38 177.15 308.73 162.73 300.84 151.13 C 296.28 144.68 285.99 148.09 281.53 141.44 C 280.41 140.16 282.18 138.86 282.68 137.74 C 288.41 143.34 297.13 142.29 303.50 146.78 C 304.72 139.74 296.61 137.63 295.18 132.03 C 298.59 122.39 287.14 117.65 284.16 109.83 C 283.30 106.61 287.08 105.93 289.20 104.96 C 280.38 96.50 264.88 99.51 258.82 109.88 M 179.88 112.65 C 178.14 116.11 177.89 119.98 178.21 123.78 C 181.49 123.73 184.77 123.70 188.05 123.68 C 188.58 124.23 189.64 125.33 190.17 125.88 C 191.84 122.35 191.31 118.43 190.38 114.77 C 186.85 114.21 183.34 113.53 179.88 112.65 M 210.44 116.95 C 207.99 119.50 205.75 122.27 204.03 125.37 C 210.55 128.32 216.60 132.29 221.16 137.89 C 221.81 134.37 224.05 130.84 223.79 127.35 C 219.67 123.50 214.94 120.34 210.44 116.95 M 228.09 129.14 C 222.90 144.50 222.55 160.97 221.63 177.01 C 221.55 181.74 220.50 189.96 227.60 189.33 C 227.82 184.10 228.16 178.88 228.67 173.67 C 229.76 173.52 230.85 173.37 231.95 173.22 C 232.98 179.48 231.43 185.78 231.55 192.08 C 232.91 192.90 234.27 193.71 235.64 194.51 C 235.14 244.71 233.73 294.90 233.37 345.09 C 233.15 349.98 236.28 354.22 240.56 356.28 C 240.77 295.96 240.60 235.64 240.64 175.32 C 235.43 171.85 232.52 165.32 233.38 159.14 C 234.05 155.54 238.02 154.61 240.51 152.60 C 240.95 147.52 240.53 142.39 240.63 137.29 C 236.29 134.84 232.05 132.19 228.09 129.14 M 170.84 146.07 C 170.85 157.91 170.62 169.76 170.97 181.59 C 172.85 181.58 174.74 181.58 176.63 181.58 C 176.73 169.75 176.66 157.92 176.67 146.10 C 174.73 146.09 172.79 146.08 170.84 146.07 M 180.77 146.06 C 180.79 157.91 180.53 169.77 180.91 181.61 C 183.16 181.58 185.41 181.57 187.67 181.56 C 187.73 169.74 187.68 157.92 187.69 146.10 C 185.38 146.09 183.08 146.07 180.77 146.06 M 191.78 146.07 C 191.81 157.92 191.50 169.78 191.94 181.62 C 193.65 181.62 195.36 181.63 197.07 181.65 C 197.57 169.80 197.22 157.92 197.26 146.06 C 195.43 146.07 193.60 146.07 191.78 146.07 M 244.98 365.40 C 244.93 373.34 244.89 381.29 245.00 389.23 C 254.99 389.32 264.98 389.29 274.96 389.25 C 274.63 387.81 274.30 386.37 273.98 384.93 C 270.34 384.35 265.42 384.44 263.56 380.58 C 262.78 376.13 263.35 371.57 263.18 367.07 C 257.07 367.47 250.85 367.28 244.98 365.40 M 133.29 393.33 C 133.28 395.82 133.26 398.30 133.23 400.79 C 156.15 400.84 179.08 400.62 201.99 400.89 C 205.24 400.11 205.26 405.52 202.02 404.77 C 179.11 405.01 156.19 404.72 133.27 404.91 C 133.27 408.04 133.25 411.18 133.20 414.32 C 152.06 414.71 170.94 414.25 189.80 414.54 C 192.21 414.11 192.09 416.89 191.66 418.46 C 172.17 418.73 152.68 418.29 133.19 418.68 C 133.24 421.37 133.26 424.06 133.27 426.76 C 156.17 426.84 179.09 426.59 201.99 426.87 C 205.24 426.08 205.26 431.50 202.02 430.75 C 179.10 430.96 156.18 430.70 133.26 430.87 C 133.26 433.29 133.26 435.72 133.26 438.16 C 215.09 438.27 296.92 438.27 378.74 438.16 C 378.73 435.73 378.73 433.31 378.74 430.90 C 357.92 430.65 337.10 431.01 316.29 430.72 C 315.99 430.30 315.39 429.46 315.09 429.04 C 315.33 428.51 315.81 427.43 316.05 426.89 C 336.94 426.56 357.83 426.87 378.72 426.74 C 378.73 424.05 378.75 421.36 378.80 418.68 C 367.71 418.25 356.61 418.83 345.52 418.37 C 345.51 417.12 345.52 415.87 345.53 414.63 C 356.61 414.17 367.70 414.74 378.79 414.32 C 378.74 411.19 378.73 408.07 378.72 404.94 C 360.04 404.20 341.14 406.00 322.59 404.03 C 323.33 402.55 323.79 400.33 325.96 400.84 C 343.55 400.66 361.14 400.85 378.74 400.76 C 378.73 398.19 378.73 395.62 378.75 393.06 C 354.88 392.90 331.01 392.89 307.15 393.07 C 306.61 398.91 309.31 404.30 309.60 410.03 C 309.64 415.04 304.41 417.47 300.15 418.08 C 288.53 420.07 276.80 422.50 264.96 421.92 C 262.30 421.76 257.46 420.81 258.71 417.10 C 261.29 412.76 266.77 411.83 271.20 410.32 C 266.78 410.06 261.47 410.35 258.89 405.95 C 265.83 398.34 277.88 402.59 286.00 397.06 C 286.97 396.11 286.86 394.57 287.31 393.37 C 273.23 393.28 259.15 393.37 245.07 393.32 C 244.39 401.95 245.93 410.75 244.14 419.26 C 243.00 418.86 241.85 418.47 240.72 418.07 C 240.56 409.83 240.71 401.59 240.63 393.35 C 204.85 393.32 169.07 393.35 133.29 393.33 Z" />
<path fill="#2a2a2a" opacity="1.00" d=" M 240.79 49.10 C 241.60 46.74 245.28 47.51 244.89 50.05 C 244.99 56.40 245.81 62.95 244.16 69.16 C 243.36 69.04 241.76 68.80 240.95 68.67 C 240.32 62.18 240.31 55.60 240.79 49.10 Z" />
<path fill="#2a2a2a" opacity="1.00" d=" M 252.11 47.99 C 256.08 47.21 257.88 52.55 260.58 54.79 C 262.86 52.37 267.33 44.14 269.87 50.02 C 268.23 53.12 265.66 55.58 263.45 58.26 C 265.30 61.63 273.21 66.56 267.17 69.52 C 264.89 67.02 262.64 64.50 260.37 62.00 C 258.04 64.33 253.96 72.40 251.12 66.86 C 252.71 63.63 255.40 61.12 257.54 58.26 C 255.76 55.05 249.63 51.97 252.11 47.99 Z" />
<path fill="#2a2a2a" opacity="1.00" d=" M 157.64 60.34 C 158.13 60.31 159.13 60.26 159.62 60.24 C 160.32 61.87 161.01 63.52 161.72 65.15 C 163.40 65.98 169.00 67.37 165.69 69.53 C 161.97 70.53 160.27 73.81 158.90 77.10 C 157.00 72.92 153.71 70.45 150.13 67.95 C 153.54 66.31 156.98 64.46 157.64 60.34 Z" />
<path fill="#2a2a2a" opacity="1.00" d=" M 350.08 65.18 C 350.88 63.32 351.55 61.33 352.96 59.80 C 355.62 62.70 356.81 67.11 361.64 67.34 C 360.83 70.56 356.40 70.07 355.50 73.19 C 354.93 74.54 353.21 78.25 351.95 75.36 C 350.92 72.20 348.67 70.00 345.36 69.35 C 345.30 68.84 345.18 67.82 345.12 67.30 C 346.77 66.60 348.43 65.90 350.08 65.18 Z" />
<path fill="#2a2a2a" opacity="1.00" d=" M 295.27 77.61 C 299.52 76.97 301.29 73.19 303.01 69.77 C 304.90 73.08 306.52 76.97 310.80 77.57 C 310.85 78.09 310.96 79.14 311.02 79.66 C 306.30 80.14 305.53 84.85 302.42 87.31 C 301.62 85.50 300.88 83.67 300.13 81.84 C 298.44 81.11 296.74 80.39 295.05 79.65 C 295.10 79.14 295.22 78.12 295.27 77.61 Z" />
<path fill="#2a2a2a" opacity="1.00" d=" M 324.35 122.19 C 328.78 121.13 330.21 117.11 332.98 114.25 C 334.42 117.99 336.89 120.88 340.80 122.15 C 340.52 124.67 337.51 124.79 335.71 125.79 C 334.95 127.44 334.23 129.11 333.50 130.77 C 333.03 130.74 332.10 130.70 331.64 130.67 C 331.36 125.90 326.15 125.43 324.35 122.19 Z" />
<path fill="#2a2a2a" opacity="1.00" d=" M 292.77 156.93 C 294.28 153.28 298.77 156.94 299.41 159.62 C 303.19 169.84 303.03 181.05 302.91 191.80 C 302.43 192.06 301.46 192.59 300.98 192.85 C 300.53 192.58 299.65 192.04 299.20 191.78 C 298.15 180.11 300.23 166.84 292.77 156.93 Z" />
<path fill="#2a2a2a" opacity="1.00" d=" M 354.36 171.99 C 354.88 172.05 355.93 172.16 356.46 172.22 C 357.06 176.50 360.88 178.20 364.27 180.00 C 360.86 181.76 357.04 183.48 356.43 187.76 C 355.92 187.81 354.88 187.93 354.36 187.99 C 353.64 186.30 352.92 184.62 352.17 182.95 C 350.29 182.17 348.22 181.58 346.82 180.01 C 348.12 178.30 350.26 177.78 352.16 177.01 C 352.91 175.35 353.63 173.67 354.36 171.99 Z" />
<path fill="#2a2a2a" opacity="1.00" d=" M 268.86 198.06 C 269.41 197.84 270.52 197.39 271.07 197.16 C 271.46 197.45 272.24 198.01 272.64 198.30 C 271.97 211.31 276.87 224.59 286.59 233.41 C 288.42 234.72 290.24 237.77 287.02 238.72 C 274.28 229.85 267.34 213.43 268.86 198.06 Z" />
<path fill="#2a2a2a" opacity="1.00" d=" M 203.32 224.11 C 203.87 224.13 204.96 224.18 205.51 224.20 C 206.07 228.50 209.89 230.26 213.31 232.01 C 209.75 233.80 205.92 235.73 205.41 240.20 C 202.63 240.07 202.21 236.99 201.12 235.02 C 199.15 234.16 197.21 233.22 195.44 231.99 C 197.25 230.81 199.21 229.87 201.21 229.02 C 201.94 227.39 202.63 225.75 203.32 224.11 Z" />
<path fill="#2a2a2a" opacity="1.00" d=" M 337.18 234.14 C 338.05 232.06 339.03 229.99 340.67 228.39 C 341.88 232.58 344.93 235.22 348.80 236.91 C 345.20 239.23 342.42 242.13 340.02 245.72 C 338.49 242.65 336.97 239.40 333.32 238.49 C 330.03 236.39 335.52 234.97 337.18 234.14 Z" />
<path fill="#2a2a2a" opacity="1.00" d=" M 152.46 247.61 C 154.67 244.22 159.39 243.37 160.21 238.69 C 163.59 240.13 164.46 246.05 169.61 246.24 C 168.23 248.17 166.02 249.07 163.89 249.92 C 163.17 251.59 162.48 253.27 161.77 254.94 C 161.27 254.84 160.28 254.63 159.78 254.53 C 159.13 250.64 156.13 248.43 152.46 247.61 Z" />
<path fill="#2a2a2a" opacity="1.00" d=" M 252.87 264.16 C 253.69 264.12 255.34 264.04 256.17 264.00 C 256.76 267.47 256.69 271.00 256.50 274.50 C 255.30 274.66 254.10 274.82 252.90 274.98 C 252.44 271.38 252.44 267.75 252.87 264.16 Z" />
<path fill="#2a2a2a" opacity="1.00" d=" M 193.42 271.48 C 196.87 273.57 197.66 278.38 202.35 279.19 C 200.89 282.53 195.09 283.54 194.72 288.62 C 192.95 287.11 191.98 285.01 191.13 282.91 C 189.12 281.96 186.24 281.55 186.04 278.85 C 190.08 278.29 192.65 275.36 193.42 271.48 Z" />
<path fill="#2a2a2a" opacity="1.00" d=" M 353.53 279.07 C 357.78 277.85 359.68 274.25 362.08 271.07 C 363.97 274.29 365.54 277.94 369.78 278.45 C 369.78 278.98 369.77 280.04 369.77 280.57 C 365.48 281.06 364.12 284.81 362.07 287.88 C 360.35 287.14 360.07 285.07 359.12 283.67 C 357.98 281.34 354.28 281.69 353.53 279.07 Z" />
<path fill="#2a2a2a" opacity="1.00" d=" M 159.98 308.80 C 164.37 308.39 166.06 304.75 168.02 301.46 C 170.38 304.81 173.01 307.82 176.68 310.00 C 172.99 311.91 169.70 314.23 168.69 318.57 C 166.92 317.08 165.98 314.98 165.13 312.89 C 163.11 311.93 160.28 311.47 159.98 308.80 Z" />
<path fill="#2a2a2a" opacity="1.00" d=" M 299.47 321.17 C 298.90 318.58 303.76 318.20 303.25 321.01 C 303.58 328.30 303.56 335.65 303.14 342.95 C 302.29 343.02 300.60 343.16 299.75 343.24 C 299.04 335.91 299.32 328.51 299.47 321.17 Z" />
<path fill="#2a2a2a" opacity="1.00" d=" M 273.47 332.14 C 273.31 329.86 275.91 330.33 277.33 330.63 C 277.32 338.17 277.67 345.71 277.10 353.24 C 275.75 352.97 273.50 353.69 273.53 351.61 C 273.13 345.14 273.24 338.61 273.47 332.14 Z" />
<path fill="#2a2a2a" opacity="1.00" d=" M 200.39 338.43 C 201.17 336.38 202.08 334.32 203.87 332.95 C 205.00 337.13 208.00 340.05 212.15 341.24 C 209.54 343.79 205.54 344.72 204.62 348.74 C 202.44 351.94 201.18 346.36 200.24 344.78 C 198.40 343.77 195.61 343.51 195.11 341.09 C 196.79 340.07 198.60 339.27 200.39 338.43 Z" />
<path fill="#2a2a2a" opacity="1.00" d=" M 352.33 339.57 C 355.57 341.98 356.31 346.82 361.15 347.24 C 361.04 347.76 360.82 348.80 360.71 349.32 C 356.92 349.91 355.12 352.95 353.76 356.18 C 351.03 356.85 351.08 352.86 349.90 351.20 C 347.85 350.33 345.32 349.76 344.61 347.34 C 346.42 346.58 348.25 345.85 350.07 345.11 C 350.80 343.25 351.54 341.40 352.33 339.57 Z" />
<path fill="#2a2a2a" opacity="1.00" d=" M 299.49 349.48 C 300.68 349.32 301.87 349.18 303.07 349.04 C 303.59 360.38 303.72 371.81 302.99 383.14 C 298.12 383.50 299.50 378.20 299.32 374.99 C 299.46 366.49 299.19 357.98 299.49 349.48 Z" />
<path fill="#2a2a2a" opacity="1.00" d=" M 159.91 358.81 C 161.08 357.12 161.03 353.21 163.77 353.80 C 165.11 357.04 166.92 360.08 170.72 360.67 C 170.83 361.19 171.06 362.24 171.17 362.76 C 166.32 363.16 165.59 368.03 162.33 370.43 C 161.55 368.59 160.81 366.73 160.08 364.88 C 158.26 364.14 156.42 363.41 154.61 362.66 C 155.34 360.25 157.85 359.66 159.91 358.81 Z" />
<path fill="#2a2a2a" opacity="1.00" d=" M 196.79 417.71 C 195.57 411.60 203.66 414.35 207.31 413.86 C 209.26 420.08 200.26 417.32 196.79 417.71 Z" />
<path fill="#2a2a2a" opacity="1.00" d=" M 323.09 414.23 C 326.27 413.36 329.59 413.84 332.82 414.16 C 332.77 415.32 332.72 416.49 332.67 417.66 C 329.55 417.48 320.70 419.73 323.09 414.23 Z" />
<path fill="#2a2a2a" opacity="1.00" d=" M 144.23 454.52 C 149.41 453.92 154.68 454.09 159.88 454.34 C 162.13 454.26 161.57 456.92 161.67 458.37 C 159.41 458.54 157.15 458.68 154.89 458.83 C 154.67 464.09 155.26 469.40 154.54 474.64 C 153.49 475.51 152.32 475.70 151.02 475.21 C 149.65 469.86 150.73 464.23 150.35 458.78 C 148.22 458.68 146.09 458.61 143.96 458.54 C 143.69 457.17 143.07 455.66 144.23 454.52 Z" />
<path fill="#2a2a2a" opacity="1.00" d=" M 168.14 454.03 C 173.18 453.58 171.88 459.34 172.20 462.62 C 175.29 462.59 178.37 462.58 181.46 462.57 C 181.48 459.71 181.63 456.84 182.17 454.03 C 183.43 454.44 185.89 454.10 185.85 456.06 C 186.34 462.43 186.06 468.85 185.82 475.23 C 180.37 476.79 181.69 470.63 181.49 467.14 C 178.38 467.13 175.28 467.12 172.17 467.10 C 172.04 469.80 171.91 472.51 171.77 475.21 C 170.51 475.25 169.26 475.20 168.01 475.08 C 167.19 468.13 167.19 460.97 168.14 454.03 Z" />
<path fill="#2a2a2a" opacity="1.00" d=" M 193.59 454.55 C 199.48 454.21 205.53 453.62 211.37 454.72 C 211.64 455.93 211.62 457.18 211.67 458.43 C 207.03 458.73 202.39 458.69 197.75 458.72 C 197.84 460.01 197.93 461.30 198.03 462.60 C 201.58 462.49 205.14 462.54 208.68 462.96 C 208.81 463.77 209.08 465.39 209.21 466.19 C 205.57 467.55 201.65 467.14 197.85 467.15 C 197.84 468.41 197.84 469.68 197.84 470.96 C 202.32 472.20 211.80 467.93 211.99 474.95 C 205.96 475.96 199.84 475.48 193.77 475.33 C 193.03 468.43 193.33 461.47 193.59 454.55 Z" />
<path fill="#2a2a2a" opacity="1.00" d=" M 233.54 454.47 C 234.84 454.45 236.14 454.45 237.44 454.46 C 237.63 457.16 237.74 459.85 237.83 462.56 C 240.95 462.58 244.06 462.58 247.18 462.56 C 247.27 459.86 247.38 457.17 247.56 454.48 C 248.86 454.46 250.16 454.45 251.47 454.46 C 251.83 460.85 252.01 467.30 251.56 473.69 C 251.53 475.69 249.08 475.20 247.81 475.66 C 247.37 472.83 247.22 469.97 247.16 467.12 C 244.05 467.12 240.94 467.12 237.83 467.11 C 237.47 470.01 239.06 476.74 234.08 475.26 C 232.31 468.60 233.51 461.34 233.54 454.47 Z" />
<path fill="#2a2a2a" opacity="1.00" d=" M 259.39 455.33 C 263.86 452.86 269.93 454.65 275.01 454.29 C 277.40 453.65 278.64 457.35 276.48 458.35 C 272.30 459.06 268.03 458.57 263.82 458.60 C 263.68 459.91 263.55 461.22 263.41 462.54 C 267.05 462.56 270.69 462.60 274.32 462.69 C 276.42 469.21 267.27 466.70 263.61 467.11 C 263.60 468.40 263.60 469.70 263.60 471.01 C 267.74 472.11 278.74 468.02 277.10 475.08 C 271.21 475.88 265.18 475.69 259.28 475.06 C 259.19 468.49 258.77 461.88 259.39 455.33 Z" />
<path fill="#2a2a2a" opacity="1.00" d=" M 284.56 454.56 C 290.03 454.19 297.57 452.46 301.13 457.94 C 303.74 461.58 301.56 465.95 299.07 468.95 C 300.30 470.32 301.52 471.69 302.74 473.08 C 301.84 474.07 300.93 475.05 300.03 476.03 C 296.69 473.06 293.61 468.62 288.49 469.80 C 288.29 471.62 288.09 473.44 287.88 475.26 C 282.55 476.65 283.88 470.27 283.74 467.00 C 284.06 462.89 282.99 458.45 284.56 454.56 M 288.33 458.63 C 288.32 460.90 288.32 463.17 288.32 465.46 C 290.84 465.40 293.40 465.63 295.88 465.07 C 298.43 464.05 298.40 460.04 295.89 458.99 C 293.41 458.46 290.84 458.67 288.33 458.63 Z" />
<path fill="#2a2a2a" opacity="1.00" d=" M 308.60 454.66 C 313.41 453.30 315.77 459.29 319.11 461.66 C 321.79 459.01 324.51 456.40 327.19 453.75 C 328.35 454.58 330.06 455.19 329.73 456.96 C 329.83 462.54 330.06 468.17 329.60 473.74 C 329.56 475.72 327.05 475.17 325.80 475.63 C 325.17 471.17 325.31 466.65 325.28 462.17 C 323.23 463.73 321.63 466.31 319.08 466.98 C 316.59 466.17 315.01 463.73 313.03 462.11 C 312.98 466.47 312.93 470.82 312.78 475.18 C 311.50 475.22 310.22 475.20 308.94 475.12 C 307.98 468.35 308.66 461.47 308.60 454.66 Z" />
<path fill="#2a2a2a" opacity="1.00" d=" M 337.29 456.11 C 337.31 453.91 339.93 454.42 341.38 454.42 C 341.62 460.80 341.90 467.22 341.41 473.58 C 341.60 476.16 338.87 475.01 337.29 475.12 C 337.18 468.79 336.92 462.44 337.29 456.11 Z" />
<path fill="#2a2a2a" opacity="1.00" d=" M 347.47 454.53 C 353.48 454.01 359.53 454.01 365.54 454.53 C 365.51 455.79 365.49 457.07 365.46 458.35 C 363.23 458.53 360.99 458.69 358.76 458.85 C 358.58 463.79 359.05 468.76 358.55 473.69 C 358.52 475.70 356.08 475.21 354.79 475.66 C 353.87 470.10 354.41 464.46 354.25 458.85 C 352.01 458.69 349.78 458.53 347.55 458.34 C 347.52 457.07 347.49 455.79 347.47 454.53 Z" />
</g>
</svg>
