<?xml version="1.0" encoding="UTF-8" ?>
<!DOCTYPE svg PUBLIC "-//W3C//DTD SVG 1.1//EN" "http://www.w3.org/Graphics/SVG/1.1/DTD/svg11.dtd">
<svg width="120pt" height="120pt" viewBox="0 0 512 512" version="1.1" xmlns="http://www.w3.org/2000/svg">
<g id="#2a2a2afd">
<path fill="#2a2a2a" opacity="1.00" d=" M 132.35 21.49 C 213.57 21.09 294.82 21.47 376.05 21.30 C 381.73 20.98 387.65 23.28 390.86 28.13 C 394.43 33.00 393.59 39.33 393.67 45.00 C 393.61 188.32 393.70 331.64 393.62 474.96 C 393.83 483.35 386.36 490.82 377.97 490.64 C 296.97 490.72 215.97 490.64 134.97 490.68 C 126.27 491.24 118.12 483.75 118.38 474.96 C 118.31 329.30 118.38 183.63 118.34 37.97 C 117.82 29.91 124.21 22.10 132.35 21.49 M 131.45 25.77 C 125.88 26.83 122.08 32.43 122.41 37.97 C 122.42 183.32 122.42 328.68 122.41 474.03 C 121.86 480.93 128.01 487.15 134.92 486.59 C 215.64 486.59 296.36 486.59 377.08 486.59 C 383.99 487.15 390.13 480.93 389.59 474.03 C 389.58 328.68 389.58 183.32 389.59 37.97 C 389.87 32.68 386.48 27.32 381.26 25.94 C 376.91 24.98 372.41 25.50 368.00 25.40 C 293.67 25.42 219.33 25.41 145.00 25.41 C 140.49 25.48 135.93 25.06 131.45 25.77 Z" />
<path fill="#2a2a2a" opacity="1.00" d=" M 132.46 30.67 C 136.92 29.85 141.49 30.40 146.00 30.29 C 222.69 30.29 299.39 30.30 376.08 30.28 C 379.53 29.75 383.22 32.11 382.75 35.92 C 382.80 169.29 382.82 302.67 382.76 436.04 C 383.32 440.56 378.17 440.68 375.00 440.46 C 297.33 440.35 219.66 440.41 142.00 440.43 C 137.96 440.19 133.52 441.24 129.80 439.26 C 128.68 434.94 129.32 430.41 129.19 426.00 C 129.21 296.31 129.22 166.61 129.19 36.92 C 129.09 34.49 129.72 31.36 132.46 30.67 M 133.34 34.40 C 133.20 50.49 133.27 66.58 133.30 82.67 C 136.97 82.69 141.45 84.35 144.42 81.41 C 151.32 74.99 157.13 67.49 163.89 60.92 C 166.63 62.73 169.31 64.62 171.86 66.66 C 170.84 68.28 169.80 69.88 168.77 71.49 C 172.85 70.18 176.91 68.80 181.03 67.63 C 182.67 70.44 184.18 73.35 185.37 76.38 C 179.49 78.84 173.44 80.84 167.57 83.29 C 180.74 85.39 195.81 86.45 207.20 78.20 C 214.08 73.73 221.50 70.21 228.86 66.62 C 230.82 69.05 232.72 71.52 234.54 74.06 C 230.83 77.09 226.69 79.51 222.57 81.94 C 232.04 80.94 241.58 80.99 251.06 80.34 C 256.87 79.54 263.55 73.14 268.57 78.89 C 276.72 78.37 284.88 78.01 293.04 78.00 C 292.48 76.94 291.91 75.89 291.35 74.83 C 293.19 72.37 295.05 69.92 296.98 67.53 C 302.92 70.28 308.60 73.53 314.30 76.74 C 319.75 80.19 326.46 78.46 332.52 78.82 C 328.55 75.38 323.01 72.10 322.25 66.49 C 324.73 64.55 327.70 63.40 330.55 62.10 C 333.14 65.47 336.15 68.50 339.58 71.02 C 339.64 68.76 339.69 66.51 339.78 64.25 C 342.96 63.98 346.15 63.78 349.34 63.63 C 350.45 67.93 349.84 72.85 352.24 76.71 C 361.16 77.82 369.94 75.20 378.70 73.93 C 378.70 60.75 378.79 47.57 378.65 34.40 C 296.88 34.36 215.11 34.36 133.34 34.40 M 164.22 66.23 C 158.48 72.50 152.97 79.02 146.74 84.80 C 143.12 88.29 137.74 86.97 133.24 86.84 C 133.26 89.77 133.27 92.70 133.28 95.63 C 143.53 96.13 153.74 98.09 164.03 97.29 C 168.65 96.68 172.42 99.78 176.28 101.76 C 182.65 105.56 189.73 107.93 196.94 109.51 C 197.66 108.67 198.38 107.83 199.10 106.99 C 191.17 106.12 181.19 104.18 176.74 97.09 C 191.60 94.05 207.21 98.96 222.12 95.40 C 229.57 93.93 233.85 104.87 241.18 102.75 C 239.52 100.30 233.38 98.73 235.32 95.33 C 242.54 94.05 249.97 95.21 257.26 94.49 C 256.25 91.11 255.19 87.75 254.12 84.38 C 242.64 85.07 231.02 84.59 219.68 86.86 C 217.51 87.21 215.25 87.66 213.11 86.94 C 213.84 78.13 225.26 78.40 229.15 71.73 C 218.96 74.60 210.73 81.62 201.30 86.08 C 187.87 90.17 172.85 89.59 159.61 85.45 C 164.55 78.20 173.63 77.31 180.78 73.39 C 173.83 72.39 167.95 77.42 161.20 77.97 C 158.31 74.43 164.73 70.54 166.45 67.27 C 165.89 67.01 164.78 66.49 164.22 66.23 M 327.46 66.72 C 329.32 73.66 337.18 75.85 341.77 80.65 C 340.46 81.84 338.98 83.06 337.08 82.85 C 330.51 82.79 323.88 83.30 317.35 82.51 C 310.00 80.08 304.13 74.20 296.37 72.78 C 298.34 75.69 301.43 77.48 303.80 80.00 C 302.21 82.13 299.37 81.74 297.05 81.93 C 287.56 82.17 278.05 82.19 268.58 83.04 C 268.68 86.56 268.79 90.07 268.90 93.58 C 285.98 92.48 303.25 91.77 320.28 93.03 C 318.37 99.28 312.73 103.76 307.00 106.47 C 307.26 106.93 307.78 107.85 308.04 108.31 C 315.48 103.45 322.76 98.33 330.16 93.39 C 331.76 94.48 333.36 95.60 334.94 96.74 C 333.09 99.57 331.15 102.32 329.20 105.07 C 329.82 105.34 331.06 105.88 331.68 106.15 C 334.98 101.50 338.22 95.19 344.93 95.84 C 356.09 92.54 367.37 97.77 378.67 95.36 C 378.74 89.60 378.72 83.83 378.71 78.07 C 369.60 79.43 360.41 82.02 351.14 80.81 C 345.29 78.45 348.07 70.90 344.31 66.96 C 344.06 70.28 344.24 73.63 343.78 76.93 C 337.15 76.36 333.02 69.82 327.46 66.72 M 269.61 97.63 C 268.17 99.22 266.69 100.77 265.18 102.29 C 265.17 106.32 265.14 110.36 265.29 114.39 C 267.79 108.31 270.29 102.05 275.06 97.33 C 273.24 97.43 271.43 97.53 269.61 97.63 M 285.22 96.53 C 290.42 107.20 281.85 117.49 278.33 127.22 C 276.62 130.35 278.91 133.24 279.92 136.12 C 279.16 138.77 277.09 141.04 277.28 143.93 C 277.48 156.59 278.73 169.38 276.55 181.95 C 275.18 189.47 276.27 197.12 276.38 204.70 C 288.67 206.32 293.05 191.65 304.14 190.07 C 307.66 189.26 311.74 191.96 310.95 195.85 C 309.80 203.11 303.42 207.66 299.10 213.05 C 296.05 216.57 294.34 221.76 289.65 223.48 C 285.25 225.14 280.95 222.53 276.83 221.31 C 276.90 227.99 277.24 234.66 277.38 241.34 C 283.03 242.95 285.60 248.48 284.94 254.04 C 283.97 259.22 290.95 263.58 287.54 268.42 C 281.36 274.96 274.62 283.23 275.28 292.73 C 287.03 301.00 301.47 304.38 314.90 309.10 C 319.19 310.88 324.58 313.12 325.65 318.18 C 326.66 325.47 321.33 331.90 315.41 335.43 C 304.83 341.75 292.16 342.81 281.16 348.21 C 279.45 351.59 277.82 355.12 275.06 357.79 C 270.61 356.91 274.46 352.34 275.33 349.93 C 271.50 350.77 267.65 351.52 263.80 352.26 C 264.18 355.36 265.09 358.40 267.11 360.85 C 272.47 368.16 276.90 376.71 276.44 386.04 C 275.80 392.80 280.78 400.75 275.36 406.45 C 274.34 405.01 273.35 403.58 272.38 402.12 C 272.54 406.23 273.03 410.57 271.30 414.44 C 266.65 415.43 267.48 408.61 265.82 405.70 C 265.53 409.70 265.52 413.71 265.33 417.72 C 264.56 417.68 263.03 417.62 262.26 417.58 C 261.40 415.06 260.58 412.53 259.77 410.00 C 258.87 413.30 257.92 416.60 256.63 419.77 C 252.84 417.36 252.63 412.59 251.49 408.70 C 250.65 411.53 249.85 414.38 248.98 417.21 C 242.59 414.96 244.87 406.33 244.74 401.08 C 243.75 402.52 242.74 403.94 241.72 405.36 C 236.53 396.93 236.79 386.51 236.42 376.96 C 235.95 367.66 244.72 361.19 244.21 351.95 C 241.19 351.50 238.16 351.03 235.15 350.54 C 236.04 352.98 238.62 355.56 237.05 358.26 C 232.83 358.15 231.86 352.72 229.68 349.87 C 215.48 351.40 203.42 342.91 190.57 338.47 C 185.38 335.85 176.90 333.47 177.35 326.25 C 179.20 318.69 186.82 314.44 193.42 311.46 C 204.38 306.63 215.14 300.95 224.44 293.37 C 229.49 280.35 219.22 268.05 209.93 260.05 C 205.82 256.49 208.00 251.02 207.50 246.47 C 204.19 238.26 199.56 230.66 194.68 223.30 C 189.99 215.92 194.66 204.32 203.94 204.08 C 219.39 203.72 234.89 204.62 250.36 204.65 C 251.85 195.79 254.71 187.08 254.50 178.01 C 254.77 164.12 257.71 150.47 260.68 136.95 C 259.00 135.70 257.23 134.52 255.90 132.88 C 259.26 121.75 257.18 110.02 257.80 98.58 C 253.78 98.72 249.76 98.83 245.73 98.89 C 245.25 102.89 243.21 106.64 239.95 109.03 C 233.84 106.77 229.38 101.02 223.06 99.49 C 211.52 102.20 199.73 99.64 188.07 100.56 C 193.53 102.81 199.61 102.31 205.17 104.14 C 205.25 108.19 201.19 110.97 198.42 113.43 C 186.86 113.12 176.93 106.22 166.74 101.60 C 155.55 101.89 144.42 100.53 133.26 99.75 C 133.27 211.93 133.29 324.11 133.25 436.30 C 215.08 436.38 296.92 436.38 378.75 436.29 C 378.63 323.98 378.85 211.67 378.62 99.36 C 372.12 100.31 365.51 100.41 359.06 99.06 C 353.01 97.67 347.11 100.18 341.10 100.52 C 338.06 104.21 335.34 108.14 332.28 111.81 C 329.40 109.96 326.58 108.01 323.83 105.98 C 325.07 103.92 326.36 101.89 327.66 99.87 C 320.90 104.49 314.34 109.45 307.20 113.47 C 305.17 111.04 303.02 108.66 301.45 105.88 C 304.27 101.67 310.52 101.20 313.45 96.75 C 304.05 96.34 294.63 96.69 285.22 96.53 M 270.95 111.78 C 269.47 116.98 263.23 119.58 263.81 125.57 C 270.20 121.48 273.59 113.54 281.08 111.17 C 282.53 107.36 283.27 103.26 282.41 99.21 C 275.82 99.94 272.99 106.35 270.95 111.78 M 266.05 130.09 C 268.35 130.86 270.67 131.60 273.00 132.31 C 273.84 127.57 275.50 123.06 277.28 118.61 C 273.39 122.29 269.57 126.06 266.05 130.09 M 264.62 138.30 C 261.94 149.56 259.72 160.97 258.79 172.52 C 258.94 190.93 252.96 208.60 250.62 226.75 C 255.04 226.93 259.68 227.15 263.61 229.44 C 268.25 231.78 270.18 236.90 273.11 240.86 C 273.10 222.56 271.85 204.27 271.93 185.97 C 274.50 171.23 273.87 156.17 272.91 141.32 C 270.30 139.93 267.39 139.26 264.62 138.30 M 294.35 200.69 C 295.05 207.86 291.04 214.22 287.78 220.26 C 292.50 216.71 294.74 211.00 298.99 207.00 C 302.81 203.34 306.31 199.10 307.43 193.79 C 302.16 193.88 297.84 197.04 294.35 200.69 M 276.41 208.76 C 276.50 211.88 276.64 215.01 276.92 218.12 C 277.59 216.55 278.23 214.97 278.88 213.39 C 279.75 213.34 280.63 213.29 281.51 213.25 C 281.88 214.99 282.23 216.73 282.61 218.48 C 286.15 215.26 288.54 211.04 289.84 206.46 C 285.41 207.49 280.95 208.40 276.41 208.76 M 198.84 210.86 C 195.83 214.50 196.82 219.95 199.53 223.48 C 204.62 230.30 208.01 238.15 211.87 245.69 C 215.12 245.24 219.53 245.70 221.11 242.05 C 223.30 237.50 224.40 232.48 226.88 228.03 C 226.45 227.32 226.02 226.60 225.60 225.89 C 221.62 224.73 213.80 222.57 216.08 217.09 C 219.22 218.02 221.79 220.13 224.57 221.78 C 224.86 220.25 225.14 218.72 225.43 217.20 C 226.00 217.13 227.13 217.00 227.69 216.94 C 228.79 218.53 229.87 220.14 231.02 221.70 C 231.68 219.96 232.35 218.22 233.04 216.48 C 234.45 217.92 235.82 219.40 237.11 220.97 C 237.97 218.99 239.01 217.03 240.68 215.61 C 241.37 217.10 242.09 218.58 242.85 220.04 C 244.79 218.47 246.54 216.68 248.47 215.10 C 248.86 212.97 249.22 210.85 249.61 208.72 C 236.07 208.45 222.52 208.34 208.97 207.88 C 205.46 207.87 201.29 207.90 198.84 210.86 M 229.39 225.61 C 234.35 228.46 240.15 233.77 246.09 230.27 C 246.36 228.05 246.66 225.83 246.97 223.61 C 241.12 224.38 235.23 224.76 229.39 225.61 M 250.48 231.60 C 249.10 234.29 248.73 237.35 248.03 240.27 C 247.21 240.25 245.58 240.22 244.77 240.20 C 244.73 238.84 244.69 237.48 244.67 236.12 C 241.65 235.71 238.68 235.08 235.76 234.23 C 236.70 236.61 237.59 239.02 238.37 241.47 C 237.53 241.64 235.84 241.99 235.00 242.16 C 233.27 238.69 231.50 235.24 229.52 231.90 C 227.92 235.36 226.73 238.99 225.53 242.60 C 226.58 242.90 228.68 243.49 229.73 243.78 C 227.00 251.37 218.55 249.20 212.35 249.46 C 211.87 250.48 211.41 251.51 210.94 252.54 C 212.08 253.01 213.21 253.50 214.35 253.98 C 214.06 255.69 213.78 257.40 213.54 259.11 C 215.03 258.11 216.50 257.09 217.98 256.07 C 218.59 256.37 219.81 256.95 220.42 257.25 C 219.70 258.74 218.95 260.23 218.19 261.71 C 221.04 264.88 223.38 268.46 225.41 272.20 C 226.22 271.73 227.02 271.26 227.83 270.80 C 225.98 266.44 224.29 262.00 223.37 257.34 C 229.61 256.49 228.97 265.06 231.41 268.91 C 232.41 268.64 233.41 268.37 234.41 268.11 C 233.31 264.54 232.34 260.87 232.44 257.10 C 233.25 257.19 234.86 257.37 235.67 257.46 C 236.57 260.56 237.46 263.67 238.32 266.79 C 239.11 266.88 240.68 267.06 241.46 267.16 C 241.09 261.30 240.01 255.54 238.91 249.78 C 240.30 249.61 241.69 249.46 243.09 249.32 C 243.35 248.10 243.61 246.88 243.87 245.66 C 244.98 245.54 246.08 245.43 247.19 245.32 C 247.32 252.45 247.00 259.58 247.44 266.71 C 248.50 266.76 249.56 266.81 250.62 266.86 C 251.01 264.78 251.40 262.70 251.81 260.62 C 252.65 260.70 254.32 260.86 255.15 260.94 C 255.15 263.06 255.13 265.19 255.12 267.31 C 256.89 267.54 258.67 267.77 260.45 267.99 C 261.14 265.38 261.82 262.76 262.46 260.14 C 260.82 258.82 259.23 257.41 257.95 255.73 C 261.09 254.82 264.22 253.87 267.38 253.02 C 267.19 258.57 265.80 263.96 264.29 269.27 C 266.22 270.09 268.15 270.91 270.08 271.73 C 272.05 269.10 273.01 266.00 272.65 262.72 C 273.79 262.48 274.93 262.24 276.07 262.00 C 275.27 260.16 273.20 258.34 274.33 256.21 C 277.15 256.21 279.47 258.05 281.94 259.14 C 280.27 256.36 277.70 254.41 274.90 252.88 C 275.07 252.22 275.41 250.90 275.58 250.24 C 277.54 250.44 279.51 250.66 281.47 250.85 C 280.00 245.51 274.07 245.84 269.83 244.09 C 269.30 246.11 268.76 248.13 268.20 250.15 C 264.68 249.38 261.12 248.78 257.55 248.26 C 257.48 247.17 257.41 246.08 257.35 244.99 C 260.18 244.82 263.03 244.76 265.87 244.69 C 265.78 244.20 265.61 243.22 265.52 242.73 C 263.30 242.21 261.07 241.69 258.86 241.14 C 258.98 240.31 259.21 238.66 259.33 237.83 C 261.89 238.00 264.44 238.21 267.01 238.37 C 263.61 232.93 256.79 229.55 250.48 231.60 M 281.29 259.48 C 279.33 264.73 276.54 269.63 273.09 274.05 C 273.97 274.88 274.84 275.71 275.73 276.54 C 278.13 272.44 281.28 268.85 284.84 265.71 C 283.68 263.62 282.49 261.55 281.29 259.48 M 227.22 277.39 C 242.48 271.05 261.28 271.21 274.27 282.44 C 270.09 273.35 258.92 271.58 250.02 270.86 C 242.29 270.82 232.23 270.31 227.22 277.39 M 248.25 277.12 C 249.02 296.38 246.76 315.93 251.12 334.90 C 257.38 337.15 264.21 337.13 270.40 339.50 C 273.21 340.44 273.33 343.68 273.91 346.11 C 281.08 344.19 287.74 340.76 294.93 338.88 C 303.49 336.40 313.03 334.14 319.03 327.01 C 321.36 324.17 323.43 318.88 319.79 316.24 C 314.40 312.45 307.81 311.09 301.65 309.04 C 300.89 310.74 300.15 312.48 299.12 314.04 C 296.57 312.78 296.92 309.64 296.30 307.28 C 295.16 306.85 294.02 306.41 292.89 305.98 C 292.06 307.55 291.84 309.71 290.05 310.53 C 287.25 309.78 288.57 306.14 288.00 304.00 C 286.93 303.52 285.86 303.05 284.79 302.59 C 283.75 304.46 282.37 306.12 280.28 306.85 C 279.96 304.63 279.71 302.40 279.51 300.17 C 278.05 299.40 276.59 298.63 275.13 297.87 C 275.68 301.93 274.76 306.96 277.59 310.26 C 286.19 313.90 294.23 320.08 304.08 319.33 C 307.23 318.98 314.78 321.46 311.12 325.24 C 307.87 324.42 304.66 323.42 301.34 322.86 C 301.24 324.88 303.95 329.95 300.19 328.90 C 296.52 325.71 293.21 322.02 288.70 319.95 C 289.35 322.74 290.76 326.14 287.41 327.73 C 285.15 323.73 283.39 319.45 280.78 315.66 C 281.75 321.17 284.29 327.26 281.54 332.65 C 277.10 335.42 278.29 329.08 278.95 326.55 C 277.26 326.98 273.02 329.68 274.37 326.09 C 275.49 321.53 275.90 316.70 273.63 312.39 C 269.68 304.25 272.18 294.98 270.45 286.47 C 265.92 278.96 256.29 277.51 248.25 277.12 M 229.71 285.98 C 229.18 301.03 221.93 316.53 228.56 331.18 C 229.28 335.67 224.13 331.70 222.92 329.80 C 223.03 331.85 223.14 333.90 223.23 335.95 C 222.49 336.25 221.01 336.86 220.27 337.17 C 217.61 330.80 220.31 323.97 220.37 317.41 C 217.35 320.31 216.99 324.62 214.96 328.07 C 211.47 329.62 212.71 324.46 212.05 322.48 C 209.43 325.99 207.81 330.47 203.99 332.92 C 200.95 332.83 202.27 329.99 202.58 328.05 C 200.20 328.08 197.82 328.02 195.45 327.90 C 195.87 322.49 202.28 324.92 205.56 322.56 C 210.93 319.19 216.17 315.61 221.73 312.54 C 222.52 308.04 223.22 303.53 223.92 299.02 C 222.38 300.06 220.85 301.10 219.31 302.15 C 218.76 304.43 219.64 307.75 217.04 308.90 C 215.97 307.80 215.03 306.58 214.08 305.39 C 213.26 305.94 212.45 306.49 211.63 307.05 C 211.54 308.82 211.46 310.59 211.37 312.36 C 210.75 312.65 209.51 313.23 208.89 313.52 C 208.14 312.25 207.40 310.99 206.66 309.73 C 205.61 310.23 204.56 310.74 203.52 311.25 C 203.38 313.40 203.23 315.55 203.08 317.71 C 202.29 317.83 200.71 318.06 199.93 318.18 C 199.54 316.64 199.16 315.11 198.79 313.58 C 192.38 316.29 185.12 319.21 181.69 325.72 C 180.38 328.12 183.15 330.04 184.92 331.13 C 193.75 336.11 203.58 338.93 212.72 343.25 C 218.79 346.27 225.69 345.67 232.25 345.77 C 233.38 338.73 242.35 339.23 246.94 335.11 C 242.75 316.08 245.05 296.55 244.09 277.26 C 238.71 278.09 229.37 278.47 229.71 285.98 M 249.19 338.49 C 245.51 340.58 241.75 342.53 238.23 344.89 C 241.11 345.23 244.00 345.38 246.90 345.45 C 247.51 348.36 247.98 351.30 248.33 354.26 C 252.20 353.61 256.13 353.68 259.99 354.31 C 260.14 351.34 260.35 348.37 260.71 345.42 C 263.92 345.71 267.15 345.19 269.98 343.58 C 263.20 341.25 255.91 341.02 249.19 338.49 M 241.89 375.76 C 239.48 381.67 241.34 387.98 241.65 394.08 C 242.86 392.90 244.07 391.73 245.30 390.57 C 248.02 394.17 248.82 398.65 248.87 403.07 C 250.23 401.74 251.63 400.45 253.07 399.21 C 254.20 402.12 255.12 405.12 255.98 408.13 C 257.24 404.61 257.65 395.67 262.47 400.84 C 263.60 399.12 265.33 398.12 267.36 397.92 C 267.82 396.18 268.28 394.44 268.78 392.72 C 270.10 393.06 271.44 393.41 272.77 393.76 C 272.38 387.79 272.40 381.78 271.22 375.90 C 270.12 375.41 269.02 374.93 267.93 374.45 C 266.75 366.73 262.46 356.64 252.98 357.68 C 244.52 359.03 243.10 368.84 241.89 375.76 Z" />
<path fill="#2a2a2a" opacity="1.00" d=" M 346.38 42.44 C 351.23 47.60 351.48 58.27 344.22 61.19 C 339.86 55.35 341.99 47.57 346.38 42.44 Z" />
<path fill="#2a2a2a" opacity="1.00" d=" M 157.08 62.52 C 150.87 58.99 148.49 50.54 152.54 44.49 C 157.98 48.16 162.27 57.47 157.08 62.52 Z" />
<path fill="#2a2a2a" opacity="1.00" d=" M 169.77 62.76 C 167.42 55.59 170.69 47.31 178.22 45.09 C 180.35 52.29 176.46 59.71 169.77 62.76 Z" />
<path fill="#2a2a2a" opacity="1.00" d=" M 233.28 47.92 C 236.50 42.51 240.18 50.63 242.78 52.91 C 245.31 50.60 246.97 45.92 250.80 45.93 C 253.86 49.62 247.53 53.38 245.73 56.59 C 247.95 59.50 251.30 61.98 252.01 65.74 C 248.42 69.72 245.26 62.23 242.78 60.08 C 240.24 62.35 236.46 70.43 233.30 65.07 C 235.01 61.86 237.55 59.22 239.82 56.41 C 237.50 53.70 234.97 51.10 233.28 47.92 Z" />
<path fill="#2a2a2a" opacity="1.00" d=" M 259.08 45.78 C 260.17 46.04 262.47 45.78 262.45 47.40 C 263.03 53.93 262.71 60.51 262.44 67.05 C 260.86 66.80 258.34 67.18 258.40 64.87 C 258.28 58.55 257.39 51.94 259.08 45.78 Z" />
<path fill="#2a2a2a" opacity="1.00" d=" M 270.60 45.64 C 271.87 45.95 273.15 46.26 274.43 46.58 C 274.57 53.19 274.57 59.80 274.44 66.41 C 273.15 66.73 271.87 67.04 270.60 67.35 C 269.70 60.15 269.69 52.83 270.60 45.64 Z" />
<path fill="#2a2a2a" opacity="1.00" d=" M 313.67 46.65 C 321.16 47.10 327.47 53.31 326.94 61.01 C 319.32 60.67 314.02 53.95 313.67 46.65 Z" />
<path fill="#2a2a2a" opacity="1.00" d=" M 214.17 49.31 C 221.29 50.54 226.18 57.80 224.53 64.87 C 216.88 65.31 213.57 55.74 214.17 49.31 Z" />
<path fill="#2a2a2a" opacity="1.00" d=" M 302.77 68.31 C 299.16 61.67 301.77 53.47 307.89 49.37 C 311.45 56.02 309.55 64.56 302.77 68.31 Z" />
<path fill="#2a2a2a" opacity="1.00" d=" M 185.46 70.36 C 182.78 63.26 185.99 55.12 193.17 52.36 C 195.65 59.46 192.17 67.19 185.46 70.36 Z" />
<path fill="#2a2a2a" opacity="1.00" d=" M 283.88 52.16 C 291.46 54.14 295.14 62.71 292.29 69.81 C 285.27 66.97 282.63 59.21 283.88 52.16 Z" />
<path fill="#2a2a2a" opacity="1.00" d=" M 354.31 71.15 C 353.55 63.77 358.71 57.10 365.85 55.48 C 366.95 62.90 362.08 70.52 354.31 71.15 Z" />
<path fill="#2a2a2a" opacity="1.00" d=" M 202.22 75.13 C 197.91 69.42 199.96 61.69 204.24 56.62 C 209.24 61.53 209.51 72.60 202.22 75.13 Z" />
<path fill="#2a2a2a" opacity="1.00" d=" M 346.98 118.65 C 344.56 111.69 347.45 104.33 353.41 100.24 C 357.28 106.91 354.38 116.05 346.98 118.65 Z" />
<path fill="#2a2a2a" opacity="1.00" d=" M 146.85 119.93 C 140.72 116.48 138.35 106.27 143.84 101.53 C 149.69 105.80 150.38 113.96 146.85 119.93 Z" />
<path fill="#2a2a2a" opacity="1.00" d=" M 362.33 118.70 C 361.53 111.10 367.33 104.78 374.50 103.28 C 375.32 110.85 369.97 117.88 362.33 118.70 Z" />
<path fill="#2a2a2a" opacity="1.00" d=" M 220.38 122.51 C 219.72 114.94 225.61 108.48 232.96 107.54 C 233.37 115.05 227.97 121.81 220.38 122.51 Z" />
<path fill="#2a2a2a" opacity="1.00" d=" M 164.81 123.50 C 164.76 116.00 170.43 110.14 177.54 108.61 C 178.37 116.23 172.61 123.38 164.81 123.50 Z" />
<path fill="#2a2a2a" opacity="1.00" d=" M 239.02 129.78 C 236.19 122.94 238.70 115.02 245.04 111.18 C 248.25 117.90 246.37 126.82 239.02 129.78 Z" />
<path fill="#2a2a2a" opacity="1.00" d=" M 330.13 130.27 C 324.95 125.43 323.70 117.12 328.01 111.31 C 334.59 115.21 335.02 124.80 330.13 130.27 Z" />
<path fill="#2a2a2a" opacity="1.00" d=" M 184.83 132.97 C 182.75 125.84 186.31 118.15 193.14 115.21 C 195.41 122.33 192.42 130.76 184.83 132.97 Z" />
<path fill="#2a2a2a" opacity="1.00" d=" M 302.80 134.21 C 299.14 127.59 301.75 119.34 307.92 115.30 C 311.43 121.97 309.53 130.43 302.80 134.21 Z" />
<path fill="#2a2a2a" opacity="1.00" d=" M 179.11 154.38 C 181.44 157.85 184.12 161.16 188.25 162.53 C 186.58 164.02 184.66 165.12 182.68 166.14 C 181.98 167.70 181.30 169.28 180.64 170.87 C 180.16 170.85 179.20 170.81 178.73 170.79 C 177.66 166.90 174.31 164.87 171.08 162.96 C 174.59 160.92 177.92 158.51 179.11 154.38 Z" />
<path fill="#2a2a2a" opacity="1.00" d=" M 331.60 155.11 C 332.04 155.11 332.93 155.12 333.37 155.13 C 334.48 158.97 337.81 161.00 340.99 162.97 C 337.71 164.84 334.39 166.93 333.30 170.81 C 332.89 170.81 332.07 170.82 331.66 170.83 C 331.02 166.53 326.23 165.50 324.49 162.42 C 327.64 160.79 330.56 158.69 331.60 155.11 Z" />
<path fill="#2a2a2a" opacity="1.00" d=" M 259.96 189.13 C 259.16 186.25 260.22 183.39 261.32 180.75 C 262.08 181.09 263.62 181.76 264.38 182.10 C 263.75 184.73 264.41 191.04 259.96 189.13 Z" />
<path fill="#2a2a2a" opacity="1.00" d=" M 146.13 235.66 C 149.70 234.65 151.78 231.77 153.43 228.66 C 156.55 229.95 157.46 235.21 161.82 235.67 C 161.84 236.15 161.87 237.13 161.89 237.62 C 160.28 238.29 158.68 238.97 157.09 239.66 C 156.16 241.55 155.27 243.46 154.10 245.22 C 152.06 242.01 150.10 238.50 146.14 237.40 C 146.14 236.97 146.13 236.10 146.13 235.66 Z" />
<path fill="#2a2a2a" opacity="1.00" d=" M 341.79 236.46 C 345.73 234.89 348.61 231.96 350.33 228.12 C 352.70 231.60 355.39 234.82 359.23 236.76 C 355.15 238.24 352.25 241.34 350.64 245.33 C 349.47 243.48 348.38 241.59 347.29 239.70 C 345.43 238.66 343.59 237.59 341.79 236.46 Z" />
<path fill="#2a2a2a" opacity="1.00" d=" M 225.21 253.80 C 224.58 249.57 231.40 245.34 234.19 249.61 C 231.43 251.11 228.64 255.38 225.21 253.80 Z" />
<path fill="#2a2a2a" opacity="1.00" d=" M 177.56 279.59 C 181.65 278.07 184.19 274.73 186.55 271.28 C 188.33 274.89 191.11 277.69 194.73 279.46 C 191.74 281.73 188.25 283.63 187.20 287.55 C 186.74 287.59 185.82 287.68 185.36 287.72 C 184.68 286.13 184.01 284.55 183.33 282.96 C 181.39 281.86 179.44 280.77 177.56 279.59 Z" />
<path fill="#2a2a2a" opacity="1.00" d=" M 313.77 279.40 C 317.87 277.93 320.63 274.69 322.62 270.95 C 324.14 274.96 327.09 277.93 331.10 279.46 C 327.32 281.45 324.52 284.54 322.24 288.08 C 320.25 284.42 317.43 281.43 313.77 279.40 Z" />
<path fill="#2a2a2a" opacity="1.00" d=" M 254.81 281.18 C 255.70 281.07 257.50 280.86 258.39 280.75 C 258.68 288.76 258.12 296.83 259.56 304.77 C 260.94 312.69 262.36 320.76 261.07 328.80 C 259.83 328.82 258.60 328.84 257.38 328.86 C 258.49 312.85 252.42 297.23 254.81 281.18 Z" />
<path fill="#2a2a2a" opacity="1.00" d=" M 234.68 283.85 C 236.20 284.57 238.81 284.64 238.43 286.97 C 239.30 301.75 232.65 317.27 239.20 331.47 C 234.40 333.31 233.09 327.26 232.53 323.81 C 231.26 310.45 234.83 297.22 234.68 283.85 Z" />
<path fill="#2a2a2a" opacity="1.00" d=" M 345.15 324.64 C 349.04 323.52 351.07 320.14 353.01 316.90 C 354.97 320.12 356.95 323.52 360.86 324.61 C 360.86 325.04 360.85 325.91 360.85 326.34 C 356.99 327.43 354.97 330.77 353.01 333.96 C 351.08 330.74 349.03 327.41 345.17 326.32 C 345.16 325.90 345.15 325.06 345.15 324.64 Z" />
<path fill="#2a2a2a" opacity="1.00" d=" M 143.25 325.28 C 146.96 323.46 149.98 320.72 151.44 316.77 C 153.46 320.47 156.16 323.75 160.26 325.24 C 156.42 327.27 153.50 330.39 151.42 334.16 C 149.99 330.09 146.66 327.59 143.25 325.28 Z" />
<path fill="#2a2a2a" opacity="1.00" d=" M 281.79 362.17 C 283.91 358.75 287.45 356.26 291.42 355.52 C 290.94 359.75 287.51 362.73 283.94 364.53 C 281.93 364.87 281.21 364.08 281.79 362.17 Z" />
<path fill="#2a2a2a" opacity="1.00" d=" M 219.57 359.00 C 218.82 356.24 221.84 356.22 223.36 357.58 C 226.11 359.77 231.15 362.72 227.62 366.46 C 224.80 364.15 221.66 362.06 219.57 359.00 Z" />
<path fill="#2a2a2a" opacity="1.00" d=" M 248.31 365.86 C 247.82 359.26 256.51 360.59 260.69 361.84 C 260.70 362.70 260.73 364.42 260.75 365.28 C 256.59 365.09 252.43 365.24 248.31 365.86 Z" />
<path fill="#2a2a2a" opacity="1.00" d=" M 171.35 365.01 C 171.81 365.08 172.75 365.21 173.22 365.28 C 174.28 369.16 177.64 371.15 180.88 373.03 C 177.74 375.00 174.35 376.93 173.27 380.77 C 172.78 380.86 171.79 381.04 171.30 381.13 C 170.59 379.38 169.90 377.63 169.19 375.89 C 167.64 375.37 166.09 374.86 164.54 374.35 C 164.44 373.80 164.24 372.69 164.14 372.13 C 165.82 371.47 167.52 370.82 169.21 370.17 C 169.93 368.45 170.63 366.73 171.35 365.01 Z" />
<path fill="#2a2a2a" opacity="1.00" d=" M 326.94 370.12 C 328.11 368.50 328.15 365.09 330.57 365.05 C 332.14 367.25 333.18 370.04 335.87 371.14 C 336.87 371.63 339.29 372.95 337.44 374.00 C 334.26 375.45 332.24 378.15 330.57 381.11 C 328.12 381.03 328.06 377.59 326.88 375.94 C 325.39 375.41 323.89 374.89 322.40 374.38 C 322.30 373.81 322.09 372.66 321.99 372.09 C 323.64 371.43 325.29 370.78 326.94 370.12 Z" />
<path fill="#2a2a2a" opacity="1.00" d=" M 250.58 367.47 C 252.99 367.29 255.41 367.19 257.83 367.11 C 257.80 368.47 257.77 369.84 257.73 371.21 C 254.60 371.65 250.94 371.35 250.58 367.47 Z" />
<path fill="#2a2a2a" opacity="1.00" d=" M 287.87 370.92 C 291.28 369.32 294.76 367.84 298.40 366.87 C 299.40 372.52 292.35 373.06 288.51 374.40 C 288.35 373.53 288.03 371.79 287.87 370.92 Z" />
<path fill="#2a2a2a" opacity="1.00" d=" M 213.77 372.08 C 211.85 371.58 211.86 368.14 214.09 368.32 C 217.62 368.96 220.74 370.89 223.92 372.43 C 222.04 377.44 216.87 373.70 213.77 372.08 Z" />
<path fill="#2a2a2a" opacity="1.00" d=" M 256.22 376.79 C 255.98 370.66 268.03 370.83 265.93 376.55 C 262.71 376.89 259.45 376.76 256.22 376.79 Z" />
<path fill="#2a2a2a" opacity="1.00" d=" M 243.39 378.48 C 243.73 373.26 249.07 372.72 253.07 373.88 C 250.93 377.21 247.15 378.32 243.39 378.48 Z" />
<path fill="#2a2a2a" opacity="1.00" d=" M 262.63 383.58 C 265.20 382.47 267.05 379.19 270.14 379.93 C 269.87 381.82 269.23 383.64 268.56 385.43 C 268.82 386.93 269.09 388.43 269.36 389.94 C 268.77 390.22 267.58 390.79 266.99 391.07 C 265.84 389.73 264.69 388.39 263.53 387.07 C 263.76 389.97 264.12 392.87 264.34 395.78 C 263.52 395.78 261.89 395.80 261.07 395.80 C 260.33 393.33 259.61 390.85 258.75 388.42 C 257.79 391.31 259.61 396.48 255.99 397.57 C 252.97 395.95 254.72 391.43 253.92 388.58 C 253.18 390.44 252.47 392.30 251.74 394.17 C 249.71 393.20 248.74 391.26 248.18 389.18 C 246.04 387.74 241.41 386.56 243.13 383.14 C 249.48 384.48 256.43 386.83 262.63 383.58 Z" />
<path fill="#2a2a2a" opacity="1.00" d=" M 291.20 381.49 C 294.81 380.97 298.47 380.28 302.12 380.81 C 302.91 386.42 295.07 384.43 291.66 385.36 C 291.51 384.06 291.36 382.77 291.20 381.49 Z" />
<path fill="#2a2a2a" opacity="1.00" d=" M 209.07 381.61 C 212.89 381.61 216.70 382.02 220.48 382.64 C 220.38 383.55 220.19 385.38 220.09 386.29 C 216.54 386.08 213.00 385.74 209.47 385.37 C 209.33 384.11 209.19 382.86 209.07 381.61 Z" />
<path fill="#2a2a2a" opacity="1.00" d=" M 291.31 392.63 C 295.11 393.56 302.72 392.38 301.65 398.30 C 297.99 397.79 294.36 397.08 290.77 396.22 C 290.91 395.32 291.17 393.53 291.31 392.63 Z" />
<path fill="#2a2a2a" opacity="1.00" d=" M 210.24 398.77 C 208.35 393.31 217.33 394.51 220.70 393.64 C 220.77 394.52 220.92 396.29 221.00 397.18 C 217.47 397.99 213.90 399.18 210.24 398.77 Z" />
<path fill="#2a2a2a" opacity="1.00" d=" M 145.46 410.83 C 148.12 408.01 152.06 405.83 153.69 401.81 C 155.02 405.96 158.49 408.27 161.77 410.72 C 158.10 412.53 155.10 415.22 153.70 419.17 C 151.80 415.59 149.05 412.72 145.46 410.83 Z" />
<path fill="#2a2a2a" opacity="1.00" d=" M 343.27 410.28 C 346.99 408.41 349.89 405.52 351.77 401.80 C 353.29 405.80 356.24 408.80 360.28 410.27 C 356.47 412.23 353.33 415.10 351.77 419.17 C 349.92 415.29 346.65 412.72 343.27 410.28 Z" />
<path fill="#2a2a2a" opacity="1.00" d=" M 215.13 411.86 C 213.50 406.69 221.64 404.42 225.82 404.60 C 224.17 408.97 219.55 411.36 215.13 411.86 Z" />
<path fill="#2a2a2a" opacity="1.00" d=" M 287.13 404.10 C 290.77 403.31 298.31 406.32 296.79 410.85 C 293.04 410.48 287.02 408.63 287.13 404.10 Z" />
<path fill="#2a2a2a" opacity="1.00" d=" M 224.53 423.48 C 220.80 418.74 227.79 415.53 230.52 412.42 C 234.25 417.18 227.31 420.39 224.53 423.48 Z" />
<path fill="#2a2a2a" opacity="1.00" d=" M 279.64 412.79 C 284.70 412.80 288.91 417.41 289.10 422.35 C 284.33 421.37 280.97 417.30 279.64 412.79 Z" />
<path fill="#2a2a2a" opacity="1.00" d=" M 233.91 429.34 C 235.21 425.93 236.37 422.27 239.00 419.63 C 244.37 421.12 238.45 427.45 237.17 430.59 C 236.36 430.28 234.72 429.65 233.91 429.34 Z" />
<path fill="#2a2a2a" opacity="1.00" d=" M 271.05 420.11 C 274.91 417.46 281.06 429.59 275.27 429.99 C 273.03 427.18 271.05 423.81 271.05 420.11 Z" />
<path fill="#2a2a2a" opacity="1.00" d=" M 248.66 423.50 C 249.88 423.40 251.11 423.31 252.34 423.23 C 251.70 426.85 253.36 434.71 247.74 434.25 C 247.18 430.64 248.08 427.05 248.66 423.50 Z" />
<path fill="#2a2a2a" opacity="1.00" d=" M 261.51 434.53 C 261.27 430.78 257.40 423.32 263.41 422.73 C 263.69 426.72 267.56 433.52 261.51 434.53 Z" />
<path fill="#2a2a2a" opacity="1.00" d=" M 138.63 452.85 C 139.83 452.58 141.05 452.45 142.27 452.31 C 142.40 455.10 142.48 457.90 142.53 460.71 C 145.62 460.70 148.70 460.71 151.79 460.75 C 151.97 457.95 152.17 455.17 152.46 452.39 C 153.75 452.50 155.05 452.62 156.34 452.76 C 156.58 459.72 156.63 466.69 156.28 473.65 C 150.97 474.62 152.15 468.64 151.74 465.19 C 148.67 465.22 145.60 465.23 142.53 465.23 C 142.48 468.04 142.39 470.85 142.25 473.66 C 140.91 473.18 138.25 473.98 138.31 471.88 C 137.75 465.59 137.38 459.07 138.63 452.85 Z" />
<path fill="#2a2a2a" opacity="1.00" d=" M 161.67 471.06 C 164.44 464.18 167.74 457.38 172.02 451.29 C 176.85 457.63 179.94 465.10 183.04 472.39 C 182.25 472.79 180.67 473.57 179.88 473.96 C 178.80 472.44 177.73 470.91 176.66 469.39 C 173.66 469.41 170.65 469.42 167.65 469.45 C 166.54 472.00 161.58 476.29 161.67 471.06 M 169.49 464.86 C 171.26 464.86 173.03 464.88 174.80 464.90 C 173.87 463.14 172.95 461.39 172.02 459.64 C 171.17 461.37 170.33 463.11 169.49 464.86 Z" />
<path fill="#2a2a2a" opacity="1.00" d=" M 187.81 453.13 C 188.43 452.84 189.67 452.26 190.28 451.97 C 194.34 456.10 197.90 460.69 201.66 465.09 C 201.67 460.82 201.67 456.55 201.85 452.29 C 203.55 452.57 206.40 452.40 206.04 454.97 C 205.98 461.47 207.58 468.62 204.37 474.62 C 199.85 470.47 196.20 465.51 192.21 460.87 C 191.49 465.08 194.72 474.15 187.86 473.64 C 187.55 466.81 187.58 459.97 187.81 453.13 Z" />
<path fill="#2a2a2a" opacity="1.00" d=" M 212.92 457.91 C 216.05 451.23 227.08 450.10 230.66 456.91 C 230.30 460.87 226.03 457.59 223.72 457.32 C 217.81 454.76 213.32 464.08 218.34 467.65 C 221.61 470.80 225.92 468.29 228.55 465.67 C 225.07 465.23 219.09 466.13 220.25 460.77 C 224.38 460.70 228.51 460.71 232.64 460.77 C 234.34 467.66 228.03 474.70 220.99 473.56 C 213.78 472.98 209.25 464.12 212.92 457.91 Z" />
<path fill="#2a2a2a" opacity="1.00" d=" M 238.76 453.50 C 243.95 450.83 250.80 452.85 256.62 452.54 C 256.63 453.87 256.63 455.20 256.63 456.54 C 252.04 456.81 247.45 456.78 242.85 456.82 C 242.91 458.10 242.98 459.38 243.04 460.68 C 247.02 461.18 254.34 458.68 254.44 464.76 C 250.63 465.18 246.80 465.28 242.98 465.30 C 242.94 466.58 242.91 467.86 242.88 469.15 C 247.47 470.19 257.14 466.13 256.99 473.35 C 251.13 473.33 244.62 474.66 239.15 472.85 C 237.70 466.68 238.43 459.86 238.76 453.50 Z" />
<path fill="#2a2a2a" opacity="1.00" d=" M 264.27 452.45 C 271.50 450.59 281.28 454.41 280.92 463.01 C 281.31 471.97 270.12 476.02 263.15 472.86 C 261.60 468.18 262.74 462.87 262.40 457.95 C 262.65 456.17 261.90 452.90 264.27 452.45 M 266.92 456.48 C 266.89 460.81 266.89 465.14 266.94 469.46 C 271.01 469.43 276.62 468.18 276.48 463.01 C 276.70 457.79 271.03 456.48 266.92 456.48 Z" />
<path fill="#2a2a2a" opacity="1.00" d=" M 310.86 459.79 C 313.71 456.95 316.55 454.11 319.57 451.46 C 323.23 457.15 321.08 464.41 321.40 470.79 C 321.88 473.53 319.25 473.40 317.28 473.60 C 317.02 469.16 317.01 464.72 316.95 460.28 C 314.95 462.10 312.96 463.92 310.93 465.70 C 308.83 463.95 306.80 462.13 304.75 460.33 C 304.69 464.63 304.69 468.94 304.56 473.24 C 303.16 473.26 301.77 473.27 300.37 473.30 C 300.18 466.28 300.08 459.26 300.45 452.25 C 305.12 452.62 307.72 456.89 310.86 459.79 Z" />
<path fill="#2a2a2a" opacity="1.00" d=" M 335.43 453.38 C 336.10 451.53 338.46 452.31 339.06 453.80 C 342.44 459.78 345.48 466.00 348.05 472.39 C 347.26 472.78 345.67 473.57 344.88 473.97 C 343.79 472.44 342.72 470.91 341.65 469.38 C 338.65 469.41 335.65 469.42 332.65 469.45 C 331.54 472.00 326.61 476.29 326.66 471.07 C 329.05 464.96 332.13 459.05 335.43 453.38 M 334.29 464.79 C 336.15 464.82 338.02 464.86 339.89 464.89 C 339.03 463.26 338.16 461.63 337.22 460.05 C 336.15 461.57 335.17 463.15 334.29 464.79 Z" />
<path fill="#2a2a2a" opacity="1.00" d=" M 352.81 453.14 C 353.43 452.85 354.66 452.26 355.28 451.97 C 359.34 456.10 362.89 460.68 366.65 465.08 C 366.66 460.81 366.66 456.54 366.86 452.28 C 368.53 452.62 371.44 452.41 371.04 454.96 C 370.97 461.47 372.58 468.62 369.37 474.62 C 364.84 470.46 361.19 465.49 357.19 460.86 C 356.47 465.07 359.73 474.15 352.86 473.65 C 352.55 466.81 352.58 459.97 352.81 453.14 Z" />
</g>
</svg>
