<?xml version="1.0" encoding="UTF-8" ?>
<!DOCTYPE svg PUBLIC "-//W3C//DTD SVG 1.1//EN" "http://www.w3.org/Graphics/SVG/1.1/DTD/svg11.dtd">
<svg width="120pt" height="120pt" viewBox="0 0 512 512" version="1.1" xmlns="http://www.w3.org/2000/svg">
<g id="#2a2a2aff">
<path fill="#2a2a2a" opacity="1.00" d=" M 132.35 21.49 C 213.90 21.12 295.48 21.44 377.05 21.33 C 385.73 20.74 393.86 28.26 393.62 37.02 C 393.66 183.00 393.66 328.99 393.62 474.97 C 393.86 483.74 385.74 491.25 377.05 490.67 C 296.04 490.64 215.02 490.71 134.01 490.64 C 125.26 490.83 117.73 482.74 118.35 474.04 C 118.38 328.37 118.31 182.69 118.38 37.02 C 118.22 29.28 124.61 22.10 132.35 21.49 M 131.45 25.75 C 125.90 26.84 122.07 32.42 122.41 37.96 C 122.42 183.32 122.42 328.69 122.41 474.05 C 121.86 480.93 128.01 487.15 134.91 486.59 C 215.64 486.59 296.36 486.59 377.08 486.59 C 383.99 487.15 390.14 480.93 389.59 474.05 C 389.59 328.68 389.58 183.32 389.59 37.95 C 390.21 30.59 383.27 24.43 376.05 25.38 C 294.52 25.67 212.94 24.93 131.45 25.75 Z" />
<path fill="#2a2a2a" opacity="1.00" d=" M 132.41 32.57 C 136.56 31.81 140.81 32.30 145.00 32.20 C 222.36 32.23 299.73 32.16 377.09 32.23 C 380.39 31.82 383.16 34.61 382.75 37.91 C 382.81 170.96 382.75 304.02 382.79 437.08 C 383.34 440.03 381.20 442.77 378.06 442.28 C 297.03 442.35 215.98 442.26 134.95 442.32 C 132.18 442.67 128.68 441.46 129.25 438.05 C 129.15 305.01 129.26 171.96 129.19 38.91 C 129.11 36.48 129.61 33.26 132.41 32.57 M 133.31 36.29 C 133.48 43.69 132.74 51.16 133.61 58.51 C 138.72 65.63 142.72 73.57 144.01 82.35 C 148.71 73.61 155.85 66.69 163.53 60.62 C 165.27 52.64 165.17 44.36 165.48 36.22 C 154.76 36.29 144.03 36.19 133.31 36.29 M 169.54 36.23 C 169.43 61.41 164.77 87.07 152.32 109.18 C 151.42 144.30 152.23 179.54 151.92 214.70 C 156.68 212.34 160.66 208.72 165.49 206.49 C 165.06 201.81 162.61 196.08 165.99 191.99 C 168.91 188.90 173.37 190.37 176.29 192.62 C 179.17 192.86 183.04 192.35 184.68 195.35 C 186.31 199.10 186.40 203.30 187.15 207.28 C 189.90 207.95 193.13 208.74 194.18 211.75 C 196.99 218.65 198.85 226.51 196.97 233.90 C 195.66 239.55 190.51 243.07 188.64 248.46 C 190.39 248.75 192.13 249.03 193.88 249.31 C 195.01 253.43 196.02 257.58 196.98 261.74 C 206.47 255.62 217.54 252.59 228.69 251.44 C 225.64 244.35 223.52 236.79 223.18 229.06 C 224.50 210.88 213.97 194.73 210.82 177.25 C 225.58 165.19 241.05 153.92 256.19 142.30 C 271.30 153.41 286.45 164.57 301.08 176.29 C 300.63 182.04 297.87 187.35 296.43 192.91 C 302.15 194.90 307.86 196.90 313.57 198.91 C 314.30 196.69 315.03 194.48 315.75 192.26 C 311.97 190.34 304.20 190.73 304.47 185.09 C 307.49 180.02 313.75 185.18 317.99 185.89 C 319.38 182.02 320.18 177.84 322.36 174.31 C 323.87 172.06 327.96 173.31 327.91 176.05 C 327.59 180.22 325.62 184.04 324.40 188.00 C 327.70 189.20 331.26 189.90 334.28 191.78 C 336.36 193.44 335.21 196.65 332.94 197.48 C 329.20 197.20 325.73 195.58 322.19 194.46 C 321.46 196.68 320.72 198.91 319.99 201.13 C 326.53 203.64 333.40 205.37 339.74 208.36 C 342.99 210.00 340.37 215.43 337.14 214.11 C 330.55 212.37 324.27 209.64 317.79 207.56 C 317.06 209.69 316.34 211.83 315.62 213.96 C 321.06 216.04 326.77 217.44 332.03 219.95 C 335.39 221.19 333.68 226.87 330.19 225.98 C 324.45 224.67 319.06 222.16 313.48 220.34 C 309.13 232.94 304.94 245.59 300.61 258.20 C 317.61 267.68 330.28 283.48 337.64 301.35 C 345.30 319.34 353.69 337.39 356.69 356.88 C 357.77 364.43 357.60 373.15 352.14 379.10 C 345.38 386.88 334.69 389.04 324.97 390.44 C 326.50 406.32 327.86 422.24 327.92 438.21 C 338.63 438.24 349.33 438.22 360.04 438.22 C 360.10 331.81 360.01 225.40 360.08 119.00 C 359.90 115.04 360.74 110.76 358.82 107.11 C 346.58 85.71 342.76 60.58 342.46 36.23 C 284.82 36.25 227.18 36.25 169.54 36.23 M 346.52 36.22 C 346.83 44.36 346.72 52.64 348.47 60.63 C 356.15 66.69 363.29 73.61 367.99 82.34 C 369.31 75.89 371.10 69.35 374.91 63.87 C 381.81 56.36 377.63 45.44 378.68 36.29 C 367.96 36.19 357.24 36.29 346.52 36.22 M 133.40 65.22 C 133.09 78.66 133.34 92.11 133.26 105.56 C 138.64 105.55 144.03 105.55 149.41 105.55 C 156.22 93.52 160.54 80.18 162.75 66.56 C 156.43 71.68 150.92 77.91 147.24 85.20 C 145.71 87.94 144.75 91.26 141.91 92.98 C 139.01 83.86 139.35 73.42 133.40 65.22 M 370.09 92.98 C 367.27 91.27 366.31 87.99 364.79 85.27 C 361.10 77.95 355.60 71.68 349.24 66.56 C 351.44 80.18 355.75 93.53 362.58 105.55 C 367.96 105.55 373.34 105.55 378.72 105.56 C 378.64 92.12 378.90 78.67 378.57 65.23 C 372.65 73.44 372.97 83.86 370.09 92.98 M 133.25 109.63 C 133.26 113.04 133.26 116.46 133.27 119.88 C 138.13 119.83 143.00 119.84 147.86 119.86 C 147.86 116.45 147.86 113.04 147.89 109.63 C 143.01 109.62 138.13 109.63 133.25 109.63 M 364.11 109.63 C 364.13 113.04 364.14 116.45 364.14 119.86 C 369.00 119.84 373.86 119.83 378.72 119.89 C 378.72 116.47 378.72 113.05 378.73 109.63 C 373.86 109.62 368.98 109.63 364.11 109.63 M 133.28 123.90 C 133.24 228.67 133.28 333.45 133.26 438.23 C 138.13 438.22 143.00 438.22 147.87 438.23 C 147.84 333.45 147.88 228.67 147.85 123.89 C 142.99 123.85 138.13 123.85 133.28 123.90 M 364.15 123.89 C 364.12 228.67 364.16 333.45 364.13 438.23 C 369.00 438.22 373.87 438.22 378.74 438.23 C 378.71 333.45 378.75 228.67 378.70 123.90 C 373.85 123.85 369.00 123.85 364.15 123.89 M 168.32 194.73 C 168.00 204.03 172.23 212.79 172.14 222.01 C 171.46 228.10 164.14 226.74 160.03 228.89 C 160.84 237.03 166.37 243.28 169.07 250.73 C 174.23 250.26 179.44 250.19 184.55 249.28 C 185.16 241.03 194.52 236.68 193.69 228.02 C 193.02 222.45 193.18 214.97 188.12 211.49 C 185.11 215.67 186.61 220.98 187.80 225.53 C 183.76 228.15 181.33 232.24 178.92 236.27 C 173.27 233.47 179.99 226.80 182.85 223.99 C 181.33 217.61 184.20 211.27 182.78 204.92 C 182.07 201.46 182.37 196.53 177.71 196.13 C 177.35 202.00 178.45 207.80 178.98 213.62 C 178.28 214.06 176.87 214.95 176.17 215.40 C 173.41 208.61 174.21 201.08 172.12 194.12 C 170.85 194.32 169.58 194.52 168.32 194.73 M 292.32 205.78 C 297.94 207.78 303.59 209.68 309.18 211.75 C 309.92 209.60 310.66 207.46 311.39 205.32 C 305.74 203.32 300.08 201.36 294.43 199.36 C 293.71 201.49 293.01 203.63 292.32 205.78 M 162.07 212.69 C 162.96 216.47 163.91 220.25 165.18 223.92 C 170.78 221.62 166.96 214.97 166.23 210.66 C 164.84 211.32 163.45 212.00 162.07 212.69 M 289.98 212.22 C 289.04 215.73 288.49 219.34 288.83 222.98 C 289.45 232.58 287.02 242.07 283.47 250.91 C 287.21 252.15 290.92 253.50 294.58 254.97 C 298.71 242.69 302.91 230.43 307.01 218.13 C 301.35 216.13 295.70 214.07 289.98 212.22 M 160.65 225.57 C 160.21 222.06 159.39 218.61 158.26 215.26 C 153.18 217.43 154.66 226.30 160.65 225.57 M 227.19 219.96 C 226.44 235.13 229.81 252.71 242.79 262.22 C 251.43 268.86 264.65 268.30 272.14 260.15 C 282.47 249.51 285.72 233.61 284.67 219.21 C 265.54 217.59 246.21 216.67 227.19 219.96 M 151.99 225.43 C 151.90 296.36 151.95 367.29 151.96 438.22 C 161.56 438.23 171.16 438.22 180.76 438.23 C 181.28 412.61 182.29 386.99 184.77 361.49 C 171.00 362.39 162.98 349.02 160.56 337.22 C 154.32 309.19 156.86 280.02 160.57 251.81 C 162.01 251.47 163.46 251.13 164.90 250.79 C 163.49 247.73 161.75 244.84 160.06 241.94 C 156.75 236.64 157.68 229.21 151.99 225.43 M 164.11 255.27 C 161.34 277.69 159.78 300.45 162.08 322.99 C 163.46 333.10 165.16 343.99 171.89 352.09 C 176.78 358.21 186.90 359.02 192.53 353.51 C 197.56 348.42 199.43 341.03 199.70 334.06 C 202.90 306.77 196.84 279.51 190.70 253.05 C 181.83 253.75 172.97 254.49 164.11 255.27 M 198.01 266.07 C 200.05 276.21 201.91 286.39 203.23 296.66 C 205.93 283.17 208.09 268.86 216.54 257.54 C 210.00 259.51 203.63 262.14 198.01 266.07 M 298.47 262.06 C 299.90 267.84 302.75 273.12 304.39 278.83 C 310.42 299.31 311.32 320.82 312.70 342.00 C 315.17 339.17 317.22 334.51 321.76 335.47 C 320.35 339.26 317.74 342.38 315.15 345.43 C 319.61 345.17 324.09 345.00 328.56 345.02 C 328.73 345.88 329.06 347.60 329.22 348.46 C 311.92 349.78 294.14 351.19 277.97 357.95 C 274.69 367.54 273.20 377.70 270.54 387.50 C 289.06 388.95 307.70 388.27 326.14 386.11 C 334.45 384.93 343.51 382.84 349.28 376.25 C 354.13 370.50 353.49 362.36 352.35 355.43 C 348.78 335.88 340.30 317.72 332.37 299.64 C 325.36 284.03 313.98 269.82 298.47 262.06 M 237.98 263.88 C 232.38 275.74 230.44 288.96 230.42 301.98 C 229.89 347.41 228.27 392.81 227.08 438.23 C 229.03 438.22 230.98 438.22 232.94 438.22 C 238.47 421.14 244.16 404.11 249.77 387.07 C 246.85 385.65 242.97 384.76 241.63 381.43 C 239.07 372.11 240.19 361.98 244.26 353.26 C 245.71 350.84 248.72 350.26 251.10 349.15 C 253.56 343.85 259.19 342.24 264.54 343.85 C 269.67 327.76 275.64 311.92 280.54 295.78 C 280.40 285.06 278.05 274.28 273.99 264.35 C 263.80 273.39 248.11 272.59 237.98 263.88 M 270.35 347.36 C 272.42 349.50 274.43 351.69 276.35 353.98 C 278.41 353.25 280.47 352.53 282.54 351.83 C 282.32 339.36 282.01 326.90 281.63 314.45 C 277.76 325.38 274.27 336.45 270.35 347.36 M 255.24 349.06 C 258.12 349.40 261.01 349.56 263.91 349.42 C 261.42 346.89 257.99 347.10 255.24 349.06 M 246.40 357.28 C 247.60 358.46 248.82 359.66 250.03 360.84 C 249.77 361.40 249.26 362.52 249.01 363.08 C 247.40 362.90 245.80 362.72 244.21 362.56 C 245.66 364.67 247.24 366.69 248.79 368.73 C 246.98 369.43 245.14 370.06 243.31 370.71 C 244.78 372.87 246.42 374.92 248.08 376.95 C 246.93 377.99 245.77 379.03 244.63 380.08 C 251.32 384.29 259.50 384.00 267.10 384.43 C 269.25 375.56 271.28 366.66 273.46 357.80 C 267.88 359.64 261.12 358.87 257.99 353.30 C 253.79 353.24 248.67 352.93 246.40 357.28 M 188.86 360.73 C 186.44 386.49 185.32 412.35 184.80 438.22 C 188.68 438.23 192.57 438.22 196.47 438.18 C 196.58 409.96 196.75 381.72 198.32 353.53 C 195.55 356.40 192.37 358.83 188.86 360.73 M 256.49 388.00 C 251.19 404.80 245.47 421.47 240.01 438.22 C 255.01 438.23 270.01 438.23 285.01 438.22 C 284.58 422.89 283.82 407.57 283.50 392.23 C 277.93 391.97 272.37 391.70 266.82 391.28 C 266.42 390.30 266.03 389.33 265.63 388.36 C 262.58 388.28 259.54 388.14 256.49 388.00 M 314.73 391.29 C 315.26 406.92 315.53 422.56 315.54 438.20 C 318.32 438.22 321.10 438.23 323.88 438.24 C 323.77 422.38 322.49 406.57 320.88 390.80 C 318.83 390.96 316.78 391.12 314.73 391.29 Z" />
<path fill="#2a2a2a" opacity="1.00" d=" M 246.10 54.96 C 244.95 52.57 242.44 48.90 246.04 47.27 C 250.45 50.92 251.66 56.99 254.61 61.72 C 257.32 57.07 258.72 51.47 262.60 47.60 C 263.70 48.03 264.75 48.59 265.72 49.28 C 261.71 55.79 260.21 64.62 254.06 69.36 C 250.55 65.09 248.78 59.74 246.10 54.96 Z" />
<path fill="#2a2a2a" opacity="1.00" d=" M 192.79 53.33 C 193.15 53.32 193.87 53.30 194.24 53.29 C 195.45 57.33 198.84 59.61 202.32 61.55 C 198.10 63.00 195.32 66.28 193.34 70.13 C 191.91 66.10 188.93 63.29 185.09 61.56 C 188.19 59.29 191.72 57.34 192.79 53.33 Z" />
<path fill="#2a2a2a" opacity="1.00" d=" M 315.79 58.27 C 316.72 56.27 317.67 54.25 318.99 52.46 C 320.21 54.28 321.11 56.29 322.03 58.27 C 323.66 58.96 325.31 59.64 326.95 60.33 C 326.92 60.79 326.85 61.71 326.82 62.17 C 322.79 63.14 320.82 66.61 318.96 69.94 C 316.99 66.71 315.10 63.19 311.09 62.21 C 311.03 61.73 310.92 60.78 310.86 60.30 C 312.50 59.62 314.15 58.96 315.79 58.27 Z" />
<path fill="#2a2a2a" opacity="1.00" d=" M 226.05 100.98 C 220.95 91.72 232.12 79.91 241.67 84.29 C 247.89 86.81 248.55 94.51 246.15 99.99 C 249.42 103.28 252.71 106.56 256.00 109.84 C 259.22 106.57 262.46 103.30 265.67 100.01 C 263.44 94.69 263.75 87.38 269.60 84.56 C 279.11 79.50 290.91 91.35 285.84 100.86 C 282.96 106.74 275.53 106.96 270.19 104.67 C 266.99 107.93 263.75 111.16 260.58 114.45 C 263.20 117.05 265.80 119.65 268.40 122.25 C 271.29 119.45 274.13 116.60 277.00 113.78 C 278.42 115.19 279.84 116.60 281.26 118.02 C 280.24 119.22 279.23 120.42 278.21 121.63 C 278.99 122.29 279.77 122.95 280.56 123.61 C 281.62 122.64 282.70 121.67 283.77 120.71 C 285.20 122.14 286.63 123.57 288.06 125.01 C 285.42 127.71 282.75 130.39 280.07 133.05 C 280.28 133.89 280.50 134.74 280.72 135.59 C 279.32 136.89 277.93 138.19 276.54 139.50 C 269.60 132.72 262.79 125.81 255.93 118.95 C 249.04 125.79 242.27 132.75 235.28 139.49 C 233.89 138.17 232.50 136.86 231.10 135.55 C 231.37 134.71 231.65 133.87 231.94 133.04 C 229.25 130.38 226.58 127.70 223.94 125.01 C 225.37 123.57 226.80 122.14 228.23 120.71 C 229.30 121.67 230.36 122.63 231.43 123.60 C 232.22 122.94 233.01 122.28 233.81 121.62 C 232.78 120.42 231.76 119.22 230.74 118.02 C 232.16 116.60 233.58 115.19 235.00 113.77 C 237.85 116.58 240.68 119.41 243.55 122.19 C 246.13 119.57 248.72 116.96 251.28 114.32 C 248.04 111.07 244.81 107.83 241.54 104.62 C 236.29 107.03 228.94 106.73 226.05 100.98 M 234.50 90.62 C 231.38 91.98 230.14 96.95 233.31 98.94 C 236.93 101.14 241.81 97.16 240.84 93.18 C 240.44 90.30 236.80 89.22 234.50 90.62 M 273.35 90.31 C 267.30 92.92 273.51 102.47 278.61 98.82 C 283.15 95.65 278.08 88.28 273.35 90.31 Z" />
<path fill="#2a2a2a" opacity="1.00" d=" M 189.65 105.23 C 193.60 104.34 195.51 101.00 197.24 97.69 C 199.37 101.33 202.39 104.12 205.85 106.47 C 202.06 108.22 199.11 111.04 197.58 114.97 C 195.74 111.46 193.43 108.11 189.38 107.03 C 189.46 106.43 189.55 105.83 189.65 105.23 Z" />
<path fill="#2a2a2a" opacity="1.00" d=" M 307.04 105.39 C 311.46 104.90 312.44 99.87 315.45 98.17 C 317.16 101.39 319.22 104.44 322.98 105.40 C 322.95 105.84 322.89 106.72 322.86 107.16 C 318.82 108.04 316.73 111.41 315.27 114.96 C 313.26 111.66 311.19 108.15 307.15 107.12 C 307.13 106.69 307.07 105.82 307.04 105.39 Z" />
<path fill="#2a2a2a" opacity="1.00" d=" M 175.62 142.38 C 176.15 142.30 177.23 142.13 177.77 142.04 C 178.77 145.69 181.28 148.35 184.98 149.29 C 184.92 149.75 184.79 150.68 184.72 151.14 C 180.68 152.09 178.69 155.63 176.71 158.90 C 175.23 155.42 173.24 152.02 169.23 151.17 C 169.13 150.63 168.93 149.54 168.83 149.00 C 170.59 148.38 172.36 147.77 174.11 147.14 C 174.62 145.55 175.12 143.97 175.62 142.38 Z" />
<path fill="#2a2a2a" opacity="1.00" d=" M 334.71 142.16 C 335.11 142.16 335.90 142.16 336.30 142.16 C 337.32 146.14 340.63 148.27 344.06 150.02 C 340.34 152.13 337.24 154.99 335.33 158.86 C 333.81 154.78 330.60 152.09 326.92 150.03 C 330.35 148.28 333.68 146.15 334.71 142.16 Z" />
<path fill="#2a2a2a" opacity="1.00" d=" M 233.25 225.40 C 235.51 220.97 239.51 224.92 242.97 225.18 C 246.05 224.66 250.01 221.12 251.83 225.46 C 246.53 230.50 238.62 230.08 233.25 225.40 Z" />
<path fill="#2a2a2a" opacity="1.00" d=" M 260.18 225.51 C 262.16 220.77 266.54 225.15 269.96 225.17 C 273.10 224.49 276.68 221.28 278.74 225.38 C 273.47 230.42 265.62 230.12 260.18 225.51 Z" />
<path fill="#2a2a2a" opacity="1.00" d=" M 250.51 239.73 C 254.37 240.47 263.49 236.87 262.60 243.24 C 258.10 244.78 253.18 244.52 248.75 242.91 C 249.06 241.72 248.95 239.98 250.51 239.73 Z" />
<path fill="#2a2a2a" opacity="1.00" d=" M 254.50 247.53 C 261.73 245.61 263.69 259.22 255.98 259.35 C 249.52 259.32 249.01 249.50 254.50 247.53 Z" />
<path fill="#2a2a2a" opacity="1.00" d=" M 333.68 254.00 C 334.78 251.94 335.97 249.92 337.39 248.06 C 338.33 250.05 339.19 252.08 340.02 254.12 C 341.55 254.63 343.07 255.12 344.61 255.60 C 344.76 256.22 345.05 257.46 345.20 258.08 C 343.47 258.70 341.73 259.32 340.01 259.95 C 339.21 261.93 338.40 263.90 337.53 265.84 C 335.12 262.03 332.02 258.87 328.16 256.51 C 329.98 255.63 331.83 254.82 333.68 254.00 Z" />
<path fill="#2a2a2a" opacity="1.00" d=" M 154.34 455.17 C 155.59 454.62 156.94 454.39 158.27 454.07 C 158.42 456.90 158.52 459.74 158.55 462.59 C 161.68 462.58 164.80 462.58 167.93 462.60 C 168.02 460.14 168.11 457.69 168.21 455.24 C 168.67 454.94 169.60 454.33 170.06 454.02 C 170.64 454.25 171.81 454.70 172.39 454.92 C 172.35 461.68 173.18 468.55 171.97 475.23 C 166.80 476.82 168.26 470.13 167.81 467.09 C 164.76 467.12 161.71 467.12 158.66 467.09 C 158.39 470.08 159.56 477.73 154.44 474.77 C 153.66 468.29 153.80 461.66 154.34 455.17 Z" />
<path fill="#2a2a2a" opacity="1.00" d=" M 178.56 454.97 C 179.37 454.64 180.99 453.99 181.80 453.66 C 183.69 459.91 182.83 466.58 182.77 473.01 C 183.28 475.34 180.69 475.67 179.00 475.28 C 177.78 468.60 178.63 461.73 178.56 454.97 Z" />
<path fill="#2a2a2a" opacity="1.00" d=" M 189.23 454.41 C 194.95 454.34 200.76 453.70 206.42 454.63 C 208.17 455.58 207.31 457.10 206.41 458.33 C 202.07 459.04 197.64 458.58 193.27 458.70 C 193.29 459.98 193.32 461.28 193.35 462.58 C 196.92 462.59 200.54 462.33 204.07 463.03 C 206.01 469.23 196.87 466.61 193.31 467.14 C 193.32 468.41 193.33 469.69 193.34 470.98 C 198.44 471.13 203.98 470.04 208.59 472.82 C 203.52 477.81 195.69 474.72 189.35 475.39 C 188.52 468.43 188.59 461.38 189.23 454.41 Z" />
<path fill="#2a2a2a" opacity="1.00" d=" M 212.64 454.66 C 218.27 454.16 226.36 452.39 229.74 458.37 C 231.96 462.03 229.67 466.03 227.39 468.99 C 228.76 470.52 230.11 472.06 231.44 473.63 C 227.66 477.82 224.60 472.32 221.80 469.86 C 220.20 469.84 218.60 469.83 217.01 469.83 C 216.68 472.59 216.36 477.27 212.51 474.80 C 211.95 468.13 211.77 461.30 212.64 454.66 M 216.64 458.54 C 216.62 460.87 216.61 463.20 216.61 465.54 C 219.95 465.17 225.52 466.63 226.36 461.99 C 225.40 457.46 219.97 458.91 216.64 458.54 Z" />
<path fill="#2a2a2a" opacity="1.00" d=" M 242.38 454.48 C 248.16 452.91 254.56 457.09 255.44 463.00 C 256.66 468.86 251.99 475.03 246.03 475.45 C 240.38 476.21 234.72 471.60 234.34 465.92 C 233.67 460.79 237.39 455.65 242.38 454.48 M 242.32 459.25 C 238.16 460.99 237.55 467.28 241.28 469.81 C 244.74 472.57 250.41 470.22 251.05 465.89 C 252.07 461.22 246.55 456.95 242.32 459.25 Z" />
<path fill="#2a2a2a" opacity="1.00" d=" M 260.57 454.49 C 264.89 454.28 269.30 453.77 273.57 454.64 C 278.66 456.07 280.58 463.15 277.06 467.05 C 274.28 470.65 269.30 469.69 265.33 469.93 C 264.97 472.41 264.62 476.66 260.95 475.30 C 259.73 468.45 260.52 461.41 260.57 454.49 M 264.83 458.56 C 264.83 460.88 264.84 463.20 264.85 465.53 C 268.15 465.11 273.89 466.72 274.51 462.00 C 273.79 457.31 268.14 458.99 264.83 458.56 Z" />
<path fill="#2a2a2a" opacity="1.00" d=" M 283.83 454.15 C 289.12 453.47 288.17 459.04 288.34 462.61 C 291.43 462.58 294.53 462.59 297.62 462.61 C 297.66 459.78 297.74 456.95 297.87 454.13 C 299.56 454.65 302.65 454.26 302.08 456.95 C 301.79 463.53 303.86 470.94 300.04 476.82 C 297.60 474.11 297.53 470.50 297.50 467.08 C 294.46 467.12 291.42 467.12 288.38 467.08 C 288.30 470.46 288.14 473.97 286.06 476.81 C 281.41 470.29 284.46 461.62 283.83 454.15 Z" />
<path fill="#2a2a2a" opacity="1.00" d=" M 306.34 473.74 C 309.27 466.87 312.01 459.37 316.99 453.74 C 322.17 459.29 324.78 466.97 327.81 473.87 C 325.30 477.66 323.18 473.56 321.52 471.29 C 318.53 471.29 315.54 471.28 312.56 471.29 C 311.20 473.40 308.11 477.93 306.34 473.74 M 316.88 461.91 C 315.95 463.50 315.12 465.16 314.26 466.80 C 316.15 466.79 318.05 466.76 319.94 466.71 C 318.89 465.12 318.06 463.40 316.88 461.91 Z" />
<path fill="#2a2a2a" opacity="1.00" d=" M 333.30 454.10 C 338.99 456.19 341.54 462.90 345.85 466.94 C 346.78 462.73 343.25 453.74 350.22 454.16 C 349.76 461.53 352.33 469.78 348.44 476.47 C 344.05 472.21 340.37 467.30 336.42 462.65 C 335.81 466.34 338.65 477.34 332.40 474.71 C 332.07 468.02 330.54 460.25 333.30 454.10 Z" />
<path fill="#2a2a2a" opacity="1.00" d=" M 355.48 454.58 C 361.55 454.78 369.84 451.72 374.21 457.18 C 371.62 458.23 368.86 458.71 366.10 459.00 C 365.97 464.21 366.72 469.53 365.60 474.67 C 364.31 476.76 361.62 475.04 361.76 473.00 C 361.37 468.32 361.69 463.63 361.66 458.95 C 358.90 458.80 352.25 458.84 355.48 454.58 Z" />
</g>
</svg>
