<?xml version="1.0" encoding="UTF-8" ?>
<!DOCTYPE svg PUBLIC "-//W3C//DTD SVG 1.1//EN" "http://www.w3.org/Graphics/SVG/1.1/DTD/svg11.dtd">
<svg width="256pt" height="256pt" viewBox="0 0 256 256" version="1.1" xmlns="http://www.w3.org/2000/svg">
<g id="#2a2a2aff">
<path fill="#2a2a2a" opacity="1.00" d=" M 63.48 11.67 C 65.21 10.92 67.14 10.91 69.00 10.83 C 108.67 10.83 148.35 10.70 188.03 10.70 C 192.71 10.26 196.86 14.35 196.54 19.02 C 196.74 91.37 196.75 163.72 196.93 236.07 C 197.57 241.13 193.14 245.70 188.04 245.13 C 148.02 245.22 107.99 245.28 67.97 245.30 C 63.28 245.74 59.13 241.65 59.46 236.97 C 59.26 164.63 59.25 92.28 59.07 19.93 C 58.85 16.62 60.34 13.10 63.48 11.67 M 64.39 13.46 C 61.83 14.48 60.97 17.40 61.07 19.92 C 61.25 91.95 61.29 163.98 61.42 236.00 C 60.87 239.88 63.87 243.75 67.96 243.30 C 107.99 243.29 148.03 243.20 188.05 243.12 C 191.59 243.54 195.11 240.82 194.87 237.10 C 194.86 165.07 194.63 93.03 194.61 21.00 C 195.08 17.36 193.32 12.74 189.04 12.78 C 149.71 12.55 110.35 12.94 71.01 12.81 C 68.80 12.88 66.50 12.72 64.39 13.46 Z" />
<path fill="#2a2a2a" opacity="1.00" d=" M 64.62 22.00 C 64.54 19.45 64.36 15.72 67.99 16.25 C 107.99 16.18 148.01 16.18 188.02 16.25 C 192.12 15.72 191.28 20.31 191.38 22.99 C 191.18 88.93 191.56 154.88 191.20 220.81 C 149.08 221.24 106.92 221.21 64.79 220.83 C 64.45 154.56 64.80 88.27 64.62 22.00 M 66.67 18.19 C 66.63 70.32 66.66 122.46 66.66 174.59 C 81.22 174.62 95.78 174.56 110.35 174.62 C 114.73 165.79 115.95 156.07 119.47 146.99 C 118.65 145.23 117.84 143.47 117.06 141.69 C 104.53 138.57 93.14 130.76 86.37 119.68 C 77.16 105.19 76.55 85.79 84.72 70.71 C 92.18 56.52 106.97 46.48 122.96 44.99 C 139.62 43.10 156.91 50.60 166.97 64.00 C 178.44 78.65 180.23 100.01 171.49 116.41 C 164.97 129.17 152.55 138.51 138.63 141.72 C 137.64 143.52 136.63 145.31 135.57 147.07 C 138.95 156.17 140.27 165.82 144.61 174.62 C 159.52 174.55 174.43 174.62 189.34 174.59 C 189.33 122.45 189.36 70.32 189.32 18.19 C 148.44 18.22 107.56 18.22 66.67 18.19 M 87.52 71.19 C 92.43 67.27 97.70 63.42 104.01 62.17 C 118.48 58.57 134.99 66.62 140.55 80.53 C 142.61 86.23 138.29 91.04 134.19 94.34 C 136.14 95.12 138.11 95.82 140.11 96.49 C 139.48 97.63 138.85 98.77 138.22 99.91 C 139.05 101.64 139.87 103.37 140.71 105.10 C 136.65 119.72 119.88 128.21 105.42 125.37 C 98.17 124.24 91.98 119.99 86.73 115.07 C 92.98 126.80 104.16 135.55 117.00 138.93 C 116.32 135.12 116.05 131.21 116.69 127.37 C 118.81 128.46 120.87 129.66 122.89 130.93 C 126.11 129.08 129.77 129.08 133.01 130.90 C 135.05 129.65 137.13 128.47 139.27 127.41 C 139.88 131.25 139.63 135.15 138.90 138.95 C 159.01 134.04 174.65 114.86 174.35 93.99 C 174.90 72.06 157.70 51.54 136.07 48.12 C 117.10 44.45 96.74 54.29 87.52 71.19 M 66.64 176.59 C 66.65 177.59 66.66 179.59 66.66 180.58 C 78.72 180.88 90.84 179.95 102.85 181.09 C 101.06 182.07 99.11 182.75 97.05 182.62 C 86.91 182.58 76.78 182.57 66.64 182.59 C 66.64 184.19 66.65 185.80 66.65 187.41 C 75.98 187.39 85.31 187.45 94.64 187.37 C 95.04 187.82 95.83 188.72 96.23 189.17 C 86.37 189.68 76.49 189.28 66.62 189.43 C 66.64 190.93 66.67 192.43 66.69 193.93 C 73.43 194.00 80.25 193.38 86.93 194.58 C 80.60 197.36 73.37 195.23 66.66 195.90 C 66.66 197.51 66.65 199.14 66.65 200.76 C 78.71 201.04 90.85 199.98 102.84 201.37 C 91.26 204.49 78.65 201.89 66.66 202.70 C 66.66 204.27 66.65 205.84 66.65 207.42 C 69.66 207.46 72.77 207.45 75.51 208.89 C 72.58 209.45 69.60 209.60 66.62 209.71 C 66.64 211.06 66.66 212.41 66.68 213.76 C 74.44 213.83 82.23 213.37 89.97 214.09 C 82.99 217.75 74.33 214.78 66.68 215.73 C 66.67 216.56 66.67 218.23 66.67 219.06 C 107.56 219.06 148.45 219.06 189.34 219.06 C 189.33 218.23 189.33 216.56 189.32 215.72 C 181.61 214.82 172.99 217.68 165.90 214.13 C 173.68 213.33 181.52 213.85 189.32 213.76 C 189.34 212.36 189.35 210.96 189.37 209.57 C 175.11 209.16 160.75 210.36 146.55 208.93 C 150.07 206.97 154.16 207.58 158.00 207.54 C 168.45 207.60 178.89 207.55 189.34 207.55 C 189.34 205.93 189.34 204.31 189.35 202.69 C 178.88 202.74 168.40 202.73 157.93 202.75 C 156.18 202.90 154.61 202.09 153.14 201.26 C 165.16 200.11 177.29 200.98 189.35 200.77 C 189.34 199.14 189.33 197.52 189.33 195.90 C 182.96 195.87 176.60 195.88 170.23 195.89 C 170.21 195.40 170.15 194.42 170.12 193.93 C 176.51 193.86 182.91 193.86 189.31 193.93 C 189.33 192.43 189.35 190.93 189.38 189.43 C 179.49 189.29 169.59 189.65 159.70 189.20 C 160.10 188.74 160.90 187.82 161.30 187.36 C 170.65 187.46 180.00 187.39 189.35 187.41 C 189.35 185.80 189.35 184.19 189.35 182.59 C 177.65 182.56 165.94 182.62 154.24 182.56 C 154.25 182.07 154.27 181.09 154.28 180.60 C 165.96 180.56 177.65 180.59 189.34 180.58 C 189.34 179.59 189.35 177.59 189.35 176.59 C 174.58 176.60 159.81 176.59 145.04 176.60 C 146.50 185.52 146.92 197.57 137.91 202.72 C 128.11 205.87 119.42 212.38 108.95 213.31 C 102.44 213.79 95.44 212.89 90.05 208.94 C 93.56 205.01 98.66 208.31 103.01 208.29 C 108.46 209.06 113.62 206.78 118.09 203.91 C 108.69 198.30 107.98 186.27 109.93 176.60 C 95.50 176.59 81.07 176.60 66.64 176.59 Z" />
<path fill="#2a2a2a" opacity="1.00" d=" M 108.20 23.34 C 109.87 24.47 111.49 25.69 113.06 26.96 C 114.69 25.65 116.42 24.47 118.31 23.58 C 117.32 25.50 116.16 27.34 114.95 29.13 C 116.14 31.10 117.16 33.18 117.74 35.42 C 116.13 34.13 114.61 32.74 113.12 31.31 C 111.60 32.71 110.04 34.07 108.41 35.33 C 109.13 33.21 110.08 31.18 111.17 29.21 C 110.11 27.29 109.11 25.33 108.20 23.34 Z" />
<path fill="#2a2a2a" opacity="1.00" d=" M 119.72 23.29 C 122.67 24.81 123.88 27.97 125.29 30.75 C 126.70 27.98 127.95 24.85 130.92 23.38 C 129.77 27.67 127.60 31.60 125.20 35.31 C 123.00 31.49 120.81 27.60 119.72 23.29 Z" />
<path fill="#2a2a2a" opacity="1.00" d=" M 133.52 24.16 C 134.05 24.15 135.12 24.13 135.66 24.12 C 135.70 27.77 135.67 31.43 135.37 35.07 C 134.89 34.75 133.91 34.11 133.43 33.79 C 133.46 30.58 133.48 27.37 133.52 24.16 Z" />
<path fill="#2a2a2a" opacity="1.00" d=" M 139.40 24.14 C 139.93 24.14 141.01 24.15 141.54 24.15 C 141.58 27.38 141.59 30.61 141.62 33.84 C 141.13 34.14 140.14 34.73 139.65 35.03 C 139.39 31.41 139.36 27.77 139.40 24.14 Z" />
<path fill="#2a2a2a" opacity="1.00" d=" M 145.31 24.12 C 145.85 24.13 146.92 24.15 147.45 24.16 C 147.49 27.36 147.50 30.57 147.54 33.77 C 147.06 34.10 146.09 34.77 145.61 35.10 C 145.29 31.45 145.26 27.78 145.31 24.12 Z" />
<path fill="#2a2a2a" opacity="1.00" d=" M 87.04 30.46 C 88.35 29.17 89.63 27.86 90.88 26.51 C 92.14 27.85 93.43 29.16 94.76 30.43 C 93.44 31.69 92.16 33.00 90.91 34.34 C 89.66 33.01 88.37 31.72 87.04 30.46 Z" />
<path fill="#2a2a2a" opacity="1.00" d=" M 161.16 30.80 C 162.53 29.52 163.84 28.19 165.12 26.81 C 166.47 28.31 167.88 29.75 169.33 31.15 C 168.38 31.55 167.44 31.95 166.50 32.35 C 166.27 33.03 165.81 34.38 165.58 35.06 C 164.13 33.61 162.67 32.18 161.16 30.80 Z" />
<path fill="#2a2a2a" opacity="1.00" d=" M 78.74 42.26 C 80.04 43.62 81.38 44.95 82.73 46.26 C 81.38 47.51 80.07 48.79 78.79 50.11 C 77.53 48.78 76.23 47.48 74.90 46.22 C 76.22 44.94 77.49 43.62 78.74 42.26 Z" />
<path fill="#2a2a2a" opacity="1.00" d=" M 173.26 46.26 C 174.62 44.95 175.96 43.62 177.26 42.27 C 178.50 43.62 179.78 44.94 181.10 46.22 C 179.77 47.48 178.47 48.78 177.21 50.12 C 175.93 48.79 174.61 47.51 173.26 46.26 Z" />
<path fill="#2a2a2a" opacity="1.00" d=" M 142.80 80.72 C 142.04 75.28 149.27 74.09 152.72 76.83 C 149.20 77.54 145.83 78.77 142.80 80.72 Z" />
<path fill="#2a2a2a" opacity="1.00" d=" M 144.78 89.41 C 144.68 86.47 144.55 83.46 145.59 80.65 C 146.06 82.22 146.51 83.79 146.94 85.37 C 148.79 84.26 150.66 83.16 152.58 82.17 C 152.06 86.35 148.30 88.18 144.78 89.41 Z" />
<path fill="#2a2a2a" opacity="1.00" d=" M 140.48 101.38 C 142.76 99.87 145.15 98.52 147.52 97.16 C 147.76 97.92 148.23 99.45 148.47 100.22 C 145.84 100.83 143.18 101.33 140.48 101.38 Z" />
<path fill="#2a2a2a" opacity="1.00" d=" M 77.85 139.70 C 79.16 138.43 80.45 137.14 81.72 135.82 C 82.99 137.13 84.29 138.42 85.64 139.67 C 84.29 140.97 82.97 142.31 81.69 143.68 C 80.45 142.32 79.16 140.99 77.85 139.70 Z" />
<path fill="#2a2a2a" opacity="1.00" d=" M 170.36 139.67 C 171.70 138.42 173.01 137.13 174.28 135.82 C 175.54 137.14 176.83 138.43 178.15 139.70 C 176.83 140.99 175.55 142.32 174.31 143.68 C 173.03 142.31 171.71 140.97 170.36 139.67 Z" />
<path fill="#2a2a2a" opacity="1.00" d=" M 95.92 155.65 C 97.22 154.36 98.50 153.05 99.74 151.70 C 101.00 153.04 102.29 154.35 103.62 155.61 C 102.28 156.92 100.98 158.26 99.72 159.63 C 98.49 158.27 97.22 156.95 95.92 155.65 Z" />
<path fill="#2a2a2a" opacity="1.00" d=" M 152.35 155.64 C 153.69 154.37 154.98 153.06 156.24 151.72 C 157.48 153.02 158.75 154.29 160.05 155.54 C 158.80 156.86 157.57 158.21 156.39 159.60 C 155.08 158.24 153.74 156.92 152.35 155.64 Z" />
<path fill="#2a2a2a" opacity="1.00" d=" M 79.50 156.21 C 80.80 157.52 82.14 158.79 83.51 160.02 C 82.19 161.31 80.90 162.62 79.65 163.98 C 78.35 162.64 77.01 161.34 75.63 160.08 C 76.96 158.83 78.25 157.54 79.50 156.21 Z" />
<path fill="#2a2a2a" opacity="1.00" d=" M 172.46 160.06 C 173.82 158.80 175.16 157.51 176.46 156.17 C 177.71 157.51 179.01 158.80 180.35 160.06 C 179.01 161.32 177.72 162.61 176.47 163.94 C 175.16 162.62 173.82 161.32 172.46 160.06 Z" />
<path fill="#2a2a2a" opacity="1.00" d=" M 98.18 186.79 C 100.34 187.08 102.49 187.42 104.62 187.87 C 102.48 188.55 100.29 189.01 98.09 189.46 C 98.12 188.79 98.16 187.46 98.18 186.79 Z" />
<path fill="#2a2a2a" opacity="1.00" d=" M 151.90 187.36 C 153.84 187.22 155.79 187.09 157.75 186.95 C 157.79 187.50 157.89 188.60 157.94 189.15 C 156.31 189.00 154.67 188.97 153.03 189.08 C 152.75 188.65 152.18 187.79 151.90 187.36 Z" />
<path fill="#2a2a2a" opacity="1.00" d=" M 87.94 194.30 C 90.56 194.01 93.19 193.88 95.83 193.84 C 95.80 194.39 95.75 195.48 95.73 196.02 C 93.05 195.91 90.09 196.27 87.94 194.30 Z" />
<path fill="#2a2a2a" opacity="1.00" d=" M 160.10 193.92 C 162.38 193.90 164.67 193.90 166.97 193.91 C 166.94 194.41 166.89 195.41 166.87 195.90 C 164.64 195.90 162.41 195.89 160.18 195.89 C 160.16 195.40 160.12 194.41 160.10 193.92 Z" />
<path fill="#2a2a2a" opacity="1.00" d=" M 76.62 208.03 C 79.96 207.22 83.91 206.32 86.82 208.77 C 83.42 209.43 79.80 209.61 76.62 208.03 Z" />
<path fill="#2a2a2a" opacity="1.00" d=" M 152.73 213.71 C 156.08 213.71 159.44 213.72 162.76 214.27 C 159.72 216.50 155.83 215.66 152.32 215.70 C 152.42 215.21 152.63 214.21 152.73 213.71 Z" />
<path fill="#2a2a2a" opacity="1.00" d=" M 119.40 214.97 C 125.25 213.08 131.80 213.10 137.66 214.97 C 131.67 216.19 125.39 216.19 119.40 214.97 Z" />
<path fill="#2a2a2a" opacity="1.00" d=" M 78.50 228.69 C 81.98 226.84 85.98 227.33 89.71 227.93 C 88.26 228.69 86.79 229.42 85.31 230.13 C 85.26 233.07 85.13 236.01 84.75 238.93 C 82.29 236.55 83.05 233.01 82.84 229.96 C 81.39 229.55 79.95 229.13 78.50 228.69 Z" />
<path fill="#2a2a2a" opacity="1.00" d=" M 104.52 227.49 C 107.59 227.43 110.65 227.43 113.72 227.50 C 113.65 227.99 113.51 228.98 113.44 229.47 C 110.83 229.63 108.22 229.81 105.62 230.13 C 107.93 231.35 110.48 231.88 113.00 232.48 C 111.15 233.53 109.09 234.04 106.99 234.25 C 106.72 234.58 106.18 235.26 105.91 235.59 C 108.28 235.73 110.65 235.81 113.03 235.88 C 113.32 236.36 113.91 237.31 114.21 237.79 C 110.97 237.95 107.73 238.00 104.49 237.99 C 104.44 234.49 104.44 230.99 104.52 227.49 Z" />
<path fill="#2a2a2a" opacity="1.00" d=" M 124.72 226.75 C 126.42 228.15 128.09 229.60 129.74 231.07 C 131.30 229.59 132.88 228.13 134.49 226.72 C 134.76 230.71 136.39 235.61 133.27 238.91 C 132.93 236.44 132.75 233.97 132.60 231.49 C 131.66 232.36 130.72 233.24 129.78 234.12 C 128.74 233.27 127.70 232.42 126.66 231.57 C 126.60 233.67 126.56 235.78 126.51 237.88 C 125.98 237.88 124.92 237.86 124.39 237.86 C 124.36 234.15 124.36 230.44 124.72 226.75 Z" />
<path fill="#2a2a2a" opacity="1.00" d=" M 142.41 227.51 C 146.26 226.59 149.92 230.85 148.44 234.53 C 147.34 238.21 142.06 239.26 139.54 236.44 C 136.70 233.61 138.42 228.12 142.41 227.51 M 141.42 230.42 C 138.35 232.77 142.24 237.72 145.24 235.25 C 148.77 233.02 144.38 227.40 141.42 230.42 Z" />
<path fill="#2a2a2a" opacity="1.00" d=" M 155.41 227.54 C 159.36 226.47 163.13 230.85 161.59 234.62 C 160.39 238.58 154.37 239.26 152.22 235.77 C 150.06 232.85 151.86 228.23 155.41 227.54 M 155.23 229.99 C 151.27 231.73 154.92 237.79 158.32 235.35 C 161.62 233.51 158.39 227.97 155.23 229.99 Z" />
<path fill="#2a2a2a" opacity="1.00" d=" M 92.04 239.01 C 91.33 234.81 91.02 230.36 92.80 226.36 C 93.27 228.11 93.71 229.88 94.11 231.65 C 95.41 231.64 96.71 231.63 98.01 231.62 C 98.67 229.84 99.34 228.08 100.09 226.35 C 100.84 230.15 100.81 234.04 100.72 237.90 C 100.19 237.89 99.13 237.86 98.60 237.84 C 98.57 236.51 98.54 235.17 98.51 233.84 C 97.14 233.84 95.76 233.84 94.39 233.85 C 93.73 235.62 92.98 237.36 92.04 239.01 Z" />
<path fill="#2a2a2a" opacity="1.00" d=" M 166.76 238.91 C 163.67 235.55 165.26 230.63 165.62 226.61 C 167.76 228.78 169.77 231.08 171.68 233.47 C 172.02 231.02 172.43 228.57 173.04 226.17 C 174.79 230.16 174.34 234.56 174.02 238.76 C 171.50 236.76 169.40 234.32 167.37 231.84 C 167.25 234.20 167.07 236.56 166.76 238.91 Z" />
</g>
</svg>
