<?xml version="1.0" encoding="UTF-8" ?>
<!DOCTYPE svg PUBLIC "-//W3C//DTD SVG 1.1//EN" "http://www.w3.org/Graphics/SVG/1.1/DTD/svg11.dtd">
<svg width="120pt" height="120pt" viewBox="0 0 512 512" version="1.1" xmlns="http://www.w3.org/2000/svg">
<g id="#2a2a2afe">
<path fill="#2a2a2a" opacity="1.00" d=" M 132.35 21.48 C 213.91 21.12 295.49 21.44 377.05 21.32 C 385.73 20.74 393.85 28.25 393.61 37.01 C 393.66 183.01 393.66 329.00 393.61 474.99 C 393.84 483.75 385.73 491.25 377.06 490.68 C 296.04 490.64 215.02 490.72 134.00 490.64 C 125.25 490.83 117.74 482.74 118.35 474.05 C 118.39 328.37 118.32 182.69 118.38 37.01 C 118.22 29.26 124.61 22.09 132.35 21.48 M 131.45 25.74 C 125.91 26.82 122.06 32.38 122.41 37.92 C 122.41 183.30 122.41 328.69 122.41 474.08 C 121.84 480.97 128.03 487.16 134.92 486.61 C 215.64 486.62 296.36 486.62 377.08 486.61 C 383.97 487.16 390.14 480.97 389.59 474.08 C 389.59 328.70 389.59 183.31 389.59 37.93 C 389.90 32.63 386.45 27.30 381.25 25.91 C 377.24 24.99 373.08 25.46 369.00 25.37 C 294.34 25.40 219.67 25.38 145.00 25.38 C 140.49 25.46 135.92 25.03 131.45 25.74 Z" />
<path fill="#2a2a2a" opacity="1.00" d=" M 133.38 32.65 C 214.59 32.27 295.85 32.56 377.08 32.50 C 380.89 31.83 383.26 35.47 382.79 38.93 C 382.76 171.99 382.83 305.05 382.77 438.10 C 383.20 440.89 380.79 443.01 378.09 442.60 C 296.70 442.63 215.30 442.62 133.91 442.60 C 131.15 443.05 128.73 440.94 129.22 438.09 C 129.17 305.04 129.23 171.98 129.19 38.93 C 128.91 36.19 130.26 32.85 133.38 32.65 M 136.39 36.60 C 148.69 52.40 161.52 67.80 173.57 83.79 C 172.03 84.14 170.08 86.06 168.98 84.05 C 156.91 69.30 145.31 54.15 133.29 39.35 C 133.20 61.54 133.30 83.73 133.24 105.92 C 145.55 114.89 157.89 123.83 170.26 132.72 C 172.77 134.61 175.70 136.16 177.42 138.88 C 176.87 141.53 174.07 140.86 172.59 139.49 C 159.50 129.97 146.37 120.50 133.27 110.97 C 133.23 141.38 133.27 171.79 133.25 202.20 C 144.10 202.39 154.97 201.86 165.80 202.42 C 166.39 203.58 166.62 204.87 166.97 206.12 C 155.73 206.44 144.49 206.20 133.25 206.26 C 133.27 235.88 133.23 265.49 133.27 295.11 C 146.38 284.57 159.23 273.68 172.50 263.36 C 174.46 260.77 177.48 265.40 174.60 266.54 C 161.01 278.02 147.02 289.03 133.27 300.33 C 133.24 330.24 133.25 360.16 133.26 390.08 C 133.00 393.24 135.61 395.40 137.19 397.81 C 142.01 404.05 144.62 411.66 145.84 419.38 C 150.10 411.42 159.23 404.90 157.58 394.93 C 153.77 395.40 148.36 397.01 146.01 392.85 C 144.15 388.69 147.53 384.75 149.77 381.51 C 146.67 379.85 142.13 378.22 142.15 374.00 C 142.18 369.79 146.75 368.23 149.85 366.58 C 147.58 363.19 143.95 358.77 146.63 354.64 C 149.30 351.21 154.08 352.78 157.68 353.36 C 157.83 349.72 157.28 344.79 161.15 342.82 C 164.81 341.19 168.04 344.44 170.80 346.39 C 172.31 342.75 174.01 337.23 178.87 337.41 C 183.46 337.95 184.78 343.15 186.19 346.78 C 188.95 344.75 192.13 341.53 195.87 342.93 C 199.91 344.86 199.35 349.97 199.41 353.70 C 203.09 353.07 208.16 351.57 210.62 355.40 C 212.87 359.54 209.30 363.68 207.09 366.98 C 210.25 368.68 214.94 370.53 214.66 374.87 C 214.26 378.81 209.99 380.30 206.98 381.93 C 209.13 385.25 212.60 389.35 210.40 393.48 C 207.98 397.33 202.87 395.72 199.20 395.17 C 198.94 398.78 199.51 403.75 195.66 405.70 C 191.98 407.28 188.75 404.09 186.02 402.08 C 184.48 405.73 182.87 411.15 178.03 411.12 C 173.38 410.65 172.07 405.43 170.60 401.82 C 167.63 404.42 164.04 406.28 159.98 405.90 C 156.37 411.15 152.77 416.41 149.19 421.68 C 159.88 417.75 172.01 417.56 182.43 422.43 C 179.75 428.65 175.22 433.78 170.52 438.56 C 187.20 438.59 203.88 438.50 220.56 438.61 C 217.66 430.42 216.75 421.48 218.09 412.90 C 232.56 413.92 244.21 426.13 249.77 438.94 C 251.24 438.66 252.72 438.43 254.17 438.03 C 254.66 432.83 254.45 427.59 254.52 422.37 C 251.34 419.86 249.37 416.31 248.17 412.51 C 245.35 414.57 241.91 417.98 238.16 416.11 C 234.40 414.01 235.17 409.16 235.02 405.56 C 231.40 406.15 226.57 407.63 223.96 404.13 C 221.46 399.99 225.02 395.67 227.21 392.28 C 224.25 390.54 219.97 388.99 219.72 384.98 C 219.57 380.65 224.28 378.97 227.45 377.31 C 225.26 374.05 221.87 370.00 223.94 365.89 C 226.34 361.90 231.51 363.48 235.25 363.97 C 235.43 360.41 234.91 355.65 238.58 353.61 C 242.27 351.92 245.60 355.09 248.39 357.09 C 249.91 353.57 251.37 348.36 256.00 348.14 C 260.90 348.23 262.34 353.78 263.81 357.49 C 266.65 355.41 270.23 351.87 273.99 353.96 C 277.60 356.13 276.82 360.86 276.99 364.42 C 280.62 363.81 285.51 362.34 288.09 365.93 C 290.49 370.06 286.96 374.33 284.78 377.70 C 287.75 379.43 292.04 381.00 292.28 385.02 C 292.37 389.33 287.70 391.00 284.55 392.68 C 286.74 395.93 290.12 399.98 288.06 404.09 C 285.67 408.07 280.46 406.46 276.74 406.03 C 276.58 409.58 277.06 414.33 273.41 416.37 C 269.74 418.07 266.44 414.89 263.64 412.93 C 258.12 420.48 258.01 429.53 258.41 438.53 C 260.04 438.56 261.68 438.59 263.32 438.63 C 268.99 425.99 280.52 413.89 294.89 412.89 C 296.25 421.47 295.34 430.42 292.43 438.60 C 310.02 438.51 327.60 438.57 345.19 438.57 C 340.67 433.87 335.90 429.06 333.45 422.91 C 342.38 417.41 353.83 417.19 363.75 419.88 C 360.30 414.72 356.80 409.58 353.38 404.38 C 349.19 407.44 344.48 405.36 341.21 402.05 C 339.69 405.76 338.01 411.34 333.03 411.11 C 328.51 410.47 327.24 405.39 325.80 401.81 C 322.93 403.89 319.43 407.19 315.63 405.33 C 312.04 403.15 312.70 398.37 312.60 394.78 C 309.00 395.44 304.20 396.88 301.57 393.43 C 298.92 389.26 302.64 384.87 304.95 381.51 C 301.83 379.87 297.35 378.20 297.33 374.00 C 297.38 369.81 301.92 368.24 305.00 366.57 C 302.80 363.21 299.21 358.84 301.79 354.75 C 304.36 351.19 309.20 352.73 312.79 353.41 C 313.07 349.84 312.44 345.12 316.02 342.98 C 319.68 340.98 323.17 344.35 325.96 346.36 C 327.56 342.74 329.13 337.28 334.01 337.40 C 338.64 337.95 340.01 343.15 341.41 346.83 C 344.25 344.64 347.83 341.11 351.66 343.23 C 355.12 345.45 354.49 350.10 354.61 353.62 C 358.26 353.14 363.34 351.54 365.79 355.34 C 368.09 359.53 364.53 363.69 362.21 366.98 C 365.21 368.60 369.47 370.09 369.82 374.05 C 370.18 378.47 365.35 380.28 362.15 381.93 C 364.35 385.26 367.87 389.45 365.52 393.59 C 362.79 397.51 357.43 395.45 353.54 395.23 C 356.43 403.87 363.02 410.56 367.57 418.33 C 368.03 408.94 372.61 400.68 378.43 393.60 C 379.13 362.95 378.59 332.19 378.68 301.50 C 364.25 289.51 349.14 278.27 335.30 265.62 C 337.00 264.62 338.99 263.56 340.59 265.36 C 353.36 275.58 365.95 286.05 378.70 296.31 C 378.78 266.75 378.68 237.19 378.75 207.64 C 368.70 207.35 358.59 208.11 348.57 207.28 C 348.62 206.23 347.08 203.66 349.10 203.86 C 358.94 203.09 368.86 203.76 378.73 203.56 C 378.71 173.53 378.76 143.50 378.71 113.46 C 364.88 123.03 351.81 133.73 337.54 142.62 C 337.13 141.89 336.30 140.41 335.89 139.68 C 349.93 128.97 364.42 118.86 378.70 108.48 C 378.73 85.39 378.78 62.29 378.67 39.20 C 366.12 54.55 354.20 70.44 341.47 85.64 C 339.94 88.67 336.63 84.62 338.84 82.86 C 350.88 67.32 363.33 52.08 375.44 36.59 C 358.27 36.54 341.10 36.53 323.93 36.56 C 321.40 36.05 320.40 38.60 319.42 40.37 C 310.86 57.43 301.99 74.34 293.38 91.38 C 292.19 93.59 290.01 97.74 287.96 93.88 C 296.77 74.43 307.42 55.76 316.85 36.56 C 276.52 36.56 236.20 36.52 195.88 36.59 C 204.95 54.67 214.48 72.54 223.45 90.66 C 224.69 92.38 222.40 93.53 221.61 94.84 C 210.76 75.82 201.49 55.90 191.22 36.54 C 172.94 36.60 154.67 36.49 136.39 36.60 M 172.69 355.16 C 169.06 352.22 166.83 347.82 162.63 345.49 C 161.44 350.37 162.75 355.30 162.68 360.22 C 158.39 358.36 154.02 356.30 149.20 356.49 C 150.30 361.30 154.08 364.51 157.03 368.18 C 153.71 371.14 148.60 370.98 145.16 373.99 C 148.63 376.78 153.03 377.63 157.01 379.37 C 155.35 383.66 148.13 386.72 150.27 391.63 C 154.72 392.09 158.43 388.67 162.81 388.90 C 162.45 393.48 161.06 398.00 161.82 402.64 C 166.78 400.91 168.73 395.72 172.72 392.83 C 175.45 397.49 174.02 403.98 178.58 407.83 C 182.67 403.94 180.55 396.82 184.75 393.57 C 187.76 396.86 190.18 400.83 194.35 402.85 C 196.26 398.25 192.47 392.71 194.91 388.79 C 199.04 390.16 203.04 392.20 207.52 392.07 C 206.51 387.47 203.26 384.01 199.91 380.93 C 200.10 380.43 200.47 379.43 200.65 378.92 C 204.49 378.11 208.28 376.92 211.59 374.74 C 208.48 371.74 204.20 370.96 200.35 369.41 C 201.07 364.67 207.52 362.14 207.78 356.65 C 203.01 356.68 198.80 359.08 194.21 359.90 C 194.15 355.18 196.07 350.48 194.46 345.81 C 190.31 348.09 187.82 352.13 184.75 355.55 C 180.59 351.96 182.93 344.73 178.79 340.59 C 174.42 344.38 175.47 350.63 172.69 355.16 M 327.13 354.83 C 324.21 351.50 321.67 347.73 317.69 345.54 C 316.40 350.28 318.22 355.03 317.78 359.80 C 313.30 358.66 309.13 356.21 304.34 356.46 C 305.09 361.49 310.27 364.32 311.78 368.60 C 308.82 371.05 303.54 371.02 300.35 373.99 C 303.62 376.62 307.69 377.59 311.56 378.92 C 311.19 383.82 304.62 386.24 304.18 391.62 C 309.03 392.04 313.23 389.25 317.92 388.76 C 317.65 393.38 316.20 397.95 317.18 402.60 C 322.14 400.61 324.19 395.18 328.80 392.75 C 329.79 397.66 329.50 403.31 333.08 407.28 C 338.70 404.89 335.50 396.33 339.94 393.66 C 343.04 396.85 345.34 401.03 349.73 402.70 C 350.36 398.08 349.31 393.52 349.14 388.93 C 353.74 389.68 357.91 392.12 362.64 392.29 C 361.89 387.53 358.48 384.08 355.13 380.95 C 355.29 380.45 355.61 379.44 355.77 378.93 C 359.63 378.12 363.46 376.96 366.75 374.72 C 363.28 371.62 358.66 370.63 354.53 368.77 C 357.93 365.19 361.99 361.78 362.89 356.63 C 358.11 356.67 353.92 359.19 349.30 359.85 C 349.42 355.23 350.89 350.71 350.26 346.05 C 345.48 347.53 343.20 352.10 339.94 355.44 C 335.95 352.06 338.08 344.59 333.89 340.53 C 329.17 344.13 331.46 351.91 327.13 354.83 M 250.07 365.92 C 246.82 362.74 244.37 358.76 240.45 356.28 C 238.59 360.71 240.25 365.32 240.66 369.84 C 236.06 371.11 231.72 365.35 227.01 367.98 C 228.11 372.64 232.20 375.51 234.82 379.25 C 231.08 381.35 226.72 382.00 223.01 384.21 C 225.77 388.24 231.28 387.70 234.60 390.76 C 231.56 394.40 227.76 397.60 226.44 402.37 C 231.19 402.69 235.39 400.39 239.84 399.24 C 241.11 403.73 237.74 408.47 239.85 412.99 C 244.25 411.59 246.59 407.42 249.07 403.88 C 249.68 404.04 250.89 404.38 251.49 404.55 C 251.83 409.56 252.64 414.76 255.99 418.74 C 259.84 414.60 258.85 408.39 261.92 404.02 C 265.26 407.32 267.69 411.64 272.15 413.62 C 273.01 409.08 271.77 404.62 271.36 400.12 C 275.95 398.90 280.26 404.58 284.99 402.02 C 283.90 397.35 279.81 394.48 277.18 390.75 C 280.90 388.61 285.27 387.98 288.98 385.78 C 286.24 381.71 280.70 382.30 277.41 379.22 C 280.43 375.58 284.23 372.37 285.56 367.62 C 281.00 367.36 276.85 369.26 272.68 370.75 C 270.36 366.58 274.25 361.22 272.31 356.51 C 268.11 358.56 265.65 362.54 262.67 365.91 C 257.56 364.49 261.56 354.07 255.98 352.33 C 251.24 355.07 253.58 362.25 250.07 365.92 M 133.34 399.22 C 133.16 412.02 133.29 424.82 133.27 437.63 C 136.03 433.39 139.65 429.56 141.53 424.82 C 142.45 415.60 138.54 406.62 133.34 399.22 M 372.51 424.83 C 373.89 428.51 376.54 431.51 378.72 434.73 C 378.70 423.17 378.90 411.60 378.60 400.05 C 373.43 407.06 370.48 416.18 372.51 424.83 M 221.58 417.12 C 221.45 424.39 221.93 431.86 225.08 438.54 C 227.77 438.55 230.46 438.56 233.16 438.55 C 231.32 436.00 229.50 433.44 227.75 430.83 C 228.76 430.09 229.78 429.36 230.80 428.64 C 233.39 431.87 235.82 435.23 238.27 438.58 C 240.57 438.56 242.87 438.54 245.17 438.52 C 240.33 428.72 231.94 420.79 221.58 417.12 M 267.83 438.54 C 270.31 438.54 272.79 438.55 275.28 438.55 C 277.42 434.92 279.19 430.99 282.08 427.89 C 287.56 429.81 281.18 435.27 279.94 438.56 C 282.59 438.55 285.24 438.55 287.89 438.54 C 291.06 431.87 291.55 424.39 291.41 417.12 C 281.05 420.78 272.62 428.70 267.83 438.54 M 338.71 424.48 C 342.51 429.75 346.38 435.77 352.70 438.22 C 359.28 439.03 365.98 438.44 372.61 438.44 C 365.36 435.43 357.48 433.98 350.44 430.50 C 347.91 429.08 350.75 426.50 352.71 427.51 C 359.66 429.39 366.34 432.17 373.27 434.15 C 367.56 420.90 350.56 420.40 338.71 424.48 M 138.94 436.65 C 147.05 433.86 154.78 429.95 163.04 427.68 C 165.37 427.34 165.39 430.87 163.48 431.34 C 157.72 434.09 151.56 435.93 145.71 438.50 C 151.54 438.38 157.48 439.13 163.25 438.12 C 169.30 435.45 173.12 429.66 176.97 424.56 C 163.73 420.69 145.62 422.96 138.94 436.65 Z" />
<path fill="#2a2a2a" opacity="1.00" d=" M 235.35 58.71 C 233.25 55.39 226.06 50.85 231.44 47.31 C 233.83 49.79 236.06 52.44 238.24 55.12 C 241.03 52.78 244.23 44.90 247.85 49.89 C 246.14 53.19 243.56 55.90 241.24 58.76 C 243.58 61.48 245.86 64.26 248.04 67.11 C 247.04 68.04 246.04 68.97 245.04 69.89 C 242.70 67.44 240.50 64.86 238.31 62.28 C 236.03 64.93 233.92 67.83 230.96 69.78 C 226.20 66.11 233.43 62.07 235.35 58.71 Z" />
<path fill="#2a2a2a" opacity="1.00" d=" M 253.69 55.00 C 253.85 52.36 252.87 47.71 256.88 47.87 C 258.85 50.09 258.08 53.29 258.31 56.00 C 258.02 60.92 259.40 66.48 256.01 70.65 C 252.39 66.20 254.06 60.24 253.69 55.00 Z" />
<path fill="#2a2a2a" opacity="1.00" d=" M 264.16 49.89 C 267.76 44.89 270.99 52.80 273.77 55.12 C 275.96 52.42 278.19 49.75 280.62 47.27 C 285.84 51.02 278.78 55.34 276.66 58.71 C 278.57 62.06 285.81 66.12 281.03 69.78 C 278.07 67.84 275.97 64.93 273.71 62.28 C 271.51 64.86 269.30 67.43 266.96 69.89 C 265.95 68.97 264.95 68.04 263.96 67.11 C 266.14 64.26 268.43 61.49 270.77 58.76 C 268.45 55.90 265.87 53.19 264.16 49.89 Z" />
<path fill="#2a2a2a" opacity="1.00" d=" M 250.80 106.78 C 252.24 103.10 253.16 99.02 256.00 96.10 C 257.72 97.85 258.75 100.10 259.58 102.38 C 264.63 116.23 269.95 129.99 275.07 143.81 C 290.06 134.16 304.81 124.14 319.89 114.63 C 321.72 118.28 319.87 122.11 318.88 125.71 C 314.96 139.12 311.09 152.55 307.28 166.00 C 324.05 167.56 340.86 168.82 357.59 170.66 C 360.34 170.60 359.95 173.98 357.86 174.82 C 345.30 184.31 332.55 193.56 319.93 202.97 C 332.81 213.87 346.11 224.31 358.71 235.53 C 361.56 237.24 358.02 239.22 356.05 239.02 C 340.35 239.89 324.64 240.57 308.94 241.45 C 312.71 258.01 316.88 274.48 320.55 291.05 C 321.60 293.49 318.49 294.82 316.85 293.14 C 303.15 284.85 289.51 276.43 275.86 268.03 C 269.54 282.41 264.05 297.20 257.25 311.34 C 256.00 314.85 253.79 310.70 252.99 309.03 C 247.37 295.37 241.81 281.69 236.16 268.04 C 222.02 276.53 208.21 285.65 193.81 293.68 C 191.25 295.62 191.32 291.75 191.53 290.09 C 194.44 274.07 197.70 258.11 200.57 242.08 C 184.23 240.49 167.72 240.13 151.51 237.55 C 153.00 235.42 154.61 233.35 156.62 231.67 C 167.62 222.41 178.56 213.06 189.43 203.64 C 176.83 193.12 163.66 183.26 151.43 172.32 C 155.16 169.83 159.76 170.06 164.03 169.60 C 177.45 168.39 190.86 167.06 204.28 165.82 C 200.43 150.94 196.52 136.08 192.55 121.24 C 192.02 119.23 191.58 117.14 191.98 115.06 C 194.12 115.05 196.03 116.08 197.78 117.21 C 210.90 125.76 224.18 134.07 237.32 142.60 C 241.87 130.68 246.34 118.73 250.80 106.78 M 236.66 156.09 C 242.18 154.37 247.84 153.13 253.60 152.64 C 253.59 138.64 253.88 124.63 253.79 110.63 C 247.95 125.73 242.36 140.93 236.66 156.09 M 202.12 124.86 C 210.91 136.89 219.88 148.80 228.92 160.65 C 232.90 156.89 233.97 151.34 235.87 146.43 C 224.60 139.28 213.37 132.05 202.12 124.86 M 276.56 147.78 C 278.32 152.37 279.59 157.33 283.01 161.04 C 292.33 149.53 301.22 137.65 310.12 125.82 C 298.87 133.03 287.72 140.41 276.56 147.78 M 246.43 157.69 C 229.59 160.83 214.95 173.38 209.31 189.55 C 203.00 206.62 207.28 226.97 219.93 240.04 C 230.97 251.92 248.11 257.69 264.08 254.83 C 282.01 251.97 297.60 238.31 302.88 220.96 C 308.40 204.08 303.75 184.39 291.18 171.82 C 279.94 159.92 262.46 154.44 246.43 157.69 M 165.68 173.64 C 179.19 177.74 192.82 181.41 206.34 185.51 C 209.25 179.36 213.03 173.67 217.61 168.64 C 200.30 170.31 182.97 171.78 165.68 173.64 M 294.29 168.94 C 298.49 173.67 302.03 178.94 304.84 184.61 C 318.39 180.85 332.09 177.62 345.57 173.63 C 328.50 171.86 311.39 170.44 294.29 168.94 M 307.82 218.41 C 321.31 222.84 334.73 227.47 348.22 231.90 C 337.82 222.94 327.11 214.35 316.65 205.47 C 311.64 208.19 307.42 212.25 307.82 218.41 M 164.85 230.19 C 177.91 225.58 190.95 220.87 203.86 215.83 C 200.43 212.33 196.50 209.40 192.75 206.27 C 183.43 214.22 174.03 222.09 164.85 230.19 M 207.27 228.86 C 203.91 246.98 200.26 265.05 197.05 283.20 C 205.15 271.17 213.11 259.04 221.16 246.96 C 215.45 241.83 210.80 235.66 207.27 228.86 M 290.08 247.48 C 297.41 259.27 305.99 270.34 314.08 281.64 C 310.53 265.15 306.38 248.78 302.58 232.34 C 299.18 238.00 294.59 242.72 290.08 247.48 M 257.67 259.07 C 257.57 272.84 257.54 286.61 257.69 300.38 C 262.74 288.99 267.39 277.41 272.31 265.95 C 267.69 263.18 263.31 259.34 257.67 259.07 Z" />
<path fill="#2a2a2a" opacity="1.00" d=" M 222.26 188.03 C 228.45 179.38 241.76 178.51 250.65 183.38 C 249.57 184.29 248.88 186.41 247.13 185.73 C 241.41 184.37 235.07 183.61 229.79 186.81 C 227.36 187.71 224.37 191.33 222.26 188.03 Z" />
<path fill="#2a2a2a" opacity="1.00" d=" M 262.77 182.76 C 271.22 178.96 281.91 179.76 289.00 185.97 C 290.61 187.01 289.02 188.81 288.82 190.21 C 281.59 184.55 272.11 183.01 263.48 186.23 C 263.30 185.36 262.95 183.62 262.77 182.76 Z" />
<path fill="#2a2a2a" opacity="1.00" d=" M 274.13 193.30 C 275.11 192.01 276.12 190.74 277.16 189.49 C 277.95 191.01 278.71 192.55 279.43 194.12 C 280.25 193.38 281.07 192.65 281.90 191.92 C 282.48 192.27 283.63 192.96 284.21 193.31 C 283.81 194.34 283.42 195.37 283.03 196.40 C 284.82 196.53 286.62 196.74 288.40 197.05 C 286.95 199.40 285.45 201.73 283.92 204.03 C 282.69 202.73 281.50 201.42 280.32 200.08 C 277.34 204.31 271.78 204.64 268.65 200.37 C 267.09 201.38 265.57 202.71 263.57 202.51 C 262.65 196.61 269.53 194.22 274.13 193.30 M 273.06 197.69 C 273.10 198.15 273.18 199.08 273.21 199.54 C 273.84 199.52 275.09 199.47 275.71 199.44 C 275.76 199.01 275.87 198.14 275.92 197.71 C 275.20 197.70 273.78 197.69 273.06 197.69 Z" />
<path fill="#2a2a2a" opacity="1.00" d=" M 233.25 193.62 C 234.68 189.69 236.77 189.83 238.70 193.29 C 243.45 194.14 248.16 196.51 249.72 201.42 C 249.00 201.81 247.55 202.57 246.83 202.96 C 245.97 201.97 245.10 200.99 244.25 200.01 C 241.29 204.38 235.52 204.66 232.43 200.27 C 229.35 205.34 226.56 201.98 224.67 198.05 C 225.05 197.48 225.80 196.33 226.18 195.76 C 227.19 196.19 228.21 196.64 229.23 197.08 C 228.45 193.17 229.56 191.12 233.25 193.62 M 237.01 197.57 C 237.12 198.20 237.34 199.46 237.46 200.08 C 238.50 199.45 239.50 198.73 240.44 197.93 C 239.58 197.84 237.87 197.66 237.01 197.57 Z" />
<path fill="#2a2a2a" opacity="1.00" d=" M 248.10 218.13 C 248.64 213.25 253.57 214.03 256.92 215.35 C 260.28 214.00 264.81 213.51 265.42 218.18 C 259.69 219.70 253.83 219.44 248.10 218.13 Z" />
<path fill="#2a2a2a" opacity="1.00" d=" M 240.10 227.53 C 247.70 226.78 255.16 222.39 262.86 225.19 C 266.34 226.93 270.15 227.55 274.02 227.65 C 273.25 230.35 270.77 231.37 268.36 232.23 C 263.63 241.67 249.51 241.66 245.20 231.87 C 243.12 230.81 238.38 230.89 240.10 227.53 M 250.15 232.68 C 254.08 236.17 259.56 235.99 263.54 232.68 C 259.08 232.46 254.61 232.44 250.15 232.68 Z" />
<path fill="#2a2a2a" opacity="1.00" d=" M 223.42 299.13 C 228.28 301.10 224.51 306.04 223.49 309.40 C 219.80 317.62 217.71 326.64 213.09 334.39 C 209.35 334.91 210.79 330.81 211.57 328.76 C 215.60 318.92 218.93 308.78 223.42 299.13 Z" />
<path fill="#2a2a2a" opacity="1.00" d=" M 286.92 300.04 C 288.35 299.86 290.20 299.57 290.55 301.43 C 294.74 311.34 298.57 321.42 302.56 331.41 C 303.63 333.32 303.14 335.45 300.89 336.06 C 296.55 329.81 294.95 322.12 291.79 315.26 C 290.20 310.20 286.70 305.48 286.92 300.04 Z" />
<path fill="#2a2a2a" opacity="1.00" d=" M 173.39 362.47 C 179.77 359.49 188.04 363.19 190.16 369.87 C 192.57 376.33 188.56 384.19 181.87 385.95 C 175.50 388.06 168.11 383.92 166.34 377.51 C 164.46 371.63 167.72 364.82 173.39 362.47 Z" />
<path fill="#2a2a2a" opacity="1.00" d=" M 329.31 362.19 C 338.48 358.37 348.83 368.31 345.48 377.64 C 343.05 387.15 329.06 389.58 323.53 381.48 C 318.46 375.18 321.56 364.63 329.31 362.19 Z" />
<path fill="#2a2a2a" opacity="1.00" d=" M 252.42 372.69 C 260.94 369.82 270.25 378.21 268.24 386.98 C 266.94 396.10 254.57 400.59 247.85 394.20 C 240.23 388.39 243.15 374.93 252.42 372.69 Z" />
<path fill="#2a2a2a" opacity="1.00" d=" M 176.96 455.69 C 183.06 455.40 189.30 454.74 195.33 455.95 C 196.98 460.45 191.30 459.79 188.58 460.12 C 188.47 465.29 188.98 470.52 188.29 475.67 C 187.08 476.70 185.58 477.46 184.55 475.74 C 183.67 470.59 184.31 465.32 184.17 460.13 C 180.85 459.93 176.55 460.20 176.96 455.69 Z" />
<path fill="#2a2a2a" opacity="1.00" d=" M 227.42 455.56 C 233.37 455.49 239.45 454.72 245.33 455.95 C 246.08 462.83 235.82 458.77 231.56 459.90 C 231.55 461.19 231.55 462.48 231.55 463.77 C 235.16 463.77 238.77 463.78 242.38 463.88 C 242.50 465.29 242.50 466.72 242.40 468.14 C 238.75 468.26 235.11 468.28 231.47 468.31 C 231.54 469.61 231.62 470.91 231.71 472.23 C 236.02 472.30 240.41 471.79 244.68 472.59 C 246.24 473.60 245.57 475.11 244.72 476.35 C 238.98 477.06 233.17 476.62 227.41 476.47 C 226.98 469.51 226.98 462.51 227.42 455.56 Z" />
<path fill="#2a2a2a" opacity="1.00" d=" M 270.44 455.70 C 274.93 455.11 279.66 454.89 284.10 456.01 C 284.79 462.87 274.49 458.63 270.27 459.93 C 269.95 467.08 279.86 461.28 282.88 466.10 C 286.72 470.33 282.61 477.45 277.07 476.67 C 273.13 476.30 265.52 478.77 265.70 472.52 C 270.45 472.12 275.23 472.23 280.00 472.09 C 279.93 465.40 271.69 470.15 268.20 466.77 C 264.26 463.83 265.59 456.79 270.44 455.70 Z" />
<path fill="#2a2a2a" opacity="1.00" d=" M 290.80 455.28 C 297.38 454.68 294.28 463.04 295.14 467.06 C 294.44 471.89 301.68 474.20 303.88 469.86 C 305.33 465.18 304.25 460.10 304.79 455.27 C 311.25 454.73 308.67 463.03 309.05 467.07 C 309.68 474.58 299.98 479.65 294.21 474.79 C 288.42 470.10 291.02 461.70 290.80 455.28 Z" />
<path fill="#2a2a2a" opacity="1.00" d=" M 201.63 456.40 C 206.33 452.58 205.84 460.77 205.84 463.78 C 208.97 463.78 212.09 463.78 215.22 463.80 C 215.27 460.95 215.38 458.09 215.58 455.25 C 216.87 455.53 218.19 455.76 219.43 456.27 C 220.01 462.68 220.00 469.22 219.45 475.64 C 218.23 476.16 217.00 476.63 215.75 477.06 C 215.44 474.13 215.27 471.20 215.20 468.27 C 212.06 468.27 208.93 468.27 205.79 468.25 C 205.73 470.95 205.66 473.65 205.53 476.36 C 204.17 476.36 202.80 476.36 201.44 476.35 C 201.37 469.71 200.79 462.99 201.63 456.40 Z" />
<path fill="#2a2a2a" opacity="1.00" d=" M 316.97 455.78 C 323.11 455.65 325.78 464.35 330.33 468.06 C 330.51 463.95 330.00 459.76 330.97 455.72 C 332.24 455.09 334.64 455.23 334.66 457.08 C 335.02 463.33 335.18 469.68 334.52 475.92 C 333.92 476.13 332.72 476.56 332.12 476.77 C 327.91 472.94 324.75 468.13 320.92 463.95 C 319.95 468.25 323.62 477.19 316.60 476.67 C 316.56 469.73 315.72 462.64 316.97 455.78 Z" />
</g>
</svg>
