<?xml version="1.0" encoding="UTF-8" ?>
<!DOCTYPE svg PUBLIC "-//W3C//DTD SVG 1.1//EN" "http://www.w3.org/Graphics/SVG/1.1/DTD/svg11.dtd">
<svg width="120pt" height="120pt" viewBox="0 0 512 512" version="1.1" xmlns="http://www.w3.org/2000/svg">
<g id="#2a2a2aff">
<path fill="#2a2a2a" opacity="1.00" d=" M 130.35 21.50 C 213.23 21.10 296.15 21.45 379.05 21.32 C 386.03 20.72 392.50 26.88 391.88 33.94 C 391.87 181.98 391.87 330.02 391.88 478.06 C 392.44 484.70 386.67 490.85 380.00 490.64 C 297.34 490.69 214.66 490.69 132.00 490.64 C 125.33 490.85 119.55 484.71 120.12 478.06 C 120.13 330.02 120.13 181.98 120.12 33.94 C 119.65 27.94 124.30 22.09 130.35 21.50 M 130.37 28.55 C 127.50 29.18 126.82 32.45 126.88 34.96 C 126.86 169.99 126.87 305.02 126.88 440.05 C 126.57 442.67 127.83 445.92 130.99 445.50 C 214.01 445.61 297.05 445.52 380.07 445.55 C 383.40 446.16 385.62 443.17 385.11 440.06 C 385.09 305.02 385.10 169.98 385.09 34.95 C 385.80 30.72 382.20 27.41 378.06 28.21 C 295.51 28.47 212.89 27.78 130.37 28.55 M 145.79 460.04 C 148.02 462.19 151.06 462.41 153.99 462.48 C 154.06 467.60 153.60 472.76 154.26 477.85 C 154.41 479.64 156.79 479.57 158.02 478.96 C 159.10 473.50 158.39 467.88 158.52 462.35 C 160.65 462.27 162.78 462.18 164.91 462.08 C 165.14 461.56 165.60 460.53 165.84 460.01 C 165.61 459.47 165.14 458.38 164.91 457.84 C 158.62 458.37 151.02 455.51 145.79 460.04 M 172.23 458.14 C 170.77 464.82 171.08 472.25 172.09 479.03 C 177.27 480.89 175.77 473.77 176.19 470.80 C 179.34 470.78 182.49 470.78 185.65 470.77 C 185.68 473.23 185.71 475.70 185.74 478.17 C 186.44 478.62 187.82 479.53 188.51 479.98 C 191.04 476.84 190.18 472.71 190.33 469.00 C 190.09 464.99 191.22 460.48 188.51 457.07 C 187.82 457.52 186.44 458.41 185.75 458.86 C 185.71 461.32 185.68 463.79 185.65 466.26 C 182.49 466.25 179.34 466.25 176.19 466.25 C 175.81 463.44 177.17 455.99 172.23 458.14 M 197.94 459.07 C 197.79 465.50 196.92 472.42 198.42 478.60 C 203.19 480.27 208.86 479.21 213.97 479.26 C 216.38 479.81 217.37 476.79 215.80 475.26 C 211.36 474.31 206.78 474.88 202.28 474.78 C 202.27 473.47 202.27 472.16 202.26 470.85 C 205.94 470.17 211.39 472.42 213.76 468.97 C 212.82 464.08 205.87 467.02 202.24 466.18 C 202.26 464.87 202.28 463.56 202.30 462.26 C 206.77 462.11 211.38 462.85 215.76 461.72 C 218.71 458.58 213.52 457.09 211.01 457.62 C 206.79 458.20 201.32 456.19 197.94 459.07 M 237.21 461.66 C 240.16 467.47 242.69 473.57 246.24 479.05 C 249.32 480.46 250.26 475.91 251.71 474.02 C 253.03 476.18 254.44 478.29 256.00 480.30 C 260.03 475.49 262.10 469.49 265.10 464.06 C 266.16 462.00 268.04 458.75 264.99 457.38 C 259.86 460.35 259.20 467.50 255.76 472.11 C 251.28 467.08 262.20 460.88 255.94 457.33 C 253.86 458.64 252.95 461.02 251.75 463.05 C 250.41 460.95 248.52 455.64 245.50 458.60 C 244.74 463.30 250.69 467.15 247.99 472.09 C 244.70 467.67 243.19 462.20 239.90 457.80 C 237.51 456.99 235.68 459.70 237.21 461.66 M 272.54 469.00 C 272.78 472.70 271.59 477.10 274.60 480.00 C 275.24 479.52 276.51 478.56 277.14 478.08 C 277.17 475.64 277.20 473.20 277.24 470.77 C 280.39 470.77 283.54 470.78 286.69 470.79 C 286.71 474.13 286.52 477.72 288.89 480.41 C 293.12 476.80 290.90 470.80 291.46 466.00 C 291.07 463.10 292.66 458.55 288.96 457.38 C 285.58 459.01 287.16 463.27 286.73 466.24 C 283.56 466.25 280.40 466.25 277.24 466.27 C 277.20 463.82 277.17 461.39 277.14 458.95 C 276.50 458.48 275.23 457.53 274.59 457.05 C 271.41 460.23 272.88 465.00 272.54 469.00 M 299.37 458.32 C 298.55 464.95 298.23 472.07 299.49 478.58 C 305.08 480.42 311.62 479.00 317.58 479.22 C 318.32 471.66 308.02 475.77 303.42 474.78 C 303.40 473.48 303.40 472.19 303.39 470.90 C 307.04 470.77 310.76 471.09 314.34 470.29 C 316.38 464.08 307.00 466.77 303.45 466.26 C 303.43 464.93 303.41 463.60 303.39 462.28 C 307.89 462.28 312.39 462.31 316.90 462.13 C 317.13 461.60 317.60 460.53 317.84 460.00 C 317.60 459.46 317.14 458.38 316.91 457.84 C 311.09 457.90 305.04 456.85 299.37 458.32 M 324.47 458.41 C 323.72 465.10 323.80 471.97 324.43 478.68 C 330.24 480.23 336.44 479.10 342.41 479.26 C 342.53 477.79 342.51 476.32 342.36 474.87 C 337.72 474.75 333.07 474.77 328.43 474.75 C 328.53 473.42 328.64 472.09 328.76 470.77 C 332.29 470.32 336.78 472.00 339.69 469.61 C 340.63 464.08 332.09 466.87 328.76 466.27 C 328.64 464.94 328.54 463.61 328.44 462.28 C 332.61 462.23 336.81 462.51 340.98 462.09 C 343.42 462.23 343.35 457.68 341.01 457.82 C 335.54 457.76 329.74 456.86 324.47 458.41 M 349.30 460.10 C 349.47 466.36 348.19 473.07 350.06 479.08 C 354.87 478.78 362.45 481.68 365.36 476.97 C 363.25 472.84 357.43 475.49 353.71 474.76 C 353.56 469.64 354.12 464.48 353.46 459.40 C 353.54 456.56 348.61 457.48 349.30 460.10 Z" />
<path fill="#2a2a2a" opacity="1.00" d=" M 229.18 32.34 C 254.23 32.42 279.29 32.37 304.34 32.36 C 287.65 42.97 281.08 67.81 292.54 84.44 C 298.80 93.93 310.43 97.95 321.36 98.22 C 321.96 113.06 327.78 130.26 342.71 136.22 C 355.16 141.12 368.87 137.53 380.85 132.95 C 380.85 140.39 380.89 147.83 380.82 155.27 C 371.84 156.73 365.10 166.12 367.93 175.03 C 369.73 180.72 375.64 183.22 380.87 184.85 C 380.89 242.28 380.75 299.71 380.95 357.14 C 370.82 347.38 352.44 348.78 343.95 359.99 C 340.07 364.86 338.82 371.14 338.12 377.19 C 324.29 372.03 306.84 374.23 297.25 386.27 C 283.97 402.12 286.97 426.51 300.24 441.41 C 279.80 441.46 259.35 441.43 238.90 441.42 C 244.27 435.76 249.24 428.14 247.13 419.97 C 244.78 409.92 233.35 404.71 223.74 406.71 C 228.64 389.03 214.43 371.13 197.01 368.82 C 185.90 367.45 174.47 371.37 166.45 379.17 C 161.41 363.90 147.91 350.77 131.12 350.66 C 131.14 344.01 131.15 337.35 131.11 330.70 C 137.06 331.19 143.43 331.64 148.94 328.90 C 156.31 325.43 159.75 314.84 155.06 307.99 C 152.18 303.57 146.05 303.18 143.23 298.70 C 140.48 294.69 135.62 293.36 131.11 292.52 C 131.15 234.19 131.16 175.85 131.10 117.52 C 146.21 122.69 164.29 124.47 178.23 115.23 C 190.70 106.90 195.93 91.67 197.69 77.41 C 207.49 75.87 217.24 71.33 222.91 62.89 C 229.07 54.06 230.12 42.79 229.18 32.34 M 248.15 43.91 C 244.11 47.61 251.16 51.60 253.05 54.91 C 250.91 58.11 246.37 60.73 246.82 64.93 C 251.11 67.42 253.25 60.73 256.00 58.52 C 258.76 60.76 260.86 67.38 265.19 64.96 C 265.62 60.74 261.11 58.11 258.95 54.91 C 261.17 52.00 264.26 49.53 265.46 46.00 C 262.38 40.71 258.44 49.00 256.00 51.31 C 253.50 48.81 251.87 44.69 248.15 43.91 M 241.46 133.66 C 207.43 138.11 176.49 160.39 161.17 191.06 C 145.35 221.66 146.04 260.03 162.90 290.06 C 177.67 317.12 204.72 337.14 235.00 343.08 C 260.04 348.21 286.91 343.88 308.99 330.97 C 332.41 317.54 350.35 294.87 357.92 268.94 C 364.59 246.51 363.54 221.87 354.89 200.12 C 345.66 176.54 327.70 156.54 305.27 144.82 C 285.87 134.52 263.20 130.63 241.46 133.66 Z" />
<path fill="#2a2a2a" opacity="1.00" d=" M 333.16 43.41 C 335.69 40.95 338.24 42.84 340.27 44.87 C 343.43 42.86 347.15 42.15 350.28 44.62 C 353.12 42.95 357.91 41.47 359.63 45.38 C 362.42 54.22 358.52 63.99 362.00 72.69 C 364.61 66.45 369.73 71.25 371.87 75.00 C 370.20 78.24 364.19 84.10 363.04 77.41 C 360.40 76.00 357.07 74.56 356.67 71.18 C 355.57 62.99 357.02 54.64 355.75 46.44 C 347.90 51.27 352.29 61.58 350.90 69.03 C 351.52 71.65 347.29 72.59 346.99 69.91 C 346.08 62.08 347.42 54.12 346.13 46.30 C 337.93 52.11 342.93 63.35 341.20 71.66 C 339.92 71.46 338.68 71.12 337.49 70.64 C 335.65 61.65 340.43 50.71 333.16 43.41 Z" />
<path fill="#2a2a2a" opacity="1.00" d=" M 142.40 52.95 C 145.40 49.57 149.70 47.78 153.40 45.29 C 154.56 46.82 155.60 48.42 156.56 50.07 C 158.96 48.49 161.25 46.66 163.93 45.55 C 165.06 46.95 165.95 48.52 166.87 50.06 C 169.19 48.45 171.41 46.65 174.02 45.52 C 176.00 47.93 178.12 51.09 177.50 54.35 C 174.93 56.32 174.06 51.81 172.59 50.45 C 170.27 52.08 167.93 53.69 165.58 55.27 C 164.48 53.73 163.50 52.10 162.61 50.42 C 160.39 51.92 158.26 53.61 155.82 54.76 C 153.74 54.33 153.31 51.70 152.10 50.24 C 149.31 51.45 144.50 57.29 142.40 52.95 Z" />
<path fill="#2a2a2a" opacity="1.00" d=" M 143.31 68.71 C 141.81 63.59 150.30 62.23 153.40 59.23 C 154.55 60.76 155.59 62.37 156.57 64.01 C 159.02 62.36 161.48 60.73 164.01 59.21 C 164.95 60.82 165.88 62.44 166.79 64.06 C 169.21 62.35 171.67 60.68 174.19 59.11 C 175.71 61.81 177.47 64.55 177.86 67.69 C 175.42 70.96 174.07 66.04 172.61 64.33 C 170.31 65.97 167.98 67.58 165.64 69.18 C 164.48 67.62 163.39 66.00 162.35 64.35 C 160.08 66.00 157.91 67.93 155.21 68.86 C 154.03 67.40 153.09 65.76 152.08 64.18 C 149.27 65.83 146.71 68.45 143.31 68.71 Z" />
<path fill="#2a2a2a" opacity="1.00" d=" M 243.43 137.58 C 264.17 134.98 285.67 138.95 304.07 148.87 C 328.19 161.72 346.78 184.60 354.18 210.93 C 360.84 233.92 358.96 259.23 349.01 281.00 C 338.36 304.60 318.42 323.81 294.41 333.52 C 271.71 342.85 245.61 343.52 222.46 335.35 C 197.52 326.75 176.31 308.02 164.60 284.39 C 153.91 263.14 151.08 238.08 156.74 214.98 C 166.01 174.55 202.19 142.19 243.43 137.58 M 248.66 144.69 C 245.23 147.95 251.56 148.69 253.95 148.60 C 254.01 153.33 253.56 158.13 254.39 162.82 C 255.46 163.55 256.53 163.54 257.58 162.78 C 258.30 158.09 257.86 153.31 258.02 148.58 C 260.47 148.57 266.40 148.28 263.37 144.67 C 258.52 144.06 253.50 144.01 248.66 144.69 M 193.08 167.03 C 192.82 173.60 183.52 173.99 183.32 180.65 C 188.90 180.03 192.61 175.63 196.05 171.68 C 199.38 175.12 202.21 179.17 206.23 181.86 C 208.19 182.54 209.71 180.17 208.33 178.64 C 204.53 173.77 199.38 170.13 195.44 165.35 C 194.15 163.86 192.97 165.60 193.08 167.03 M 317.76 176.03 C 316.96 177.11 316.15 178.18 315.43 179.32 C 316.67 182.18 321.12 180.57 322.16 178.22 C 323.63 174.53 322.45 170.00 319.71 167.19 C 314.53 167.35 316.08 173.00 317.76 176.03 M 246.28 170.26 C 218.04 174.27 193.90 197.40 188.60 225.42 C 182.39 254.07 196.74 285.44 222.32 299.66 C 243.49 312.07 271.28 311.92 292.31 299.25 C 319.93 283.61 333.66 247.86 323.33 217.79 C 313.68 185.98 279.11 164.46 246.28 170.26 M 192.22 181.08 C 189.68 184.80 195.90 192.14 200.16 189.97 C 200.55 185.53 195.77 182.68 192.22 181.08 M 168.41 230.67 C 161.33 232.38 159.06 242.65 164.89 247.10 C 170.19 252.13 179.95 248.25 180.51 241.02 C 181.59 234.51 174.66 228.63 168.41 230.67 M 334.12 231.93 C 330.91 234.09 334.53 236.35 336.51 237.58 C 336.52 240.30 336.54 243.02 336.56 245.74 C 335.10 246.66 333.63 247.58 332.19 248.53 C 333.15 249.41 333.96 251.72 335.63 250.79 C 341.13 248.43 346.38 245.50 351.70 242.76 C 351.68 242.16 351.66 240.96 351.65 240.37 C 345.83 237.53 340.26 234.05 334.12 231.93 M 312.41 287.67 C 313.64 291.88 317.36 296.74 322.11 296.29 C 321.68 291.64 317.57 286.30 312.41 287.67 M 199.29 290.19 C 195.06 293.13 191.28 297.02 188.65 301.45 C 188.01 304.39 187.04 311.47 191.99 310.28 C 193.38 306.75 192.52 302.32 195.46 299.48 C 197.67 296.48 202.11 294.41 201.92 290.20 C 201.26 290.20 199.95 290.19 199.29 290.19 M 305.55 295.53 C 305.17 296.20 304.43 297.54 304.06 298.22 C 308.72 303.86 314.28 308.70 319.58 313.72 C 318.21 305.46 329.40 304.59 329.51 297.51 C 324.00 297.72 320.60 302.62 317.15 306.25 C 313.55 302.42 310.60 297.60 305.55 295.53 M 245.57 316.52 C 246.69 317.97 247.85 319.40 249.01 320.83 C 247.03 323.64 245.06 327.42 247.29 330.68 C 250.51 335.77 257.39 333.63 262.38 334.05 C 262.87 327.99 263.28 321.80 262.40 315.77 C 261.42 315.38 260.44 315.02 259.44 314.71 C 259.13 316.48 258.83 318.26 258.56 320.04 C 257.09 320.03 255.62 320.01 254.15 320.00 C 251.65 317.71 249.11 313.27 245.57 316.52 Z" />
<path fill="#2a2a2a" opacity="1.00" d=" M 245.41 174.60 C 278.18 167.91 313.08 190.68 320.57 223.16 C 329.00 253.74 311.33 288.35 281.87 299.84 C 264.74 306.96 244.60 306.30 228.00 298.00 C 212.10 290.22 199.63 275.72 194.39 258.79 C 188.80 241.26 191.09 221.40 200.62 205.64 C 210.17 189.50 226.91 177.82 245.41 174.60 M 249.65 181.74 C 248.02 184.87 251.30 185.37 253.67 185.93 C 253.70 195.18 253.66 204.44 253.69 213.69 C 248.63 214.54 243.77 216.38 239.55 219.32 C 232.99 213.02 226.65 206.49 220.20 200.09 C 221.13 198.25 223.40 194.85 220.00 194.26 C 216.48 196.55 213.80 199.85 211.10 203.02 C 211.98 203.77 212.86 204.52 213.74 205.28 C 214.82 204.43 215.90 203.59 216.99 202.75 C 223.48 209.22 229.93 215.74 236.45 222.18 C 233.19 226.52 230.97 231.55 230.06 236.90 C 220.94 236.88 211.83 236.83 202.72 236.93 C 202.40 234.90 200.95 230.50 198.48 233.25 C 197.82 237.01 197.80 240.94 198.49 244.70 C 200.87 247.56 202.37 243.02 202.74 241.05 C 211.84 241.08 220.94 241.04 230.04 241.07 C 230.82 246.49 232.95 251.61 236.22 256.00 C 229.87 262.37 223.52 268.74 217.14 275.08 C 215.07 273.17 212.83 272.53 210.63 274.62 C 213.53 277.86 216.32 281.35 220.07 283.67 C 222.85 282.31 221.16 279.92 220.21 277.91 C 226.51 271.57 232.86 265.27 239.17 258.92 C 243.50 261.95 248.43 263.97 253.67 264.72 C 253.68 273.82 253.70 282.93 253.66 292.04 C 251.12 292.46 248.74 293.38 249.17 296.39 C 253.21 296.59 257.32 297.03 261.34 296.34 C 264.13 293.86 260.16 292.19 257.90 292.10 C 257.72 282.96 257.72 273.82 257.90 264.68 C 263.23 263.83 268.26 261.68 272.45 258.27 C 279.03 264.76 285.56 271.29 292.05 277.86 C 291.04 279.81 288.77 283.93 292.84 283.42 C 295.75 280.60 302.70 277.16 299.41 272.43 C 297.99 273.31 296.60 274.23 295.21 275.14 C 288.65 268.47 281.96 261.93 275.41 255.26 C 278.39 251.04 280.30 246.18 281.03 241.07 C 290.25 241.05 299.47 241.04 308.68 241.08 C 309.25 243.55 310.11 246.04 313.19 245.68 C 313.49 241.22 313.49 236.75 313.20 232.29 C 310.09 231.94 309.27 234.38 308.69 236.88 C 299.47 236.88 290.25 236.85 281.03 236.90 C 280.11 231.86 278.19 227.07 275.21 222.90 C 281.80 216.30 288.39 209.70 295.00 203.12 C 296.86 204.02 301.03 205.93 300.37 202.10 C 297.85 199.04 295.25 195.23 291.27 194.11 C 288.87 195.90 291.14 198.17 292.17 200.04 C 285.55 206.71 278.91 213.34 272.25 219.96 C 268.03 216.72 263.06 214.64 257.83 213.72 C 257.82 204.46 257.69 195.19 257.90 185.93 C 259.97 185.76 264.43 183.83 261.31 181.69 C 257.49 180.95 253.47 181.09 249.65 181.74 Z" />
<path fill="#2a2a2a" opacity="1.00" d=" M 242.47 222.18 C 245.94 220.15 249.70 218.69 253.62 217.84 C 253.70 223.03 253.70 228.22 253.63 233.41 C 249.80 229.78 246.06 226.06 242.47 222.18 Z" />
<path fill="#2a2a2a" opacity="1.00" d=" M 257.82 217.94 C 261.96 218.78 265.88 220.44 269.35 222.84 C 265.56 226.70 261.74 230.54 257.84 234.30 C 257.76 228.84 257.77 223.39 257.82 217.94 Z" />
<path fill="#2a2a2a" opacity="1.00" d=" M 234.26 236.87 C 235.07 232.63 236.82 228.63 239.47 225.22 C 243.35 229.10 247.23 232.99 251.10 236.89 C 245.49 236.87 239.87 236.90 234.26 236.87 Z" />
<path fill="#2a2a2a" opacity="1.00" d=" M 261.33 236.86 C 264.92 233.14 268.58 229.50 272.25 225.86 C 274.46 229.21 276.01 232.94 276.82 236.87 C 271.66 236.90 266.49 236.89 261.33 236.86 Z" />
<path fill="#2a2a2a" opacity="1.00" d=" M 169.48 234.57 C 173.63 233.11 178.05 237.85 176.16 241.89 C 174.93 245.48 169.79 246.56 167.20 243.79 C 164.15 241.10 165.57 235.54 169.48 234.57 Z" />
<path fill="#2a2a2a" opacity="1.00" d=" M 340.52 239.16 C 342.06 239.94 343.59 240.73 345.13 241.52 C 343.60 242.36 342.06 243.20 340.53 244.05 C 340.53 242.41 340.52 240.78 340.52 239.16 Z" />
<path fill="#2a2a2a" opacity="1.00" d=" M 234.21 241.10 C 239.84 241.02 245.47 241.06 251.11 241.10 C 247.14 245.11 243.15 249.12 239.11 253.06 C 236.67 249.45 234.98 245.39 234.21 241.10 Z" />
<path fill="#2a2a2a" opacity="1.00" d=" M 261.30 241.10 C 266.49 241.04 271.68 241.03 276.87 241.10 C 276.09 245.05 274.64 248.81 272.64 252.30 C 268.69 248.74 264.99 244.93 261.30 241.10 Z" />
<path fill="#2a2a2a" opacity="1.00" d=" M 257.85 243.70 C 261.80 247.52 265.67 251.42 269.55 255.32 C 266.11 257.96 262.09 259.70 257.85 260.56 C 257.76 254.94 257.76 249.32 257.85 243.70 Z" />
<path fill="#2a2a2a" opacity="1.00" d=" M 242.17 256.02 C 245.92 252.14 249.72 248.31 253.63 244.60 C 253.71 249.97 253.75 255.34 253.51 260.71 C 249.50 259.75 245.66 258.21 242.17 256.02 Z" />
<path fill="#2a2a2a" opacity="1.00" d=" M 250.28 327.01 C 250.60 322.84 255.94 324.40 258.77 323.97 C 258.77 326.03 258.77 328.09 258.77 330.15 C 255.92 329.74 250.56 331.19 250.28 327.01 Z" />
<path fill="#2a2a2a" opacity="1.00" d=" M 345.65 392.66 C 351.36 387.39 362.22 390.99 362.97 398.98 C 364.91 408.15 356.87 415.19 356.28 423.84 C 357.04 428.11 361.77 423.69 363.70 422.57 C 369.60 428.15 355.40 433.64 352.74 427.33 C 348.60 417.09 361.24 408.96 358.35 398.64 C 357.11 393.69 348.78 393.02 347.28 398.11 C 345.39 403.85 350.65 408.50 351.15 413.98 C 351.39 419.16 346.06 423.54 341.01 422.34 C 331.22 420.53 333.08 405.55 342.81 405.27 C 342.26 400.94 342.09 395.83 345.65 392.66 M 341.33 410.29 C 336.57 411.78 339.09 419.59 343.87 417.90 C 349.01 416.58 346.24 408.27 341.33 410.29 Z" />
<path fill="#2a2a2a" opacity="1.00" d=" M 145.40 392.30 C 151.89 392.03 153.80 399.55 157.88 403.17 C 160.90 406.50 166.50 405.55 168.92 401.99 C 172.21 398.28 174.59 391.48 180.69 392.41 C 180.94 393.00 181.45 394.18 181.70 394.77 C 176.68 397.72 173.72 402.75 170.08 407.10 C 175.38 411.25 177.87 419.06 174.06 425.03 C 169.86 432.78 157.75 433.58 152.56 426.46 C 147.53 420.56 149.72 411.54 155.59 407.10 C 151.74 402.97 149.31 397.22 143.69 395.10 C 144.30 394.19 144.83 393.23 145.40 392.30 M 159.28 410.16 C 153.17 412.55 152.11 421.76 157.52 425.46 C 162.73 429.75 171.55 425.71 171.67 418.96 C 172.44 412.58 165.06 407.35 159.28 410.16 Z" />
</g>
</svg>
