<?xml version="1.0" encoding="UTF-8" ?>
<!DOCTYPE svg PUBLIC "-//W3C//DTD SVG 1.1//EN" "http://www.w3.org/Graphics/SVG/1.1/DTD/svg11.dtd">
<svg width="120pt" height="120pt" viewBox="0 0 512 512" version="1.1" xmlns="http://www.w3.org/2000/svg">
<g id="#2a2a2afe">
<path fill="#2a2a2a" opacity="1.00" d=" M 132.35 21.49 C 213.57 21.09 294.82 21.47 376.05 21.30 C 381.73 20.98 387.65 23.28 390.86 28.13 C 394.43 33.00 393.59 39.33 393.67 45.00 C 393.60 188.32 393.70 331.64 393.62 474.95 C 393.83 483.35 386.35 490.83 377.95 490.64 C 296.96 490.72 215.96 490.64 134.97 490.68 C 126.27 491.24 118.12 483.74 118.38 474.95 C 118.31 329.29 118.38 183.63 118.34 37.97 C 117.82 29.91 124.21 22.10 132.35 21.49 M 131.44 25.77 C 125.88 26.83 122.08 32.43 122.41 37.97 C 122.42 183.32 122.42 328.67 122.41 474.02 C 121.86 480.92 128.00 487.15 134.92 486.59 C 215.64 486.59 296.37 486.59 377.09 486.59 C 384.00 487.14 390.13 480.92 389.59 474.03 C 389.58 328.68 389.58 183.32 389.59 37.97 C 390.13 31.08 384.00 24.85 377.08 25.41 C 299.72 25.40 222.36 25.42 145.00 25.40 C 140.48 25.48 135.92 25.05 131.44 25.77 Z" />
<path fill="#2a2a2a" opacity="1.00" d=" M 132.42 32.58 C 136.89 31.77 141.48 32.31 146.00 32.20 C 222.69 32.20 299.39 32.22 376.09 32.19 C 379.63 31.63 383.27 34.06 382.75 37.93 C 382.84 170.64 382.71 303.36 382.83 436.07 C 383.34 439.20 381.83 442.88 378.06 442.27 C 297.37 442.38 216.66 442.22 135.97 442.35 C 133.03 442.60 128.64 442.02 129.25 438.03 C 129.15 304.99 129.26 171.95 129.19 38.91 C 129.14 36.49 129.60 33.23 132.42 32.58 M 133.30 36.28 C 133.20 140.00 133.31 243.72 133.25 347.44 C 155.75 347.45 178.25 347.45 200.75 347.44 C 201.30 321.96 203.04 296.52 204.53 271.08 C 200.44 268.17 196.47 264.52 195.61 259.31 C 190.64 237.66 191.95 215.24 190.46 193.24 C 185.15 176.99 179.50 160.83 174.16 144.57 C 174.19 152.09 173.37 159.63 173.91 167.14 C 172.11 169.55 170.17 171.86 168.06 174.00 C 165.91 171.50 163.90 168.89 162.00 166.19 C 162.50 165.28 163.01 164.37 163.51 163.47 C 162.53 158.35 162.77 153.13 162.81 147.96 C 163.38 141.34 157.70 135.98 158.68 129.29 C 160.87 119.32 163.03 109.22 162.59 98.94 C 161.04 94.40 164.42 88.17 168.74 87.02 C 177.06 93.76 172.36 105.02 173.64 114.10 C 179.03 117.75 183.96 122.75 185.65 129.22 C 189.70 147.71 199.98 163.90 208.34 180.65 C 213.03 191.11 222.03 198.70 227.73 208.55 C 230.35 198.79 229.36 187.48 236.35 179.37 C 244.26 169.47 261.10 168.84 269.35 178.66 C 277.77 188.12 276.63 201.60 279.85 213.11 C 285.13 215.81 287.28 221.69 291.93 225.10 C 298.38 230.25 302.95 237.63 304.47 245.76 C 305.00 250.91 310.27 253.17 312.75 257.25 C 315.93 261.31 315.36 267.19 319.09 270.89 C 323.67 275.55 326.10 281.72 330.22 286.74 C 334.08 291.73 332.07 298.93 336.26 303.72 C 339.43 307.92 342.47 312.21 345.58 316.45 C 348.80 321.87 357.57 319.68 359.82 326.16 C 361.93 332.42 369.88 336.49 368.74 343.63 C 366.09 348.94 360.26 344.63 357.54 341.73 C 353.61 343.97 348.38 348.09 344.42 343.59 C 337.58 338.93 338.83 329.52 333.30 324.00 C 332.55 331.80 332.49 339.65 331.62 347.44 C 347.33 347.43 363.03 347.47 378.74 347.44 C 378.67 243.72 378.79 140.00 378.68 36.28 C 296.89 36.22 215.10 36.22 133.30 36.28 M 167.61 92.84 C 167.14 93.82 166.67 94.81 166.21 95.79 C 166.59 96.23 167.36 97.12 167.74 97.56 C 168.38 97.12 169.64 96.23 170.28 95.79 C 169.39 94.80 168.50 93.82 167.61 92.84 M 166.67 100.46 C 166.50 104.65 166.49 108.86 166.53 113.06 C 167.29 113.02 168.82 112.95 169.58 112.91 C 169.54 108.86 169.53 104.81 169.46 100.76 C 168.76 100.68 167.37 100.53 166.67 100.46 M 164.22 116.65 C 164.54 117.33 165.18 118.67 165.49 119.34 C 168.26 120.09 171.73 120.04 173.68 122.46 C 176.06 128.00 175.20 134.21 175.46 140.09 C 177.93 142.75 179.15 146.19 180.29 149.57 C 182.23 148.09 184.18 146.63 186.13 145.15 C 182.71 137.33 182.93 127.73 176.44 121.48 C 173.45 117.86 168.64 117.00 164.22 116.65 M 164.13 123.71 C 163.79 125.97 163.44 128.24 163.01 130.49 C 163.15 130.81 163.42 131.44 163.56 131.75 C 163.78 134.43 164.43 137.05 165.15 139.63 C 167.06 139.58 168.96 139.53 170.87 139.47 C 170.73 136.21 170.53 132.94 170.91 129.70 C 170.49 129.26 169.64 128.40 169.22 127.97 C 169.64 126.73 170.06 125.51 170.49 124.28 C 168.37 124.07 166.25 123.88 164.13 123.71 M 166.87 143.73 C 167.31 150.19 165.33 157.27 168.75 163.18 C 170.61 156.82 169.68 150.14 169.84 143.62 C 169.10 143.65 167.61 143.70 166.87 143.73 M 181.51 153.78 C 189.35 178.19 197.83 202.40 209.24 225.41 C 209.38 217.28 209.33 209.13 209.98 201.02 C 210.17 197.39 210.87 193.46 208.88 190.17 C 201.58 176.59 194.27 163.00 187.83 148.98 C 185.72 150.57 183.62 152.17 181.51 153.78 M 167.48 165.31 C 165.65 170.22 172.66 164.99 167.48 165.31 M 241.42 192.32 C 242.31 200.30 243.81 212.81 254.00 213.52 C 264.07 212.68 264.76 200.08 265.48 192.32 C 257.48 193.01 249.42 193.05 241.42 192.32 M 214.54 196.48 C 212.18 216.17 214.78 236.23 211.01 255.80 C 210.26 260.17 208.13 264.09 206.03 267.93 C 208.64 267.37 211.80 266.69 212.65 263.72 C 216.25 253.81 216.17 243.08 217.54 232.73 C 218.47 232.92 220.32 233.30 221.25 233.49 C 220.50 244.19 220.09 255.19 216.31 265.34 C 215.17 268.92 211.66 270.62 208.58 272.24 C 207.00 297.29 205.39 322.34 204.81 347.44 C 208.51 347.44 212.21 347.44 215.92 347.44 C 216.21 331.02 216.04 314.55 217.50 298.18 C 218.73 298.32 219.95 298.46 221.18 298.61 C 220.59 314.88 219.99 331.15 220.04 347.44 C 223.30 347.44 226.56 347.44 229.82 347.44 C 230.98 305.44 229.90 263.41 229.86 221.39 C 230.89 221.19 232.95 220.78 233.98 220.57 C 231.59 216.04 228.03 211.95 222.49 211.91 C 222.30 209.15 221.70 206.43 220.48 203.93 C 220.14 210.08 220.72 216.25 220.34 222.40 C 219.07 222.37 217.81 222.34 216.55 222.30 C 216.39 213.67 216.56 204.93 214.54 196.48 M 195.30 204.24 C 195.92 224.33 194.85 245.33 201.83 264.48 C 202.92 263.64 204.00 262.80 205.08 261.95 C 196.93 243.75 202.86 222.52 195.30 204.24 M 246.09 215.51 C 245.74 217.38 245.37 219.24 244.98 221.11 C 245.85 221.76 246.71 222.41 247.58 223.06 C 247.35 223.75 246.90 225.14 246.67 225.83 C 242.42 224.78 238.12 223.98 233.82 223.22 C 234.17 264.62 234.91 306.04 233.87 347.43 C 249.52 347.46 265.17 347.44 280.82 347.44 C 280.96 335.61 280.72 323.78 280.79 311.94 C 281.12 306.42 278.08 301.60 276.00 296.71 C 263.33 298.92 250.30 299.92 237.58 297.49 C 237.64 296.24 237.71 295.00 237.78 293.76 C 250.37 295.48 263.09 295.00 275.57 292.69 C 275.59 291.34 275.62 289.99 275.65 288.64 C 263.13 291.11 250.03 292.11 237.59 288.67 C 237.66 287.44 237.75 286.22 237.84 285.00 C 250.53 287.61 263.60 287.18 276.23 284.39 C 283.02 268.01 280.12 250.19 280.12 233.01 C 277.22 242.96 274.06 255.23 263.72 259.85 C 261.98 253.23 261.40 246.40 260.67 239.63 C 250.00 243.09 238.89 235.53 234.44 226.05 C 235.30 225.91 237.03 225.61 237.89 225.46 C 243.18 232.04 251.22 239.15 260.28 235.35 C 260.03 229.02 259.93 222.68 260.31 216.36 C 255.61 218.00 250.56 217.71 246.09 215.51 M 280.45 218.01 C 279.77 223.68 283.82 228.20 284.11 233.66 C 285.77 271.57 284.47 309.51 284.89 347.43 C 289.76 347.45 294.63 347.44 299.50 347.46 C 299.43 343.57 299.36 339.68 299.50 335.80 C 300.43 335.93 302.30 336.19 303.23 336.32 C 303.41 340.02 303.53 343.72 303.62 347.42 C 306.23 347.44 308.84 347.45 311.46 347.46 C 311.15 344.75 310.86 342.04 310.63 339.32 C 311.87 339.26 313.11 339.22 314.35 339.17 C 314.81 341.91 315.23 344.65 315.64 347.40 C 316.85 347.43 318.06 347.47 319.27 347.51 C 317.17 336.39 317.75 324.97 318.96 313.79 C 319.76 306.37 323.56 299.51 329.33 294.79 C 328.16 290.68 325.95 286.92 322.45 284.39 C 320.68 285.36 318.93 286.35 317.17 287.33 C 316.68 286.64 315.69 285.25 315.20 284.56 C 317.20 282.98 319.29 281.52 321.42 280.11 C 318.77 276.80 316.32 273.18 312.79 270.73 C 310.04 271.27 308.46 273.88 306.44 275.56 C 302.53 271.12 308.73 267.40 312.43 266.07 C 309.85 257.98 303.21 250.91 294.41 250.10 C 294.44 248.99 294.48 247.88 294.52 246.78 C 296.62 246.79 298.73 246.82 300.85 246.85 C 298.87 239.32 294.82 232.27 288.48 227.59 C 284.94 225.18 282.85 221.43 280.45 218.01 M 324.34 307.95 C 328.07 312.08 331.70 316.30 335.35 320.50 C 336.99 319.01 338.63 317.51 340.26 316.00 C 336.49 310.81 332.74 305.61 328.87 300.49 C 327.27 302.92 325.76 305.41 324.34 307.95 M 338.48 323.33 C 342.35 329.02 341.55 337.38 348.08 341.32 C 350.00 340.89 351.70 339.82 353.52 339.09 C 349.75 337.63 345.34 336.25 346.52 330.93 C 345.52 329.96 344.51 328.97 343.52 328.01 C 346.04 324.76 349.74 327.31 352.51 328.82 C 352.35 330.90 351.47 332.83 350.93 334.83 C 353.15 332.62 355.22 330.26 357.09 327.74 C 352.69 323.96 346.09 324.30 342.30 319.62 C 341.02 320.86 339.75 322.09 338.48 323.33 M 353.34 338.64 C 354.99 337.80 356.63 336.93 358.27 336.05 C 360.50 338.45 362.82 340.79 365.48 342.73 C 363.88 338.98 361.30 335.81 358.66 332.76 C 356.88 334.70 354.73 336.38 353.34 338.64 M 133.25 351.53 C 133.27 380.43 133.27 409.32 133.25 438.22 C 215.08 438.22 296.91 438.22 378.74 438.22 C 378.73 409.32 378.72 380.43 378.74 351.53 C 296.91 351.52 215.08 351.52 133.25 351.53 Z" />
<path fill="#2a2a2a" opacity="1.00" d=" M 204.72 38.22 C 208.63 39.44 211.44 42.38 212.59 46.29 C 213.64 46.52 214.70 46.76 215.76 47.00 C 216.58 44.21 217.28 41.25 219.26 39.01 C 222.09 39.36 220.97 43.06 221.55 45.05 C 223.41 45.44 225.26 45.86 227.11 46.28 C 229.43 41.83 234.06 39.82 238.94 41.28 C 236.94 44.78 233.66 47.14 230.05 48.77 C 235.58 50.47 239.95 55.62 236.48 61.38 C 232.12 58.83 229.81 54.37 227.53 50.09 C 227.03 52.82 226.52 55.55 225.95 58.27 C 222.73 56.06 221.18 52.54 221.20 48.67 C 220.14 48.89 219.08 49.11 218.02 49.33 C 218.49 51.91 218.94 54.49 219.35 57.08 C 221.65 58.04 223.90 59.12 226.06 60.39 C 224.67 62.56 223.27 64.71 221.83 66.85 C 220.81 66.62 219.79 66.40 218.78 66.18 C 217.86 67.12 216.93 68.06 216.00 68.98 C 215.14 68.07 214.27 67.15 213.42 66.23 C 212.59 66.36 211.75 66.49 210.92 66.62 C 210.11 64.03 209.27 61.45 208.40 58.89 C 210.93 58.13 213.49 57.48 216.05 56.84 C 216.51 49.03 208.48 48.50 202.62 49.04 C 204.44 52.31 205.04 55.99 204.19 59.66 C 200.45 58.07 198.19 54.72 196.90 50.98 C 195.99 53.57 195.29 56.22 194.72 58.90 C 198.52 59.97 202.11 61.87 204.18 65.37 C 200.93 65.87 197.66 65.46 194.61 64.27 C 197.32 69.01 199.20 74.64 196.06 79.70 C 191.85 76.00 190.61 70.49 191.97 65.17 C 188.82 67.94 184.85 69.50 180.63 68.34 C 182.55 63.83 186.88 61.53 191.48 60.57 C 191.64 58.10 191.82 55.63 192.00 53.16 C 191.17 52.68 190.33 52.19 189.50 51.71 C 189.02 54.83 188.20 57.90 186.90 60.79 C 184.38 58.32 183.00 55.07 182.47 51.62 C 179.47 51.67 176.47 51.69 173.46 51.69 C 174.08 55.86 173.59 60.15 170.97 63.60 C 168.51 60.17 168.20 55.99 168.74 51.94 C 167.44 52.06 166.14 52.18 164.85 52.30 C 164.43 56.70 162.34 60.74 158.38 62.93 C 158.27 59.53 158.93 56.20 159.88 52.96 C 155.74 54.85 151.99 57.50 149.10 61.05 C 152.67 61.95 156.09 63.49 158.51 66.39 C 154.77 67.72 150.99 66.76 147.65 64.89 C 147.60 67.19 147.58 69.49 147.57 71.78 C 151.84 70.61 156.30 71.13 159.71 74.14 C 156.28 75.24 152.70 75.66 149.12 75.75 C 149.31 76.54 149.70 78.12 149.89 78.91 C 154.07 79.62 158.21 81.31 160.09 85.42 C 156.52 85.35 153.03 84.52 149.77 83.07 C 149.74 84.30 149.71 85.54 149.68 86.78 C 153.61 87.93 157.15 90.39 157.07 94.94 C 154.04 93.95 151.15 92.62 148.38 91.06 C 148.36 91.70 148.33 92.96 148.31 93.59 C 150.41 95.01 152.47 96.50 154.44 98.11 C 152.78 99.87 151.12 101.65 149.52 103.46 C 148.58 103.07 147.64 102.68 146.71 102.28 C 145.91 103.08 145.12 103.87 144.32 104.66 C 142.50 103.42 140.68 102.20 138.81 101.04 C 138.50 98.74 138.06 96.45 137.57 94.18 C 140.01 93.57 142.47 93.06 144.93 92.57 C 145.06 92.11 145.30 91.19 145.42 90.73 C 142.01 91.13 138.52 90.93 135.43 89.27 C 138.41 86.38 142.45 85.66 146.45 85.67 C 146.46 82.73 146.43 79.78 146.35 76.84 C 143.75 78.61 140.94 80.03 137.99 81.10 C 138.26 75.95 142.01 72.32 144.90 68.45 C 142.03 68.49 139.15 68.56 136.28 68.48 C 139.00 65.28 142.55 63.00 146.31 61.21 C 144.75 61.46 143.19 61.71 141.64 61.96 C 140.94 59.65 140.22 57.34 139.44 55.06 C 139.98 54.75 141.08 54.13 141.62 53.82 C 141.45 52.44 141.30 51.06 141.17 49.68 C 142.14 49.39 143.11 49.11 144.09 48.83 C 145.86 47.32 147.88 47.16 149.78 48.58 C 150.73 48.57 151.68 48.55 152.63 48.54 C 152.75 49.69 152.98 51.99 153.09 53.14 C 154.40 49.31 156.24 45.65 159.08 42.72 C 159.76 45.05 160.35 47.41 160.83 49.79 C 162.00 49.50 163.17 49.22 164.35 48.93 C 164.46 45.29 165.41 41.77 166.99 38.50 C 169.44 41.59 170.04 45.43 169.89 49.27 C 171.49 47.03 173.04 44.75 174.49 42.41 C 175.56 42.82 176.63 43.23 177.70 43.64 C 177.74 42.95 177.81 41.56 177.84 40.87 C 178.62 40.83 180.17 40.74 180.95 40.70 C 181.30 41.21 182.02 42.24 182.37 42.75 C 183.28 42.54 184.19 42.34 185.11 42.14 C 185.73 44.13 186.34 46.12 186.97 48.10 C 188.99 44.57 191.80 41.56 195.35 39.51 C 197.04 43.62 195.38 47.45 192.50 50.50 C 196.48 47.92 200.86 45.99 205.62 45.49 C 205.24 43.08 204.96 40.65 204.72 38.22 Z" />
<path fill="#2a2a2a" opacity="1.00" d=" M 291.96 38.03 C 294.32 40.61 295.71 43.83 296.59 47.18 C 297.61 46.81 298.64 46.44 299.67 46.07 C 300.88 42.27 303.70 39.48 307.46 38.17 C 307.26 40.61 306.99 43.05 306.64 45.47 C 311.43 46.03 315.84 48.00 319.90 50.52 C 316.98 47.55 315.07 43.76 316.80 39.62 C 320.40 41.52 323.29 44.45 325.10 48.11 C 325.79 46.17 326.44 44.21 327.09 42.26 C 327.96 42.40 328.83 42.54 329.70 42.68 C 330.49 41.85 331.28 41.02 332.07 40.18 C 333.18 41.06 334.28 41.94 335.38 42.83 C 336.22 42.79 337.07 42.74 337.91 42.70 C 339.27 44.97 340.77 47.15 342.31 49.29 C 342.14 45.47 342.81 41.67 345.09 38.51 C 346.88 41.71 347.83 45.27 347.85 48.94 C 349.03 49.23 350.22 49.52 351.41 49.81 C 351.86 47.46 352.37 45.13 352.95 42.81 C 356.03 45.59 357.85 49.33 359.16 53.21 C 359.23 52.18 359.36 50.13 359.43 49.11 C 361.60 48.54 363.74 47.87 365.87 47.14 C 368.56 48.76 372.14 50.15 370.75 53.97 C 371.45 54.30 372.15 54.63 372.86 54.96 C 371.99 57.29 371.19 59.64 370.45 62.01 C 368.91 61.72 367.36 61.42 365.82 61.13 C 369.56 62.97 373.17 65.19 375.89 68.42 C 373.03 68.54 370.18 68.50 367.33 68.47 C 370.28 72.31 373.77 76.01 374.44 81.04 C 371.36 80.09 368.46 78.64 365.82 76.80 C 365.76 79.79 365.74 82.79 365.78 85.79 C 369.79 85.66 373.87 86.35 376.78 89.36 C 373.35 90.89 369.58 91.04 365.90 91.28 C 368.61 92.68 371.56 93.43 374.52 94.12 C 374.00 96.80 373.54 99.49 373.18 102.20 C 372.24 101.92 371.29 101.65 370.35 101.37 C 370.22 102.06 369.96 103.44 369.83 104.13 C 369.11 104.18 367.68 104.28 366.96 104.33 C 366.64 103.79 365.99 102.71 365.66 102.17 C 364.39 102.68 363.11 103.17 361.85 103.67 C 361.73 102.81 361.49 101.10 361.37 100.24 C 360.68 100.22 359.29 100.17 358.60 100.14 C 358.58 99.33 358.55 97.72 358.54 96.91 C 360.38 95.83 362.24 94.76 364.10 93.69 C 363.99 93.05 363.77 91.75 363.65 91.11 C 360.95 92.69 358.09 94.00 355.11 94.97 C 355.06 90.39 358.67 87.93 362.59 86.73 C 362.52 85.50 362.45 84.27 362.39 83.05 C 359.15 84.53 355.66 85.37 352.10 85.47 C 353.97 81.31 358.17 79.63 362.36 78.89 C 362.53 78.10 362.86 76.52 363.03 75.72 C 359.47 75.64 355.92 75.22 352.52 74.16 C 355.91 71.08 360.41 70.67 364.69 71.79 C 364.65 69.46 364.60 67.14 364.54 64.82 C 361.23 66.73 357.47 67.84 353.75 66.29 C 356.16 63.47 359.55 61.97 363.08 61.06 C 360.18 57.44 356.35 54.81 352.17 52.88 C 353.24 56.11 353.94 59.45 353.82 62.87 C 349.84 60.72 347.83 56.65 347.32 52.29 C 345.98 52.16 344.64 52.03 343.31 51.90 C 344.03 55.95 343.79 60.21 341.14 63.56 C 338.71 60.06 338.11 55.86 338.69 51.70 C 335.70 51.69 332.72 51.66 329.75 51.61 C 329.18 54.93 327.88 58.04 325.80 60.69 C 323.80 58.06 322.94 54.89 323.05 51.61 C 322.08 52.15 321.10 52.68 320.14 53.21 C 320.35 55.67 320.56 58.14 320.76 60.60 C 325.31 61.60 329.93 63.69 331.40 68.51 C 327.26 69.36 323.36 67.91 320.30 65.15 C 321.53 70.48 320.40 76.06 316.05 79.66 C 313.00 74.55 314.87 68.91 317.68 64.20 C 314.59 65.47 311.27 65.89 307.97 65.35 C 310.12 61.89 313.72 59.97 317.53 58.84 C 316.93 56.15 316.19 53.49 315.20 50.92 C 314.02 54.69 311.84 58.03 308.15 59.70 C 307.15 56.03 307.75 52.33 309.56 49.02 C 303.66 48.53 295.60 49.04 296.18 56.96 C 298.72 57.50 301.25 58.08 303.77 58.74 C 302.93 61.28 302.09 63.83 301.34 66.41 C 300.59 66.47 299.84 66.53 299.10 66.59 C 297.11 68.45 294.94 68.39 293.08 66.40 C 292.15 66.52 291.21 66.64 290.28 66.76 C 288.88 64.66 287.49 62.54 286.15 60.41 C 288.28 59.14 290.51 58.06 292.80 57.08 C 293.25 54.50 293.74 51.92 294.30 49.35 C 293.48 49.19 291.82 48.86 290.99 48.70 C 290.97 52.50 289.52 56.00 286.56 58.45 C 285.78 55.67 285.31 52.81 284.92 49.96 C 282.41 54.19 280.14 58.79 275.73 61.38 C 272.34 55.63 276.62 50.52 282.14 48.76 C 278.56 47.09 275.30 44.74 273.21 41.33 C 278.08 39.77 282.79 41.75 285.06 46.27 C 286.89 45.85 288.73 45.43 290.57 45.04 C 290.96 42.69 291.42 40.35 291.96 38.03 Z" />
<path fill="#2a2a2a" opacity="1.00" d=" M 254.38 47.30 C 254.39 44.70 258.18 45.97 257.83 48.06 C 258.40 55.78 258.04 63.55 257.78 71.27 C 256.59 71.27 255.40 71.27 254.22 71.27 C 254.07 63.30 253.35 55.22 254.38 47.30 Z" />
<path fill="#2a2a2a" opacity="1.00" d=" M 217.59 99.23 C 219.80 102.68 222.17 106.19 226.34 107.43 C 226.12 107.86 225.68 108.73 225.46 109.17 C 222.38 110.15 220.14 112.38 219.13 115.45 C 218.71 115.68 217.87 116.13 217.45 116.36 C 216.18 112.21 212.70 109.80 209.24 107.58 C 211.15 106.69 213.08 105.86 215.01 105.02 C 215.85 103.08 216.69 101.15 217.59 99.23 Z" />
<path fill="#2a2a2a" opacity="1.00" d=" M 287.17 107.26 C 291.20 106.16 293.48 102.75 295.44 99.35 C 296.91 103.04 299.30 106.25 303.34 107.26 C 303.25 107.71 303.07 108.62 302.98 109.07 C 299.53 109.98 297.11 112.41 296.17 115.83 C 295.72 115.89 294.81 116.01 294.36 116.07 C 293.32 112.61 291.00 109.93 287.40 109.05 C 287.34 108.60 287.23 107.71 287.17 107.26 Z" />
<path fill="#2a2a2a" opacity="1.00" d=" M 345.42 139.77 C 345.97 139.66 346.53 139.56 347.09 139.46 C 348.30 143.46 351.64 145.80 355.11 147.73 C 351.43 149.18 348.21 151.55 347.11 155.55 C 346.53 155.44 345.96 155.33 345.39 155.23 C 344.39 151.35 341.19 149.18 337.70 147.73 C 340.98 145.82 344.29 143.65 345.42 139.77 Z" />
<path fill="#2a2a2a" opacity="1.00" d=" M 236.97 150.01 C 242.50 146.53 249.26 149.20 254.18 152.51 C 259.08 149.29 265.66 146.61 271.22 149.85 C 275.34 151.96 275.95 158.37 272.05 161.03 C 266.56 165.13 259.30 162.41 254.20 159.01 C 249.19 162.35 242.25 164.96 236.71 161.31 C 232.66 158.82 232.82 152.33 236.97 150.01 M 236.75 156.09 C 240.93 160.59 247.37 158.99 251.67 155.61 C 247.18 152.58 240.24 150.48 236.75 156.09 M 256.63 155.85 C 260.43 158.46 269.69 161.75 270.65 155.00 C 267.20 150.11 260.55 153.27 256.63 155.85 Z" />
<path fill="#2a2a2a" opacity="1.00" d=" M 314.97 193.69 C 315.56 193.72 316.15 193.76 316.74 193.81 C 317.64 197.31 320.17 199.72 323.57 200.80 C 323.66 201.47 323.76 202.14 323.86 202.82 C 322.14 203.42 320.42 204.03 318.70 204.64 C 318.11 206.36 317.53 208.09 316.96 209.81 C 316.26 209.67 315.56 209.53 314.87 209.40 C 313.80 205.92 311.25 203.47 307.75 202.50 C 307.81 202.07 307.92 201.19 307.98 200.76 C 311.53 199.79 313.95 197.19 314.97 193.69 Z" />
<path fill="#2a2a2a" opacity="1.00" d=" M 243.21 195.42 C 246.17 195.10 249.14 194.89 252.13 194.77 C 252.46 200.44 244.16 200.64 243.21 195.42 Z" />
<path fill="#2a2a2a" opacity="1.00" d=" M 255.49 194.70 C 258.08 194.89 260.68 195.09 263.27 195.32 C 262.98 196.52 262.68 197.73 262.39 198.94 C 260.01 198.89 257.63 198.78 255.26 198.60 C 255.33 197.29 255.41 195.99 255.49 194.70 Z" />
<path fill="#2a2a2a" opacity="1.00" d=" M 251.34 200.79 C 252.77 200.78 254.21 200.78 255.66 200.79 C 255.68 202.05 255.70 203.31 255.72 204.58 C 254.24 204.59 252.77 204.60 251.31 204.60 C 251.31 203.33 251.32 202.06 251.34 200.79 Z" />
<path fill="#2a2a2a" opacity="1.00" d=" M 249.65 206.37 C 252.36 206.33 255.07 206.36 257.78 206.48 C 257.55 207.72 257.32 208.96 257.08 210.20 C 254.88 210.27 252.67 210.31 250.47 210.32 C 250.26 209.33 249.85 207.36 249.65 206.37 Z" />
<path fill="#2a2a2a" opacity="1.00" d=" M 157.08 225.87 C 157.50 226.06 158.34 226.46 158.77 226.66 C 159.69 230.19 162.39 232.40 165.81 233.42 C 165.67 234.00 165.54 234.58 165.41 235.16 C 161.93 236.21 159.53 238.79 158.53 242.27 C 158.09 242.20 157.22 242.08 156.78 242.02 C 155.81 238.60 153.41 236.13 149.98 235.17 C 149.89 234.73 149.70 233.85 149.61 233.40 C 153.44 232.42 155.93 229.55 157.08 225.87 Z" />
<path fill="#2a2a2a" opacity="1.00" d=" M 287.76 237.74 C 288.98 238.00 290.19 238.25 291.41 238.52 C 292.75 252.81 292.57 267.21 292.26 281.55 C 291.01 281.51 289.75 281.46 288.50 281.41 C 288.47 266.85 288.29 252.29 287.76 237.74 Z" />
<path fill="#2a2a2a" opacity="1.00" d=" M 348.89 252.18 C 349.97 250.17 351.06 248.17 352.27 246.23 C 353.81 249.94 356.17 253.27 360.29 254.29 C 360.18 254.74 359.95 255.66 359.84 256.12 C 356.45 257.03 354.07 259.44 353.14 262.80 C 352.68 262.88 351.75 263.03 351.29 263.11 C 350.25 259.38 347.59 256.77 343.83 255.82 C 344.08 255.14 344.34 254.47 344.61 253.79 C 346.03 253.25 347.46 252.72 348.89 252.18 Z" />
<path fill="#2a2a2a" opacity="1.00" d=" M 219.27 267.73 C 220.45 267.76 221.64 267.79 222.83 267.83 C 222.69 276.35 221.95 284.85 221.42 293.36 C 220.16 293.39 218.90 293.41 217.65 293.44 C 217.75 284.85 218.27 276.26 219.27 267.73 Z" />
<path fill="#2a2a2a" opacity="1.00" d=" M 300.82 277.60 C 301.76 277.66 303.63 277.77 304.57 277.82 C 303.87 282.05 303.20 286.29 302.63 290.55 C 301.50 290.61 300.37 290.68 299.24 290.75 C 298.90 286.30 299.57 281.87 300.82 277.60 Z" />
<path fill="#2a2a2a" opacity="1.00" d=" M 288.66 287.84 C 289.58 287.80 291.42 287.73 292.34 287.70 C 292.23 298.89 292.85 310.17 291.40 321.29 C 286.88 320.33 288.16 315.43 288.08 311.98 C 288.33 303.94 288.15 295.87 288.66 287.84 Z" />
<path fill="#2a2a2a" opacity="1.00" d=" M 173.55 290.16 C 174.09 290.27 174.63 290.38 175.18 290.50 C 176.26 294.00 178.86 296.43 182.36 297.45 C 182.30 297.89 182.16 298.77 182.09 299.21 C 178.63 300.17 176.22 302.66 175.23 306.09 C 174.79 306.14 173.91 306.24 173.47 306.29 C 172.45 302.73 170.00 300.08 166.37 299.12 C 166.43 298.50 166.50 297.89 166.57 297.28 C 170.22 296.37 172.48 293.65 173.55 290.16 Z" />
<path fill="#2a2a2a" opacity="1.00" d=" M 299.18 295.70 C 300.37 295.69 301.58 295.68 302.78 295.69 C 303.06 307.02 303.06 318.36 302.88 329.69 C 302.41 330.01 301.48 330.65 301.01 330.97 C 300.52 330.67 299.54 330.07 299.05 329.77 C 298.82 318.42 298.66 307.05 299.18 295.70 Z" />
<path fill="#2a2a2a" opacity="1.00" d=" M 311.67 296.26 C 312.90 296.22 314.13 296.19 315.37 296.16 C 314.73 308.13 314.29 320.11 314.28 332.11 C 312.70 332.19 309.97 332.16 310.37 329.86 C 310.22 318.66 310.36 307.40 311.67 296.26 Z" />
<path fill="#2a2a2a" opacity="1.00" d=" M 234.77 370.37 C 237.11 367.62 240.09 365.58 243.17 363.76 C 245.30 366.19 247.32 368.71 249.31 371.26 C 266.85 371.85 284.38 372.55 301.90 373.68 C 304.82 374.01 308.66 374.08 310.10 377.18 C 311.48 380.38 308.51 384.13 305.10 383.76 C 282.53 384.20 259.94 384.29 237.36 384.53 C 235.21 386.79 233.05 389.04 230.87 391.28 C 228.35 390.02 225.85 388.71 223.38 387.37 C 223.57 386.37 223.95 384.36 224.14 383.36 C 217.41 383.24 210.73 384.90 204.02 384.31 C 195.83 382.99 197.81 368.37 205.93 368.69 C 215.56 368.84 225.14 370.08 234.77 370.37 M 241.41 368.31 C 241.62 370.42 241.87 372.52 242.12 374.63 C 230.03 374.77 218.02 372.96 205.95 372.77 C 202.29 373.06 203.39 377.81 202.95 380.30 C 212.10 380.57 221.21 378.60 230.36 379.70 C 229.84 382.10 229.28 384.49 228.76 386.90 C 231.61 384.92 233.64 381.38 237.16 380.58 C 260.53 379.77 284.01 380.80 307.34 379.15 C 287.85 375.19 267.54 377.03 247.81 374.98 C 245.14 373.38 243.55 370.51 241.41 368.31 Z" />
<path fill="#2a2a2a" opacity="1.00" d=" M 149.67 367.20 C 160.99 366.33 172.37 366.87 183.71 366.87 C 184.99 377.45 185.71 391.57 174.58 397.26 C 171.36 404.14 171.31 411.52 172.53 418.90 C 175.82 418.97 179.11 419.07 182.39 419.25 C 182.40 421.12 182.38 423.00 182.34 424.89 C 171.99 425.44 161.61 425.11 151.25 425.10 C 148.97 418.13 156.32 418.52 161.07 418.88 C 161.19 412.66 163.92 405.46 159.19 400.26 C 159.36 399.34 159.55 398.43 159.73 397.53 C 147.98 392.35 148.71 377.91 149.67 367.20 M 153.51 370.84 C 153.49 371.66 153.46 373.28 153.44 374.10 C 162.36 374.12 171.27 374.11 180.18 374.11 C 180.16 373.29 180.11 371.65 180.09 370.83 C 171.23 370.83 162.37 370.81 153.51 370.84 M 153.11 378.17 C 153.71 383.15 154.16 389.18 158.80 392.21 C 163.44 394.90 169.63 394.90 174.37 392.47 C 179.37 389.58 179.87 383.27 180.50 378.15 C 171.37 378.16 162.24 378.12 153.11 378.17 M 163.02 398.35 C 163.85 399.78 164.70 401.21 165.56 402.64 C 167.71 401.76 169.50 400.30 170.94 398.49 C 168.30 398.32 165.66 398.28 163.02 398.35 M 165.17 418.92 C 165.99 418.95 167.63 419.02 168.45 419.05 C 168.12 414.32 167.82 409.57 166.92 404.90 C 165.63 409.46 165.50 414.22 165.17 418.92 Z" />
<path fill="#2a2a2a" opacity="1.00" d=" M 336.41 373.52 C 353.06 367.18 371.66 384.61 366.44 401.63 C 362.95 418.30 339.91 425.25 327.87 413.14 C 314.58 402.10 319.77 378.13 336.41 373.52 M 325.37 388.54 C 329.68 388.59 333.98 388.58 338.29 388.57 C 339.64 384.43 340.99 380.29 342.31 376.15 C 334.95 377.26 328.67 381.89 325.37 388.54 M 345.37 376.16 C 346.64 380.32 348.00 384.45 349.36 388.58 C 353.58 388.59 357.81 388.59 362.04 388.51 C 358.68 382.04 352.62 377.35 345.37 376.16 M 343.58 384.91 C 343.31 386.14 343.04 387.38 342.78 388.63 C 343.38 388.60 344.59 388.54 345.20 388.51 C 344.66 387.30 344.12 386.10 343.58 384.91 M 324.40 391.57 C 323.45 398.69 325.82 405.82 330.98 410.82 C 332.33 406.95 333.60 403.05 334.84 399.15 C 331.39 396.58 327.93 394.03 324.40 391.57 M 332.76 392.71 C 333.90 393.48 335.06 394.26 336.21 395.05 C 336.44 394.22 336.67 393.40 336.91 392.58 C 335.52 392.61 334.14 392.66 332.76 392.71 M 351.08 392.60 C 351.07 393.14 351.04 394.23 351.03 394.78 C 351.62 394.60 352.79 394.26 353.37 394.08 C 353.52 393.71 353.80 392.95 353.95 392.57 C 353.23 392.57 351.80 392.59 351.08 392.60 M 341.23 392.68 C 340.69 394.31 340.16 395.94 339.62 397.57 C 341.05 398.59 342.48 399.61 343.91 400.64 C 345.26 399.59 346.61 398.55 347.97 397.50 C 347.42 395.86 346.86 394.21 346.31 392.58 C 344.61 392.61 342.92 392.64 341.23 392.68 M 352.76 399.10 C 354.01 402.97 355.27 406.84 356.63 410.67 C 361.53 405.67 363.77 398.80 363.13 391.85 C 359.58 394.14 356.17 396.62 352.76 399.10 M 338.33 401.88 C 336.58 402.31 336.88 405.60 338.91 404.83 C 340.75 404.44 340.33 401.17 338.33 401.88 M 348.17 402.33 C 346.71 407.27 353.36 401.94 348.17 402.33 M 333.94 412.96 C 340.18 415.89 347.34 415.82 353.57 412.91 C 350.40 410.37 347.11 408.00 343.83 405.62 C 340.49 408.01 337.17 410.42 333.94 412.96 Z" />
<path fill="#2a2a2a" opacity="1.00" d=" M 224.07 406.13 C 224.99 400.55 228.40 395.33 234.35 394.37 C 234.24 398.32 233.73 402.24 233.30 406.17 C 254.55 406.17 275.81 406.21 297.06 406.14 C 302.57 405.86 307.57 408.72 311.80 411.97 C 307.41 414.89 302.55 417.87 297.07 417.58 C 275.82 417.50 254.56 417.55 233.31 417.54 C 233.79 421.45 234.30 425.38 234.39 429.33 C 228.01 428.99 224.97 423.13 224.06 417.54 C 218.33 417.69 211.66 416.09 207.37 421.00 C 199.83 417.60 199.82 406.10 207.29 402.64 C 211.50 407.69 218.33 406.02 224.07 406.13 M 233.23 410.22 C 233.20 411.03 233.13 412.65 233.10 413.46 C 252.07 413.49 271.03 413.43 290.00 413.49 C 294.70 413.41 299.82 414.26 303.97 411.48 C 301.39 410.74 298.75 410.20 296.05 410.23 C 275.11 410.25 254.17 410.28 233.23 410.22 Z" />
<path fill="#2a2a2a" opacity="1.00" d=" M 132.42 454.43 C 138.36 454.09 144.32 454.12 150.26 454.40 C 150.32 455.70 150.37 457.02 150.42 458.34 C 148.13 458.52 145.84 458.66 143.55 458.80 C 143.55 464.28 143.64 469.78 143.29 475.26 C 141.97 475.28 140.65 475.30 139.33 475.32 C 138.97 469.81 139.04 464.29 139.06 458.78 C 136.82 458.66 134.57 458.54 132.33 458.39 C 132.35 457.06 132.38 455.74 132.42 454.43 Z" />
<path fill="#2a2a2a" opacity="1.00" d=" M 154.90 454.55 C 156.30 454.52 157.71 454.51 159.11 454.51 C 159.21 457.20 159.29 459.91 159.35 462.61 C 162.45 462.59 165.54 462.59 168.64 462.60 C 168.72 458.89 167.87 453.71 173.09 454.05 C 173.41 461.09 173.37 468.14 173.15 475.19 C 171.81 475.21 170.47 475.24 169.14 475.27 C 168.93 472.55 168.78 469.82 168.67 467.10 C 165.56 467.12 162.45 467.12 159.34 467.09 C 159.29 469.79 159.22 472.49 159.12 475.19 C 157.75 475.21 156.39 475.23 155.02 475.25 C 154.62 468.36 154.72 461.45 154.90 454.55 Z" />
<path fill="#2a2a2a" opacity="1.00" d=" M 179.44 454.43 C 185.43 454.09 191.43 454.10 197.42 454.42 C 197.42 455.77 197.42 457.13 197.41 458.49 C 192.83 458.69 188.24 458.68 183.65 458.71 C 183.65 460.00 183.65 461.29 183.65 462.59 C 187.14 462.58 190.63 462.59 194.12 462.65 C 194.49 463.90 194.87 465.14 195.25 466.40 C 191.42 467.05 187.53 467.20 183.65 467.19 C 183.65 468.44 183.65 469.69 183.66 470.94 C 188.23 470.97 192.80 471.02 197.37 471.24 C 197.39 472.59 197.41 473.95 197.43 475.32 C 191.45 475.60 185.46 475.58 179.48 475.35 C 179.05 468.38 179.08 461.40 179.44 454.43 Z" />
<path fill="#2a2a2a" opacity="1.00" d=" M 215.68 454.61 C 216.67 454.48 217.67 454.36 218.67 454.25 C 221.17 456.72 223.67 459.19 226.15 461.68 C 228.72 459.13 231.29 456.58 233.91 454.08 C 234.82 454.31 235.74 454.54 236.66 454.78 C 236.90 461.58 236.92 468.39 236.62 475.19 C 235.29 475.25 233.96 475.31 232.63 475.37 C 232.32 470.93 232.33 466.49 232.34 462.05 C 230.29 463.65 228.68 466.32 226.08 466.95 C 223.59 466.12 221.99 463.70 220.05 462.02 C 220.09 466.43 220.00 470.85 219.72 475.26 C 218.38 475.26 217.05 475.27 215.73 475.28 C 215.39 468.39 215.44 461.49 215.68 454.61 Z" />
<path fill="#2a2a2a" opacity="1.00" d=" M 251.16 453.27 C 256.13 457.99 258.10 464.82 261.33 470.70 C 262.93 472.73 261.39 474.70 260.25 476.50 C 258.89 474.79 257.57 473.07 256.31 471.30 C 253.25 471.28 250.19 471.28 247.13 471.24 C 246.14 472.69 245.16 474.14 244.17 475.59 C 243.29 475.41 241.53 475.05 240.65 474.87 C 243.24 467.27 247.19 460.22 251.16 453.27 M 248.97 466.77 C 250.77 466.77 252.57 466.77 254.37 466.78 C 253.50 465.02 252.63 463.26 251.76 461.51 C 250.82 463.26 249.89 465.01 248.97 466.77 Z" />
<path fill="#2a2a2a" opacity="1.00" d=" M 267.96 457.95 C 272.42 452.27 281.58 453.42 285.35 459.31 C 281.35 463.06 276.79 456.53 272.69 459.68 C 268.34 462.23 269.47 469.54 274.34 470.74 C 277.51 471.89 280.13 469.26 282.50 467.61 C 279.74 467.25 276.98 466.98 274.23 466.69 C 274.20 465.37 274.18 464.06 274.17 462.75 C 278.34 462.56 282.52 462.56 286.69 462.73 C 287.74 469.50 282.08 476.45 274.99 475.45 C 266.75 475.03 262.31 463.95 267.96 457.95 Z" />
<path fill="#2a2a2a" opacity="1.00" d=" M 291.71 454.44 C 293.04 454.45 294.37 454.47 295.70 454.49 C 296.21 461.41 296.18 468.36 295.72 475.28 C 294.39 475.27 293.06 475.26 291.73 475.26 C 291.40 468.32 291.42 461.38 291.71 454.44 Z" />
<path fill="#2a2a2a" opacity="1.00" d=" M 300.80 465.01 C 300.15 454.75 314.61 450.38 320.30 458.65 C 319.55 459.53 318.79 460.42 318.05 461.32 C 313.78 457.60 305.18 457.91 305.31 465.00 C 305.51 472.00 313.93 471.83 318.15 468.36 C 318.84 469.35 319.53 470.35 320.23 471.35 C 314.28 479.00 300.57 475.02 300.80 465.01 Z" />
<path fill="#2a2a2a" opacity="1.00" d=" M 324.41 454.41 C 325.74 454.43 327.06 454.47 328.40 454.51 C 328.66 461.42 328.74 468.36 328.30 475.27 C 326.99 475.28 325.67 475.30 324.37 475.31 C 324.04 468.35 323.98 461.37 324.41 454.41 Z" />
<path fill="#2a2a2a" opacity="1.00" d=" M 332.54 475.00 C 335.24 467.31 338.39 459.34 343.93 453.24 C 347.95 460.20 352.03 467.28 354.42 474.99 C 353.52 475.12 351.73 475.39 350.83 475.52 C 349.96 474.11 349.11 472.69 348.26 471.29 C 345.05 471.28 341.84 471.28 338.64 471.27 C 337.82 472.67 337.00 474.08 336.18 475.49 C 335.27 475.37 333.45 475.12 332.54 475.00 M 343.40 461.53 C 342.53 463.28 341.67 465.03 340.81 466.79 C 342.60 466.78 344.39 466.77 346.19 466.77 C 345.26 465.02 344.33 463.27 343.40 461.53 Z" />
<path fill="#2a2a2a" opacity="1.00" d=" M 358.58 454.48 C 359.60 454.42 360.63 454.36 361.66 454.31 C 365.26 458.48 368.75 462.72 372.29 466.94 C 372.35 462.78 372.36 458.62 372.56 454.47 C 373.89 454.45 375.22 454.44 376.56 454.45 C 376.91 461.61 377.08 468.81 376.37 475.96 C 370.11 473.78 367.36 467.16 362.87 462.78 C 362.79 466.92 362.78 471.06 362.60 475.20 C 361.27 475.25 359.94 475.30 358.61 475.36 C 358.18 468.41 358.22 461.43 358.58 454.48 Z" />
</g>
</svg>
